<svg xmlns="http://www.w3.org/2000/svg" xmlns:xlink="http://www.w3.org/1999/xlink" width="500" zoomAndPan="magnify" viewBox="0 0 375 374.999991" height="500" preserveAspectRatio="xMidYMid meet" version="1.0"><defs><clipPath id="11e51b2637"><path d="M 129 164 L 141 164 L 141 176 L 129 176 Z M 129 164 " clip-rule="nonzero"/></clipPath><clipPath id="023301f7c0"><path d="M 0.191406 186.449219 L 186.570312 0.0703125 L 374.402344 187.902344 L 188.023438 374.285156 Z M 0.191406 186.449219 " clip-rule="nonzero"/></clipPath><clipPath id="982121900f"><path d="M 144 144 L 162 144 L 162 162 L 144 162 Z M 144 144 " clip-rule="nonzero"/></clipPath><clipPath id="417100a643"><path d="M 0.191406 186.449219 L 186.570312 0.0703125 L 374.402344 187.902344 L 188.023438 374.285156 Z M 0.191406 186.449219 " clip-rule="nonzero"/></clipPath><clipPath id="c522484a7b"><path d="M 164 129 L 176 129 L 176 141 L 164 141 Z M 164 129 " clip-rule="nonzero"/></clipPath><clipPath id="930894fd5c"><path d="M 0.191406 186.449219 L 186.570312 0.0703125 L 374.402344 187.902344 L 188.023438 374.285156 Z M 0.191406 186.449219 " clip-rule="nonzero"/></clipPath><clipPath id="66c587d429"><path d="M 129 199 L 141 199 L 141 211 L 129 211 Z M 129 199 " clip-rule="nonzero"/></clipPath><clipPath id="4aa9793e4f"><path d="M 0.191406 186.449219 L 186.570312 0.0703125 L 374.402344 187.902344 L 188.023438 374.285156 Z M 0.191406 186.449219 " clip-rule="nonzero"/></clipPath><clipPath id="5783e0b214"><path d="M 144 179 L 162 179 L 162 196 L 144 196 Z M 144 179 " clip-rule="nonzero"/></clipPath><clipPath id="356dba2e19"><path d="M 0.191406 186.449219 L 186.570312 0.0703125 L 374.402344 187.902344 L 188.023438 374.285156 Z M 0.191406 186.449219 " clip-rule="nonzero"/></clipPath><clipPath id="42d0d9a609"><path d="M 161 161 L 179 161 L 179 179 L 161 179 Z M 161 161 " clip-rule="nonzero"/></clipPath><clipPath id="5aa6937331"><path d="M 0.191406 186.449219 L 186.570312 0.0703125 L 374.402344 187.902344 L 188.023438 374.285156 Z M 0.191406 186.449219 " clip-rule="nonzero"/></clipPath><clipPath id="56edfe1353"><path d="M 179 144 L 197 144 L 197 162 L 179 162 Z M 179 144 " clip-rule="nonzero"/></clipPath><clipPath id="b56c30767d"><path d="M 0.191406 186.449219 L 186.570312 0.0703125 L 374.402344 187.902344 L 188.023438 374.285156 Z M 0.191406 186.449219 " clip-rule="nonzero"/></clipPath><clipPath id="052fddad3a"><path d="M 199 129 L 211 129 L 211 141 L 199 141 Z M 199 129 " clip-rule="nonzero"/></clipPath><clipPath id="79db077213"><path d="M 0.191406 186.449219 L 186.570312 0.0703125 L 374.402344 187.902344 L 188.023438 374.285156 Z M 0.191406 186.449219 " clip-rule="nonzero"/></clipPath><clipPath id="5d6224b24b"><path d="M 144 213 L 162 213 L 162 231 L 144 231 Z M 144 213 " clip-rule="nonzero"/></clipPath><clipPath id="4d895c39de"><path d="M 0.191406 186.449219 L 186.570312 0.0703125 L 374.402344 187.902344 L 188.023438 374.285156 Z M 0.191406 186.449219 " clip-rule="nonzero"/></clipPath><clipPath id="86dd080d81"><path d="M 161 196 L 179 196 L 179 214 L 161 214 Z M 161 196 " clip-rule="nonzero"/></clipPath><clipPath id="7124959925"><path d="M 0.191406 186.449219 L 186.570312 0.0703125 L 374.402344 187.902344 L 188.023438 374.285156 Z M 0.191406 186.449219 " clip-rule="nonzero"/></clipPath><clipPath id="f358df4653"><path d="M 176 176 L 199 176 L 199 199 L 176 199 Z M 176 176 " clip-rule="nonzero"/></clipPath><clipPath id="82bb4257e2"><path d="M 0.191406 186.449219 L 186.570312 0.0703125 L 374.402344 187.902344 L 188.023438 374.285156 Z M 0.191406 186.449219 " clip-rule="nonzero"/></clipPath><clipPath id="ab0290d36e"><path d="M 196 161 L 214 161 L 214 179 L 196 179 Z M 196 161 " clip-rule="nonzero"/></clipPath><clipPath id="7c5eb2e94e"><path d="M 0.191406 186.449219 L 186.570312 0.0703125 L 374.402344 187.902344 L 188.023438 374.285156 Z M 0.191406 186.449219 " clip-rule="nonzero"/></clipPath><clipPath id="28a8109325"><path d="M 214 144 L 231 144 L 231 162 L 214 162 Z M 214 144 " clip-rule="nonzero"/></clipPath><clipPath id="b3dfaab3e4"><path d="M 0.191406 186.449219 L 186.570312 0.0703125 L 374.402344 187.902344 L 188.023438 374.285156 Z M 0.191406 186.449219 " clip-rule="nonzero"/></clipPath><clipPath id="bbba11d9f9"><path d="M 164 234 L 176 234 L 176 246 L 164 246 Z M 164 234 " clip-rule="nonzero"/></clipPath><clipPath id="da1818f7e1"><path d="M 0.191406 186.449219 L 186.570312 0.0703125 L 374.402344 187.902344 L 188.023438 374.285156 Z M 0.191406 186.449219 " clip-rule="nonzero"/></clipPath><clipPath id="0b857f4ae8"><path d="M 179 213 L 197 213 L 197 231 L 179 231 Z M 179 213 " clip-rule="nonzero"/></clipPath><clipPath id="e93a7cf2ce"><path d="M 0.191406 186.449219 L 186.570312 0.0703125 L 374.402344 187.902344 L 188.023438 374.285156 Z M 0.191406 186.449219 " clip-rule="nonzero"/></clipPath><clipPath id="323345a651"><path d="M 196 196 L 214 196 L 214 214 L 196 214 Z M 196 196 " clip-rule="nonzero"/></clipPath><clipPath id="4a1eea559b"><path d="M 0.191406 186.449219 L 186.570312 0.0703125 L 374.402344 187.902344 L 188.023438 374.285156 Z M 0.191406 186.449219 " clip-rule="nonzero"/></clipPath><clipPath id="97286c9d8b"><path d="M 214 179 L 231 179 L 231 196 L 214 196 Z M 214 179 " clip-rule="nonzero"/></clipPath><clipPath id="456da521bc"><path d="M 0.191406 186.449219 L 186.570312 0.0703125 L 374.402344 187.902344 L 188.023438 374.285156 Z M 0.191406 186.449219 " clip-rule="nonzero"/></clipPath><clipPath id="e319dcd283"><path d="M 234 164 L 246 164 L 246 176 L 234 176 Z M 234 164 " clip-rule="nonzero"/></clipPath><clipPath id="aefd893af9"><path d="M 0.191406 186.449219 L 186.570312 0.0703125 L 374.402344 187.902344 L 188.023438 374.285156 Z M 0.191406 186.449219 " clip-rule="nonzero"/></clipPath><clipPath id="6d1143aefa"><path d="M 199 234 L 211 234 L 211 246 L 199 246 Z M 199 234 " clip-rule="nonzero"/></clipPath><clipPath id="683bbd2660"><path d="M 0.191406 186.449219 L 186.570312 0.0703125 L 374.402344 187.902344 L 188.023438 374.285156 Z M 0.191406 186.449219 " clip-rule="nonzero"/></clipPath><clipPath id="ca8ee647c7"><path d="M 214 213 L 231 213 L 231 231 L 214 231 Z M 214 213 " clip-rule="nonzero"/></clipPath><clipPath id="4eb1533935"><path d="M 0.191406 186.449219 L 186.570312 0.0703125 L 374.402344 187.902344 L 188.023438 374.285156 Z M 0.191406 186.449219 " clip-rule="nonzero"/></clipPath><clipPath id="aa21286ac5"><path d="M 234 199 L 246 199 L 246 211 L 234 211 Z M 234 199 " clip-rule="nonzero"/></clipPath><clipPath id="8e7ee8fef8"><path d="M 0.191406 186.449219 L 186.570312 0.0703125 L 374.402344 187.902344 L 188.023438 374.285156 Z M 0.191406 186.449219 " clip-rule="nonzero"/></clipPath><clipPath id="654759052c"><path d="M 4 175 L 28 175 L 28 198 L 4 198 Z M 4 175 " clip-rule="nonzero"/></clipPath><clipPath id="66f039990a"><path d="M 0.191406 186.449219 L 186.570312 0.0703125 L 374.402344 187.902344 L 188.023438 374.285156 Z M 0.191406 186.449219 " clip-rule="nonzero"/></clipPath><clipPath id="c750989a34"><path d="M 22 157 L 45 157 L 45 181 L 22 181 Z M 22 157 " clip-rule="nonzero"/></clipPath><clipPath id="c7408788d8"><path d="M 0.191406 186.449219 L 186.570312 0.0703125 L 374.402344 187.902344 L 188.023438 374.285156 Z M 0.191406 186.449219 " clip-rule="nonzero"/></clipPath><clipPath id="01fc65836c"><path d="M 42 143 L 60 143 L 60 161 L 42 161 Z M 42 143 " clip-rule="nonzero"/></clipPath><clipPath id="26916caba5"><path d="M 0.191406 186.449219 L 186.570312 0.0703125 L 374.402344 187.902344 L 188.023438 374.285156 Z M 0.191406 186.449219 " clip-rule="nonzero"/></clipPath><clipPath id="c360811d2c"><path d="M 59 125 L 77 125 L 77 143 L 59 143 Z M 59 125 " clip-rule="nonzero"/></clipPath><clipPath id="7618bea70f"><path d="M 0.191406 186.449219 L 186.570312 0.0703125 L 374.402344 187.902344 L 188.023438 374.285156 Z M 0.191406 186.449219 " clip-rule="nonzero"/></clipPath><clipPath id="84bfa5f85b"><path d="M 22 192 L 45 192 L 45 216 L 22 216 Z M 22 192 " clip-rule="nonzero"/></clipPath><clipPath id="97d5a2bb00"><path d="M 0.191406 186.449219 L 186.570312 0.0703125 L 374.402344 187.902344 L 188.023438 374.285156 Z M 0.191406 186.449219 " clip-rule="nonzero"/></clipPath><clipPath id="f882aae9bc"><path d="M 42 178 L 60 178 L 60 195 L 42 195 Z M 42 178 " clip-rule="nonzero"/></clipPath><clipPath id="bc53e187ea"><path d="M 0.191406 186.449219 L 186.570312 0.0703125 L 374.402344 187.902344 L 188.023438 374.285156 Z M 0.191406 186.449219 " clip-rule="nonzero"/></clipPath><clipPath id="f2ed18396a"><path d="M 59 160 L 77 160 L 77 178 L 59 178 Z M 59 160 " clip-rule="nonzero"/></clipPath><clipPath id="556125a4a5"><path d="M 0.191406 186.449219 L 186.570312 0.0703125 L 374.402344 187.902344 L 188.023438 374.285156 Z M 0.191406 186.449219 " clip-rule="nonzero"/></clipPath><clipPath id="8ffa49cc29"><path d="M 80 145 L 92 145 L 92 158 L 80 158 Z M 80 145 " clip-rule="nonzero"/></clipPath><clipPath id="bf41596102"><path d="M 0.191406 186.449219 L 186.570312 0.0703125 L 374.402344 187.902344 L 188.023438 374.285156 Z M 0.191406 186.449219 " clip-rule="nonzero"/></clipPath><clipPath id="8f2d060684"><path d="M 42 212 L 60 212 L 60 230 L 42 230 Z M 42 212 " clip-rule="nonzero"/></clipPath><clipPath id="b41348deb0"><path d="M 0.191406 186.449219 L 186.570312 0.0703125 L 374.402344 187.902344 L 188.023438 374.285156 Z M 0.191406 186.449219 " clip-rule="nonzero"/></clipPath><clipPath id="5c70ebf48c"><path d="M 62 198 L 75 198 L 75 210 L 62 210 Z M 62 198 " clip-rule="nonzero"/></clipPath><clipPath id="bdfba25755"><path d="M 0.191406 186.449219 L 186.570312 0.0703125 L 374.402344 187.902344 L 188.023438 374.285156 Z M 0.191406 186.449219 " clip-rule="nonzero"/></clipPath><clipPath id="f5c915b163"><path d="M 59 230 L 77 230 L 77 248 L 59 248 Z M 59 230 " clip-rule="nonzero"/></clipPath><clipPath id="c6ac4d69b8"><path d="M 0.191406 186.449219 L 186.570312 0.0703125 L 374.402344 187.902344 L 188.023438 374.285156 Z M 0.191406 186.449219 " clip-rule="nonzero"/></clipPath><clipPath id="6390511693"><path d="M 80 215 L 92 215 L 92 227 L 80 227 Z M 80 215 " clip-rule="nonzero"/></clipPath><clipPath id="7de2bfad63"><path d="M 0.191406 186.449219 L 186.570312 0.0703125 L 374.402344 187.902344 L 188.023438 374.285156 Z M 0.191406 186.449219 " clip-rule="nonzero"/></clipPath><clipPath id="eced2de8fc"><path d="M 175 4 L 198 4 L 198 28 L 175 28 Z M 175 4 " clip-rule="nonzero"/></clipPath><clipPath id="ec9acb4a0a"><path d="M 0.191406 186.449219 L 186.570312 0.0703125 L 374.402344 187.902344 L 188.023438 374.285156 Z M 0.191406 186.449219 " clip-rule="nonzero"/></clipPath><clipPath id="82b06f3e5f"><path d="M 192 22 L 216 22 L 216 45 L 192 45 Z M 192 22 " clip-rule="nonzero"/></clipPath><clipPath id="2345f629fb"><path d="M 0.191406 186.449219 L 186.570312 0.0703125 L 374.402344 187.902344 L 188.023438 374.285156 Z M 0.191406 186.449219 " clip-rule="nonzero"/></clipPath><clipPath id="5a68e6f187"><path d="M 213 42 L 230 42 L 230 60 L 213 60 Z M 213 42 " clip-rule="nonzero"/></clipPath><clipPath id="4d9e17a5f4"><path d="M 0.191406 186.449219 L 186.570312 0.0703125 L 374.402344 187.902344 L 188.023438 374.285156 Z M 0.191406 186.449219 " clip-rule="nonzero"/></clipPath><clipPath id="b3c80176e8"><path d="M 230 59 L 248 59 L 248 77 L 230 77 Z M 230 59 " clip-rule="nonzero"/></clipPath><clipPath id="4048d9233b"><path d="M 0.191406 186.449219 L 186.570312 0.0703125 L 374.402344 187.902344 L 188.023438 374.285156 Z M 0.191406 186.449219 " clip-rule="nonzero"/></clipPath><clipPath id="2a0afa15e9"><path d="M 157 22 L 181 22 L 181 45 L 157 45 Z M 157 22 " clip-rule="nonzero"/></clipPath><clipPath id="8c76ccc0f2"><path d="M 0.191406 186.449219 L 186.570312 0.0703125 L 374.402344 187.902344 L 188.023438 374.285156 Z M 0.191406 186.449219 " clip-rule="nonzero"/></clipPath><clipPath id="5b9334ab73"><path d="M 178 42 L 196 42 L 196 60 L 178 60 Z M 178 42 " clip-rule="nonzero"/></clipPath><clipPath id="24b1ef087f"><path d="M 0.191406 186.449219 L 186.570312 0.0703125 L 374.402344 187.902344 L 188.023438 374.285156 Z M 0.191406 186.449219 " clip-rule="nonzero"/></clipPath><clipPath id="1fac5ebb5e"><path d="M 198 62 L 210 62 L 210 74 L 198 74 Z M 198 62 " clip-rule="nonzero"/></clipPath><clipPath id="34b18f4be9"><path d="M 0.191406 186.449219 L 186.570312 0.0703125 L 374.402344 187.902344 L 188.023438 374.285156 Z M 0.191406 186.449219 " clip-rule="nonzero"/></clipPath><clipPath id="87194d8457"><path d="M 215 80 L 228 80 L 228 92 L 215 92 Z M 215 80 " clip-rule="nonzero"/></clipPath><clipPath id="f00102e49d"><path d="M 0.191406 186.449219 L 186.570312 0.0703125 L 374.402344 187.902344 L 188.023438 374.285156 Z M 0.191406 186.449219 " clip-rule="nonzero"/></clipPath><clipPath id="472b05cd69"><path d="M 143 42 L 161 42 L 161 60 L 143 60 Z M 143 42 " clip-rule="nonzero"/></clipPath><clipPath id="37593438fe"><path d="M 0.191406 186.449219 L 186.570312 0.0703125 L 374.402344 187.902344 L 188.023438 374.285156 Z M 0.191406 186.449219 " clip-rule="nonzero"/></clipPath><clipPath id="545c66b698"><path d="M 160 59 L 178 59 L 178 77 L 160 77 Z M 160 59 " clip-rule="nonzero"/></clipPath><clipPath id="fdc3469c2c"><path d="M 0.191406 186.449219 L 186.570312 0.0703125 L 374.402344 187.902344 L 188.023438 374.285156 Z M 0.191406 186.449219 " clip-rule="nonzero"/></clipPath><clipPath id="a7b82241d2"><path d="M 125 59 L 143 59 L 143 77 L 125 77 Z M 125 59 " clip-rule="nonzero"/></clipPath><clipPath id="a2cac51511"><path d="M 0.191406 186.449219 L 186.570312 0.0703125 L 374.402344 187.902344 L 188.023438 374.285156 Z M 0.191406 186.449219 " clip-rule="nonzero"/></clipPath><clipPath id="554dc85d10"><path d="M 146 80 L 158 80 L 158 92 L 146 92 Z M 146 80 " clip-rule="nonzero"/></clipPath><clipPath id="f47625d473"><path d="M 0.191406 186.449219 L 186.570312 0.0703125 L 374.402344 187.902344 L 188.023438 374.285156 Z M 0.191406 186.449219 " clip-rule="nonzero"/></clipPath><clipPath id="c205b41741"><path d="M 347 176 L 370 176 L 370 200 L 347 200 Z M 347 176 " clip-rule="nonzero"/></clipPath><clipPath id="440dc22c6e"><path d="M 0.191406 186.449219 L 186.570312 0.0703125 L 374.402344 187.902344 L 188.023438 374.285156 Z M 0.191406 186.449219 " clip-rule="nonzero"/></clipPath><clipPath id="393cbd2ab6"><path d="M 329 194 L 353 194 L 353 217 L 329 217 Z M 329 194 " clip-rule="nonzero"/></clipPath><clipPath id="4d4b2e8012"><path d="M 0.191406 186.449219 L 186.570312 0.0703125 L 374.402344 187.902344 L 188.023438 374.285156 Z M 0.191406 186.449219 " clip-rule="nonzero"/></clipPath><clipPath id="7328bf88aa"><path d="M 315 214 L 333 214 L 333 232 L 315 232 Z M 315 214 " clip-rule="nonzero"/></clipPath><clipPath id="02d9471142"><path d="M 0.191406 186.449219 L 186.570312 0.0703125 L 374.402344 187.902344 L 188.023438 374.285156 Z M 0.191406 186.449219 " clip-rule="nonzero"/></clipPath><clipPath id="7e584e750f"><path d="M 297 231 L 315 231 L 315 249 L 297 249 Z M 297 231 " clip-rule="nonzero"/></clipPath><clipPath id="6004d95000"><path d="M 0.191406 186.449219 L 186.570312 0.0703125 L 374.402344 187.902344 L 188.023438 374.285156 Z M 0.191406 186.449219 " clip-rule="nonzero"/></clipPath><clipPath id="a515e2c760"><path d="M 329 159 L 353 159 L 353 182 L 329 182 Z M 329 159 " clip-rule="nonzero"/></clipPath><clipPath id="11d77ffd68"><path d="M 0.191406 186.449219 L 186.570312 0.0703125 L 374.402344 187.902344 L 188.023438 374.285156 Z M 0.191406 186.449219 " clip-rule="nonzero"/></clipPath><clipPath id="b0c5fa6338"><path d="M 315 179 L 333 179 L 333 197 L 315 197 Z M 315 179 " clip-rule="nonzero"/></clipPath><clipPath id="5654b26175"><path d="M 0.191406 186.449219 L 186.570312 0.0703125 L 374.402344 187.902344 L 188.023438 374.285156 Z M 0.191406 186.449219 " clip-rule="nonzero"/></clipPath><clipPath id="08a5fa688a"><path d="M 297 196 L 315 196 L 315 214 L 297 214 Z M 297 196 " clip-rule="nonzero"/></clipPath><clipPath id="8a470ced11"><path d="M 0.191406 186.449219 L 186.570312 0.0703125 L 374.402344 187.902344 L 188.023438 374.285156 Z M 0.191406 186.449219 " clip-rule="nonzero"/></clipPath><clipPath id="c295f90702"><path d="M 283 217 L 295 217 L 295 229 L 283 229 Z M 283 217 " clip-rule="nonzero"/></clipPath><clipPath id="e0319fd896"><path d="M 0.191406 186.449219 L 186.570312 0.0703125 L 374.402344 187.902344 L 188.023438 374.285156 Z M 0.191406 186.449219 " clip-rule="nonzero"/></clipPath><clipPath id="7a4feae07f"><path d="M 315 144 L 333 144 L 333 162 L 315 162 Z M 315 144 " clip-rule="nonzero"/></clipPath><clipPath id="fb85e79ee4"><path d="M 0.191406 186.449219 L 186.570312 0.0703125 L 374.402344 187.902344 L 188.023438 374.285156 Z M 0.191406 186.449219 " clip-rule="nonzero"/></clipPath><clipPath id="2cf1d2c633"><path d="M 300 164 L 312 164 L 312 177 L 300 177 Z M 300 164 " clip-rule="nonzero"/></clipPath><clipPath id="a72eea06dd"><path d="M 0.191406 186.449219 L 186.570312 0.0703125 L 374.402344 187.902344 L 188.023438 374.285156 Z M 0.191406 186.449219 " clip-rule="nonzero"/></clipPath><clipPath id="527de9bd61"><path d="M 297 127 L 315 127 L 315 145 L 297 145 Z M 297 127 " clip-rule="nonzero"/></clipPath><clipPath id="5debaffeb3"><path d="M 0.191406 186.449219 L 186.570312 0.0703125 L 374.402344 187.902344 L 188.023438 374.285156 Z M 0.191406 186.449219 " clip-rule="nonzero"/></clipPath><clipPath id="542361232a"><path d="M 283 147 L 295 147 L 295 159 L 283 159 Z M 283 147 " clip-rule="nonzero"/></clipPath><clipPath id="3013252a1b"><path d="M 0.191406 186.449219 L 186.570312 0.0703125 L 374.402344 187.902344 L 188.023438 374.285156 Z M 0.191406 186.449219 " clip-rule="nonzero"/></clipPath><clipPath id="e3e5afecb1"><path d="M 176 347 L 200 347 L 200 370 L 176 370 Z M 176 347 " clip-rule="nonzero"/></clipPath><clipPath id="6b05e5c9d5"><path d="M 0.191406 186.449219 L 186.570312 0.0703125 L 374.402344 187.902344 L 188.023438 374.285156 Z M 0.191406 186.449219 " clip-rule="nonzero"/></clipPath><clipPath id="08f8b19584"><path d="M 159 329 L 182 329 L 182 353 L 159 353 Z M 159 329 " clip-rule="nonzero"/></clipPath><clipPath id="5b810dab9c"><path d="M 0.191406 186.449219 L 186.570312 0.0703125 L 374.402344 187.902344 L 188.023438 374.285156 Z M 0.191406 186.449219 " clip-rule="nonzero"/></clipPath><clipPath id="3ad60b015b"><path d="M 144 315 L 162 315 L 162 332 L 144 332 Z M 144 315 " clip-rule="nonzero"/></clipPath><clipPath id="a7e737cd4b"><path d="M 0.191406 186.449219 L 186.570312 0.0703125 L 374.402344 187.902344 L 188.023438 374.285156 Z M 0.191406 186.449219 " clip-rule="nonzero"/></clipPath><clipPath id="d542d16ef3"><path d="M 127 297 L 145 297 L 145 315 L 127 315 Z M 127 297 " clip-rule="nonzero"/></clipPath><clipPath id="abd6e050c9"><path d="M 0.191406 186.449219 L 186.570312 0.0703125 L 374.402344 187.902344 L 188.023438 374.285156 Z M 0.191406 186.449219 " clip-rule="nonzero"/></clipPath><clipPath id="ce8d5539b8"><path d="M 194 329 L 217 329 L 217 353 L 194 353 Z M 194 329 " clip-rule="nonzero"/></clipPath><clipPath id="f510c382ea"><path d="M 0.191406 186.449219 L 186.570312 0.0703125 L 374.402344 187.902344 L 188.023438 374.285156 Z M 0.191406 186.449219 " clip-rule="nonzero"/></clipPath><clipPath id="540773d6f3"><path d="M 179 315 L 197 315 L 197 332 L 179 332 Z M 179 315 " clip-rule="nonzero"/></clipPath><clipPath id="c4a82d3915"><path d="M 0.191406 186.449219 L 186.570312 0.0703125 L 374.402344 187.902344 L 188.023438 374.285156 Z M 0.191406 186.449219 " clip-rule="nonzero"/></clipPath><clipPath id="4bfb4313f0"><path d="M 164 300 L 177 300 L 177 312 L 164 312 Z M 164 300 " clip-rule="nonzero"/></clipPath><clipPath id="d7ad9a3b20"><path d="M 0.191406 186.449219 L 186.570312 0.0703125 L 374.402344 187.902344 L 188.023438 374.285156 Z M 0.191406 186.449219 " clip-rule="nonzero"/></clipPath><clipPath id="358de0aeee"><path d="M 147 283 L 159 283 L 159 295 L 147 295 Z M 147 283 " clip-rule="nonzero"/></clipPath><clipPath id="68ab48d54e"><path d="M 0.191406 186.449219 L 186.570312 0.0703125 L 374.402344 187.902344 L 188.023438 374.285156 Z M 0.191406 186.449219 " clip-rule="nonzero"/></clipPath><clipPath id="bb9e92ce86"><path d="M 214 315 L 232 315 L 232 332 L 214 332 Z M 214 315 " clip-rule="nonzero"/></clipPath><clipPath id="f82fe07247"><path d="M 0.191406 186.449219 L 186.570312 0.0703125 L 374.402344 187.902344 L 188.023438 374.285156 Z M 0.191406 186.449219 " clip-rule="nonzero"/></clipPath><clipPath id="835fa0ad95"><path d="M 197 297 L 214 297 L 214 315 L 197 315 Z M 197 297 " clip-rule="nonzero"/></clipPath><clipPath id="ceb11e3fc8"><path d="M 0.191406 186.449219 L 186.570312 0.0703125 L 374.402344 187.902344 L 188.023438 374.285156 Z M 0.191406 186.449219 " clip-rule="nonzero"/></clipPath><clipPath id="5d5b5bc59b"><path d="M 231 297 L 249 297 L 249 315 L 231 315 Z M 231 297 " clip-rule="nonzero"/></clipPath><clipPath id="31aecca80e"><path d="M 0.191406 186.449219 L 186.570312 0.0703125 L 374.402344 187.902344 L 188.023438 374.285156 Z M 0.191406 186.449219 " clip-rule="nonzero"/></clipPath><clipPath id="32f6f40261"><path d="M 217 283 L 229 283 L 229 295 L 217 295 Z M 217 283 " clip-rule="nonzero"/></clipPath><clipPath id="51723bd23c"><path d="M 0.191406 186.449219 L 186.570312 0.0703125 L 374.402344 187.902344 L 188.023438 374.285156 Z M 0.191406 186.449219 " clip-rule="nonzero"/></clipPath></defs><g clip-path="url(#11e51b2637)"><g clip-path="url(#023301f7c0)"><path fill="#ff651d" d="M 139.3125 174.011719 C 141.503906 171.816406 141.503906 168.261719 139.3125 166.066406 C 137.117188 163.875 133.558594 163.875 131.367188 166.066406 C 129.171875 168.261719 129.171875 171.816406 131.367188 174.011719 C 133.558594 176.207031 137.117188 176.207031 139.3125 174.011719 Z M 139.3125 174.011719 " fill-opacity="1" fill-rule="nonzero"/></g></g><g clip-path="url(#982121900f)"><g clip-path="url(#417100a643)"><path fill="#ff651d" d="M 158.746094 158.566406 C 162.039062 155.273438 162.039062 149.929688 158.746094 146.632812 C 155.449219 143.335938 150.105469 143.335938 146.808594 146.632812 C 143.511719 149.929688 143.511719 155.273438 146.808594 158.566406 C 150.105469 161.863281 155.449219 161.863281 158.746094 158.566406 Z M 158.746094 158.566406 " fill-opacity="1" fill-rule="nonzero"/></g></g><g clip-path="url(#c522484a7b)"><g clip-path="url(#930894fd5c)"><path fill="#ff651d" d="M 174.1875 139.132812 C 176.382812 136.941406 176.382812 133.382812 174.1875 131.191406 C 171.996094 128.996094 168.4375 128.996094 166.242188 131.191406 C 164.050781 133.382812 164.050781 136.941406 166.242188 139.132812 C 168.4375 141.328125 171.996094 141.328125 174.1875 139.132812 Z M 174.1875 139.132812 " fill-opacity="1" fill-rule="nonzero"/></g></g><g clip-path="url(#66c587d429)"><g clip-path="url(#4aa9793e4f)"><path fill="#ff651d" d="M 139.3125 208.886719 C 141.503906 206.695312 141.503906 203.136719 139.3125 200.945312 C 137.117188 198.75 133.558594 198.75 131.367188 200.945312 C 129.171875 203.136719 129.171875 206.695312 131.367188 208.886719 C 133.558594 211.082031 137.117188 211.082031 139.3125 208.886719 Z M 139.3125 208.886719 " fill-opacity="1" fill-rule="nonzero"/></g></g><g clip-path="url(#5783e0b214)"><g clip-path="url(#356dba2e19)"><path fill="#ff651d" d="M 158.746094 193.445312 C 162.039062 190.148438 162.039062 184.804688 158.746094 181.507812 C 155.449219 178.214844 150.105469 178.214844 146.808594 181.507812 C 143.511719 184.804688 143.511719 190.148438 146.808594 193.445312 C 150.105469 196.742188 155.449219 196.742188 158.746094 193.445312 Z M 158.746094 193.445312 " fill-opacity="1" fill-rule="nonzero"/></g></g><g clip-path="url(#42d0d9a609)"><g clip-path="url(#5aa6937331)"><path fill="#ff651d" d="M 176.183594 176.007812 C 179.480469 172.710938 179.480469 167.367188 176.183594 164.070312 C 172.886719 160.773438 167.542969 160.773438 164.246094 164.070312 C 160.953125 167.367188 160.953125 172.710938 164.246094 176.007812 C 167.542969 179.304688 172.886719 179.304688 176.183594 176.007812 Z M 176.183594 176.007812 " fill-opacity="1" fill-rule="nonzero"/></g></g><g clip-path="url(#56edfe1353)"><g clip-path="url(#b56c30767d)"><path fill="#ff651d" d="M 193.621094 158.566406 C 196.917969 155.273438 196.917969 149.929688 193.621094 146.632812 C 190.328125 143.335938 184.984375 143.335938 181.6875 146.632812 C 178.390625 149.929688 178.390625 155.273438 181.6875 158.566406 C 184.980469 161.863281 190.328125 161.863281 193.621094 158.566406 Z M 193.621094 158.566406 " fill-opacity="1" fill-rule="nonzero"/></g></g><g clip-path="url(#052fddad3a)"><g clip-path="url(#79db077213)"><path fill="#ff651d" d="M 209.066406 139.132812 C 211.257812 136.941406 211.257812 133.382812 209.066406 131.191406 C 206.871094 128.996094 203.316406 128.996094 201.121094 131.191406 C 198.925781 133.382812 198.925781 136.941406 201.121094 139.132812 C 203.316406 141.328125 206.871094 141.328125 209.066406 139.132812 Z M 209.066406 139.132812 " fill-opacity="1" fill-rule="nonzero"/></g></g><g clip-path="url(#5d6224b24b)"><g clip-path="url(#4d895c39de)"><path fill="#ff651d" d="M 158.746094 228.324219 C 162.042969 225.027344 162.042969 219.683594 158.746094 216.386719 C 155.449219 213.089844 150.105469 213.089844 146.808594 216.386719 C 143.511719 219.683594 143.511719 225.027344 146.808594 228.324219 C 150.105469 231.621094 155.449219 231.621094 158.746094 228.324219 Z M 158.746094 228.324219 " fill-opacity="1" fill-rule="nonzero"/></g></g><g clip-path="url(#86dd080d81)"><g clip-path="url(#7124959925)"><path fill="#ff651d" d="M 176.183594 210.882812 C 179.480469 207.589844 179.480469 202.246094 176.183594 198.949219 C 172.886719 195.652344 167.542969 195.652344 164.246094 198.949219 C 160.953125 202.246094 160.953125 207.589844 164.246094 210.882812 C 167.542969 214.179688 172.886719 214.179688 176.183594 210.882812 Z M 176.183594 210.882812 " fill-opacity="1" fill-rule="nonzero"/></g></g><g clip-path="url(#f358df4653)"><g clip-path="url(#82bb4257e2)"><path fill="#ff651d" d="M 195.597656 195.421875 C 199.984375 191.035156 199.984375 183.921875 195.597656 179.535156 C 191.210938 175.144531 184.097656 175.144531 179.710938 179.535156 C 175.324219 183.921875 175.324219 191.035156 179.710938 195.421875 C 184.097656 199.808594 191.210938 199.808594 195.597656 195.421875 Z M 195.597656 195.421875 " fill-opacity="1" fill-rule="nonzero"/></g></g><g clip-path="url(#ab0290d36e)"><g clip-path="url(#7c5eb2e94e)"><path fill="#ff651d" d="M 211.058594 176.007812 C 214.355469 172.710938 214.355469 167.367188 211.058594 164.070312 C 207.765625 160.773438 202.421875 160.773438 199.125 164.070312 C 195.828125 167.367188 195.828125 172.710938 199.125 176.007812 C 202.421875 179.304688 207.765625 179.304688 211.058594 176.007812 Z M 211.058594 176.007812 " fill-opacity="1" fill-rule="nonzero"/></g></g><g clip-path="url(#28a8109325)"><g clip-path="url(#b3dfaab3e4)"><path fill="#ff651d" d="M 228.5 158.570312 C 231.796875 155.273438 231.796875 149.929688 228.5 146.632812 C 225.203125 143.335938 219.859375 143.335938 216.5625 146.632812 C 213.265625 149.929688 213.265625 155.273438 216.5625 158.570312 C 219.859375 161.863281 225.203125 161.863281 228.5 158.570312 Z M 228.5 158.570312 " fill-opacity="1" fill-rule="nonzero"/></g></g><g clip-path="url(#bbba11d9f9)"><g clip-path="url(#da1818f7e1)"><path fill="#ff651d" d="M 174.1875 243.765625 C 176.382812 241.570312 176.382812 238.015625 174.1875 235.820312 C 171.996094 233.628906 168.4375 233.628906 166.242188 235.820312 C 164.050781 238.015625 164.050781 241.570312 166.242188 243.765625 C 168.4375 245.960938 171.996094 245.960938 174.1875 243.765625 Z M 174.1875 243.765625 " fill-opacity="1" fill-rule="nonzero"/></g></g><g clip-path="url(#0b857f4ae8)"><g clip-path="url(#e93a7cf2ce)"><path fill="#ff651d" d="M 193.621094 228.324219 C 196.917969 225.027344 196.917969 219.683594 193.621094 216.386719 C 190.328125 213.089844 184.984375 213.089844 181.6875 216.386719 C 178.390625 219.683594 178.390625 225.027344 181.6875 228.324219 C 184.980469 231.621094 190.328125 231.621094 193.621094 228.324219 Z M 193.621094 228.324219 " fill-opacity="1" fill-rule="nonzero"/></g></g><g clip-path="url(#323345a651)"><g clip-path="url(#4a1eea559b)"><path fill="#ff651d" d="M 211.058594 210.886719 C 214.355469 207.589844 214.355469 202.246094 211.058594 198.949219 C 207.765625 195.652344 202.421875 195.652344 199.125 198.949219 C 195.828125 202.246094 195.828125 207.589844 199.125 210.886719 C 202.421875 214.179688 207.765625 214.179688 211.058594 210.886719 Z M 211.058594 210.886719 " fill-opacity="1" fill-rule="nonzero"/></g></g><g clip-path="url(#97286c9d8b)"><g clip-path="url(#456da521bc)"><path fill="#ff651d" d="M 228.5 193.445312 C 231.796875 190.148438 231.796875 184.804688 228.5 181.507812 C 225.203125 178.214844 219.859375 178.214844 216.5625 181.507812 C 213.265625 184.804688 213.265625 190.148438 216.5625 193.445312 C 219.859375 196.742188 225.203125 196.742188 228.5 193.445312 Z M 228.5 193.445312 " fill-opacity="1" fill-rule="nonzero"/></g></g><g clip-path="url(#e319dcd283)"><g clip-path="url(#aefd893af9)"><path fill="#ff651d" d="M 243.941406 174.011719 C 246.136719 171.816406 246.136719 168.261719 243.941406 166.066406 C 241.75 163.875 238.191406 163.875 235.996094 166.066406 C 233.804688 168.261719 233.804688 171.816406 235.996094 174.011719 C 238.191406 176.207031 241.75 176.207031 243.941406 174.011719 Z M 243.941406 174.011719 " fill-opacity="1" fill-rule="nonzero"/></g></g><g clip-path="url(#6d1143aefa)"><g clip-path="url(#683bbd2660)"><path fill="#ff651d" d="M 209.066406 243.765625 C 211.257812 241.570312 211.257812 238.015625 209.066406 235.820312 C 206.871094 233.625 203.316406 233.625 201.121094 235.820312 C 198.925781 238.015625 198.925781 241.570312 201.121094 243.765625 C 203.316406 245.957031 206.871094 245.957031 209.066406 243.765625 Z M 209.066406 243.765625 " fill-opacity="1" fill-rule="nonzero"/></g></g><g clip-path="url(#ca8ee647c7)"><g clip-path="url(#4eb1533935)"><path fill="#ff651d" d="M 228.5 228.324219 C 231.796875 225.027344 231.796875 219.683594 228.5 216.386719 C 225.203125 213.089844 219.859375 213.089844 216.5625 216.386719 C 213.265625 219.683594 213.265625 225.027344 216.5625 228.324219 C 219.859375 231.621094 225.203125 231.621094 228.5 228.324219 Z M 228.5 228.324219 " fill-opacity="1" fill-rule="nonzero"/></g></g><g clip-path="url(#aa21286ac5)"><g clip-path="url(#8e7ee8fef8)"><path fill="#ff651d" d="M 243.941406 208.886719 C 246.136719 206.695312 246.136719 203.136719 243.941406 200.941406 C 241.75 198.75 238.191406 198.75 235.996094 200.941406 C 233.804688 203.136719 233.804688 206.695312 235.996094 208.886719 C 238.191406 211.082031 241.75 211.082031 243.941406 208.886719 Z M 243.941406 208.886719 " fill-opacity="1" fill-rule="nonzero"/></g></g><g clip-path="url(#654759052c)"><g clip-path="url(#66f039990a)"><path fill="#ff651d" d="M 24.023438 194.394531 C 28.410156 190.007812 28.410156 182.894531 24.023438 178.507812 C 19.636719 174.117188 12.523438 174.117188 8.132812 178.507812 C 3.746094 182.894531 3.746094 190.007812 8.132812 194.394531 C 12.523438 198.78125 19.636719 198.78125 24.023438 194.394531 Z M 24.023438 194.394531 " fill-opacity="1" fill-rule="nonzero"/></g></g><g clip-path="url(#c750989a34)"><g clip-path="url(#c7408788d8)"><path fill="#ff651d" d="M 41.460938 176.957031 C 45.847656 172.570312 45.847656 165.457031 41.460938 161.066406 C 37.074219 156.679688 29.960938 156.679688 25.574219 161.066406 C 21.183594 165.457031 21.183594 172.570312 25.574219 176.957031 C 29.960938 181.34375 37.074219 181.34375 41.460938 176.957031 Z M 41.460938 176.957031 " fill-opacity="1" fill-rule="nonzero"/></g></g><g clip-path="url(#01fc65836c)"><g clip-path="url(#26916caba5)"><path fill="#ff651d" d="M 56.921875 157.542969 C 60.21875 154.246094 60.21875 148.902344 56.921875 145.605469 C 53.628906 142.308594 48.285156 142.308594 44.988281 145.605469 C 41.691406 148.902344 41.691406 154.246094 44.988281 157.542969 C 48.285156 160.835938 53.628906 160.835938 56.921875 157.542969 Z M 56.921875 157.542969 " fill-opacity="1" fill-rule="nonzero"/></g></g><g clip-path="url(#c360811d2c)"><g clip-path="url(#7618bea70f)"><path fill="#ff651d" d="M 74.363281 140.101562 C 77.65625 136.804688 77.65625 131.460938 74.363281 128.167969 C 71.066406 124.871094 65.722656 124.871094 62.425781 128.167969 C 59.128906 131.460938 59.128906 136.804688 62.425781 140.101562 C 65.722656 143.398438 71.066406 143.398438 74.363281 140.101562 Z M 74.363281 140.101562 " fill-opacity="1" fill-rule="nonzero"/></g></g><g clip-path="url(#84bfa5f85b)"><g clip-path="url(#97d5a2bb00)"><path fill="#ff651d" d="M 41.460938 211.832031 C 45.847656 207.445312 45.847656 200.332031 41.460938 195.945312 C 37.074219 191.558594 29.960938 191.558594 25.574219 195.945312 C 21.183594 200.332031 21.183594 207.445312 25.574219 211.832031 C 29.960938 216.222656 37.074219 216.222656 41.460938 211.832031 Z M 41.460938 211.832031 " fill-opacity="1" fill-rule="nonzero"/></g></g><g clip-path="url(#f882aae9bc)"><g clip-path="url(#bc53e187ea)"><path fill="#ff651d" d="M 56.921875 192.417969 C 60.21875 189.121094 60.21875 183.777344 56.921875 180.484375 C 53.628906 177.1875 48.285156 177.1875 44.988281 180.484375 C 41.691406 183.777344 41.691406 189.121094 44.988281 192.417969 C 48.285156 195.714844 53.628906 195.714844 56.921875 192.417969 Z M 56.921875 192.417969 " fill-opacity="1" fill-rule="nonzero"/></g></g><g clip-path="url(#f2ed18396a)"><g clip-path="url(#556125a4a5)"><path fill="#ff651d" d="M 74.363281 174.980469 C 77.65625 171.683594 77.65625 166.339844 74.363281 163.042969 C 71.066406 159.75 65.722656 159.75 62.425781 163.042969 C 59.128906 166.339844 59.128906 171.683594 62.425781 174.980469 C 65.722656 178.277344 71.066406 178.277344 74.363281 174.980469 Z M 74.363281 174.980469 " fill-opacity="1" fill-rule="nonzero"/></g></g><g clip-path="url(#8ffa49cc29)"><g clip-path="url(#bf41596102)"><path fill="#ff651d" d="M 89.804688 155.546875 C 91.996094 153.351562 91.996094 149.796875 89.804688 147.601562 C 87.609375 145.40625 84.054688 145.40625 81.859375 147.601562 C 79.667969 149.796875 79.667969 153.351562 81.859375 155.546875 C 84.054688 157.738281 87.609375 157.738281 89.804688 155.546875 Z M 89.804688 155.546875 " fill-opacity="1" fill-rule="nonzero"/></g></g><g clip-path="url(#8f2d060684)"><g clip-path="url(#b41348deb0)"><path fill="#ff651d" d="M 56.921875 227.292969 C 60.21875 224 60.21875 218.65625 56.921875 215.359375 C 53.628906 212.0625 48.285156 212.0625 44.988281 215.359375 C 41.691406 218.65625 41.691406 224 44.988281 227.292969 C 48.285156 230.589844 53.628906 230.589844 56.921875 227.292969 Z M 56.921875 227.292969 " fill-opacity="1" fill-rule="nonzero"/></g></g><g clip-path="url(#5c70ebf48c)"><g clip-path="url(#bdfba25755)"><path fill="#ff651d" d="M 72.367188 207.863281 C 74.558594 205.667969 74.558594 202.109375 72.367188 199.917969 C 70.171875 197.722656 66.617188 197.722656 64.421875 199.917969 C 62.226562 202.109375 62.226562 205.667969 64.421875 207.863281 C 66.617188 210.054688 70.171875 210.054688 72.367188 207.863281 Z M 72.367188 207.863281 " fill-opacity="1" fill-rule="nonzero"/></g></g><g clip-path="url(#f5c915b163)"><g clip-path="url(#c6ac4d69b8)"><path fill="#ff651d" d="M 74.363281 244.734375 C 77.65625 241.4375 77.65625 236.09375 74.363281 232.796875 C 71.066406 229.5 65.722656 229.5 62.425781 232.796875 C 59.128906 236.09375 59.128906 241.4375 62.425781 244.734375 C 65.722656 248.03125 71.066406 248.03125 74.363281 244.734375 Z M 74.363281 244.734375 " fill-opacity="1" fill-rule="nonzero"/></g></g><g clip-path="url(#6390511693)"><g clip-path="url(#7de2bfad63)"><path fill="#ff651d" d="M 89.804688 225.300781 C 91.996094 223.105469 91.996094 219.550781 89.804688 217.355469 C 87.609375 215.164062 84.054688 215.164062 81.859375 217.355469 C 79.667969 219.550781 79.667969 223.105469 81.859375 225.300781 C 84.054688 227.496094 87.609375 227.496094 89.804688 225.300781 Z M 89.804688 225.300781 " fill-opacity="1" fill-rule="nonzero"/></g></g><g clip-path="url(#eced2de8fc)"><g clip-path="url(#ec9acb4a0a)"><path fill="#ff651d" d="M 194.515625 23.902344 C 198.902344 19.515625 198.902344 12.402344 194.515625 8.015625 C 190.125 3.628906 183.011719 3.628906 178.625 8.015625 C 174.238281 12.402344 174.238281 19.515625 178.625 23.902344 C 183.011719 28.289062 190.125 28.289062 194.515625 23.902344 Z M 194.515625 23.902344 " fill-opacity="1" fill-rule="nonzero"/></g></g><g clip-path="url(#82b06f3e5f)"><g clip-path="url(#2345f629fb)"><path fill="#ff651d" d="M 211.953125 41.34375 C 216.339844 36.953125 216.339844 29.839844 211.953125 25.453125 C 207.566406 21.066406 200.453125 21.066406 196.0625 25.453125 C 191.675781 29.839844 191.675781 36.953125 196.0625 41.34375 C 200.453125 45.730469 207.566406 45.730469 211.953125 41.34375 Z M 211.953125 41.34375 " fill-opacity="1" fill-rule="nonzero"/></g></g><g clip-path="url(#5a68e6f187)"><g clip-path="url(#4d9e17a5f4)"><path fill="#ff651d" d="M 227.414062 56.804688 C 230.710938 53.507812 230.710938 48.164062 227.414062 44.871094 C 224.117188 41.574219 218.773438 41.574219 215.476562 44.871094 C 212.179688 48.164062 212.179688 53.507812 215.476562 56.804688 C 218.773438 60.101562 224.117188 60.101562 227.414062 56.804688 Z M 227.414062 56.804688 " fill-opacity="1" fill-rule="nonzero"/></g></g><g clip-path="url(#b3c80176e8)"><g clip-path="url(#4048d9233b)"><path fill="#ff651d" d="M 244.851562 74.242188 C 248.148438 70.949219 248.148438 65.605469 244.851562 62.308594 C 241.558594 59.011719 236.210938 59.011719 232.917969 62.308594 C 229.621094 65.605469 229.621094 70.949219 232.917969 74.242188 C 236.210938 77.539062 241.558594 77.539062 244.851562 74.242188 Z M 244.851562 74.242188 " fill-opacity="1" fill-rule="nonzero"/></g></g><g clip-path="url(#2a0afa15e9)"><g clip-path="url(#8c76ccc0f2)"><path fill="#ff651d" d="M 177.074219 41.34375 C 181.460938 36.953125 181.460938 29.839844 177.074219 25.453125 C 172.6875 21.066406 165.574219 21.066406 161.1875 25.453125 C 156.800781 29.839844 156.800781 36.953125 161.1875 41.34375 C 165.574219 45.730469 172.6875 45.730469 177.074219 41.34375 Z M 177.074219 41.34375 " fill-opacity="1" fill-rule="nonzero"/></g></g><g clip-path="url(#5b9334ab73)"><g clip-path="url(#24b1ef087f)"><path fill="#ff651d" d="M 192.535156 56.804688 C 195.832031 53.507812 195.832031 48.164062 192.535156 44.871094 C 189.238281 41.574219 183.894531 41.574219 180.601562 44.871094 C 177.304688 48.164062 177.304688 53.507812 180.601562 56.804688 C 183.894531 60.101562 189.238281 60.101562 192.535156 56.804688 Z M 192.535156 56.804688 " fill-opacity="1" fill-rule="nonzero"/></g></g><g clip-path="url(#1fac5ebb5e)"><g clip-path="url(#34b18f4be9)"><path fill="#ff651d" d="M 207.980469 72.246094 C 210.171875 70.054688 210.171875 66.496094 207.980469 64.300781 C 205.785156 62.109375 202.230469 62.109375 200.035156 64.300781 C 197.839844 66.496094 197.839844 70.054688 200.035156 72.246094 C 202.230469 74.441406 205.785156 74.441406 207.980469 72.246094 Z M 207.980469 72.246094 " fill-opacity="1" fill-rule="nonzero"/></g></g><g clip-path="url(#87194d8457)"><g clip-path="url(#f00102e49d)"><path fill="#ff651d" d="M 225.417969 89.683594 C 227.613281 87.492188 227.613281 83.933594 225.417969 81.742188 C 223.226562 79.546875 219.667969 79.546875 217.476562 81.742188 C 215.28125 83.933594 215.28125 87.492188 217.476562 89.683594 C 219.667969 91.878906 223.226562 91.878906 225.417969 89.683594 Z M 225.417969 89.683594 " fill-opacity="1" fill-rule="nonzero"/></g></g><g clip-path="url(#472b05cd69)"><g clip-path="url(#37593438fe)"><path fill="#ff651d" d="M 157.660156 56.804688 C 160.957031 53.507812 160.957031 48.164062 157.660156 44.871094 C 154.363281 41.574219 149.019531 41.574219 145.722656 44.871094 C 142.425781 48.164062 142.425781 53.507812 145.722656 56.804688 C 149.019531 60.101562 154.363281 60.101562 157.660156 56.804688 Z M 157.660156 56.804688 " fill-opacity="1" fill-rule="nonzero"/></g></g><g clip-path="url(#545c66b698)"><g clip-path="url(#fdc3469c2c)"><path fill="#ff651d" d="M 175.097656 74.242188 C 178.394531 70.949219 178.394531 65.605469 175.097656 62.308594 C 171.800781 59.011719 166.457031 59.011719 163.164062 62.308594 C 159.867188 65.605469 159.867188 70.949219 163.164062 74.242188 C 166.457031 77.539062 171.800781 77.539062 175.097656 74.242188 Z M 175.097656 74.242188 " fill-opacity="1" fill-rule="nonzero"/></g></g><g clip-path="url(#a7b82241d2)"><g clip-path="url(#a2cac51511)"><path fill="#ff651d" d="M 140.222656 74.242188 C 143.515625 70.949219 143.515625 65.605469 140.222656 62.308594 C 136.925781 59.011719 131.582031 59.011719 128.285156 62.308594 C 124.988281 65.605469 124.988281 70.949219 128.285156 74.242188 C 131.582031 77.539062 136.925781 77.539062 140.222656 74.242188 Z M 140.222656 74.242188 " fill-opacity="1" fill-rule="nonzero"/></g></g><g clip-path="url(#554dc85d10)"><g clip-path="url(#f47625d473)"><path fill="#ff651d" d="M 155.664062 89.6875 C 157.859375 87.492188 157.859375 83.9375 155.664062 81.742188 C 153.46875 79.546875 149.914062 79.546875 147.71875 81.742188 C 145.527344 83.9375 145.527344 87.492188 147.71875 89.6875 C 149.914062 91.878906 153.46875 91.878906 155.664062 89.6875 Z M 155.664062 89.6875 " fill-opacity="1" fill-rule="nonzero"/></g></g><g clip-path="url(#c205b41741)"><g clip-path="url(#440dc22c6e)"><path fill="#ff651d" d="M 366.457031 195.847656 C 370.847656 191.460938 370.847656 184.347656 366.457031 179.960938 C 362.070312 175.570312 354.957031 175.570312 350.570312 179.960938 C 346.183594 184.347656 346.183594 191.460938 350.570312 195.847656 C 354.957031 200.234375 362.070312 200.234375 366.457031 195.847656 Z M 366.457031 195.847656 " fill-opacity="1" fill-rule="nonzero"/></g></g><g clip-path="url(#393cbd2ab6)"><g clip-path="url(#4d4b2e8012)"><path fill="#ff651d" d="M 349.019531 213.285156 C 353.40625 208.898438 353.40625 201.785156 349.019531 197.398438 C 344.632812 193.011719 337.519531 193.011719 333.128906 197.398438 C 328.742188 201.785156 328.742188 208.898438 333.128906 213.285156 C 337.519531 217.671875 344.632812 217.671875 349.019531 213.285156 Z M 349.019531 213.285156 " fill-opacity="1" fill-rule="nonzero"/></g></g><g clip-path="url(#7328bf88aa)"><g clip-path="url(#02d9471142)"><path fill="#ff651d" d="M 329.601562 228.75 C 332.898438 225.453125 332.898438 220.109375 329.601562 216.8125 C 326.308594 213.519531 320.964844 213.519531 317.667969 216.8125 C 314.371094 220.109375 314.371094 225.453125 317.667969 228.75 C 320.964844 232.046875 326.308594 232.046875 329.601562 228.75 Z M 329.601562 228.75 " fill-opacity="1" fill-rule="nonzero"/></g></g><g clip-path="url(#7e584e750f)"><g clip-path="url(#6004d95000)"><path fill="#ff651d" d="M 312.164062 246.1875 C 315.460938 242.890625 315.460938 237.546875 312.164062 234.253906 C 308.871094 230.957031 303.527344 230.957031 300.230469 234.253906 C 296.933594 237.546875 296.933594 242.890625 300.230469 246.1875 C 303.527344 249.484375 308.871094 249.484375 312.164062 246.1875 Z M 312.164062 246.1875 " fill-opacity="1" fill-rule="nonzero"/></g></g><g clip-path="url(#a515e2c760)"><g clip-path="url(#11d77ffd68)"><path fill="#ff651d" d="M 349.019531 178.410156 C 353.40625 174.019531 353.40625 166.910156 349.019531 162.519531 C 344.632812 158.132812 337.519531 158.132812 333.128906 162.519531 C 328.742188 166.910156 328.742188 174.019531 333.128906 178.410156 C 337.519531 182.796875 344.632812 182.796875 349.019531 178.410156 Z M 349.019531 178.410156 " fill-opacity="1" fill-rule="nonzero"/></g></g><g clip-path="url(#b0c5fa6338)"><g clip-path="url(#5654b26175)"><path fill="#ff651d" d="M 329.601562 193.871094 C 332.898438 190.578125 332.898438 185.234375 329.601562 181.9375 C 326.308594 178.640625 320.964844 178.640625 317.667969 181.9375 C 314.371094 185.234375 314.371094 190.578125 317.667969 193.871094 C 320.964844 197.167969 326.308594 197.167969 329.601562 193.871094 Z M 329.601562 193.871094 " fill-opacity="1" fill-rule="nonzero"/></g></g><g clip-path="url(#08a5fa688a)"><g clip-path="url(#8a470ced11)"><path fill="#ff651d" d="M 312.164062 211.3125 C 315.460938 208.015625 315.460938 202.671875 312.164062 199.375 C 308.871094 196.078125 303.527344 196.078125 300.230469 199.375 C 296.933594 202.671875 296.933594 208.015625 300.230469 211.3125 C 303.527344 214.605469 308.871094 214.605469 312.164062 211.3125 Z M 312.164062 211.3125 " fill-opacity="1" fill-rule="nonzero"/></g></g><g clip-path="url(#c295f90702)"><g clip-path="url(#e0319fd896)"><path fill="#ff651d" d="M 292.730469 226.753906 C 294.925781 224.558594 294.925781 221.003906 292.730469 218.808594 C 290.539062 216.613281 286.980469 216.613281 284.785156 218.808594 C 282.59375 221.003906 282.59375 224.558594 284.785156 226.753906 C 286.980469 228.945312 290.539062 228.945312 292.730469 226.753906 Z M 292.730469 226.753906 " fill-opacity="1" fill-rule="nonzero"/></g></g><g clip-path="url(#7a4feae07f)"><g clip-path="url(#fb85e79ee4)"><path fill="#ff651d" d="M 329.601562 158.996094 C 332.898438 155.699219 332.898438 150.355469 329.601562 147.058594 C 326.308594 143.761719 320.964844 143.761719 317.667969 147.058594 C 314.371094 150.355469 314.371094 155.699219 317.667969 158.996094 C 320.964844 162.292969 326.308594 162.292969 329.601562 158.996094 Z M 329.601562 158.996094 " fill-opacity="1" fill-rule="nonzero"/></g></g><g clip-path="url(#2cf1d2c633)"><g clip-path="url(#a72eea06dd)"><path fill="#ff651d" d="M 310.167969 174.4375 C 312.363281 172.242188 312.363281 168.6875 310.167969 166.492188 C 307.976562 164.300781 304.417969 164.300781 302.226562 166.492188 C 300.03125 168.6875 300.03125 172.242188 302.226562 174.4375 C 304.417969 176.632812 307.976562 176.632812 310.167969 174.4375 Z M 310.167969 174.4375 " fill-opacity="1" fill-rule="nonzero"/></g></g><g clip-path="url(#527de9bd61)"><g clip-path="url(#5debaffeb3)"><path fill="#ff651d" d="M 312.164062 141.554688 C 315.460938 138.261719 315.460938 132.917969 312.164062 129.621094 C 308.867188 126.324219 303.523438 126.324219 300.230469 129.621094 C 296.933594 132.917969 296.933594 138.261719 300.230469 141.554688 C 303.523438 144.851562 308.867188 144.851562 312.164062 141.554688 Z M 312.164062 141.554688 " fill-opacity="1" fill-rule="nonzero"/></g></g><g clip-path="url(#542361232a)"><g clip-path="url(#3013252a1b)"><path fill="#ff651d" d="M 292.730469 157 C 294.925781 154.804688 294.925781 151.246094 292.730469 149.054688 C 290.539062 146.859375 286.980469 146.859375 284.789062 149.054688 C 282.59375 151.246094 282.59375 154.804688 284.789062 157 C 286.980469 159.191406 290.539062 159.191406 292.730469 157 Z M 292.730469 157 " fill-opacity="1" fill-rule="nonzero"/></g></g><g clip-path="url(#e3e5afecb1)"><g clip-path="url(#6b05e5c9d5)"><path fill="#ff651d" d="M 195.964844 366.339844 C 200.355469 361.953125 200.355469 354.839844 195.964844 350.449219 C 191.578125 346.0625 184.464844 346.0625 180.078125 350.449219 C 175.691406 354.839844 175.691406 361.953125 180.078125 366.339844 C 184.464844 370.726562 191.578125 370.726562 195.964844 366.339844 Z M 195.964844 366.339844 " fill-opacity="1" fill-rule="nonzero"/></g></g><g clip-path="url(#08f8b19584)"><g clip-path="url(#5b810dab9c)"><path fill="#ff651d" d="M 178.527344 348.902344 C 182.914062 344.511719 182.914062 337.398438 178.527344 333.011719 C 174.140625 328.625 167.027344 328.625 162.640625 333.011719 C 158.253906 337.398438 158.253906 344.511719 162.640625 348.902344 C 167.027344 353.289062 174.140625 353.289062 178.527344 348.902344 Z M 178.527344 348.902344 " fill-opacity="1" fill-rule="nonzero"/></g></g><g clip-path="url(#3ad60b015b)"><g clip-path="url(#a7e737cd4b)"><path fill="#ff651d" d="M 159.113281 329.484375 C 162.410156 326.1875 162.410156 320.84375 159.113281 317.550781 C 155.816406 314.253906 150.472656 314.253906 147.179688 317.550781 C 143.882812 320.84375 143.882812 326.1875 147.179688 329.484375 C 150.472656 332.78125 155.816406 332.78125 159.113281 329.484375 Z M 159.113281 329.484375 " fill-opacity="1" fill-rule="nonzero"/></g></g><g clip-path="url(#d542d16ef3)"><g clip-path="url(#abd6e050c9)"><path fill="#ff651d" d="M 141.675781 312.046875 C 144.972656 308.75 144.972656 303.40625 141.675781 300.109375 C 138.378906 296.816406 133.035156 296.816406 129.738281 300.109375 C 126.445312 303.40625 126.445312 308.75 129.738281 312.046875 C 133.035156 315.34375 138.378906 315.34375 141.675781 312.046875 Z M 141.675781 312.046875 " fill-opacity="1" fill-rule="nonzero"/></g></g><g clip-path="url(#ce8d5539b8)"><g clip-path="url(#f510c382ea)"><path fill="#ff651d" d="M 213.40625 348.902344 C 217.792969 344.511719 217.792969 337.398438 213.40625 333.011719 C 209.015625 328.625 201.902344 328.625 197.515625 333.011719 C 193.128906 337.398438 193.128906 344.511719 197.515625 348.902344 C 201.902344 353.289062 209.019531 353.289062 213.40625 348.902344 Z M 213.40625 348.902344 " fill-opacity="1" fill-rule="nonzero"/></g></g><g clip-path="url(#540773d6f3)"><g clip-path="url(#c4a82d3915)"><path fill="#ff651d" d="M 193.992188 329.484375 C 197.285156 326.191406 197.285156 320.847656 193.992188 317.550781 C 190.695312 314.253906 185.351562 314.253906 182.054688 317.550781 C 178.757812 320.847656 178.757812 326.191406 182.054688 329.484375 C 185.351562 332.78125 190.695312 332.78125 193.992188 329.484375 Z M 193.992188 329.484375 " fill-opacity="1" fill-rule="nonzero"/></g></g><g clip-path="url(#4bfb4313f0)"><g clip-path="url(#d7ad9a3b20)"><path fill="#ff651d" d="M 174.554688 310.050781 C 176.75 307.859375 176.75 304.300781 174.554688 302.105469 C 172.363281 299.914062 168.804688 299.914062 166.613281 302.105469 C 164.417969 304.300781 164.417969 307.859375 166.613281 310.050781 C 168.804688 312.246094 172.363281 312.246094 174.554688 310.050781 Z M 174.554688 310.050781 " fill-opacity="1" fill-rule="nonzero"/></g></g><g clip-path="url(#358de0aeee)"><g clip-path="url(#68ab48d54e)"><path fill="#ff651d" d="M 157.117188 292.613281 C 159.308594 290.417969 159.308594 286.863281 157.117188 284.667969 C 154.921875 282.476562 151.367188 282.476562 149.171875 284.667969 C 146.976562 286.863281 146.976562 290.417969 149.171875 292.613281 C 151.367188 294.808594 154.921875 294.808594 157.117188 292.613281 Z M 157.117188 292.613281 " fill-opacity="1" fill-rule="nonzero"/></g></g><g clip-path="url(#bb9e92ce86)"><g clip-path="url(#f82fe07247)"><path fill="#ff651d" d="M 228.867188 329.484375 C 232.164062 326.191406 232.164062 320.847656 228.867188 317.550781 C 225.570312 314.253906 220.226562 314.253906 216.929688 317.550781 C 213.636719 320.847656 213.636719 326.191406 216.929688 329.484375 C 220.226562 332.78125 225.570312 332.78125 228.867188 329.484375 Z M 228.867188 329.484375 " fill-opacity="1" fill-rule="nonzero"/></g></g><g clip-path="url(#835fa0ad95)"><g clip-path="url(#ceb11e3fc8)"><path fill="#ff651d" d="M 211.429688 312.046875 C 214.726562 308.75 214.726562 303.40625 211.429688 300.109375 C 208.132812 296.816406 202.789062 296.816406 199.492188 300.109375 C 196.195312 303.40625 196.195312 308.75 199.492188 312.046875 C 202.789062 315.34375 208.132812 315.34375 211.429688 312.046875 Z M 211.429688 312.046875 " fill-opacity="1" fill-rule="nonzero"/></g></g><g clip-path="url(#5d5b5bc59b)"><g clip-path="url(#31aecca80e)"><path fill="#ff651d" d="M 246.308594 312.046875 C 249.601562 308.75 249.601562 303.40625 246.308594 300.109375 C 243.011719 296.816406 237.667969 296.816406 234.371094 300.109375 C 231.074219 303.40625 231.074219 308.75 234.371094 312.046875 C 237.667969 315.34375 243.011719 315.34375 246.308594 312.046875 Z M 246.308594 312.046875 " fill-opacity="1" fill-rule="nonzero"/></g></g><g clip-path="url(#32f6f40261)"><g clip-path="url(#51723bd23c)"><path fill="#ff651d" d="M 226.871094 292.613281 C 229.066406 290.417969 229.066406 286.863281 226.871094 284.667969 C 224.675781 282.476562 221.121094 282.476562 218.925781 284.667969 C 216.734375 286.863281 216.734375 290.417969 218.925781 292.613281 C 221.121094 294.808594 224.675781 294.808594 226.871094 292.613281 Z M 226.871094 292.613281 " fill-opacity="1" fill-rule="nonzero"/></g></g></svg>