<svg width="505" height="427" viewBox="0 0 505 427" fill="none" xmlns="http://www.w3.org/2000/svg">
<g clip-path="url(#clip0_5662_1145)">
<path d="M237.449 14.301C241.155 14.301 244.159 11.2968 244.159 7.59093C244.159 3.88506 241.155 0.880859 237.449 0.880859C233.743 0.880859 230.739 3.88506 230.739 7.59093C230.739 11.2968 233.743 14.301 237.449 14.301Z" fill="#FF651D"/>
<path d="M266.894 14.301C270.6 14.301 273.604 11.2968 273.604 7.59093C273.604 3.88506 270.6 0.880859 266.894 0.880859C263.188 0.880859 260.184 3.88506 260.184 7.59093C260.184 11.2968 263.188 14.301 266.894 14.301Z" fill="#FF651D"/>
<path d="M208.003 43.7463C211.709 43.7463 214.713 40.7421 214.713 37.0362C214.713 33.3304 211.709 30.3262 208.003 30.3262C204.297 30.3262 201.293 33.3304 201.293 37.0362C201.293 40.7421 204.297 43.7463 208.003 43.7463Z" fill="#FF651D"/>
<path d="M237.449 47.1101C243.012 47.1101 247.522 42.6001 247.522 37.0367C247.522 31.4734 243.012 26.9634 237.449 26.9634C231.885 26.9634 227.375 31.4734 227.375 37.0367C227.375 42.6001 231.885 47.1101 237.449 47.1101Z" fill="#FF651D"/>
<path d="M266.894 47.1101C272.458 47.1101 276.967 42.6001 276.967 37.0367C276.967 31.4734 272.458 26.9634 266.894 26.9634C261.331 26.9634 256.821 31.4734 256.821 37.0367C256.821 42.6001 261.331 47.1101 266.894 47.1101Z" fill="#FF651D"/>
<path d="M296.339 43.7463C300.045 43.7463 303.049 40.7421 303.049 37.0362C303.049 33.3304 300.045 30.3262 296.339 30.3262C292.633 30.3262 289.629 33.3304 289.629 37.0362C289.629 40.7421 292.633 43.7463 296.339 43.7463Z" fill="#FF651D"/>
<path d="M178.559 73.1916C182.265 73.1916 185.269 70.1874 185.269 66.4816C185.269 62.7757 182.265 59.7715 178.559 59.7715C174.853 59.7715 171.849 62.7757 171.849 66.4816C171.849 70.1874 174.853 73.1916 178.559 73.1916Z" fill="#FF651D"/>
<path d="M208.003 73.1916C211.709 73.1916 214.713 70.1874 214.713 66.4816C214.713 62.7757 211.709 59.7715 208.003 59.7715C204.297 59.7715 201.293 62.7757 201.293 66.4816C201.293 70.1874 204.297 73.1916 208.003 73.1916Z" fill="#FF651D"/>
<path d="M237.449 76.5549C243.012 76.5549 247.522 72.0449 247.522 66.4815C247.522 60.9182 243.012 56.4082 237.449 56.4082C231.885 56.4082 227.375 60.9182 227.375 66.4815C227.375 72.0449 231.885 76.5549 237.449 76.5549Z" fill="#FF651D"/>
<path d="M266.894 76.5549C272.458 76.5549 276.967 72.0449 276.967 66.4815C276.967 60.9182 272.458 56.4082 266.894 56.4082C261.331 56.4082 256.821 60.9182 256.821 66.4815C256.821 72.0449 261.331 76.5549 266.894 76.5549Z" fill="#FF651D"/>
<path d="M296.339 73.1916C300.045 73.1916 303.049 70.1874 303.049 66.4816C303.049 62.7757 300.045 59.7715 296.339 59.7715C292.633 59.7715 289.629 62.7757 289.629 66.4816C289.629 70.1874 292.633 73.1916 296.339 73.1916Z" fill="#FF651D"/>
<path d="M325.785 73.1916C329.491 73.1916 332.495 70.1874 332.495 66.4816C332.495 62.7757 329.491 59.7715 325.785 59.7715C322.079 59.7715 319.075 62.7757 319.075 66.4816C319.075 70.1874 322.079 73.1916 325.785 73.1916Z" fill="#FF651D"/>
<path d="M149.13 102.636C152.836 102.636 155.84 99.6322 155.84 95.9264C155.84 92.2205 152.836 89.2163 149.13 89.2163C145.424 89.2163 142.42 92.2205 142.42 95.9264C142.42 99.6322 145.424 102.636 149.13 102.636Z" fill="#FF651D"/>
<path d="M178.558 106C184.122 106 188.632 101.49 188.632 95.9269C188.632 90.3635 184.122 85.8535 178.558 85.8535C172.995 85.8535 168.485 90.3635 168.485 95.9269C168.485 101.49 172.995 106 178.558 106Z" fill="#FF651D"/>
<path d="M208.004 106C213.567 106 218.077 101.49 218.077 95.9269C218.077 90.3635 213.567 85.8535 208.004 85.8535C202.44 85.8535 197.93 90.3635 197.93 95.9269C197.93 101.49 202.44 106 208.004 106Z" fill="#FF651D"/>
<path d="M237.448 109.347C244.86 109.347 250.868 103.338 250.868 95.9265C250.868 88.5148 244.86 82.5063 237.448 82.5063C230.036 82.5063 224.028 88.5148 224.028 95.9265C224.028 103.338 230.036 109.347 237.448 109.347Z" fill="#FF651D"/>
<path d="M266.894 109.347C274.306 109.347 280.315 103.338 280.315 95.9265C280.315 88.5148 274.306 82.5063 266.894 82.5063C259.483 82.5063 253.474 88.5148 253.474 95.9265C253.474 103.338 259.483 109.347 266.894 109.347Z" fill="#FF651D"/>
<path d="M296.339 106C301.903 106 306.413 101.49 306.413 95.9269C306.413 90.3635 301.903 85.8535 296.339 85.8535C290.776 85.8535 286.266 90.3635 286.266 95.9269C286.266 101.49 290.776 106 296.339 106Z" fill="#FF651D"/>
<path d="M325.785 106C331.348 106 335.858 101.49 335.858 95.9269C335.858 90.3635 331.348 85.8535 325.785 85.8535C320.221 85.8535 315.711 90.3635 315.711 95.9269C315.711 101.49 320.221 106 325.785 106Z" fill="#FF651D"/>
<path d="M355.213 102.636C358.919 102.636 361.923 99.6322 361.923 95.9264C361.923 92.2205 358.919 89.2163 355.213 89.2163C351.507 89.2163 348.503 92.2205 348.503 95.9264C348.503 99.6322 351.507 102.636 355.213 102.636Z" fill="#FF651D"/>
<path d="M119.685 132.066C123.391 132.066 126.395 129.062 126.395 125.356C126.395 121.65 123.391 118.646 119.685 118.646C115.979 118.646 112.975 121.65 112.975 125.356C112.975 129.062 115.979 132.066 119.685 132.066Z" fill="#FF651D"/>
<path d="M7.60875 219.593C11.3146 219.593 14.3188 216.589 14.3188 212.883C14.3188 209.177 11.3146 206.173 7.60875 206.173C3.90288 206.173 0.898682 209.177 0.898682 212.883C0.898682 216.589 3.90288 219.593 7.60875 219.593Z" fill="#FF651D"/>
<path d="M498.053 219.593C501.759 219.593 504.763 216.589 504.763 212.883C504.763 209.177 501.759 206.173 498.053 206.173C494.347 206.173 491.343 209.177 491.343 212.883C491.343 216.589 494.347 219.593 498.053 219.593Z" fill="#FF651D"/>
<path d="M178.558 135.429C184.122 135.429 188.632 130.919 188.632 125.356C188.632 119.793 184.122 115.283 178.558 115.283C172.995 115.283 168.485 119.793 168.485 125.356C168.485 130.919 172.995 135.429 178.558 135.429Z" fill="#FF651D"/>
<path d="M208.004 135.429C213.567 135.429 218.077 130.919 218.077 125.356C218.077 119.793 213.567 115.283 208.004 115.283C202.44 115.283 197.93 119.793 197.93 125.356C197.93 130.919 202.44 135.429 208.004 135.429Z" fill="#FF651D"/>
<path d="M237.448 138.776C244.86 138.776 250.868 132.768 250.868 125.356C250.868 117.944 244.86 111.936 237.448 111.936C230.036 111.936 224.028 117.944 224.028 125.356C224.028 132.768 230.036 138.776 237.448 138.776Z" fill="#FF651D"/>
<path d="M266.894 138.776C274.306 138.776 280.315 132.768 280.315 125.356C280.315 117.944 274.306 111.936 266.894 111.936C259.483 111.936 253.474 117.944 253.474 125.356C253.474 132.768 259.483 138.776 266.894 138.776Z" fill="#FF651D"/>
<path d="M296.339 135.429C301.903 135.429 306.413 130.919 306.413 125.356C306.413 119.793 301.903 115.283 296.339 115.283C290.776 115.283 286.266 119.793 286.266 125.356C286.266 130.919 290.776 135.429 296.339 135.429Z" fill="#FF651D"/>
<path d="M325.785 135.429C331.348 135.429 335.858 130.919 335.858 125.356C335.858 119.793 331.348 115.283 325.785 115.283C320.221 115.283 315.711 119.793 315.711 125.356C315.711 130.919 320.221 135.429 325.785 135.429Z" fill="#FF651D"/>
<path d="M384.658 132.066C388.364 132.066 391.368 129.062 391.368 125.356C391.368 121.65 388.364 118.646 384.658 118.646C380.952 118.646 377.948 121.65 377.948 125.356C377.948 129.062 380.952 132.066 384.658 132.066Z" fill="#FF651D"/>
<path d="M383.356 102.274C387.062 102.274 390.066 99.2699 390.066 95.5641C390.066 91.8582 387.062 88.854 383.356 88.854C379.65 88.854 376.646 91.8582 376.646 95.5641C376.646 99.2699 379.65 102.274 383.356 102.274Z" fill="#FF651D"/>
<path d="M120.064 102.274C123.77 102.274 126.774 99.2699 126.774 95.5641C126.774 91.8582 123.77 88.854 120.064 88.854C116.358 88.854 113.354 91.8582 113.354 95.5641C113.354 99.2699 116.358 102.274 120.064 102.274Z" fill="#FF651D"/>
<path d="M400.106 81.864C403.811 81.864 406.816 78.8598 406.816 75.1539C406.816 71.448 403.811 68.4438 400.106 68.4438C396.4 68.4438 393.396 71.448 393.396 75.1539C393.396 78.8598 396.4 81.864 400.106 81.864Z" fill="#FF651D"/>
<path d="M103.874 81.864C107.58 81.864 110.584 78.8598 110.584 75.1539C110.584 71.448 107.58 68.4438 103.874 68.4438C100.169 68.4438 97.1643 71.448 97.1643 75.1539C97.1643 78.8598 100.169 81.864 103.874 81.864Z" fill="#FF651D"/>
<path d="M123.791 337.637C127.497 337.637 130.501 334.633 130.501 330.927C130.501 327.221 127.497 324.217 123.791 324.217C120.085 324.217 117.081 327.221 117.081 330.927C117.081 334.633 120.085 337.637 123.791 337.637Z" fill="#FF651D"/>
<path d="M387.065 337.637C390.771 337.637 393.775 334.633 393.775 330.927C393.775 327.221 390.771 324.217 387.065 324.217C383.359 324.217 380.355 327.221 380.355 330.927C380.355 334.633 383.359 337.637 387.065 337.637Z" fill="#FF651D"/>
<path d="M107.04 358.049C110.746 358.049 113.75 355.044 113.75 351.338C113.75 347.633 110.746 344.628 107.04 344.628C103.334 344.628 100.33 347.633 100.33 351.338C100.33 355.044 103.334 358.049 107.04 358.049Z" fill="#FF651D"/>
<path d="M403.272 358.049C406.978 358.049 409.982 355.044 409.982 351.338C409.982 347.633 406.978 344.628 403.272 344.628C399.566 344.628 396.562 347.633 396.562 351.338C396.562 355.044 399.566 358.049 403.272 358.049Z" fill="#FF651D"/>
<path d="M119.684 164.875C125.248 164.875 129.758 160.365 129.758 154.801C129.758 149.238 125.248 144.728 119.684 144.728C114.121 144.728 109.611 149.238 109.611 154.801C109.611 160.365 114.121 164.875 119.684 164.875Z" fill="#FF651D"/>
<path d="M149.129 164.875C154.693 164.875 159.203 160.365 159.203 154.801C159.203 149.238 154.693 144.728 149.129 144.728C143.566 144.728 139.056 149.238 139.056 154.801C139.056 160.365 143.566 164.875 149.129 164.875Z" fill="#FF651D"/>
<path d="M178.559 168.22C185.971 168.22 191.979 162.212 191.979 154.8C191.979 147.388 185.971 141.38 178.559 141.38C171.147 141.38 165.139 147.388 165.139 154.8C165.139 162.212 171.147 168.22 178.559 168.22Z" fill="#FF651D"/>
<path d="M208.004 168.22C215.416 168.22 221.424 162.212 221.424 154.8C221.424 147.388 215.416 141.38 208.004 141.38C200.592 141.38 194.584 147.388 194.584 154.8C194.584 162.212 200.592 168.22 208.004 168.22Z" fill="#FF651D"/>
<path d="M237.449 164.875C243.012 164.875 247.522 160.365 247.522 154.801C247.522 149.238 243.012 144.728 237.449 144.728C231.885 144.728 227.375 149.238 227.375 154.801C227.375 160.365 231.885 164.875 237.449 164.875Z" fill="#FF651D"/>
<path d="M266.894 164.875C272.458 164.875 276.967 160.365 276.967 154.801C276.967 149.238 272.458 144.728 266.894 144.728C261.331 144.728 256.821 149.238 256.821 154.801C256.821 160.365 261.331 164.875 266.894 164.875Z" fill="#FF651D"/>
<path d="M296.34 168.22C303.751 168.22 309.76 162.212 309.76 154.8C309.76 147.388 303.751 141.38 296.34 141.38C288.928 141.38 282.919 147.388 282.919 154.8C282.919 162.212 288.928 168.22 296.34 168.22Z" fill="#FF651D"/>
<path d="M325.784 168.22C333.196 168.22 339.204 162.212 339.204 154.8C339.204 147.388 333.196 141.38 325.784 141.38C318.372 141.38 312.364 147.388 312.364 154.8C312.364 162.212 318.372 168.22 325.784 168.22Z" fill="#FF651D"/>
<path d="M355.213 164.875C360.776 164.875 365.286 160.365 365.286 154.801C365.286 149.238 360.776 144.728 355.213 144.728C349.649 144.728 345.139 149.238 345.139 154.801C345.139 160.365 349.649 164.875 355.213 164.875Z" fill="#FF651D"/>
<path d="M384.659 164.875C390.222 164.875 394.732 160.365 394.732 154.801C394.732 149.238 390.222 144.728 384.659 144.728C379.095 144.728 374.585 149.238 374.585 154.801C374.585 160.365 379.095 164.875 384.659 164.875Z" fill="#FF651D"/>
<path d="M119.684 194.319C125.248 194.319 129.758 189.809 129.758 184.246C129.758 178.682 125.248 174.172 119.684 174.172C114.121 174.172 109.611 178.682 109.611 184.246C109.611 189.809 114.121 194.319 119.684 194.319Z" fill="#FF651D"/>
<path d="M149.129 194.319C154.693 194.319 159.203 189.809 159.203 184.246C159.203 178.682 154.693 174.172 149.129 174.172C143.566 174.172 139.056 178.682 139.056 184.246C139.056 189.809 143.566 194.319 149.129 194.319Z" fill="#FF651D"/>
<path d="M89.0851 164.875C94.6484 164.875 99.1584 160.365 99.1584 154.801C99.1584 149.238 94.6484 144.728 89.0851 144.728C83.5217 144.728 79.0117 149.238 79.0117 154.801C79.0117 160.365 83.5217 164.875 89.0851 164.875Z" fill="#FF651D"/>
<path d="M89.0851 194.319C94.6484 194.319 99.1584 189.809 99.1584 184.246C99.1584 178.682 94.6484 174.172 89.0851 174.172C83.5217 174.172 79.0117 178.682 79.0117 184.246C79.0117 189.809 83.5217 194.319 89.0851 194.319Z" fill="#FF651D"/>
<path d="M414.828 164.875C420.392 164.875 424.902 160.365 424.902 154.801C424.902 149.238 420.392 144.728 414.828 144.728C409.265 144.728 404.755 149.238 404.755 154.801C404.755 160.365 409.265 164.875 414.828 164.875Z" fill="#FF651D"/>
<path d="M414.828 194.319C420.392 194.319 424.902 189.809 424.902 184.246C424.902 178.682 420.392 174.172 414.828 174.172C409.265 174.172 404.755 178.682 404.755 184.246C404.755 189.809 409.265 194.319 414.828 194.319Z" fill="#FF651D"/>
<path d="M178.559 197.665C185.971 197.665 191.979 191.657 191.979 184.245C191.979 176.834 185.971 170.825 178.559 170.825C171.147 170.825 165.139 176.834 165.139 184.245C165.139 191.657 171.147 197.665 178.559 197.665Z" fill="#FF651D"/>
<path d="M208.004 197.665C215.416 197.665 221.424 191.657 221.424 184.245C221.424 176.834 215.416 170.825 208.004 170.825C200.592 170.825 194.584 176.834 194.584 184.245C194.584 191.657 200.592 197.665 208.004 197.665Z" fill="#FF651D"/>
<path d="M237.449 194.319C243.012 194.319 247.522 189.809 247.522 184.246C247.522 178.682 243.012 174.172 237.449 174.172C231.885 174.172 227.375 178.682 227.375 184.246C227.375 189.809 231.885 194.319 237.449 194.319Z" fill="#FF651D"/>
<path d="M266.894 194.319C272.458 194.319 276.967 189.809 276.967 184.246C276.967 178.682 272.458 174.172 266.894 174.172C261.331 174.172 256.821 178.682 256.821 184.246C256.821 189.809 261.331 194.319 266.894 194.319Z" fill="#FF651D"/>
<path d="M296.34 197.665C303.751 197.665 309.76 191.657 309.76 184.245C309.76 176.834 303.751 170.825 296.34 170.825C288.928 170.825 282.919 176.834 282.919 184.245C282.919 191.657 288.928 197.665 296.34 197.665Z" fill="#FF651D"/>
<path d="M325.784 197.665C333.196 197.665 339.204 191.657 339.204 184.245C339.204 176.834 333.196 170.825 325.784 170.825C318.372 170.825 312.364 176.834 312.364 184.245C312.364 191.657 318.372 197.665 325.784 197.665Z" fill="#FF651D"/>
<path d="M355.213 194.319C360.776 194.319 365.286 189.809 365.286 184.246C365.286 178.682 360.776 174.172 355.213 174.172C349.649 174.172 345.139 178.682 345.139 184.246C345.139 189.809 349.649 194.319 355.213 194.319Z" fill="#FF651D"/>
<path d="M384.659 194.319C390.222 194.319 394.732 189.809 394.732 184.246C394.732 178.682 390.222 174.172 384.659 174.172C379.095 174.172 374.585 178.682 374.585 184.246C374.585 189.809 379.095 194.319 384.659 194.319Z" fill="#FF651D"/>
<path d="M268.428 426.368C272.134 426.368 275.138 423.364 275.138 419.658C275.138 415.952 272.134 412.948 268.428 412.948C264.722 412.948 261.718 415.952 261.718 419.658C261.718 423.364 264.722 426.368 268.428 426.368Z" fill="#FF651D"/>
<path d="M238.982 426.368C242.687 426.368 245.692 423.364 245.692 419.658C245.692 415.952 242.687 412.948 238.982 412.948C235.276 412.948 232.271 415.952 232.271 419.658C232.271 423.364 235.276 426.368 238.982 426.368Z" fill="#FF651D"/>
<path d="M297.873 396.923C301.579 396.923 304.583 393.919 304.583 390.213C304.583 386.507 301.579 383.503 297.873 383.503C294.167 383.503 291.163 386.507 291.163 390.213C291.163 393.919 294.167 396.923 297.873 396.923Z" fill="#FF651D"/>
<path d="M268.427 400.287C273.991 400.287 278.501 395.777 278.501 390.213C278.501 384.65 273.991 380.14 268.427 380.14C262.864 380.14 258.354 384.65 258.354 390.213C258.354 395.777 262.864 400.287 268.427 400.287Z" fill="#FF651D"/>
<path d="M238.982 400.287C244.545 400.287 249.055 395.777 249.055 390.213C249.055 384.65 244.545 380.14 238.982 380.14C233.419 380.14 228.909 384.65 228.909 390.213C228.909 395.777 233.419 400.287 238.982 400.287Z" fill="#FF651D"/>
<path d="M209.537 396.923C213.243 396.923 216.247 393.919 216.247 390.213C216.247 386.507 213.243 383.503 209.537 383.503C205.831 383.503 202.827 386.507 202.827 390.213C202.827 393.919 205.831 396.923 209.537 396.923Z" fill="#FF651D"/>
<path d="M327.317 367.478C331.023 367.478 334.027 364.474 334.027 360.768C334.027 357.062 331.023 354.058 327.317 354.058C323.611 354.058 320.607 357.062 320.607 360.768C320.607 364.474 323.611 367.478 327.317 367.478Z" fill="#FF651D"/>
<path d="M297.873 367.478C301.579 367.478 304.583 364.474 304.583 360.768C304.583 357.062 301.579 354.058 297.873 354.058C294.167 354.058 291.163 357.062 291.163 360.768C291.163 364.474 294.167 367.478 297.873 367.478Z" fill="#FF651D"/>
<path d="M268.427 370.841C273.991 370.841 278.501 366.331 278.501 360.768C278.501 355.204 273.991 350.694 268.427 350.694C262.864 350.694 258.354 355.204 258.354 360.768C258.354 366.331 262.864 370.841 268.427 370.841Z" fill="#FF651D"/>
<path d="M238.982 370.841C244.545 370.841 249.055 366.331 249.055 360.768C249.055 355.204 244.545 350.694 238.982 350.694C233.419 350.694 228.909 355.204 228.909 360.768C228.909 366.331 233.419 370.841 238.982 370.841Z" fill="#FF651D"/>
<path d="M209.537 367.478C213.243 367.478 216.247 364.474 216.247 360.768C216.247 357.062 213.243 354.058 209.537 354.058C205.831 354.058 202.827 357.062 202.827 360.768C202.827 364.474 205.831 367.478 209.537 367.478Z" fill="#FF651D"/>
<path d="M180.092 367.478C183.798 367.478 186.802 364.474 186.802 360.768C186.802 357.062 183.798 354.058 180.092 354.058C176.386 354.058 173.382 357.062 173.382 360.768C173.382 364.474 176.386 367.478 180.092 367.478Z" fill="#FF651D"/>
<path d="M356.746 338.033C360.452 338.033 363.456 335.029 363.456 331.323C363.456 327.617 360.452 324.613 356.746 324.613C353.04 324.613 350.036 327.617 350.036 331.323C350.036 335.029 353.04 338.033 356.746 338.033Z" fill="#FF651D"/>
<path d="M327.318 341.397C332.881 341.397 337.391 336.887 337.391 331.324C337.391 325.76 332.881 321.25 327.318 321.25C321.754 321.25 317.244 325.76 317.244 331.324C317.244 336.887 321.754 341.397 327.318 341.397Z" fill="#FF651D"/>
<path d="M297.873 341.397C303.436 341.397 307.946 336.887 307.946 331.324C307.946 325.76 303.436 321.25 297.873 321.25C292.309 321.25 287.799 325.76 287.799 331.324C287.799 336.887 292.309 341.397 297.873 341.397Z" fill="#FF651D"/>
<path d="M268.427 344.743C275.839 344.743 281.848 338.735 281.848 331.323C281.848 323.911 275.839 317.903 268.427 317.903C261.016 317.903 255.007 323.911 255.007 331.323C255.007 338.735 261.016 344.743 268.427 344.743Z" fill="#FF651D"/>
<path d="M238.982 344.743C246.394 344.743 252.403 338.735 252.403 331.323C252.403 323.911 246.394 317.903 238.982 317.903C231.571 317.903 225.562 323.911 225.562 331.323C225.562 338.735 231.571 344.743 238.982 344.743Z" fill="#FF651D"/>
<path d="M209.537 341.397C215.1 341.397 219.61 336.887 219.61 331.324C219.61 325.76 215.1 321.25 209.537 321.25C203.974 321.25 199.464 325.76 199.464 331.324C199.464 336.887 203.974 341.397 209.537 341.397Z" fill="#FF651D"/>
<path d="M180.092 341.397C185.655 341.397 190.165 336.887 190.165 331.324C190.165 325.76 185.655 321.25 180.092 321.25C174.528 321.25 170.018 325.76 170.018 331.324C170.018 336.887 174.528 341.397 180.092 341.397Z" fill="#FF651D"/>
<path d="M150.663 338.033C154.369 338.033 157.373 335.029 157.373 331.323C157.373 327.617 154.369 324.613 150.663 324.613C146.957 324.613 143.953 327.617 143.953 331.323C143.953 335.029 146.957 338.033 150.663 338.033Z" fill="#FF651D"/>
<path d="M386.191 308.605C389.897 308.605 392.902 305.601 392.902 301.895C392.902 298.189 389.897 295.185 386.191 295.185C382.486 295.185 379.481 298.189 379.481 301.895C379.481 305.601 382.486 308.605 386.191 308.605Z" fill="#FF651D"/>
<path d="M327.318 311.967C332.881 311.967 337.391 307.458 337.391 301.894C337.391 296.331 332.881 291.821 327.318 291.821C321.754 291.821 317.244 296.331 317.244 301.894C317.244 307.458 321.754 311.967 327.318 311.967Z" fill="#FF651D"/>
<path d="M297.873 311.967C303.436 311.967 307.946 307.458 307.946 301.894C307.946 296.331 303.436 291.821 297.873 291.821C292.309 291.821 287.799 296.331 287.799 301.894C287.799 307.458 292.309 311.967 297.873 311.967Z" fill="#FF651D"/>
<path d="M268.427 315.314C275.839 315.314 281.848 309.306 281.848 301.894C281.848 294.483 275.839 288.474 268.427 288.474C261.016 288.474 255.007 294.483 255.007 301.894C255.007 309.306 261.016 315.314 268.427 315.314Z" fill="#FF651D"/>
<path d="M238.982 315.314C246.394 315.314 252.403 309.306 252.403 301.894C252.403 294.483 246.394 288.474 238.982 288.474C231.571 288.474 225.562 294.483 225.562 301.894C225.562 309.306 231.571 315.314 238.982 315.314Z" fill="#FF651D"/>
<path d="M209.537 311.967C215.1 311.967 219.61 307.458 219.61 301.894C219.61 296.331 215.1 291.821 209.537 291.821C203.974 291.821 199.464 296.331 199.464 301.894C199.464 307.458 203.974 311.967 209.537 311.967Z" fill="#FF651D"/>
<path d="M180.092 311.967C185.655 311.967 190.165 307.458 190.165 301.894C190.165 296.331 185.655 291.821 180.092 291.821C174.528 291.821 170.018 296.331 170.018 301.894C170.018 307.458 174.528 311.967 180.092 311.967Z" fill="#FF651D"/>
<path d="M121.218 308.605C124.924 308.605 127.928 305.601 127.928 301.895C127.928 298.189 124.924 295.185 121.218 295.185C117.512 295.185 114.508 298.189 114.508 301.895C114.508 305.601 117.512 308.605 121.218 308.605Z" fill="#FF651D"/>
<path d="M386.191 282.523C391.754 282.523 396.264 278.013 396.264 272.45C396.264 266.886 391.754 262.376 386.191 262.376C380.628 262.376 376.118 266.886 376.118 272.45C376.118 278.013 380.628 282.523 386.191 282.523Z" fill="#FF651D"/>
<path d="M356.746 282.523C362.309 282.523 366.819 278.013 366.819 272.45C366.819 266.886 362.309 262.376 356.746 262.376C351.183 262.376 346.673 266.886 346.673 272.45C346.673 278.013 351.183 282.523 356.746 282.523Z" fill="#FF651D"/>
<path d="M327.318 285.87C334.73 285.87 340.738 279.862 340.738 272.45C340.738 265.038 334.73 259.03 327.318 259.03C319.906 259.03 313.898 265.038 313.898 272.45C313.898 279.862 319.906 285.87 327.318 285.87Z" fill="#FF651D"/>
<path d="M297.873 285.87C305.285 285.87 311.293 279.862 311.293 272.45C311.293 265.038 305.285 259.03 297.873 259.03C290.461 259.03 284.453 265.038 284.453 272.45C284.453 279.862 290.461 285.87 297.873 285.87Z" fill="#FF651D"/>
<path d="M268.427 282.523C273.991 282.523 278.501 278.013 278.501 272.45C278.501 266.886 273.991 262.376 268.427 262.376C262.864 262.376 258.354 266.886 258.354 272.45C258.354 278.013 262.864 282.523 268.427 282.523Z" fill="#FF651D"/>
<path d="M238.982 282.523C244.545 282.523 249.055 278.013 249.055 272.45C249.055 266.886 244.545 262.376 238.982 262.376C233.419 262.376 228.909 266.886 228.909 272.45C228.909 278.013 233.419 282.523 238.982 282.523Z" fill="#FF651D"/>
<path d="M209.537 285.87C216.949 285.87 222.957 279.862 222.957 272.45C222.957 265.038 216.949 259.03 209.537 259.03C202.125 259.03 196.117 265.038 196.117 272.45C196.117 279.862 202.125 285.87 209.537 285.87Z" fill="#FF651D"/>
<path d="M180.092 285.87C187.504 285.87 193.512 279.862 193.512 272.45C193.512 265.038 187.504 259.03 180.092 259.03C172.68 259.03 166.672 265.038 166.672 272.45C166.672 279.862 172.68 285.87 180.092 285.87Z" fill="#FF651D"/>
<path d="M150.663 282.523C156.226 282.523 160.736 278.013 160.736 272.45C160.736 266.886 156.226 262.376 150.663 262.376C145.099 262.376 140.589 266.886 140.589 272.45C140.589 278.013 145.099 282.523 150.663 282.523Z" fill="#FF651D"/>
<path d="M121.218 282.523C126.782 282.523 131.292 278.013 131.292 272.45C131.292 266.886 126.782 262.376 121.218 262.376C115.655 262.376 111.145 266.886 111.145 272.45C111.145 278.013 115.655 282.523 121.218 282.523Z" fill="#FF651D"/>
<path d="M386.191 253.077C391.754 253.077 396.264 248.567 396.264 243.004C396.264 237.441 391.754 232.931 386.191 232.931C380.628 232.931 376.118 237.441 376.118 243.004C376.118 248.567 380.628 253.077 386.191 253.077Z" fill="#FF651D"/>
<path d="M356.746 253.077C362.309 253.077 366.819 248.567 366.819 243.004C366.819 237.441 362.309 232.931 356.746 232.931C351.183 232.931 346.673 237.441 346.673 243.004C346.673 248.567 351.183 253.077 356.746 253.077Z" fill="#FF651D"/>
<path d="M416.79 282.523C422.354 282.523 426.864 278.013 426.864 272.45C426.864 266.886 422.354 262.376 416.79 262.376C411.227 262.376 406.717 266.886 406.717 272.45C406.717 278.013 411.227 282.523 416.79 282.523Z" fill="#FF651D"/>
<path d="M416.79 253.077C422.354 253.077 426.864 248.567 426.864 243.004C426.864 237.441 422.354 232.931 416.79 232.931C411.227 232.931 406.717 237.441 406.717 243.004C406.717 248.567 411.227 253.077 416.79 253.077Z" fill="#FF651D"/>
<path d="M91.047 282.523C96.6103 282.523 101.12 278.013 101.12 272.45C101.12 266.886 96.6103 262.376 91.047 262.376C85.4836 262.376 80.9736 266.886 80.9736 272.45C80.9736 278.013 85.4836 282.523 91.047 282.523Z" fill="#FF651D"/>
<path d="M91.047 253.077C96.6103 253.077 101.12 248.567 101.12 243.004C101.12 237.441 96.6103 232.931 91.047 232.931C85.4836 232.931 80.9736 237.441 80.9736 243.004C80.9736 248.567 85.4836 253.077 91.047 253.077Z" fill="#FF651D"/>
<path d="M327.318 256.424C334.73 256.424 340.738 250.416 340.738 243.004C340.738 235.592 334.73 229.584 327.318 229.584C319.906 229.584 313.898 235.592 313.898 243.004C313.898 250.416 319.906 256.424 327.318 256.424Z" fill="#FF651D"/>
<path d="M297.873 256.424C305.285 256.424 311.293 250.416 311.293 243.004C311.293 235.592 305.285 229.584 297.873 229.584C290.461 229.584 284.453 235.592 284.453 243.004C284.453 250.416 290.461 256.424 297.873 256.424Z" fill="#FF651D"/>
<path d="M268.427 253.077C273.991 253.077 278.501 248.567 278.501 243.004C278.501 237.441 273.991 232.931 268.427 232.931C262.864 232.931 258.354 237.441 258.354 243.004C258.354 248.567 262.864 253.077 268.427 253.077Z" fill="#FF651D"/>
<path d="M238.982 253.077C244.545 253.077 249.055 248.567 249.055 243.004C249.055 237.441 244.545 232.931 238.982 232.931C233.419 232.931 228.909 237.441 228.909 243.004C228.909 248.567 233.419 253.077 238.982 253.077Z" fill="#FF651D"/>
<path d="M209.537 256.424C216.949 256.424 222.957 250.416 222.957 243.004C222.957 235.592 216.949 229.584 209.537 229.584C202.125 229.584 196.117 235.592 196.117 243.004C196.117 250.416 202.125 256.424 209.537 256.424Z" fill="#FF651D"/>
<path d="M180.092 256.424C187.504 256.424 193.512 250.416 193.512 243.004C193.512 235.592 187.504 229.584 180.092 229.584C172.68 229.584 166.672 235.592 166.672 243.004C166.672 250.416 172.68 256.424 180.092 256.424Z" fill="#FF651D"/>
<path d="M150.663 253.077C156.226 253.077 160.736 248.567 160.736 243.004C160.736 237.441 156.226 232.931 150.663 232.931C145.099 232.931 140.589 237.441 140.589 243.004C140.589 248.567 145.099 253.077 150.663 253.077Z" fill="#FF651D"/>
<path d="M121.218 253.077C126.782 253.077 131.292 248.567 131.292 243.004C131.292 237.441 126.782 232.931 121.218 232.931C115.655 232.931 111.145 237.441 111.145 243.004C111.145 248.567 115.655 253.077 121.218 253.077Z" fill="#FF651D"/>
<path d="M386.191 226.748C393.603 226.748 399.612 220.74 399.612 213.328C399.612 205.916 393.603 199.908 386.191 199.908C378.78 199.908 372.771 205.916 372.771 213.328C372.771 220.74 378.78 226.748 386.191 226.748Z" fill="#FF651D"/>
<path d="M356.747 226.748C364.159 226.748 370.167 220.74 370.167 213.328C370.167 205.916 364.159 199.908 356.747 199.908C349.335 199.908 343.327 205.916 343.327 213.328C343.327 220.74 349.335 226.748 356.747 226.748Z" fill="#FF651D"/>
<path d="M327.318 223.402C332.881 223.402 337.391 218.892 337.391 213.329C337.391 207.765 332.881 203.255 327.318 203.255C321.754 203.255 317.244 207.765 317.244 213.329C317.244 218.892 321.754 223.402 327.318 223.402Z" fill="#FF651D"/>
<path d="M297.873 223.402C303.436 223.402 307.946 218.892 307.946 213.329C307.946 207.765 303.436 203.255 297.873 203.255C292.309 203.255 287.799 207.765 287.799 213.329C287.799 218.892 292.309 223.402 297.873 223.402Z" fill="#FF651D"/>
<path d="M268.427 226.748C275.839 226.748 281.848 220.74 281.848 213.328C281.848 205.916 275.839 199.908 268.427 199.908C261.016 199.908 255.007 205.916 255.007 213.328C255.007 220.74 261.016 226.748 268.427 226.748Z" fill="#FF651D"/>
<path d="M238.982 226.748C246.394 226.748 252.403 220.74 252.403 213.328C252.403 205.916 246.394 199.908 238.982 199.908C231.571 199.908 225.562 205.916 225.562 213.328C225.562 220.74 231.571 226.748 238.982 226.748Z" fill="#FF651D"/>
<path d="M209.537 223.402C215.1 223.402 219.61 218.892 219.61 213.329C219.61 207.765 215.1 203.255 209.537 203.255C203.974 203.255 199.464 207.765 199.464 213.329C199.464 218.892 203.974 223.402 209.537 223.402Z" fill="#FF651D"/>
<path d="M180.092 223.402C185.655 223.402 190.165 218.892 190.165 213.329C190.165 207.765 185.655 203.255 180.092 203.255C174.528 203.255 170.018 207.765 170.018 213.329C170.018 218.892 174.528 223.402 180.092 223.402Z" fill="#FF651D"/>
<path d="M150.664 226.748C158.076 226.748 164.084 220.74 164.084 213.328C164.084 205.916 158.076 199.908 150.664 199.908C143.252 199.908 137.244 205.916 137.244 213.328C137.244 220.74 143.252 226.748 150.664 226.748Z" fill="#FF651D"/>
<path d="M121.218 226.748C128.629 226.748 134.638 220.74 134.638 213.328C134.638 205.916 128.629 199.908 121.218 199.908C113.806 199.908 107.798 205.916 107.798 213.328C107.798 220.74 113.806 226.748 121.218 226.748Z" fill="#FF651D"/>
<path d="M446.236 226.748C453.648 226.748 459.656 220.74 459.656 213.328C459.656 205.916 453.648 199.908 446.236 199.908C438.824 199.908 432.816 205.916 432.816 213.328C432.816 220.74 438.824 226.748 446.236 226.748Z" fill="#FF651D"/>
<path d="M416.79 226.748C424.202 226.748 430.211 220.74 430.211 213.328C430.211 205.916 424.202 199.908 416.79 199.908C409.379 199.908 403.37 205.916 403.37 213.328C403.37 220.74 409.379 226.748 416.79 226.748Z" fill="#FF651D"/>
<path d="M91.0473 226.748C98.4591 226.748 104.467 220.74 104.467 213.328C104.467 205.916 98.4591 199.908 91.0473 199.908C83.6356 199.908 77.6272 205.916 77.6272 213.328C77.6272 220.74 83.6356 226.748 91.0473 226.748Z" fill="#FF651D"/>
<path d="M61.603 226.748C69.0147 226.748 75.0231 220.74 75.0231 213.328C75.0231 205.916 69.0147 199.908 61.603 199.908C54.1913 199.908 48.1829 205.916 48.1829 213.328C48.1829 220.74 54.1913 226.748 61.603 226.748Z" fill="#FF651D"/>
<path d="M32.5367 223.402C38.1001 223.402 42.6101 218.892 42.6101 213.329C42.6101 207.765 38.1001 203.255 32.5367 203.255C26.9734 203.255 22.4634 207.765 22.4634 213.329C22.4634 218.892 26.9734 223.402 32.5367 223.402Z" fill="#FF651D"/>
<path d="M474.181 223.402C479.744 223.402 484.254 218.892 484.254 213.329C484.254 207.765 479.744 203.255 474.181 203.255C468.617 203.255 464.107 207.765 464.107 213.329C464.107 218.892 468.617 223.402 474.181 223.402Z" fill="#FF651D"/>
</g>
<defs>
<clipPath id="clip0_5662_1145">
<rect width="503.865" height="425.487" fill="white" transform="translate(0.898438 0.881348)"/>
</clipPath>
</defs>
</svg>
