<svg width="361" height="361" viewBox="0 0 361 361" fill="none" xmlns="http://www.w3.org/2000/svg">
<g clip-path="url(#clip0_5662_1276)">
<path d="M111.766 16.5079C116.092 16.5079 119.599 13.0008 119.599 8.67459C119.599 4.34839 116.092 0.841309 111.766 0.841309C107.44 0.841309 103.933 4.34839 103.933 8.67459C103.933 13.0008 107.44 16.5079 111.766 16.5079Z" fill="#FF651D"/>
<path d="M146.156 16.5079C150.482 16.5079 153.989 13.0008 153.989 8.67459C153.989 4.34839 150.482 0.841309 146.156 0.841309C141.83 0.841309 138.323 4.34839 138.323 8.67459C138.323 13.0008 141.83 16.5079 146.156 16.5079Z" fill="#FF651D"/>
<path d="M180.545 16.5079C184.872 16.5079 188.379 13.0008 188.379 8.67459C188.379 4.34839 184.872 0.841309 180.545 0.841309C176.219 0.841309 172.712 4.34839 172.712 8.67459C172.712 13.0008 176.219 16.5079 180.545 16.5079Z" fill="#FF651D"/>
<path d="M214.935 16.5079C219.262 16.5079 222.769 13.0008 222.769 8.67459C222.769 4.34839 219.262 0.841309 214.935 0.841309C210.609 0.841309 207.102 4.34839 207.102 8.67459C207.102 13.0008 210.609 16.5079 214.935 16.5079Z" fill="#FF651D"/>
<path d="M249.327 16.5079C253.653 16.5079 257.16 13.0008 257.16 8.67459C257.16 4.34839 253.653 0.841309 249.327 0.841309C245.001 0.841309 241.494 4.34839 241.494 8.67459C241.494 13.0008 245.001 16.5079 249.327 16.5079Z" fill="#FF651D"/>
<path d="M77.3762 50.8985C81.7024 50.8985 85.2095 47.3914 85.2095 43.0652C85.2095 38.739 81.7024 35.2319 77.3762 35.2319C73.05 35.2319 69.543 38.739 69.543 43.0652C69.543 47.3914 73.05 50.8985 77.3762 50.8985Z" fill="#FF651D"/>
<path d="M111.766 50.8985C116.092 50.8985 119.599 47.3914 119.599 43.0652C119.599 38.739 116.092 35.2319 111.766 35.2319C107.44 35.2319 103.933 38.739 103.933 43.0652C103.933 47.3914 107.44 50.8985 111.766 50.8985Z" fill="#FF651D"/>
<path d="M146.156 50.8985C150.482 50.8985 153.989 47.3914 153.989 43.0652C153.989 38.739 150.482 35.2319 146.156 35.2319C141.83 35.2319 138.323 38.739 138.323 43.0652C138.323 47.3914 141.83 50.8985 146.156 50.8985Z" fill="#FF651D"/>
<path d="M180.545 50.8985C184.872 50.8985 188.379 47.3914 188.379 43.0652C188.379 38.739 184.872 35.2319 180.545 35.2319C176.219 35.2319 172.712 38.739 172.712 43.0652C172.712 47.3914 176.219 50.8985 180.545 50.8985Z" fill="#FF651D"/>
<path d="M214.935 50.8985C219.262 50.8985 222.769 47.3914 222.769 43.0652C222.769 38.739 219.262 35.2319 214.935 35.2319C210.609 35.2319 207.102 38.739 207.102 43.0652C207.102 47.3914 210.609 50.8985 214.935 50.8985Z" fill="#FF651D"/>
<path d="M249.327 50.8985C253.653 50.8985 257.16 47.3914 257.16 43.0652C257.16 38.739 253.653 35.2319 249.327 35.2319C245.001 35.2319 241.494 38.739 241.494 43.0652C241.494 47.3914 245.001 50.8985 249.327 50.8985Z" fill="#FF651D"/>
<path d="M283.717 50.8985C288.043 50.8985 291.55 47.3914 291.55 43.0652C291.55 38.739 288.043 35.2319 283.717 35.2319C279.391 35.2319 275.884 38.739 275.884 43.0652C275.884 47.3914 279.391 50.8985 283.717 50.8985Z" fill="#FF651D"/>
<path d="M42.9854 85.2877C47.3116 85.2877 50.8187 81.7806 50.8187 77.4544C50.8187 73.1282 47.3116 69.6211 42.9854 69.6211C38.6592 69.6211 35.1521 73.1282 35.1521 77.4544C35.1521 81.7806 38.6592 85.2877 42.9854 85.2877Z" fill="#FF651D"/>
<path d="M77.3762 85.2877C81.7024 85.2877 85.2095 81.7806 85.2095 77.4544C85.2095 73.1282 81.7024 69.6211 77.3762 69.6211C73.05 69.6211 69.543 73.1282 69.543 77.4544C69.543 81.7806 73.05 85.2877 77.3762 85.2877Z" fill="#FF651D"/>
<path d="M111.768 89.2231C118.268 89.2231 123.537 83.9539 123.537 77.4541C123.537 70.9542 118.268 65.6851 111.768 65.6851C105.268 65.6851 99.999 70.9542 99.999 77.4541C99.999 83.9539 105.268 89.2231 111.768 89.2231Z" fill="#FF651D"/>
<path d="M146.158 89.2231C152.658 89.2231 157.927 83.9539 157.927 77.4541C157.927 70.9542 152.658 65.6851 146.158 65.6851C139.658 65.6851 134.389 70.9542 134.389 77.4541C134.389 83.9539 139.658 89.2231 146.158 89.2231Z" fill="#FF651D"/>
<path d="M180.547 89.2231C187.047 89.2231 192.316 83.9539 192.316 77.4541C192.316 70.9542 187.047 65.6851 180.547 65.6851C174.047 65.6851 168.778 70.9542 168.778 77.4541C168.778 83.9539 174.047 89.2231 180.547 89.2231Z" fill="#FF651D"/>
<path d="M214.936 89.2231C221.436 89.2231 226.706 83.9539 226.706 77.4541C226.706 70.9542 221.436 65.6851 214.936 65.6851C208.437 65.6851 203.167 70.9542 203.167 77.4541C203.167 83.9539 208.437 89.2231 214.936 89.2231Z" fill="#FF651D"/>
<path d="M249.326 89.2231C255.826 89.2231 261.095 83.9539 261.095 77.4541C261.095 70.9542 255.826 65.6851 249.326 65.6851C242.826 65.6851 237.557 70.9542 237.557 77.4541C237.557 83.9539 242.826 89.2231 249.326 89.2231Z" fill="#FF651D"/>
<path d="M283.717 85.2877C288.043 85.2877 291.55 81.7806 291.55 77.4544C291.55 73.1282 288.043 69.6211 283.717 69.6211C279.391 69.6211 275.884 73.1282 275.884 77.4544C275.884 81.7806 279.391 85.2877 283.717 85.2877Z" fill="#FF651D"/>
<path d="M318.107 85.2877C322.433 85.2877 325.94 81.7806 325.94 77.4544C325.94 73.1282 322.433 69.6211 318.107 69.6211C313.781 69.6211 310.273 73.1282 310.273 77.4544C310.273 81.7806 313.781 85.2877 318.107 85.2877Z" fill="#FF651D"/>
<path d="M8.59646 119.678C12.9227 119.678 16.4297 116.171 16.4297 111.845C16.4297 107.518 12.9227 104.011 8.59646 104.011C4.27026 104.011 0.763184 107.518 0.763184 111.845C0.763184 116.171 4.27026 119.678 8.59646 119.678Z" fill="#FF651D"/>
<path d="M42.9854 119.678C47.3116 119.678 50.8187 116.171 50.8187 111.845C50.8187 107.518 47.3116 104.011 42.9854 104.011C38.6592 104.011 35.1521 107.518 35.1521 111.845C35.1521 116.171 38.6592 119.678 42.9854 119.678Z" fill="#FF651D"/>
<path d="M77.3772 123.614C83.877 123.614 89.1462 118.345 89.1462 111.845C89.1462 105.345 83.877 100.076 77.3772 100.076C70.8773 100.076 65.6082 105.345 65.6082 111.845C65.6082 118.345 70.8773 123.614 77.3772 123.614Z" fill="#FF651D"/>
<path d="M111.768 123.614C118.268 123.614 123.537 118.345 123.537 111.845C123.537 105.345 118.268 100.076 111.768 100.076C105.268 100.076 99.9988 105.345 99.9988 111.845C99.9988 118.345 105.268 123.614 111.768 123.614Z" fill="#FF651D"/>
<path d="M249.326 123.614C255.826 123.614 261.095 118.345 261.095 111.845C261.095 105.345 255.826 100.076 249.326 100.076C242.826 100.076 237.557 105.345 237.557 111.845C237.557 118.345 242.826 123.614 249.326 123.614Z" fill="#FF651D"/>
<path d="M283.717 123.614C290.217 123.614 295.486 118.345 295.486 111.845C295.486 105.345 290.217 100.076 283.717 100.076C277.217 100.076 271.948 105.345 271.948 111.845C271.948 118.345 277.217 123.614 283.717 123.614Z" fill="#FF651D"/>
<path d="M318.107 119.678C322.433 119.678 325.94 116.171 325.94 111.845C325.94 107.518 322.433 104.011 318.107 104.011C313.781 104.011 310.273 107.518 310.273 111.845C310.273 116.171 313.781 119.678 318.107 119.678Z" fill="#FF651D"/>
<path d="M352.496 119.678C356.822 119.678 360.329 116.171 360.329 111.845C360.329 107.518 356.822 104.011 352.496 104.011C348.169 104.011 344.662 107.518 344.662 111.845C344.662 116.171 348.169 119.678 352.496 119.678Z" fill="#FF651D"/>
<path d="M8.59695 154.067C12.9232 154.067 16.4302 150.56 16.4302 146.234C16.4302 141.908 12.9232 138.401 8.59695 138.401C4.27075 138.401 0.763672 141.908 0.763672 146.234C0.763672 150.56 4.27075 154.067 8.59695 154.067Z" fill="#FF651D"/>
<path d="M42.9856 154.067C47.3118 154.067 50.8189 150.56 50.8189 146.234C50.8189 141.908 47.3118 138.401 42.9856 138.401C38.6594 138.401 35.1523 141.908 35.1523 146.234C35.1523 150.56 38.6594 154.067 42.9856 154.067Z" fill="#FF651D"/>
<path d="M77.3772 158.003C83.877 158.003 89.1462 152.734 89.1462 146.234C89.1462 139.734 83.877 134.465 77.3772 134.465C70.8773 134.465 65.6082 139.734 65.6082 146.234C65.6082 152.734 70.8773 158.003 77.3772 158.003Z" fill="#FF651D"/>
<path d="M283.717 158.003C290.217 158.003 295.486 152.734 295.486 146.234C295.486 139.734 290.217 134.465 283.717 134.465C277.217 134.465 271.948 139.734 271.948 146.234C271.948 152.734 277.217 158.003 283.717 158.003Z" fill="#FF651D"/>
<path d="M318.107 154.067C322.433 154.067 325.94 150.56 325.94 146.234C325.94 141.908 322.433 138.401 318.107 138.401C313.781 138.401 310.273 141.908 310.273 146.234C310.273 150.56 313.781 154.067 318.107 154.067Z" fill="#FF651D"/>
<path d="M352.496 154.067C356.822 154.067 360.329 150.56 360.329 146.234C360.329 141.908 356.822 138.401 352.496 138.401C348.17 138.401 344.663 141.908 344.663 146.234C344.663 150.56 348.17 154.067 352.496 154.067Z" fill="#FF651D"/>
<path d="M8.59646 188.458C12.9227 188.458 16.4297 184.951 16.4297 180.625C16.4297 176.299 12.9227 172.792 8.59646 172.792C4.27026 172.792 0.763184 176.299 0.763184 180.625C0.763184 184.951 4.27026 188.458 8.59646 188.458Z" fill="#FF651D"/>
<path d="M42.9854 188.458C47.3116 188.458 50.8187 184.951 50.8187 180.625C50.8187 176.299 47.3116 172.792 42.9854 172.792C38.6592 172.792 35.1521 176.299 35.1521 180.625C35.1521 184.951 38.6592 188.458 42.9854 188.458Z" fill="#FF651D"/>
<path d="M77.3774 192.393C83.8773 192.393 89.1464 187.124 89.1464 180.624C89.1464 174.124 83.8773 168.855 77.3774 168.855C70.8776 168.855 65.6084 174.124 65.6084 180.624C65.6084 187.124 70.8776 192.393 77.3774 192.393Z" fill="#FF651D"/>
<path d="M283.717 192.393C290.217 192.393 295.486 187.124 295.486 180.624C295.486 174.124 290.217 168.855 283.717 168.855C277.217 168.855 271.948 174.124 271.948 180.624C271.948 187.124 277.217 192.393 283.717 192.393Z" fill="#FF651D"/>
<path d="M318.107 188.458C322.433 188.458 325.94 184.951 325.94 180.625C325.94 176.299 322.433 172.792 318.107 172.792C313.781 172.792 310.273 176.299 310.273 180.625C310.273 184.951 313.781 188.458 318.107 188.458Z" fill="#FF651D"/>
<path d="M352.496 188.458C356.822 188.458 360.329 184.951 360.329 180.625C360.329 176.299 356.822 172.792 352.496 172.792C348.169 172.792 344.662 176.299 344.662 180.625C344.662 184.951 348.169 188.458 352.496 188.458Z" fill="#FF651D"/>
<path d="M8.59695 222.848C12.9232 222.848 16.4302 219.341 16.4302 215.014C16.4302 210.688 12.9232 207.181 8.59695 207.181C4.27075 207.181 0.763672 210.688 0.763672 215.014C0.763672 219.341 4.27075 222.848 8.59695 222.848Z" fill="#FF651D"/>
<path d="M42.9856 222.848C47.3118 222.848 50.8189 219.341 50.8189 215.014C50.8189 210.688 47.3118 207.181 42.9856 207.181C38.6594 207.181 35.1523 210.688 35.1523 215.014C35.1523 219.341 38.6594 222.848 42.9856 222.848Z" fill="#FF651D"/>
<path d="M77.3772 226.784C83.877 226.784 89.1462 221.514 89.1462 215.015C89.1462 208.515 83.877 203.246 77.3772 203.246C70.8773 203.246 65.6082 208.515 65.6082 215.015C65.6082 221.514 70.8773 226.784 77.3772 226.784Z" fill="#FF651D"/>
<path d="M283.717 226.784C290.217 226.784 295.486 221.514 295.486 215.015C295.486 208.515 290.217 203.246 283.717 203.246C277.217 203.246 271.948 208.515 271.948 215.015C271.948 221.514 277.217 226.784 283.717 226.784Z" fill="#FF651D"/>
<path d="M318.107 222.848C322.433 222.848 325.94 219.341 325.94 215.014C325.94 210.688 322.433 207.181 318.107 207.181C313.781 207.181 310.273 210.688 310.273 215.014C310.273 219.341 313.781 222.848 318.107 222.848Z" fill="#FF651D"/>
<path d="M352.496 222.848C356.822 222.848 360.329 219.341 360.329 215.014C360.329 210.688 356.822 207.181 352.496 207.181C348.17 207.181 344.663 210.688 344.663 215.014C344.663 219.341 348.17 222.848 352.496 222.848Z" fill="#FF651D"/>
<path d="M8.59646 257.238C12.9227 257.238 16.4297 253.731 16.4297 249.405C16.4297 245.078 12.9227 241.571 8.59646 241.571C4.27026 241.571 0.763184 245.078 0.763184 249.405C0.763184 253.731 4.27026 257.238 8.59646 257.238Z" fill="#FF651D"/>
<path d="M42.9854 257.238C47.3116 257.238 50.8187 253.731 50.8187 249.405C50.8187 245.078 47.3116 241.571 42.9854 241.571C38.6592 241.571 35.1521 245.078 35.1521 249.405C35.1521 253.731 38.6592 257.238 42.9854 257.238Z" fill="#FF651D"/>
<path d="M77.3774 261.173C83.8773 261.173 89.1464 255.904 89.1464 249.404C89.1464 242.904 83.8773 237.635 77.3774 237.635C70.8776 237.635 65.6084 242.904 65.6084 249.404C65.6084 255.904 70.8776 261.173 77.3774 261.173Z" fill="#FF651D"/>
<path d="M111.768 261.173C118.268 261.173 123.537 255.904 123.537 249.404C123.537 242.904 118.268 237.635 111.768 237.635C105.268 237.635 99.999 242.904 99.999 249.404C99.999 255.904 105.268 261.173 111.768 261.173Z" fill="#FF651D"/>
<path d="M249.326 261.173C255.826 261.173 261.095 255.904 261.095 249.404C261.095 242.904 255.826 237.635 249.326 237.635C242.826 237.635 237.557 242.904 237.557 249.404C237.557 255.904 242.826 261.173 249.326 261.173Z" fill="#FF651D"/>
<path d="M283.717 261.173C290.217 261.173 295.486 255.904 295.486 249.404C295.486 242.904 290.217 237.635 283.717 237.635C277.217 237.635 271.948 242.904 271.948 249.404C271.948 255.904 277.217 261.173 283.717 261.173Z" fill="#FF651D"/>
<path d="M318.107 257.238C322.433 257.238 325.94 253.731 325.94 249.405C325.94 245.078 322.433 241.571 318.107 241.571C313.781 241.571 310.273 245.078 310.273 249.405C310.273 253.731 313.781 257.238 318.107 257.238Z" fill="#FF651D"/>
<path d="M352.496 257.238C356.822 257.238 360.329 253.731 360.329 249.405C360.329 245.078 356.822 241.571 352.496 241.571C348.169 241.571 344.662 245.078 344.662 249.405C344.662 253.731 348.169 257.238 352.496 257.238Z" fill="#FF651D"/>
<path d="M42.9854 291.628C47.3116 291.628 50.8187 288.121 50.8187 283.795C50.8187 279.469 47.3116 275.961 42.9854 275.961C38.6592 275.961 35.1521 279.469 35.1521 283.795C35.1521 288.121 38.6592 291.628 42.9854 291.628Z" fill="#FF651D"/>
<path d="M77.3762 291.628C81.7024 291.628 85.2095 288.121 85.2095 283.795C85.2095 279.469 81.7024 275.961 77.3762 275.961C73.05 275.961 69.543 279.469 69.543 283.795C69.543 288.121 73.05 291.628 77.3762 291.628Z" fill="#FF651D"/>
<path d="M111.768 295.564C118.268 295.564 123.537 290.295 123.537 283.795C123.537 277.295 118.268 272.026 111.768 272.026C105.268 272.026 99.9988 277.295 99.9988 283.795C99.9988 290.295 105.268 295.564 111.768 295.564Z" fill="#FF651D"/>
<path d="M146.158 295.564C152.658 295.564 157.927 290.295 157.927 283.795C157.927 277.295 152.658 272.026 146.158 272.026C139.658 272.026 134.389 277.295 134.389 283.795C134.389 290.295 139.658 295.564 146.158 295.564Z" fill="#FF651D"/>
<path d="M180.547 295.564C187.046 295.564 192.316 290.295 192.316 283.795C192.316 277.295 187.046 272.026 180.547 272.026C174.047 272.026 168.778 277.295 168.778 283.795C168.778 290.295 174.047 295.564 180.547 295.564Z" fill="#FF651D"/>
<path d="M214.936 295.564C221.436 295.564 226.705 290.295 226.705 283.795C226.705 277.295 221.436 272.026 214.936 272.026C208.436 272.026 203.167 277.295 203.167 283.795C203.167 290.295 208.436 295.564 214.936 295.564Z" fill="#FF651D"/>
<path d="M249.326 295.564C255.826 295.564 261.095 290.295 261.095 283.795C261.095 277.295 255.826 272.026 249.326 272.026C242.826 272.026 237.557 277.295 237.557 283.795C237.557 290.295 242.826 295.564 249.326 295.564Z" fill="#FF651D"/>
<path d="M283.717 291.628C288.043 291.628 291.55 288.121 291.55 283.795C291.55 279.469 288.043 275.961 283.717 275.961C279.391 275.961 275.884 279.469 275.884 283.795C275.884 288.121 279.391 291.628 283.717 291.628Z" fill="#FF651D"/>
<path d="M318.107 291.628C322.433 291.628 325.94 288.121 325.94 283.795C325.94 279.469 322.433 275.961 318.107 275.961C313.781 275.961 310.273 279.469 310.273 283.795C310.273 288.121 313.781 291.628 318.107 291.628Z" fill="#FF651D"/>
<path d="M77.3762 326.018C81.7024 326.018 85.2095 322.511 85.2095 318.184C85.2095 313.858 81.7024 310.351 77.3762 310.351C73.05 310.351 69.543 313.858 69.543 318.184C69.543 322.511 73.05 326.018 77.3762 326.018Z" fill="#FF651D"/>
<path d="M111.766 326.018C116.093 326.018 119.6 322.511 119.6 318.184C119.6 313.858 116.093 310.351 111.766 310.351C107.44 310.351 103.933 313.858 103.933 318.184C103.933 322.511 107.44 326.018 111.766 326.018Z" fill="#FF651D"/>
<path d="M146.156 326.018C150.482 326.018 153.989 322.511 153.989 318.184C153.989 313.858 150.482 310.351 146.156 310.351C141.83 310.351 138.323 313.858 138.323 318.184C138.323 322.511 141.83 326.018 146.156 326.018Z" fill="#FF651D"/>
<path d="M180.546 326.018C184.872 326.018 188.379 322.511 188.379 318.184C188.379 313.858 184.872 310.351 180.546 310.351C176.219 310.351 172.712 313.858 172.712 318.184C172.712 322.511 176.219 326.018 180.546 326.018Z" fill="#FF651D"/>
<path d="M214.936 326.018C219.262 326.018 222.769 322.511 222.769 318.184C222.769 313.858 219.262 310.351 214.936 310.351C210.61 310.351 207.103 313.858 207.103 318.184C207.103 322.511 210.61 326.018 214.936 326.018Z" fill="#FF651D"/>
<path d="M249.327 326.018C253.654 326.018 257.161 322.511 257.161 318.184C257.161 313.858 253.654 310.351 249.327 310.351C245.001 310.351 241.494 313.858 241.494 318.184C241.494 322.511 245.001 326.018 249.327 326.018Z" fill="#FF651D"/>
<path d="M283.717 326.018C288.043 326.018 291.55 322.511 291.55 318.184C291.55 313.858 288.043 310.351 283.717 310.351C279.391 310.351 275.884 313.858 275.884 318.184C275.884 322.511 279.391 326.018 283.717 326.018Z" fill="#FF651D"/>
<path d="M111.766 360.408C116.092 360.408 119.599 356.901 119.599 352.575C119.599 348.248 116.092 344.741 111.766 344.741C107.44 344.741 103.933 348.248 103.933 352.575C103.933 356.901 107.44 360.408 111.766 360.408Z" fill="#FF651D"/>
<path d="M146.156 360.408C150.482 360.408 153.989 356.901 153.989 352.575C153.989 348.248 150.482 344.741 146.156 344.741C141.83 344.741 138.323 348.248 138.323 352.575C138.323 356.901 141.83 360.408 146.156 360.408Z" fill="#FF651D"/>
<path d="M180.545 360.408C184.872 360.408 188.379 356.901 188.379 352.575C188.379 348.248 184.872 344.741 180.545 344.741C176.219 344.741 172.712 348.248 172.712 352.575C172.712 356.901 176.219 360.408 180.545 360.408Z" fill="#FF651D"/>
<path d="M214.935 360.408C219.262 360.408 222.769 356.901 222.769 352.575C222.769 348.248 219.262 344.741 214.935 344.741C210.609 344.741 207.102 348.248 207.102 352.575C207.102 356.901 210.609 360.408 214.935 360.408Z" fill="#FF651D"/>
<path d="M249.327 360.408C253.653 360.408 257.16 356.901 257.16 352.575C257.16 348.248 253.653 344.741 249.327 344.741C245.001 344.741 241.494 348.248 241.494 352.575C241.494 356.901 245.001 360.408 249.327 360.408Z" fill="#FF651D"/>
</g>
<defs>
<clipPath id="clip0_5662_1276">
<rect width="359.567" height="359.567" fill="white" transform="translate(0.763428 0.841797)"/>
</clipPath>
</defs>
</svg>
