<svg width="475" height="475" viewBox="0 0 475 475" fill="none" xmlns="http://www.w3.org/2000/svg">
<g clip-path="url(#clip0_5662_1353)">
<path d="M237.579 13.5115C241.206 13.5115 244.147 10.5709 244.147 6.9435C244.147 3.31609 241.206 0.375488 237.579 0.375488C233.952 0.375488 231.011 3.31609 231.011 6.9435C231.011 10.5709 233.952 13.5115 237.579 13.5115Z" fill="#FF651D"/>
<path d="M237.58 45.6467C243.03 45.6467 247.448 41.2286 247.448 35.7787C247.448 30.3287 243.03 25.9106 237.58 25.9106C232.13 25.9106 227.712 30.3287 227.712 35.7787C227.712 41.2286 232.13 45.6467 237.58 45.6467Z" fill="#FF651D"/>
<path d="M208.744 71.1819C212.371 71.1819 215.312 68.2413 215.312 64.6139C215.312 60.9865 212.371 58.0459 208.744 58.0459C205.116 58.0459 202.176 60.9865 202.176 64.6139C202.176 68.2413 205.116 71.1819 208.744 71.1819Z" fill="#FF651D"/>
<path d="M237.58 74.4817C243.03 74.4817 247.448 70.0636 247.448 64.6136C247.448 59.1637 243.03 54.7456 237.58 54.7456C232.13 54.7456 227.712 59.1637 227.712 64.6136C227.712 70.0636 232.13 74.4817 237.58 74.4817Z" fill="#FF651D"/>
<path d="M266.415 71.1819C270.042 71.1819 272.983 68.2413 272.983 64.6139C272.983 60.9865 270.042 58.0459 266.415 58.0459C262.787 58.0459 259.847 60.9865 259.847 64.6139C259.847 68.2413 262.787 71.1819 266.415 71.1819Z" fill="#FF651D"/>
<path d="M208.745 103.317C214.195 103.317 218.613 98.8991 218.613 93.4491C218.613 87.9991 214.195 83.5811 208.745 83.5811C203.295 83.5811 198.877 87.9991 198.877 93.4491C198.877 98.8991 203.295 103.317 208.745 103.317Z" fill="#FF651D"/>
<path d="M237.58 106.585C244.835 106.585 250.716 100.704 250.716 93.449C250.716 86.1942 244.835 80.313 237.58 80.313C230.326 80.313 224.444 86.1942 224.444 93.449C224.444 100.704 230.326 106.585 237.58 106.585Z" fill="#FF651D"/>
<path d="M266.415 103.317C271.865 103.317 276.283 98.8991 276.283 93.4491C276.283 87.9991 271.865 83.5811 266.415 83.5811C260.965 83.5811 256.547 87.9991 256.547 93.4491C256.547 98.8991 260.965 103.317 266.415 103.317Z" fill="#FF651D"/>
<path d="M179.909 128.852C183.536 128.852 186.477 125.912 186.477 122.284C186.477 118.657 183.536 115.716 179.909 115.716C176.281 115.716 173.341 118.657 173.341 122.284C173.341 125.912 176.281 128.852 179.909 128.852Z" fill="#FF651D"/>
<path d="M208.745 132.152C214.195 132.152 218.613 127.734 218.613 122.284C218.613 116.834 214.195 112.416 208.745 112.416C203.295 112.416 198.877 116.834 198.877 122.284C198.877 127.734 203.295 132.152 208.745 132.152Z" fill="#FF651D"/>
<path d="M237.58 135.42C244.835 135.42 250.716 129.539 250.716 122.284C250.716 115.029 244.835 109.148 237.58 109.148C230.326 109.148 224.444 115.029 224.444 122.284C224.444 129.539 230.326 135.42 237.58 135.42Z" fill="#FF651D"/>
<path d="M266.415 132.152C271.865 132.152 276.283 127.734 276.283 122.284C276.283 116.834 271.865 112.416 266.415 112.416C260.965 112.416 256.547 116.834 256.547 122.284C256.547 127.734 260.965 132.152 266.415 132.152Z" fill="#FF651D"/>
<path d="M295.25 128.852C298.877 128.852 301.818 125.912 301.818 122.284C301.818 118.657 298.877 115.716 295.25 115.716C291.622 115.716 288.682 118.657 288.682 122.284C288.682 125.912 291.622 128.852 295.25 128.852Z" fill="#FF651D"/>
<path d="M151.074 157.687C154.701 157.687 157.642 154.747 157.642 151.119C157.642 147.492 154.701 144.551 151.074 144.551C147.446 144.551 144.506 147.492 144.506 151.119C144.506 154.747 147.446 157.687 151.074 157.687Z" fill="#FF651D"/>
<path d="M179.909 160.988C185.359 160.988 189.777 156.569 189.777 151.119C189.777 145.67 185.359 141.251 179.909 141.251C174.459 141.251 170.041 145.67 170.041 151.119C170.041 156.569 174.459 160.988 179.909 160.988Z" fill="#FF651D"/>
<path d="M208.745 164.255C216 164.255 221.881 158.374 221.881 151.119C221.881 143.865 216 137.983 208.745 137.983C201.49 137.983 195.609 143.865 195.609 151.119C195.609 158.374 201.49 164.255 208.745 164.255Z" fill="#FF651D"/>
<path d="M237.58 164.255C244.835 164.255 250.716 158.374 250.716 151.119C250.716 143.865 244.835 137.983 237.58 137.983C230.326 137.983 224.444 143.865 224.444 151.119C224.444 158.374 230.326 164.255 237.58 164.255Z" fill="#FF651D"/>
<path d="M266.415 164.255C273.67 164.255 279.551 158.374 279.551 151.119C279.551 143.865 273.67 137.983 266.415 137.983C259.161 137.983 253.279 143.865 253.279 151.119C253.279 158.374 259.161 164.255 266.415 164.255Z" fill="#FF651D"/>
<path d="M295.25 160.988C300.7 160.988 305.118 156.569 305.118 151.119C305.118 145.67 300.7 141.251 295.25 141.251C289.8 141.251 285.382 145.67 285.382 151.119C285.382 156.569 289.8 160.988 295.25 160.988Z" fill="#FF651D"/>
<path d="M324.085 157.687C327.713 157.687 330.653 154.747 330.653 151.119C330.653 147.492 327.713 144.551 324.085 144.551C320.458 144.551 317.517 147.492 317.517 151.119C317.517 154.747 320.458 157.687 324.085 157.687Z" fill="#FF651D"/>
<path d="M122.238 186.523C125.866 186.523 128.806 183.582 128.806 179.955C128.806 176.327 125.866 173.387 122.238 173.387C118.611 173.387 115.67 176.327 115.67 179.955C115.67 183.582 118.611 186.523 122.238 186.523Z" fill="#FF651D"/>
<path d="M151.074 189.822C156.524 189.822 160.942 185.404 160.942 179.954C160.942 174.504 156.524 170.086 151.074 170.086C145.624 170.086 141.206 174.504 141.206 179.954C141.206 185.404 145.624 189.822 151.074 189.822Z" fill="#FF651D"/>
<path d="M179.91 193.09C187.165 193.09 193.046 187.209 193.046 179.954C193.046 172.7 187.165 166.818 179.91 166.818C172.655 166.818 166.774 172.7 166.774 179.954C166.774 187.209 172.655 193.09 179.91 193.09Z" fill="#FF651D"/>
<path d="M208.745 193.09C216 193.09 221.881 187.209 221.881 179.954C221.881 172.7 216 166.818 208.745 166.818C201.49 166.818 195.609 172.7 195.609 179.954C195.609 187.209 201.49 193.09 208.745 193.09Z" fill="#FF651D"/>
<path d="M237.58 193.09C244.835 193.09 250.716 187.209 250.716 179.954C250.716 172.7 244.835 166.818 237.58 166.818C230.326 166.818 224.444 172.7 224.444 179.954C224.444 187.209 230.326 193.09 237.58 193.09Z" fill="#FF651D"/>
<path d="M266.415 193.09C273.67 193.09 279.551 187.209 279.551 179.954C279.551 172.7 273.67 166.818 266.415 166.818C259.161 166.818 253.279 172.7 253.279 179.954C253.279 187.209 259.161 193.09 266.415 193.09Z" fill="#FF651D"/>
<path d="M295.25 193.09C302.505 193.09 308.386 187.209 308.386 179.954C308.386 172.7 302.505 166.818 295.25 166.818C287.995 166.818 282.114 172.7 282.114 179.954C282.114 187.209 287.995 193.09 295.25 193.09Z" fill="#FF651D"/>
<path d="M324.086 189.822C329.536 189.822 333.954 185.404 333.954 179.954C333.954 174.504 329.536 170.086 324.086 170.086C318.636 170.086 314.218 174.504 314.218 179.954C314.218 185.404 318.636 189.822 324.086 189.822Z" fill="#FF651D"/>
<path d="M352.92 186.523C356.547 186.523 359.488 183.582 359.488 179.955C359.488 176.327 356.547 173.387 352.92 173.387C349.293 173.387 346.352 176.327 346.352 179.955C346.352 183.582 349.293 186.523 352.92 186.523Z" fill="#FF651D"/>
<path d="M64.569 215.358C68.1964 215.358 71.137 212.417 71.137 208.79C71.137 205.162 68.1964 202.222 64.569 202.222C60.9416 202.222 58.001 205.162 58.001 208.79C58.001 212.417 60.9416 215.358 64.569 215.358Z" fill="#FF651D"/>
<path d="M93.4039 218.658C98.8539 218.658 103.272 214.24 103.272 208.79C103.272 203.34 98.8539 198.922 93.4039 198.922C87.954 198.922 83.5359 203.34 83.5359 208.79C83.5359 214.24 87.954 218.658 93.4039 218.658Z" fill="#FF651D"/>
<path d="M122.239 218.658C127.689 218.658 132.107 214.24 132.107 208.79C132.107 203.34 127.689 198.922 122.239 198.922C116.789 198.922 112.371 203.34 112.371 208.79C112.371 214.24 116.789 218.658 122.239 218.658Z" fill="#FF651D"/>
<path d="M151.074 221.926C158.329 221.926 164.21 216.045 164.21 208.79C164.21 201.535 158.329 195.654 151.074 195.654C143.819 195.654 137.938 201.535 137.938 208.79C137.938 216.045 143.819 221.926 151.074 221.926Z" fill="#FF651D"/>
<path d="M179.91 221.926C187.165 221.926 193.046 216.045 193.046 208.79C193.046 201.535 187.165 195.654 179.91 195.654C172.655 195.654 166.774 201.535 166.774 208.79C166.774 216.045 172.655 221.926 179.91 221.926Z" fill="#FF651D"/>
<path d="M208.745 221.926C216 221.926 221.881 216.045 221.881 208.79C221.881 201.535 216 195.654 208.745 195.654C201.49 195.654 195.609 201.535 195.609 208.79C195.609 216.045 201.49 221.926 208.745 221.926Z" fill="#FF651D"/>
<path d="M237.58 221.926C244.835 221.926 250.716 216.045 250.716 208.79C250.716 201.535 244.835 195.654 237.58 195.654C230.326 195.654 224.444 201.535 224.444 208.79C224.444 216.045 230.326 221.926 237.58 221.926Z" fill="#FF651D"/>
<path d="M266.415 221.926C273.67 221.926 279.551 216.045 279.551 208.79C279.551 201.535 273.67 195.654 266.415 195.654C259.161 195.654 253.279 201.535 253.279 208.79C253.279 216.045 259.161 221.926 266.415 221.926Z" fill="#FF651D"/>
<path d="M295.25 221.926C302.505 221.926 308.386 216.045 308.386 208.79C308.386 201.535 302.505 195.654 295.25 195.654C287.995 195.654 282.114 201.535 282.114 208.79C282.114 216.045 287.995 221.926 295.25 221.926Z" fill="#FF651D"/>
<path d="M324.086 221.926C331.34 221.926 337.222 216.045 337.222 208.79C337.222 201.535 331.34 195.654 324.086 195.654C316.831 195.654 310.949 201.535 310.949 208.79C310.949 216.045 316.831 221.926 324.086 221.926Z" fill="#FF651D"/>
<path d="M352.921 218.658C358.371 218.658 362.789 214.24 362.789 208.79C362.789 203.34 358.371 198.922 352.921 198.922C347.471 198.922 343.053 203.34 343.053 208.79C343.053 214.24 347.471 218.658 352.921 218.658Z" fill="#FF651D"/>
<path d="M381.756 218.658C387.206 218.658 391.624 214.24 391.624 208.79C391.624 203.34 387.206 198.922 381.756 198.922C376.306 198.922 371.888 203.34 371.888 208.79C371.888 214.24 376.306 218.658 381.756 218.658Z" fill="#FF651D"/>
<path d="M410.59 215.358C414.218 215.358 417.159 212.417 417.159 208.79C417.159 205.162 414.218 202.222 410.59 202.222C406.963 202.222 404.022 205.162 404.022 208.79C404.022 212.417 406.963 215.358 410.59 215.358Z" fill="#FF651D"/>
<path d="M6.89797 244.193C10.5254 244.193 13.466 241.252 13.466 237.625C13.466 233.997 10.5254 231.057 6.89797 231.057C3.27055 231.057 0.329956 233.997 0.329956 237.625C0.329956 241.252 3.27055 244.193 6.89797 244.193Z" fill="#FF651D"/>
<path d="M35.7342 247.492C41.1842 247.492 45.6023 243.074 45.6023 237.624C45.6023 232.174 41.1842 227.756 35.7342 227.756C30.2843 227.756 25.8662 232.174 25.8662 237.624C25.8662 243.074 30.2843 247.492 35.7342 247.492Z" fill="#FF651D"/>
<path d="M64.5697 247.492C70.0197 247.492 74.4377 243.074 74.4377 237.624C74.4377 232.174 70.0197 227.756 64.5697 227.756C59.1197 227.756 54.7017 232.174 54.7017 237.624C54.7017 243.074 59.1197 247.492 64.5697 247.492Z" fill="#FF651D"/>
<path d="M93.4038 250.761C100.659 250.761 106.54 244.88 106.54 237.625C106.54 230.37 100.659 224.489 93.4038 224.489C86.149 224.489 80.2678 230.37 80.2678 237.625C80.2678 244.88 86.149 250.761 93.4038 250.761Z" fill="#FF651D"/>
<path d="M122.239 250.761C129.494 250.761 135.375 244.88 135.375 237.625C135.375 230.37 129.494 224.489 122.239 224.489C114.984 224.489 109.103 230.37 109.103 237.625C109.103 244.88 114.984 250.761 122.239 250.761Z" fill="#FF651D"/>
<path d="M151.074 250.761C158.329 250.761 164.21 244.88 164.21 237.625C164.21 230.37 158.329 224.489 151.074 224.489C143.819 224.489 137.938 230.37 137.938 237.625C137.938 244.88 143.819 250.761 151.074 250.761Z" fill="#FF651D"/>
<path d="M179.91 250.761C187.165 250.761 193.046 244.88 193.046 237.625C193.046 230.37 187.165 224.489 179.91 224.489C172.655 224.489 166.774 230.37 166.774 237.625C166.774 244.88 172.655 250.761 179.91 250.761Z" fill="#FF651D"/>
<path d="M208.745 250.761C216 250.761 221.881 244.88 221.881 237.625C221.881 230.37 216 224.489 208.745 224.489C201.49 224.489 195.609 230.37 195.609 237.625C195.609 244.88 201.49 250.761 208.745 250.761Z" fill="#FF651D"/>
<path d="M237.58 250.761C244.835 250.761 250.716 244.88 250.716 237.625C250.716 230.37 244.835 224.489 237.58 224.489C230.326 224.489 224.444 230.37 224.444 237.625C224.444 244.88 230.326 250.761 237.58 250.761Z" fill="#FF651D"/>
<path d="M266.415 250.761C273.67 250.761 279.551 244.88 279.551 237.625C279.551 230.37 273.67 224.489 266.415 224.489C259.161 224.489 253.279 230.37 253.279 237.625C253.279 244.88 259.161 250.761 266.415 250.761Z" fill="#FF651D"/>
<path d="M295.25 250.761C302.505 250.761 308.386 244.88 308.386 237.625C308.386 230.37 302.505 224.489 295.25 224.489C287.995 224.489 282.114 230.37 282.114 237.625C282.114 244.88 287.995 250.761 295.25 250.761Z" fill="#FF651D"/>
<path d="M324.086 250.761C331.34 250.761 337.222 244.88 337.222 237.625C337.222 230.37 331.34 224.489 324.086 224.489C316.831 224.489 310.949 230.37 310.949 237.625C310.949 244.88 316.831 250.761 324.086 250.761Z" fill="#FF651D"/>
<path d="M352.921 250.761C360.176 250.761 366.057 244.88 366.057 237.625C366.057 230.37 360.176 224.489 352.921 224.489C345.666 224.489 339.785 230.37 339.785 237.625C339.785 244.88 345.666 250.761 352.921 250.761Z" fill="#FF651D"/>
<path d="M381.757 250.761C389.011 250.761 394.893 244.88 394.893 237.625C394.893 230.37 389.011 224.489 381.757 224.489C374.502 224.489 368.621 230.37 368.621 237.625C368.621 244.88 374.502 250.761 381.757 250.761Z" fill="#FF651D"/>
<path d="M410.592 250.761C417.846 250.761 423.728 244.88 423.728 237.625C423.728 230.37 417.846 224.489 410.592 224.489C403.337 224.489 397.456 230.37 397.456 237.625C397.456 244.88 403.337 250.761 410.592 250.761Z" fill="#FF651D"/>
<path d="M439.427 247.492C444.877 247.492 449.295 243.074 449.295 237.624C449.295 232.174 444.877 227.756 439.427 227.756C433.977 227.756 429.559 232.174 429.559 237.624C429.559 243.074 433.977 247.492 439.427 247.492Z" fill="#FF651D"/>
<path d="M468.261 244.193C471.888 244.193 474.829 241.252 474.829 237.625C474.829 233.997 471.888 231.057 468.261 231.057C464.633 231.057 461.693 233.997 461.693 237.625C461.693 241.252 464.633 244.193 468.261 244.193Z" fill="#FF651D"/>
<path d="M64.569 273.028C68.1964 273.028 71.137 270.088 71.137 266.46C71.137 262.833 68.1964 259.892 64.569 259.892C60.9416 259.892 58.001 262.833 58.001 266.46C58.001 270.088 60.9416 273.028 64.569 273.028Z" fill="#FF651D"/>
<path d="M93.4039 276.328C98.8539 276.328 103.272 271.91 103.272 266.46C103.272 261.01 98.8539 256.592 93.4039 256.592C87.954 256.592 83.5359 261.01 83.5359 266.46C83.5359 271.91 87.954 276.328 93.4039 276.328Z" fill="#FF651D"/>
<path d="M122.239 276.328C127.689 276.328 132.107 271.91 132.107 266.46C132.107 261.01 127.689 256.592 122.239 256.592C116.789 256.592 112.371 261.01 112.371 266.46C112.371 271.91 116.789 276.328 122.239 276.328Z" fill="#FF651D"/>
<path d="M151.074 279.596C158.329 279.596 164.21 273.715 164.21 266.46C164.21 259.205 158.329 253.324 151.074 253.324C143.819 253.324 137.938 259.205 137.938 266.46C137.938 273.715 143.819 279.596 151.074 279.596Z" fill="#FF651D"/>
<path d="M179.91 279.596C187.165 279.596 193.046 273.715 193.046 266.46C193.046 259.205 187.165 253.324 179.91 253.324C172.655 253.324 166.774 259.205 166.774 266.46C166.774 273.715 172.655 279.596 179.91 279.596Z" fill="#FF651D"/>
<path d="M208.745 279.596C216 279.596 221.881 273.715 221.881 266.46C221.881 259.205 216 253.324 208.745 253.324C201.49 253.324 195.609 259.205 195.609 266.46C195.609 273.715 201.49 279.596 208.745 279.596Z" fill="#FF651D"/>
<path d="M237.58 279.596C244.835 279.596 250.716 273.715 250.716 266.46C250.716 259.205 244.835 253.324 237.58 253.324C230.326 253.324 224.444 259.205 224.444 266.46C224.444 273.715 230.326 279.596 237.58 279.596Z" fill="#FF651D"/>
<path d="M266.415 279.596C273.67 279.596 279.551 273.715 279.551 266.46C279.551 259.205 273.67 253.324 266.415 253.324C259.161 253.324 253.279 259.205 253.279 266.46C253.279 273.715 259.161 279.596 266.415 279.596Z" fill="#FF651D"/>
<path d="M295.25 279.596C302.505 279.596 308.386 273.715 308.386 266.46C308.386 259.205 302.505 253.324 295.25 253.324C287.995 253.324 282.114 259.205 282.114 266.46C282.114 273.715 287.995 279.596 295.25 279.596Z" fill="#FF651D"/>
<path d="M324.086 279.596C331.34 279.596 337.222 273.715 337.222 266.46C337.222 259.205 331.34 253.324 324.086 253.324C316.831 253.324 310.949 259.205 310.949 266.46C310.949 273.715 316.831 279.596 324.086 279.596Z" fill="#FF651D"/>
<path d="M352.921 276.328C358.371 276.328 362.789 271.91 362.789 266.46C362.789 261.01 358.371 256.592 352.921 256.592C347.471 256.592 343.053 261.01 343.053 266.46C343.053 271.91 347.471 276.328 352.921 276.328Z" fill="#FF651D"/>
<path d="M381.756 276.328C387.206 276.328 391.624 271.91 391.624 266.46C391.624 261.01 387.206 256.592 381.756 256.592C376.306 256.592 371.888 261.01 371.888 266.46C371.888 271.91 376.306 276.328 381.756 276.328Z" fill="#FF651D"/>
<path d="M410.59 273.028C414.218 273.028 417.159 270.088 417.159 266.46C417.159 262.833 414.218 259.892 410.59 259.892C406.963 259.892 404.022 262.833 404.022 266.46C404.022 270.088 406.963 273.028 410.59 273.028Z" fill="#FF651D"/>
<path d="M122.238 301.863C125.866 301.863 128.806 298.922 128.806 295.295C128.806 291.668 125.866 288.727 122.238 288.727C118.611 288.727 115.67 291.668 115.67 295.295C115.67 298.922 118.611 301.863 122.238 301.863Z" fill="#FF651D"/>
<path d="M151.074 305.163C156.524 305.163 160.942 300.745 160.942 295.295C160.942 289.845 156.524 285.427 151.074 285.427C145.624 285.427 141.206 289.845 141.206 295.295C141.206 300.745 145.624 305.163 151.074 305.163Z" fill="#FF651D"/>
<path d="M179.91 308.431C187.165 308.431 193.046 302.55 193.046 295.295C193.046 288.04 187.165 282.159 179.91 282.159C172.655 282.159 166.774 288.04 166.774 295.295C166.774 302.55 172.655 308.431 179.91 308.431Z" fill="#FF651D"/>
<path d="M208.745 308.431C216 308.431 221.881 302.55 221.881 295.295C221.881 288.04 216 282.159 208.745 282.159C201.49 282.159 195.609 288.04 195.609 295.295C195.609 302.55 201.49 308.431 208.745 308.431Z" fill="#FF651D"/>
<path d="M237.58 308.431C244.835 308.431 250.716 302.55 250.716 295.295C250.716 288.04 244.835 282.159 237.58 282.159C230.326 282.159 224.444 288.04 224.444 295.295C224.444 302.55 230.326 308.431 237.58 308.431Z" fill="#FF651D"/>
<path d="M266.415 308.431C273.67 308.431 279.551 302.55 279.551 295.295C279.551 288.04 273.67 282.159 266.415 282.159C259.161 282.159 253.279 288.04 253.279 295.295C253.279 302.55 259.161 308.431 266.415 308.431Z" fill="#FF651D"/>
<path d="M295.25 308.431C302.505 308.431 308.386 302.55 308.386 295.295C308.386 288.04 302.505 282.159 295.25 282.159C287.995 282.159 282.114 288.04 282.114 295.295C282.114 302.55 287.995 308.431 295.25 308.431Z" fill="#FF651D"/>
<path d="M324.086 305.163C329.536 305.163 333.954 300.745 333.954 295.295C333.954 289.845 329.536 285.427 324.086 285.427C318.636 285.427 314.218 289.845 314.218 295.295C314.218 300.745 318.636 305.163 324.086 305.163Z" fill="#FF651D"/>
<path d="M352.92 301.863C356.547 301.863 359.488 298.922 359.488 295.295C359.488 291.668 356.547 288.727 352.92 288.727C349.293 288.727 346.352 291.668 346.352 295.295C346.352 298.922 349.293 301.863 352.92 301.863Z" fill="#FF651D"/>
<path d="M151.074 330.699C154.701 330.699 157.642 327.758 157.642 324.131C157.642 320.503 154.701 317.562 151.074 317.562C147.446 317.562 144.506 320.503 144.506 324.131C144.506 327.758 147.446 330.699 151.074 330.699Z" fill="#FF651D"/>
<path d="M179.909 333.998C185.359 333.998 189.777 329.58 189.777 324.13C189.777 318.68 185.359 314.262 179.909 314.262C174.459 314.262 170.041 318.68 170.041 324.13C170.041 329.58 174.459 333.998 179.909 333.998Z" fill="#FF651D"/>
<path d="M208.745 337.266C216 337.266 221.881 331.385 221.881 324.13C221.881 316.875 216 310.994 208.745 310.994C201.49 310.994 195.609 316.875 195.609 324.13C195.609 331.385 201.49 337.266 208.745 337.266Z" fill="#FF651D"/>
<path d="M237.58 337.266C244.835 337.266 250.716 331.385 250.716 324.13C250.716 316.875 244.835 310.994 237.58 310.994C230.326 310.994 224.444 316.875 224.444 324.13C224.444 331.385 230.326 337.266 237.58 337.266Z" fill="#FF651D"/>
<path d="M266.415 337.266C273.67 337.266 279.551 331.385 279.551 324.13C279.551 316.875 273.67 310.994 266.415 310.994C259.161 310.994 253.279 316.875 253.279 324.13C253.279 331.385 259.161 337.266 266.415 337.266Z" fill="#FF651D"/>
<path d="M295.25 333.998C300.7 333.998 305.118 329.58 305.118 324.13C305.118 318.68 300.7 314.262 295.25 314.262C289.8 314.262 285.382 318.68 285.382 324.13C285.382 329.58 289.8 333.998 295.25 333.998Z" fill="#FF651D"/>
<path d="M324.085 330.699C327.713 330.699 330.653 327.758 330.653 324.131C330.653 320.503 327.713 317.562 324.085 317.562C320.458 317.562 317.517 320.503 317.517 324.131C317.517 327.758 320.458 330.699 324.085 330.699Z" fill="#FF651D"/>
<path d="M179.909 359.533C183.536 359.533 186.477 356.593 186.477 352.965C186.477 349.338 183.536 346.397 179.909 346.397C176.281 346.397 173.341 349.338 173.341 352.965C173.341 356.593 176.281 359.533 179.909 359.533Z" fill="#FF651D"/>
<path d="M208.745 362.834C214.195 362.834 218.613 358.416 218.613 352.966C218.613 347.516 214.195 343.098 208.745 343.098C203.295 343.098 198.877 347.516 198.877 352.966C198.877 358.416 203.295 362.834 208.745 362.834Z" fill="#FF651D"/>
<path d="M237.58 366.102C244.835 366.102 250.716 360.22 250.716 352.966C250.716 345.711 244.835 339.83 237.58 339.83C230.326 339.83 224.444 345.711 224.444 352.966C224.444 360.22 230.326 366.102 237.58 366.102Z" fill="#FF651D"/>
<path d="M266.415 362.834C271.865 362.834 276.283 358.416 276.283 352.966C276.283 347.516 271.865 343.098 266.415 343.098C260.965 343.098 256.547 347.516 256.547 352.966C256.547 358.416 260.965 362.834 266.415 362.834Z" fill="#FF651D"/>
<path d="M295.25 359.533C298.877 359.533 301.818 356.593 301.818 352.965C301.818 349.338 298.877 346.397 295.25 346.397C291.622 346.397 288.682 349.338 288.682 352.965C288.682 356.593 291.622 359.533 295.25 359.533Z" fill="#FF651D"/>
<path d="M208.745 391.669C214.195 391.669 218.613 387.251 218.613 381.801C218.613 376.351 214.195 371.933 208.745 371.933C203.295 371.933 198.877 376.351 198.877 381.801C198.877 387.251 203.295 391.669 208.745 391.669Z" fill="#FF651D"/>
<path d="M237.58 394.937C244.835 394.937 250.716 389.055 250.716 381.801C250.716 374.546 244.835 368.665 237.58 368.665C230.326 368.665 224.444 374.546 224.444 381.801C224.444 389.055 230.326 394.937 237.58 394.937Z" fill="#FF651D"/>
<path d="M266.415 391.669C271.865 391.669 276.283 387.251 276.283 381.801C276.283 376.351 271.865 371.933 266.415 371.933C260.965 371.933 256.547 376.351 256.547 381.801C256.547 387.251 260.965 391.669 266.415 391.669Z" fill="#FF651D"/>
<path d="M208.744 417.204C212.371 417.204 215.312 414.263 215.312 410.636C215.312 407.008 212.371 404.068 208.744 404.068C205.116 404.068 202.176 407.008 202.176 410.636C202.176 414.263 205.116 417.204 208.744 417.204Z" fill="#FF651D"/>
<path d="M237.58 420.504C243.03 420.504 247.448 416.086 247.448 410.636C247.448 405.186 243.03 400.768 237.58 400.768C232.13 400.768 227.712 405.186 227.712 410.636C227.712 416.086 232.13 420.504 237.58 420.504Z" fill="#FF651D"/>
<path d="M266.415 417.204C270.042 417.204 272.983 414.263 272.983 410.636C272.983 407.008 270.042 404.068 266.415 404.068C262.787 404.068 259.847 407.008 259.847 410.636C259.847 414.263 262.787 417.204 266.415 417.204Z" fill="#FF651D"/>
<path d="M237.58 449.339C243.03 449.339 247.448 444.921 247.448 439.471C247.448 434.021 243.03 429.603 237.58 429.603C232.13 429.603 227.712 434.021 227.712 439.471C227.712 444.921 232.13 449.339 237.58 449.339Z" fill="#FF651D"/>
<path d="M237.579 474.874C241.206 474.874 244.147 471.934 244.147 468.306C244.147 464.679 241.206 461.738 237.579 461.738C233.952 461.738 231.011 464.679 231.011 468.306C231.011 471.934 233.952 474.874 237.579 474.874Z" fill="#FF651D"/>
</g>
<defs>
<clipPath id="clip0_5662_1353">
<rect width="474.499" height="474.499" fill="white" transform="translate(0.330078 0.375488)"/>
</clipPath>
</defs>
</svg>
