<svg xmlns="http://www.w3.org/2000/svg" xmlns:xlink="http://www.w3.org/1999/xlink" width="1034" zoomAndPan="magnify" viewBox="0 0 775.5 476.249999" height="635" preserveAspectRatio="xMidYMid meet" version="1.0"><defs><clipPath id="6f66ebe40c"><path d="M 0.359375 0 L 480 0 L 480 471 L 0.359375 471 Z M 0.359375 0 " clip-rule="nonzero"/></clipPath><clipPath id="7f03439ebb"><path d="M 295 0 L 774.640625 0 L 774.640625 471 L 295 471 Z M 295 0 " clip-rule="nonzero"/></clipPath><clipPath id="bb6cfcc6a8"><path d="M 223 7.167969 L 254 7.167969 L 254 38 L 223 38 Z M 223 7.167969 " clip-rule="nonzero"/></clipPath><clipPath id="cea7376cde"><path d="M 266 7.167969 L 297 7.167969 L 297 38 L 266 38 Z M 266 7.167969 " clip-rule="nonzero"/></clipPath><clipPath id="c20be9b6b9"><path d="M 11.714844 183 L 35 183 L 35 207 L 11.714844 207 Z M 11.714844 183 " clip-rule="nonzero"/></clipPath><clipPath id="e04e973af3"><path d="M 11.714844 226 L 35 226 L 35 250 L 11.714844 250 Z M 11.714844 226 " clip-rule="nonzero"/></clipPath><clipPath id="547fcd1205"><path d="M 11.714844 269 L 35 269 L 35 293 L 11.714844 293 Z M 11.714844 269 " clip-rule="nonzero"/></clipPath><clipPath id="a425cc61ff"><path d="M 223 437 L 254 437 L 254 468.394531 L 223 468.394531 Z M 223 437 " clip-rule="nonzero"/></clipPath><clipPath id="dc01ed5b9c"><path d="M 266 437 L 297 437 L 297 468.394531 L 266 468.394531 Z M 266 437 " clip-rule="nonzero"/></clipPath><clipPath id="6f4408afff"><path d="M 482 7.167969 L 514 7.167969 L 514 38 L 482 38 Z M 482 7.167969 " clip-rule="nonzero"/></clipPath><clipPath id="47d3b3d3d3"><path d="M 525 7.167969 L 557 7.167969 L 557 38 L 525 38 Z M 525 7.167969 " clip-rule="nonzero"/></clipPath><clipPath id="6213133794"><path d="M 744 183 L 767.671875 183 L 767.671875 207 L 744 207 Z M 744 183 " clip-rule="nonzero"/></clipPath><clipPath id="d648f6fc26"><path d="M 744 226 L 767.671875 226 L 767.671875 250 L 744 250 Z M 744 226 " clip-rule="nonzero"/></clipPath><clipPath id="bf3b04d986"><path d="M 744 269 L 767.671875 269 L 767.671875 293 L 744 293 Z M 744 269 " clip-rule="nonzero"/></clipPath><clipPath id="f309614a9d"><path d="M 482 437 L 514 437 L 514 468.394531 L 482 468.394531 Z M 482 437 " clip-rule="nonzero"/></clipPath><clipPath id="4f8471ef11"><path d="M 525 437 L 557 437 L 557 468.394531 L 525 468.394531 Z M 525 437 " clip-rule="nonzero"/></clipPath></defs><g clip-path="url(#6f66ebe40c)"><path fill="#f1f1f1" d="M 338.9375 0 L 140.714844 0 L 0.53125 137.902344 L 0.53125 332.898438 L 140.714844 470.769531 L 338.9375 470.769531 L 479.089844 332.898438 L 479.089844 137.902344 Z M 338.9375 0 " fill-opacity="1" fill-rule="nonzero"/></g><g clip-path="url(#7f03439ebb)"><path fill="#f1f1f1" d="M 634.21875 0 L 435.996094 0 L 295.8125 137.902344 L 295.8125 332.898438 L 435.996094 470.769531 L 634.21875 470.769531 L 774.402344 332.898438 L 774.402344 137.902344 Z M 634.21875 0 " fill-opacity="1" fill-rule="nonzero"/></g><path fill="#f1f1f1" d="M 508.460938 0 L 310.207031 0 L 170.054688 137.902344 L 170.054688 332.898438 L 310.207031 470.769531 L 508.460938 470.769531 L 648.613281 332.898438 L 648.613281 137.902344 Z M 508.460938 0 " fill-opacity="1" fill-rule="nonzero"/><path fill="#ff651d" d="M 152.371094 34.011719 C 158.726562 34.011719 163.878906 28.859375 163.878906 22.503906 C 163.878906 16.148438 158.726562 10.996094 152.371094 10.996094 C 146.015625 10.996094 140.863281 16.148438 140.863281 22.503906 C 140.863281 28.859375 146.015625 34.011719 152.371094 34.011719 Z M 152.371094 34.011719 " fill-opacity="1" fill-rule="nonzero"/><path fill="#ff651d" d="M 195.453125 34.011719 C 201.808594 34.011719 206.960938 28.859375 206.960938 22.503906 C 206.960938 16.148438 201.808594 10.996094 195.453125 10.996094 C 189.097656 10.996094 183.945312 16.148438 183.945312 22.503906 C 183.945312 28.859375 189.097656 34.011719 195.453125 34.011719 Z M 195.453125 34.011719 " fill-opacity="1" fill-rule="nonzero"/><g clip-path="url(#bb6cfcc6a8)"><path fill="#ff651d" d="M 238.503906 37.835938 C 246.972656 37.835938 253.835938 30.972656 253.835938 22.503906 C 253.835938 14.035156 246.972656 7.167969 238.503906 7.167969 C 230.035156 7.167969 223.171875 14.035156 223.171875 22.503906 C 223.171875 30.972656 230.035156 37.835938 238.503906 37.835938 Z M 238.503906 37.835938 " fill-opacity="1" fill-rule="nonzero"/></g><g clip-path="url(#cea7376cde)"><path fill="#ff651d" d="M 281.550781 37.835938 C 290.019531 37.835938 296.886719 30.972656 296.886719 22.503906 C 296.886719 14.035156 290.019531 7.167969 281.550781 7.167969 C 273.085938 7.167969 266.21875 14.035156 266.21875 22.503906 C 266.21875 30.972656 273.085938 37.835938 281.550781 37.835938 Z M 281.550781 37.835938 " fill-opacity="1" fill-rule="nonzero"/></g><path fill="#ff651d" d="M 324.601562 34.011719 C 330.957031 34.011719 336.109375 28.859375 336.109375 22.503906 C 336.109375 16.148438 330.957031 10.996094 324.601562 10.996094 C 318.246094 10.996094 313.09375 16.148438 313.09375 22.503906 C 313.09375 28.859375 318.246094 34.011719 324.601562 34.011719 Z M 324.601562 34.011719 " fill-opacity="1" fill-rule="nonzero"/><path fill="#ff651d" d="M 109.324219 77.058594 C 115.679688 77.058594 120.832031 71.90625 120.832031 65.550781 C 120.832031 59.195312 115.679688 54.042969 109.324219 54.042969 C 102.96875 54.042969 97.816406 59.195312 97.816406 65.550781 C 97.816406 71.90625 102.96875 77.058594 109.324219 77.058594 Z M 109.324219 77.058594 " fill-opacity="1" fill-rule="nonzero"/><path fill="#ff651d" d="M 152.375 80.886719 C 160.839844 80.886719 167.707031 74.019531 167.707031 65.550781 C 167.707031 57.082031 160.839844 50.21875 152.375 50.21875 C 143.90625 50.21875 137.039062 57.082031 137.039062 65.550781 C 137.039062 74.019531 143.90625 80.886719 152.375 80.886719 Z M 152.375 80.886719 " fill-opacity="1" fill-rule="nonzero"/><path fill="#ff651d" d="M 195.457031 80.886719 C 203.925781 80.886719 210.789062 74.019531 210.789062 65.550781 C 210.789062 57.082031 203.925781 50.21875 195.457031 50.21875 C 186.988281 50.21875 180.121094 57.082031 180.121094 65.550781 C 180.121094 74.019531 186.988281 80.886719 195.457031 80.886719 Z M 195.457031 80.886719 " fill-opacity="1" fill-rule="nonzero"/><path fill="#ff651d" d="M 238.503906 80.886719 C 246.972656 80.886719 253.835938 74.019531 253.835938 65.550781 C 253.835938 57.082031 246.972656 50.21875 238.503906 50.21875 C 230.035156 50.21875 223.171875 57.082031 223.171875 65.550781 C 223.171875 74.019531 230.035156 80.886719 238.503906 80.886719 Z M 238.503906 80.886719 " fill-opacity="1" fill-rule="nonzero"/><path fill="#ff651d" d="M 281.550781 80.886719 C 290.019531 80.886719 296.886719 74.019531 296.886719 65.550781 C 296.886719 57.082031 290.019531 50.21875 281.550781 50.21875 C 273.085938 50.21875 266.21875 57.082031 266.21875 65.550781 C 266.21875 74.019531 273.085938 80.886719 281.550781 80.886719 Z M 281.550781 80.886719 " fill-opacity="1" fill-rule="nonzero"/><path fill="#ff651d" d="M 324.601562 80.886719 C 333.070312 80.886719 339.933594 74.019531 339.933594 65.550781 C 339.933594 57.082031 333.070312 50.21875 324.601562 50.21875 C 316.132812 50.21875 309.269531 57.082031 309.269531 65.550781 C 309.269531 74.019531 316.132812 80.886719 324.601562 80.886719 Z M 324.601562 80.886719 " fill-opacity="1" fill-rule="nonzero"/><path fill="#ff651d" d="M 367.683594 80.886719 C 376.152344 80.886719 383.015625 74.019531 383.015625 65.550781 C 383.015625 57.082031 376.152344 50.21875 367.683594 50.21875 C 359.214844 50.21875 352.351562 57.082031 352.351562 65.550781 C 352.351562 74.019531 359.214844 80.886719 367.683594 80.886719 Z M 367.683594 80.886719 " fill-opacity="1" fill-rule="nonzero"/><path fill="#ff651d" d="M 66.273438 120.140625 C 72.628906 120.140625 77.78125 114.988281 77.78125 108.632812 C 77.78125 102.277344 72.628906 97.125 66.273438 97.125 C 59.917969 97.125 54.765625 102.277344 54.765625 108.632812 C 54.765625 114.988281 59.917969 120.140625 66.273438 120.140625 Z M 66.273438 120.140625 " fill-opacity="1" fill-rule="nonzero"/><path fill="#ff651d" d="M 109.324219 123.964844 C 117.792969 123.964844 124.65625 117.101562 124.65625 108.632812 C 124.65625 100.164062 117.792969 93.300781 109.324219 93.300781 C 100.855469 93.300781 93.992188 100.164062 93.992188 108.632812 C 93.992188 117.101562 100.855469 123.964844 109.324219 123.964844 Z M 109.324219 123.964844 " fill-opacity="1" fill-rule="nonzero"/><path fill="#ff651d" d="M 152.371094 123.351562 C 160.5 123.351562 167.089844 116.761719 167.089844 108.632812 C 167.089844 100.503906 160.5 93.917969 152.371094 93.917969 C 144.246094 93.917969 137.65625 100.503906 137.65625 108.632812 C 137.65625 116.761719 144.246094 123.351562 152.371094 123.351562 Z M 152.371094 123.351562 " fill-opacity="1" fill-rule="nonzero"/><path fill="#ff651d" d="M 195.457031 123.351562 C 203.582031 123.351562 210.171875 116.761719 210.171875 108.632812 C 210.171875 100.503906 203.582031 93.917969 195.457031 93.917969 C 187.328125 93.917969 180.738281 100.503906 180.738281 108.632812 C 180.738281 116.761719 187.328125 123.351562 195.457031 123.351562 Z M 195.457031 123.351562 " fill-opacity="1" fill-rule="nonzero"/><path fill="#ff651d" d="M 238.503906 123.351562 C 246.632812 123.351562 253.222656 116.761719 253.222656 108.632812 C 253.222656 100.503906 246.632812 93.917969 238.503906 93.917969 C 230.375 93.917969 223.785156 100.503906 223.785156 108.632812 C 223.785156 116.761719 230.375 123.351562 238.503906 123.351562 Z M 238.503906 123.351562 " fill-opacity="1" fill-rule="nonzero"/><path fill="#ff651d" d="M 281.554688 123.351562 C 289.683594 123.351562 296.269531 116.761719 296.269531 108.632812 C 296.269531 100.503906 289.683594 93.917969 281.554688 93.917969 C 273.425781 93.917969 266.835938 100.503906 266.835938 108.632812 C 266.835938 116.761719 273.425781 123.351562 281.554688 123.351562 Z M 281.554688 123.351562 " fill-opacity="1" fill-rule="nonzero"/><path fill="#ff651d" d="M 324.601562 123.351562 C 332.730469 123.351562 339.320312 116.761719 339.320312 108.632812 C 339.320312 100.503906 332.730469 93.917969 324.601562 93.917969 C 316.472656 93.917969 309.886719 100.503906 309.886719 108.632812 C 309.886719 116.761719 316.472656 123.351562 324.601562 123.351562 Z M 324.601562 123.351562 " fill-opacity="1" fill-rule="nonzero"/><path fill="#ff651d" d="M 367.683594 123.964844 C 376.152344 123.964844 383.015625 117.101562 383.015625 108.632812 C 383.015625 100.164062 376.152344 93.300781 367.683594 93.300781 C 359.214844 93.300781 352.351562 100.164062 352.351562 108.632812 C 352.351562 117.101562 359.214844 123.964844 367.683594 123.964844 Z M 367.683594 123.964844 " fill-opacity="1" fill-rule="nonzero"/><path fill="#ff651d" d="M 410.734375 123.964844 C 419.199219 123.964844 426.066406 117.101562 426.066406 108.632812 C 426.066406 100.164062 419.199219 93.300781 410.734375 93.300781 C 402.265625 93.300781 395.398438 100.164062 395.398438 108.632812 C 395.398438 117.101562 402.265625 123.964844 410.734375 123.964844 Z M 410.734375 123.964844 " fill-opacity="1" fill-rule="nonzero"/><path fill="#ff651d" d="M 23.226562 160.304688 C 27.988281 160.304688 31.847656 156.445312 31.847656 151.683594 C 31.847656 146.921875 27.988281 143.058594 23.226562 143.058594 C 18.460938 143.058594 14.601562 146.921875 14.601562 151.683594 C 14.601562 156.445312 18.460938 160.304688 23.226562 160.304688 Z M 23.226562 160.304688 " fill-opacity="1" fill-rule="nonzero"/><path fill="#ff651d" d="M 66.273438 163.191406 C 72.628906 163.191406 77.78125 158.039062 77.78125 151.683594 C 77.78125 145.328125 72.628906 140.175781 66.273438 140.175781 C 59.917969 140.175781 54.765625 145.328125 54.765625 151.683594 C 54.765625 158.039062 59.917969 163.191406 66.273438 163.191406 Z M 66.273438 163.191406 " fill-opacity="1" fill-rule="nonzero"/><path fill="#ff651d" d="M 109.324219 166.398438 C 117.453125 166.398438 124.039062 159.8125 124.039062 151.683594 C 124.039062 143.554688 117.453125 136.964844 109.324219 136.964844 C 101.195312 136.964844 94.605469 143.554688 94.605469 151.683594 C 94.605469 159.8125 101.195312 166.398438 109.324219 166.398438 Z M 109.324219 166.398438 " fill-opacity="1" fill-rule="nonzero"/><path fill="#ff651d" d="M 152.371094 166.398438 C 160.5 166.398438 167.089844 159.8125 167.089844 151.683594 C 167.089844 143.554688 160.5 136.964844 152.371094 136.964844 C 144.246094 136.964844 137.65625 143.554688 137.65625 151.683594 C 137.65625 159.8125 144.246094 166.398438 152.371094 166.398438 Z M 152.371094 166.398438 " fill-opacity="1" fill-rule="nonzero"/><path fill="#ff651d" d="M 195.457031 171.328125 C 206.304688 171.328125 215.101562 162.53125 215.101562 151.683594 C 215.101562 140.832031 206.304688 132.039062 195.457031 132.039062 C 184.605469 132.039062 175.8125 140.832031 175.8125 151.683594 C 175.8125 162.53125 184.605469 171.328125 195.457031 171.328125 Z M 195.457031 171.328125 " fill-opacity="1" fill-rule="nonzero"/><path fill="#ff651d" d="M 238.503906 171.328125 C 249.351562 171.328125 258.148438 162.53125 258.148438 151.683594 C 258.148438 140.832031 249.351562 132.039062 238.503906 132.039062 C 227.652344 132.039062 218.859375 140.832031 218.859375 151.683594 C 218.859375 162.53125 227.652344 171.328125 238.503906 171.328125 Z M 238.503906 171.328125 " fill-opacity="1" fill-rule="nonzero"/><path fill="#ff651d" d="M 281.554688 171.328125 C 292.402344 171.328125 301.199219 162.53125 301.199219 151.683594 C 301.199219 140.832031 292.402344 132.039062 281.554688 132.039062 C 270.703125 132.039062 261.910156 140.832031 261.910156 151.683594 C 261.910156 162.53125 270.703125 171.328125 281.554688 171.328125 Z M 281.554688 171.328125 " fill-opacity="1" fill-rule="nonzero"/><path fill="#ff651d" d="M 324.601562 166.398438 C 332.730469 166.398438 339.320312 159.8125 339.320312 151.683594 C 339.320312 143.554688 332.730469 136.964844 324.601562 136.964844 C 316.472656 136.964844 309.886719 143.554688 309.886719 151.683594 C 309.886719 159.8125 316.472656 166.398438 324.601562 166.398438 Z M 324.601562 166.398438 " fill-opacity="1" fill-rule="nonzero"/><path fill="#ff651d" d="M 367.683594 166.398438 C 375.8125 166.398438 382.402344 159.8125 382.402344 151.683594 C 382.402344 143.554688 375.8125 136.964844 367.683594 136.964844 C 359.554688 136.964844 352.96875 143.554688 352.96875 151.683594 C 352.96875 159.8125 359.554688 166.398438 367.683594 166.398438 Z M 367.683594 166.398438 " fill-opacity="1" fill-rule="nonzero"/><path fill="#ff651d" d="M 410.734375 167.015625 C 419.199219 167.015625 426.066406 160.152344 426.066406 151.683594 C 426.066406 143.214844 419.199219 136.351562 410.734375 136.351562 C 402.265625 136.351562 395.398438 143.214844 395.398438 151.683594 C 395.398438 160.152344 402.265625 167.015625 410.734375 167.015625 Z M 410.734375 167.015625 " fill-opacity="1" fill-rule="nonzero"/><path fill="#ff651d" d="M 453.78125 163.191406 C 460.136719 163.191406 465.289062 158.039062 465.289062 151.683594 C 465.289062 145.328125 460.136719 140.175781 453.78125 140.175781 C 447.425781 140.175781 442.273438 145.328125 442.273438 151.683594 C 442.273438 158.039062 447.425781 163.191406 453.78125 163.191406 Z M 453.78125 163.191406 " fill-opacity="1" fill-rule="nonzero"/><g clip-path="url(#c20be9b6b9)"><path fill="#ff651d" d="M 23.226562 206.238281 C 29.582031 206.238281 34.734375 201.089844 34.734375 194.730469 C 34.734375 188.378906 29.582031 183.222656 23.226562 183.222656 C 16.867188 183.222656 11.714844 188.378906 11.714844 194.730469 C 11.714844 201.089844 16.867188 206.238281 23.226562 206.238281 Z M 23.226562 206.238281 " fill-opacity="1" fill-rule="nonzero"/></g><path fill="#ff651d" d="M 66.273438 210.066406 C 74.742188 210.066406 81.605469 203.199219 81.605469 194.730469 C 81.605469 186.265625 74.742188 179.398438 66.273438 179.398438 C 57.804688 179.398438 50.941406 186.265625 50.941406 194.730469 C 50.941406 203.199219 57.804688 210.066406 66.273438 210.066406 Z M 66.273438 210.066406 " fill-opacity="1" fill-rule="nonzero"/><path fill="#ff651d" d="M 109.324219 209.449219 C 117.453125 209.449219 124.039062 202.859375 124.039062 194.730469 C 124.039062 186.605469 117.453125 180.015625 109.324219 180.015625 C 101.195312 180.015625 94.605469 186.605469 94.605469 194.730469 C 94.605469 202.859375 101.195312 209.449219 109.324219 209.449219 Z M 109.324219 209.449219 " fill-opacity="1" fill-rule="nonzero"/><path fill="#ff651d" d="M 152.371094 214.375 C 163.222656 214.375 172.015625 205.582031 172.015625 194.730469 C 172.015625 183.882812 163.222656 175.085938 152.371094 175.085938 C 141.523438 175.085938 132.730469 183.882812 132.730469 194.730469 C 132.730469 205.582031 141.523438 214.375 152.371094 214.375 Z M 152.371094 214.375 " fill-opacity="1" fill-rule="nonzero"/><path fill="#ff651d" d="M 195.457031 214.375 C 206.304688 214.375 215.101562 205.582031 215.101562 194.730469 C 215.101562 183.882812 206.304688 175.085938 195.457031 175.085938 C 184.605469 175.085938 175.8125 183.882812 175.8125 194.730469 C 175.8125 205.582031 184.605469 214.375 195.457031 214.375 Z M 195.457031 214.375 " fill-opacity="1" fill-rule="nonzero"/><path fill="#ff651d" d="M 238.503906 214.375 C 249.351562 214.375 258.148438 205.582031 258.148438 194.730469 C 258.148438 183.882812 249.351562 175.085938 238.503906 175.085938 C 227.652344 175.085938 218.859375 183.882812 218.859375 194.730469 C 218.859375 205.582031 227.652344 214.375 238.503906 214.375 Z M 238.503906 214.375 " fill-opacity="1" fill-rule="nonzero"/><path fill="#ff651d" d="M 281.554688 214.375 C 292.402344 214.375 301.199219 205.582031 301.199219 194.730469 C 301.199219 183.882812 292.402344 175.085938 281.554688 175.085938 C 270.703125 175.085938 261.910156 183.882812 261.910156 194.730469 C 261.910156 205.582031 270.703125 214.375 281.554688 214.375 Z M 281.554688 214.375 " fill-opacity="1" fill-rule="nonzero"/><path fill="#ff651d" d="M 324.601562 214.375 C 335.453125 214.375 344.246094 205.582031 344.246094 194.730469 C 344.246094 183.882812 335.453125 175.085938 324.601562 175.085938 C 313.753906 175.085938 304.957031 183.882812 304.957031 194.730469 C 304.957031 205.582031 313.753906 214.375 324.601562 214.375 Z M 324.601562 214.375 " fill-opacity="1" fill-rule="nonzero"/><path fill="#ff651d" d="M 367.683594 209.449219 C 375.8125 209.449219 382.402344 202.859375 382.402344 194.730469 C 382.402344 186.605469 375.8125 180.015625 367.683594 180.015625 C 359.554688 180.015625 352.96875 186.605469 352.96875 194.730469 C 352.96875 202.859375 359.554688 209.449219 367.683594 209.449219 Z M 367.683594 209.449219 " fill-opacity="1" fill-rule="nonzero"/><path fill="#ff651d" d="M 410.734375 210.066406 C 419.199219 210.066406 426.066406 203.199219 426.066406 194.730469 C 426.066406 186.265625 419.199219 179.398438 410.734375 179.398438 C 402.265625 179.398438 395.398438 186.265625 395.398438 194.730469 C 395.398438 203.199219 402.265625 210.066406 410.734375 210.066406 Z M 410.734375 210.066406 " fill-opacity="1" fill-rule="nonzero"/><path fill="#ff651d" d="M 453.785156 210.066406 C 462.253906 210.066406 469.117188 203.199219 469.117188 194.730469 C 469.117188 186.265625 462.253906 179.398438 453.785156 179.398438 C 445.316406 179.398438 438.449219 186.265625 438.449219 194.730469 C 438.449219 203.199219 445.316406 210.066406 453.785156 210.066406 Z M 453.785156 210.066406 " fill-opacity="1" fill-rule="nonzero"/><g clip-path="url(#e04e973af3)"><path fill="#ff651d" d="M 23.226562 249.289062 C 29.582031 249.289062 34.734375 244.136719 34.734375 237.78125 C 34.734375 231.425781 29.582031 226.273438 23.226562 226.273438 C 16.867188 226.273438 11.714844 231.425781 11.714844 237.78125 C 11.714844 244.136719 16.867188 249.289062 23.226562 249.289062 Z M 23.226562 249.289062 " fill-opacity="1" fill-rule="nonzero"/></g><path fill="#ff651d" d="M 66.273438 253.113281 C 74.742188 253.113281 81.605469 246.25 81.605469 237.78125 C 81.605469 229.3125 74.742188 222.449219 66.273438 222.449219 C 57.804688 222.449219 50.941406 229.3125 50.941406 237.78125 C 50.941406 246.25 57.804688 253.113281 66.273438 253.113281 Z M 66.273438 253.113281 " fill-opacity="1" fill-rule="nonzero"/><path fill="#ff651d" d="M 109.324219 252.5 C 117.453125 252.5 124.039062 245.910156 124.039062 237.78125 C 124.039062 229.652344 117.453125 223.066406 109.324219 223.066406 C 101.195312 223.066406 94.605469 229.652344 94.605469 237.78125 C 94.605469 245.910156 101.195312 252.5 109.324219 252.5 Z M 109.324219 252.5 " fill-opacity="1" fill-rule="nonzero"/><path fill="#ff651d" d="M 152.371094 257.425781 C 163.222656 257.425781 172.015625 248.632812 172.015625 237.78125 C 172.015625 226.933594 163.222656 218.136719 152.371094 218.136719 C 141.523438 218.136719 132.730469 226.933594 132.730469 237.78125 C 132.730469 248.632812 141.523438 257.425781 152.371094 257.425781 Z M 152.371094 257.425781 " fill-opacity="1" fill-rule="nonzero"/><path fill="#ff651d" d="M 195.457031 257.425781 C 206.304688 257.425781 215.101562 248.632812 215.101562 237.78125 C 215.101562 226.933594 206.304688 218.136719 195.457031 218.136719 C 184.605469 218.136719 175.8125 226.933594 175.8125 237.78125 C 175.8125 248.632812 184.605469 257.425781 195.457031 257.425781 Z M 195.457031 257.425781 " fill-opacity="1" fill-rule="nonzero"/><path fill="#ff651d" d="M 238.503906 257.425781 C 249.351562 257.425781 258.148438 248.632812 258.148438 237.78125 C 258.148438 226.933594 249.351562 218.136719 238.503906 218.136719 C 227.652344 218.136719 218.859375 226.933594 218.859375 237.78125 C 218.859375 248.632812 227.652344 257.425781 238.503906 257.425781 Z M 238.503906 257.425781 " fill-opacity="1" fill-rule="nonzero"/><path fill="#ff651d" d="M 281.554688 257.425781 C 292.402344 257.425781 301.199219 248.632812 301.199219 237.78125 C 301.199219 226.933594 292.402344 218.136719 281.554688 218.136719 C 270.703125 218.136719 261.910156 226.933594 261.910156 237.78125 C 261.910156 248.632812 270.703125 257.425781 281.554688 257.425781 Z M 281.554688 257.425781 " fill-opacity="1" fill-rule="nonzero"/><path fill="#ff651d" d="M 324.601562 257.425781 C 335.453125 257.425781 344.246094 248.632812 344.246094 237.78125 C 344.246094 226.933594 335.453125 218.136719 324.601562 218.136719 C 313.753906 218.136719 304.957031 226.933594 304.957031 237.78125 C 304.957031 248.632812 313.753906 257.425781 324.601562 257.425781 Z M 324.601562 257.425781 " fill-opacity="1" fill-rule="nonzero"/><path fill="#ff651d" d="M 367.683594 252.5 C 375.8125 252.5 382.402344 245.910156 382.402344 237.78125 C 382.402344 229.652344 375.8125 223.066406 367.683594 223.066406 C 359.554688 223.066406 352.96875 229.652344 352.96875 237.78125 C 352.96875 245.910156 359.554688 252.5 367.683594 252.5 Z M 367.683594 252.5 " fill-opacity="1" fill-rule="nonzero"/><path fill="#ff651d" d="M 410.734375 253.113281 C 419.199219 253.113281 426.066406 246.25 426.066406 237.78125 C 426.066406 229.3125 419.199219 222.449219 410.734375 222.449219 C 402.265625 222.449219 395.398438 229.3125 395.398438 237.78125 C 395.398438 246.25 402.265625 253.113281 410.734375 253.113281 Z M 410.734375 253.113281 " fill-opacity="1" fill-rule="nonzero"/><path fill="#ff651d" d="M 453.785156 253.113281 C 462.253906 253.113281 469.117188 246.25 469.117188 237.78125 C 469.117188 229.3125 462.253906 222.449219 453.785156 222.449219 C 445.316406 222.449219 438.449219 229.3125 438.449219 237.78125 C 438.449219 246.25 445.316406 253.113281 453.785156 253.113281 Z M 453.785156 253.113281 " fill-opacity="1" fill-rule="nonzero"/><g clip-path="url(#547fcd1205)"><path fill="#ff651d" d="M 23.226562 292.339844 C 29.582031 292.339844 34.734375 287.1875 34.734375 280.832031 C 34.734375 274.476562 29.582031 269.324219 23.226562 269.324219 C 16.867188 269.324219 11.714844 274.476562 11.714844 280.832031 C 11.714844 287.1875 16.867188 292.339844 23.226562 292.339844 Z M 23.226562 292.339844 " fill-opacity="1" fill-rule="nonzero"/></g><path fill="#ff651d" d="M 66.273438 296.164062 C 74.742188 296.164062 81.605469 289.300781 81.605469 280.832031 C 81.605469 272.363281 74.742188 265.5 66.273438 265.5 C 57.804688 265.5 50.941406 272.363281 50.941406 280.832031 C 50.941406 289.300781 57.804688 296.164062 66.273438 296.164062 Z M 66.273438 296.164062 " fill-opacity="1" fill-rule="nonzero"/><path fill="#ff651d" d="M 109.324219 295.546875 C 117.453125 295.546875 124.039062 288.957031 124.039062 280.832031 C 124.039062 272.703125 117.453125 266.113281 109.324219 266.113281 C 101.195312 266.113281 94.605469 272.703125 94.605469 280.832031 C 94.605469 288.957031 101.195312 295.546875 109.324219 295.546875 Z M 109.324219 295.546875 " fill-opacity="1" fill-rule="nonzero"/><path fill="#ff651d" d="M 152.371094 300.476562 C 163.222656 300.476562 172.015625 291.679688 172.015625 280.832031 C 172.015625 269.980469 163.222656 261.1875 152.371094 261.1875 C 141.523438 261.1875 132.730469 269.980469 132.730469 280.832031 C 132.730469 291.679688 141.523438 300.476562 152.371094 300.476562 Z M 152.371094 300.476562 " fill-opacity="1" fill-rule="nonzero"/><path fill="#ff651d" d="M 195.457031 300.476562 C 206.304688 300.476562 215.101562 291.679688 215.101562 280.832031 C 215.101562 269.980469 206.304688 261.1875 195.457031 261.1875 C 184.605469 261.1875 175.8125 269.980469 175.8125 280.832031 C 175.8125 291.679688 184.605469 300.476562 195.457031 300.476562 Z M 195.457031 300.476562 " fill-opacity="1" fill-rule="nonzero"/><path fill="#ff651d" d="M 238.503906 300.476562 C 249.351562 300.476562 258.148438 291.679688 258.148438 280.832031 C 258.148438 269.980469 249.351562 261.1875 238.503906 261.1875 C 227.652344 261.1875 218.859375 269.980469 218.859375 280.832031 C 218.859375 291.679688 227.652344 300.476562 238.503906 300.476562 Z M 238.503906 300.476562 " fill-opacity="1" fill-rule="nonzero"/><path fill="#ff651d" d="M 281.554688 300.476562 C 292.402344 300.476562 301.199219 291.679688 301.199219 280.832031 C 301.199219 269.980469 292.402344 261.1875 281.554688 261.1875 C 270.703125 261.1875 261.910156 269.980469 261.910156 280.832031 C 261.910156 291.679688 270.703125 300.476562 281.554688 300.476562 Z M 281.554688 300.476562 " fill-opacity="1" fill-rule="nonzero"/><path fill="#ff651d" d="M 324.601562 300.476562 C 335.453125 300.476562 344.246094 291.679688 344.246094 280.832031 C 344.246094 269.980469 335.453125 261.1875 324.601562 261.1875 C 313.753906 261.1875 304.957031 269.980469 304.957031 280.832031 C 304.957031 291.679688 313.753906 300.476562 324.601562 300.476562 Z M 324.601562 300.476562 " fill-opacity="1" fill-rule="nonzero"/><path fill="#ff651d" d="M 367.683594 295.546875 C 375.8125 295.546875 382.402344 288.957031 382.402344 280.832031 C 382.402344 272.703125 375.8125 266.113281 367.683594 266.113281 C 359.554688 266.113281 352.96875 272.703125 352.96875 280.832031 C 352.96875 288.957031 359.554688 295.546875 367.683594 295.546875 Z M 367.683594 295.546875 " fill-opacity="1" fill-rule="nonzero"/><path fill="#ff651d" d="M 410.734375 296.164062 C 419.199219 296.164062 426.066406 289.300781 426.066406 280.832031 C 426.066406 272.363281 419.199219 265.5 410.734375 265.5 C 402.265625 265.5 395.398438 272.363281 395.398438 280.832031 C 395.398438 289.300781 402.265625 296.164062 410.734375 296.164062 Z M 410.734375 296.164062 " fill-opacity="1" fill-rule="nonzero"/><path fill="#ff651d" d="M 453.785156 296.164062 C 462.253906 296.164062 469.117188 289.300781 469.117188 280.832031 C 469.117188 272.363281 462.253906 265.5 453.785156 265.5 C 445.316406 265.5 438.449219 272.363281 438.449219 280.832031 C 438.449219 289.300781 445.316406 296.164062 453.785156 296.164062 Z M 453.785156 296.164062 " fill-opacity="1" fill-rule="nonzero"/><path fill="#ff651d" d="M 23.226562 332.535156 C 27.988281 332.535156 31.847656 328.675781 31.847656 323.914062 C 31.847656 319.152344 27.988281 315.289062 23.226562 315.289062 C 18.460938 315.289062 14.601562 319.152344 14.601562 323.914062 C 14.601562 328.675781 18.460938 332.535156 23.226562 332.535156 Z M 23.226562 332.535156 " fill-opacity="1" fill-rule="nonzero"/><path fill="#ff651d" d="M 66.273438 335.421875 C 72.628906 335.421875 77.78125 330.269531 77.78125 323.914062 C 77.78125 317.558594 72.628906 312.402344 66.273438 312.402344 C 59.917969 312.402344 54.765625 317.558594 54.765625 323.914062 C 54.765625 330.269531 59.917969 335.421875 66.273438 335.421875 Z M 66.273438 335.421875 " fill-opacity="1" fill-rule="nonzero"/><path fill="#ff651d" d="M 109.324219 338.628906 C 117.453125 338.628906 124.039062 332.039062 124.039062 323.914062 C 124.039062 315.785156 117.453125 309.195312 109.324219 309.195312 C 101.195312 309.195312 94.605469 315.785156 94.605469 323.914062 C 94.605469 332.039062 101.195312 338.628906 109.324219 338.628906 Z M 109.324219 338.628906 " fill-opacity="1" fill-rule="nonzero"/><path fill="#ff651d" d="M 152.371094 338.628906 C 160.5 338.628906 167.089844 332.039062 167.089844 323.914062 C 167.089844 315.785156 160.5 309.195312 152.371094 309.195312 C 144.246094 309.195312 137.65625 315.785156 137.65625 323.914062 C 137.65625 332.039062 144.246094 338.628906 152.371094 338.628906 Z M 152.371094 338.628906 " fill-opacity="1" fill-rule="nonzero"/><path fill="#ff651d" d="M 195.457031 343.558594 C 206.304688 343.558594 215.101562 334.761719 215.101562 323.914062 C 215.101562 313.0625 206.304688 304.269531 195.457031 304.269531 C 184.605469 304.269531 175.8125 313.0625 175.8125 323.914062 C 175.8125 334.761719 184.605469 343.558594 195.457031 343.558594 Z M 195.457031 343.558594 " fill-opacity="1" fill-rule="nonzero"/><path fill="#ff651d" d="M 238.503906 343.558594 C 249.351562 343.558594 258.148438 334.761719 258.148438 323.914062 C 258.148438 313.0625 249.351562 304.269531 238.503906 304.269531 C 227.652344 304.269531 218.859375 313.0625 218.859375 323.914062 C 218.859375 334.761719 227.652344 343.558594 238.503906 343.558594 Z M 238.503906 343.558594 " fill-opacity="1" fill-rule="nonzero"/><path fill="#ff651d" d="M 281.554688 343.558594 C 292.402344 343.558594 301.199219 334.761719 301.199219 323.914062 C 301.199219 313.0625 292.402344 304.269531 281.554688 304.269531 C 270.703125 304.269531 261.910156 313.0625 261.910156 323.914062 C 261.910156 334.761719 270.703125 343.558594 281.554688 343.558594 Z M 281.554688 343.558594 " fill-opacity="1" fill-rule="nonzero"/><path fill="#ff651d" d="M 324.601562 338.628906 C 332.730469 338.628906 339.320312 332.039062 339.320312 323.914062 C 339.320312 315.785156 332.730469 309.195312 324.601562 309.195312 C 316.472656 309.195312 309.886719 315.785156 309.886719 323.914062 C 309.886719 332.039062 316.472656 338.628906 324.601562 338.628906 Z M 324.601562 338.628906 " fill-opacity="1" fill-rule="nonzero"/><path fill="#ff651d" d="M 367.683594 338.628906 C 375.8125 338.628906 382.402344 332.039062 382.402344 323.914062 C 382.402344 315.785156 375.8125 309.195312 367.683594 309.195312 C 359.554688 309.195312 352.96875 315.785156 352.96875 323.914062 C 352.96875 332.039062 359.554688 338.628906 367.683594 338.628906 Z M 367.683594 338.628906 " fill-opacity="1" fill-rule="nonzero"/><path fill="#ff651d" d="M 410.734375 339.246094 C 419.199219 339.246094 426.066406 332.378906 426.066406 323.914062 C 426.066406 315.445312 419.199219 308.578125 410.734375 308.578125 C 402.265625 308.578125 395.398438 315.445312 395.398438 323.914062 C 395.398438 332.378906 402.265625 339.246094 410.734375 339.246094 Z M 410.734375 339.246094 " fill-opacity="1" fill-rule="nonzero"/><path fill="#ff651d" d="M 453.78125 335.421875 C 460.136719 335.421875 465.289062 330.269531 465.289062 323.914062 C 465.289062 317.558594 460.136719 312.402344 453.78125 312.402344 C 447.425781 312.402344 442.273438 317.558594 442.273438 323.914062 C 442.273438 330.269531 447.425781 335.421875 453.78125 335.421875 Z M 453.78125 335.421875 " fill-opacity="1" fill-rule="nonzero"/><path fill="#ff651d" d="M 66.273438 378.46875 C 72.628906 378.46875 77.78125 373.316406 77.78125 366.960938 C 77.78125 360.605469 72.628906 355.453125 66.273438 355.453125 C 59.917969 355.453125 54.765625 360.605469 54.765625 366.960938 C 54.765625 373.316406 59.917969 378.46875 66.273438 378.46875 Z M 66.273438 378.46875 " fill-opacity="1" fill-rule="nonzero"/><path fill="#ff651d" d="M 109.324219 382.296875 C 117.792969 382.296875 124.65625 375.429688 124.65625 366.960938 C 124.65625 358.496094 117.792969 351.628906 109.324219 351.628906 C 100.855469 351.628906 93.992188 358.496094 93.992188 366.960938 C 93.992188 375.429688 100.855469 382.296875 109.324219 382.296875 Z M 109.324219 382.296875 " fill-opacity="1" fill-rule="nonzero"/><path fill="#ff651d" d="M 152.371094 381.679688 C 160.5 381.679688 167.089844 375.089844 167.089844 366.960938 C 167.089844 358.835938 160.5 352.246094 152.371094 352.246094 C 144.246094 352.246094 137.65625 358.835938 137.65625 366.960938 C 137.65625 375.089844 144.246094 381.679688 152.371094 381.679688 Z M 152.371094 381.679688 " fill-opacity="1" fill-rule="nonzero"/><path fill="#ff651d" d="M 195.457031 381.679688 C 203.582031 381.679688 210.171875 375.089844 210.171875 366.960938 C 210.171875 358.835938 203.582031 352.246094 195.457031 352.246094 C 187.328125 352.246094 180.738281 358.835938 180.738281 366.960938 C 180.738281 375.089844 187.328125 381.679688 195.457031 381.679688 Z M 195.457031 381.679688 " fill-opacity="1" fill-rule="nonzero"/><path fill="#ff651d" d="M 238.503906 381.679688 C 246.632812 381.679688 253.222656 375.089844 253.222656 366.960938 C 253.222656 358.835938 246.632812 352.246094 238.503906 352.246094 C 230.375 352.246094 223.785156 358.835938 223.785156 366.960938 C 223.785156 375.089844 230.375 381.679688 238.503906 381.679688 Z M 238.503906 381.679688 " fill-opacity="1" fill-rule="nonzero"/><path fill="#ff651d" d="M 281.554688 381.679688 C 289.683594 381.679688 296.269531 375.089844 296.269531 366.960938 C 296.269531 358.835938 289.683594 352.246094 281.554688 352.246094 C 273.425781 352.246094 266.835938 358.835938 266.835938 366.960938 C 266.835938 375.089844 273.425781 381.679688 281.554688 381.679688 Z M 281.554688 381.679688 " fill-opacity="1" fill-rule="nonzero"/><path fill="#ff651d" d="M 324.601562 381.679688 C 332.730469 381.679688 339.320312 375.089844 339.320312 366.960938 C 339.320312 358.835938 332.730469 352.246094 324.601562 352.246094 C 316.472656 352.246094 309.886719 358.835938 309.886719 366.960938 C 309.886719 375.089844 316.472656 381.679688 324.601562 381.679688 Z M 324.601562 381.679688 " fill-opacity="1" fill-rule="nonzero"/><path fill="#ff651d" d="M 367.683594 382.296875 C 376.152344 382.296875 383.015625 375.429688 383.015625 366.960938 C 383.015625 358.496094 376.152344 351.628906 367.683594 351.628906 C 359.214844 351.628906 352.351562 358.496094 352.351562 366.960938 C 352.351562 375.429688 359.214844 382.296875 367.683594 382.296875 Z M 367.683594 382.296875 " fill-opacity="1" fill-rule="nonzero"/><path fill="#ff651d" d="M 410.734375 382.296875 C 419.199219 382.296875 426.066406 375.429688 426.066406 366.960938 C 426.066406 358.496094 419.199219 351.628906 410.734375 351.628906 C 402.265625 351.628906 395.398438 358.496094 395.398438 366.960938 C 395.398438 375.429688 402.265625 382.296875 410.734375 382.296875 Z M 410.734375 382.296875 " fill-opacity="1" fill-rule="nonzero"/><path fill="#ff651d" d="M 109.324219 421.519531 C 115.679688 421.519531 120.832031 416.367188 120.832031 410.011719 C 120.832031 403.65625 115.679688 398.503906 109.324219 398.503906 C 102.96875 398.503906 97.816406 403.65625 97.816406 410.011719 C 97.816406 416.367188 102.96875 421.519531 109.324219 421.519531 Z M 109.324219 421.519531 " fill-opacity="1" fill-rule="nonzero"/><path fill="#ff651d" d="M 152.375 425.34375 C 160.839844 425.34375 167.707031 418.480469 167.707031 410.011719 C 167.707031 401.542969 160.839844 394.679688 152.375 394.679688 C 143.90625 394.679688 137.039062 401.542969 137.039062 410.011719 C 137.039062 418.480469 143.90625 425.34375 152.375 425.34375 Z M 152.375 425.34375 " fill-opacity="1" fill-rule="nonzero"/><path fill="#ff651d" d="M 195.457031 425.34375 C 203.925781 425.34375 210.789062 418.480469 210.789062 410.011719 C 210.789062 401.542969 203.925781 394.679688 195.457031 394.679688 C 186.988281 394.679688 180.121094 401.542969 180.121094 410.011719 C 180.121094 418.480469 186.988281 425.34375 195.457031 425.34375 Z M 195.457031 425.34375 " fill-opacity="1" fill-rule="nonzero"/><path fill="#ff651d" d="M 238.503906 425.34375 C 246.972656 425.34375 253.835938 418.480469 253.835938 410.011719 C 253.835938 401.542969 246.972656 394.679688 238.503906 394.679688 C 230.035156 394.679688 223.171875 401.542969 223.171875 410.011719 C 223.171875 418.480469 230.035156 425.34375 238.503906 425.34375 Z M 238.503906 425.34375 " fill-opacity="1" fill-rule="nonzero"/><path fill="#ff651d" d="M 281.550781 425.34375 C 290.019531 425.34375 296.886719 418.480469 296.886719 410.011719 C 296.886719 401.542969 290.019531 394.679688 281.550781 394.679688 C 273.085938 394.679688 266.21875 401.542969 266.21875 410.011719 C 266.21875 418.480469 273.085938 425.34375 281.550781 425.34375 Z M 281.550781 425.34375 " fill-opacity="1" fill-rule="nonzero"/><path fill="#ff651d" d="M 324.601562 425.34375 C 333.070312 425.34375 339.933594 418.480469 339.933594 410.011719 C 339.933594 401.542969 333.070312 394.679688 324.601562 394.679688 C 316.132812 394.679688 309.269531 401.542969 309.269531 410.011719 C 309.269531 418.480469 316.132812 425.34375 324.601562 425.34375 Z M 324.601562 425.34375 " fill-opacity="1" fill-rule="nonzero"/><path fill="#ff651d" d="M 367.683594 425.34375 C 376.152344 425.34375 383.015625 418.480469 383.015625 410.011719 C 383.015625 401.542969 376.152344 394.679688 367.683594 394.679688 C 359.214844 394.679688 352.351562 401.542969 352.351562 410.011719 C 352.351562 418.480469 359.214844 425.34375 367.683594 425.34375 Z M 367.683594 425.34375 " fill-opacity="1" fill-rule="nonzero"/><path fill="#ff651d" d="M 152.371094 464.570312 C 158.726562 464.570312 163.878906 459.417969 163.878906 453.0625 C 163.878906 446.707031 158.726562 441.554688 152.371094 441.554688 C 146.015625 441.554688 140.863281 446.707031 140.863281 453.0625 C 140.863281 459.417969 146.015625 464.570312 152.371094 464.570312 Z M 152.371094 464.570312 " fill-opacity="1" fill-rule="nonzero"/><path fill="#ff651d" d="M 195.453125 464.570312 C 201.808594 464.570312 206.960938 459.417969 206.960938 453.0625 C 206.960938 446.707031 201.808594 441.554688 195.453125 441.554688 C 189.097656 441.554688 183.945312 446.707031 183.945312 453.0625 C 183.945312 459.417969 189.097656 464.570312 195.453125 464.570312 Z M 195.453125 464.570312 " fill-opacity="1" fill-rule="nonzero"/><g clip-path="url(#a425cc61ff)"><path fill="#ff651d" d="M 238.503906 468.394531 C 246.972656 468.394531 253.835938 461.53125 253.835938 453.0625 C 253.835938 444.59375 246.972656 437.726562 238.503906 437.726562 C 230.035156 437.726562 223.171875 444.59375 223.171875 453.0625 C 223.171875 461.53125 230.035156 468.394531 238.503906 468.394531 Z M 238.503906 468.394531 " fill-opacity="1" fill-rule="nonzero"/></g><g clip-path="url(#dc01ed5b9c)"><path fill="#ff651d" d="M 281.550781 468.394531 C 290.019531 468.394531 296.886719 461.53125 296.886719 453.0625 C 296.886719 444.59375 290.019531 437.726562 281.550781 437.726562 C 273.085938 437.726562 266.21875 444.59375 266.21875 453.0625 C 266.21875 461.53125 273.085938 468.394531 281.550781 468.394531 Z M 281.550781 468.394531 " fill-opacity="1" fill-rule="nonzero"/></g><path fill="#ff651d" d="M 324.601562 464.570312 C 330.957031 464.570312 336.109375 459.417969 336.109375 453.0625 C 336.109375 446.707031 330.957031 441.554688 324.601562 441.554688 C 318.246094 441.554688 313.09375 446.707031 313.09375 453.0625 C 313.09375 459.417969 318.246094 464.570312 324.601562 464.570312 Z M 324.601562 464.570312 " fill-opacity="1" fill-rule="nonzero"/><path fill="#ff651d" d="M 454.789062 34.011719 C 461.144531 34.011719 466.296875 28.859375 466.296875 22.503906 C 466.296875 16.148438 461.144531 10.996094 454.789062 10.996094 C 448.433594 10.996094 443.28125 16.148438 443.28125 22.503906 C 443.28125 28.859375 448.433594 34.011719 454.789062 34.011719 Z M 454.789062 34.011719 " fill-opacity="1" fill-rule="nonzero"/><g clip-path="url(#6f4408afff)"><path fill="#ff651d" d="M 497.835938 37.835938 C 506.304688 37.835938 513.171875 30.972656 513.171875 22.503906 C 513.171875 14.035156 506.304688 7.167969 497.835938 7.167969 C 489.371094 7.167969 482.503906 14.035156 482.503906 22.503906 C 482.503906 30.972656 489.371094 37.835938 497.835938 37.835938 Z M 497.835938 37.835938 " fill-opacity="1" fill-rule="nonzero"/></g><g clip-path="url(#47d3b3d3d3)"><path fill="#ff651d" d="M 540.917969 37.835938 C 549.386719 37.835938 556.253906 30.972656 556.253906 22.503906 C 556.253906 14.035156 549.386719 7.167969 540.917969 7.167969 C 532.449219 7.167969 525.585938 14.035156 525.585938 22.503906 C 525.585938 30.972656 532.449219 37.835938 540.917969 37.835938 Z M 540.917969 37.835938 " fill-opacity="1" fill-rule="nonzero"/></g><path fill="#ff651d" d="M 583.96875 34.011719 C 590.324219 34.011719 595.476562 28.859375 595.476562 22.503906 C 595.476562 16.148438 590.324219 10.996094 583.96875 10.996094 C 577.613281 10.996094 572.460938 16.148438 572.460938 22.503906 C 572.460938 28.859375 577.613281 34.011719 583.96875 34.011719 Z M 583.96875 34.011719 " fill-opacity="1" fill-rule="nonzero"/><path fill="#ff651d" d="M 627.015625 34.011719 C 633.371094 34.011719 638.523438 28.859375 638.523438 22.503906 C 638.523438 16.148438 633.371094 10.996094 627.015625 10.996094 C 620.660156 10.996094 615.507812 16.148438 615.507812 22.503906 C 615.507812 28.859375 620.660156 34.011719 627.015625 34.011719 Z M 627.015625 34.011719 " fill-opacity="1" fill-rule="nonzero"/><path fill="#ff651d" d="M 454.789062 77.058594 C 461.144531 77.058594 466.296875 71.90625 466.296875 65.550781 C 466.296875 59.195312 461.144531 54.042969 454.789062 54.042969 C 448.433594 54.042969 443.28125 59.195312 443.28125 65.550781 C 443.28125 71.90625 448.433594 77.058594 454.789062 77.058594 Z M 454.789062 77.058594 " fill-opacity="1" fill-rule="nonzero"/><path fill="#ff651d" d="M 410.894531 35.890625 C 417.25 35.890625 422.402344 30.738281 422.402344 24.382812 C 422.402344 18.027344 417.25 12.875 410.894531 12.875 C 404.539062 12.875 399.386719 18.027344 399.386719 24.382812 C 399.386719 30.738281 404.539062 35.890625 410.894531 35.890625 Z M 410.894531 35.890625 " fill-opacity="1" fill-rule="nonzero"/><path fill="#ff651d" d="M 410.894531 467.390625 C 417.25 467.390625 422.402344 462.238281 422.402344 455.882812 C 422.402344 449.527344 417.25 444.375 410.894531 444.375 C 404.539062 444.375 399.386719 449.527344 399.386719 455.882812 C 399.386719 462.238281 404.539062 467.390625 410.894531 467.390625 Z M 410.894531 467.390625 " fill-opacity="1" fill-rule="nonzero"/><path fill="#ff651d" d="M 497.839844 77.058594 C 504.195312 77.058594 509.347656 71.90625 509.347656 65.550781 C 509.347656 59.195312 504.195312 54.042969 497.839844 54.042969 C 491.480469 54.042969 486.328125 59.195312 486.328125 65.550781 C 486.328125 71.90625 491.480469 77.058594 497.839844 77.058594 Z M 497.839844 77.058594 " fill-opacity="1" fill-rule="nonzero"/><path fill="#ff651d" d="M 540.917969 80.886719 C 549.386719 80.886719 556.253906 74.019531 556.253906 65.550781 C 556.253906 57.082031 549.386719 50.21875 540.917969 50.21875 C 532.449219 50.21875 525.585938 57.082031 525.585938 65.550781 C 525.585938 74.019531 532.449219 80.886719 540.917969 80.886719 Z M 540.917969 80.886719 " fill-opacity="1" fill-rule="nonzero"/><path fill="#ff651d" d="M 583.96875 80.886719 C 592.4375 80.886719 599.300781 74.019531 599.300781 65.550781 C 599.300781 57.082031 592.4375 50.21875 583.96875 50.21875 C 575.5 50.21875 568.636719 57.082031 568.636719 65.550781 C 568.636719 74.019531 575.5 80.886719 583.96875 80.886719 Z M 583.96875 80.886719 " fill-opacity="1" fill-rule="nonzero"/><path fill="#ff651d" d="M 627.015625 80.886719 C 635.484375 80.886719 642.351562 74.019531 642.351562 65.550781 C 642.351562 57.082031 635.484375 50.21875 627.015625 50.21875 C 618.550781 50.21875 611.683594 57.082031 611.683594 65.550781 C 611.683594 74.019531 618.550781 80.886719 627.015625 80.886719 Z M 627.015625 80.886719 " fill-opacity="1" fill-rule="nonzero"/><path fill="#ff651d" d="M 670.066406 77.058594 C 676.421875 77.058594 681.574219 71.90625 681.574219 65.550781 C 681.574219 59.195312 676.421875 54.042969 670.066406 54.042969 C 663.710938 54.042969 658.558594 59.195312 658.558594 65.550781 C 658.558594 71.90625 663.710938 77.058594 670.066406 77.058594 Z M 670.066406 77.058594 " fill-opacity="1" fill-rule="nonzero"/><path fill="#ff651d" d="M 497.835938 119.6875 C 503.941406 119.6875 508.890625 114.738281 508.890625 108.632812 C 508.890625 102.527344 503.941406 97.578125 497.835938 97.578125 C 491.730469 97.578125 486.78125 102.527344 486.78125 108.632812 C 486.78125 114.738281 491.730469 119.6875 497.835938 119.6875 Z M 497.835938 119.6875 " fill-opacity="1" fill-rule="nonzero"/><path fill="#ff651d" d="M 540.917969 119.6875 C 547.023438 119.6875 551.972656 114.738281 551.972656 108.632812 C 551.972656 102.527344 547.023438 97.578125 540.917969 97.578125 C 534.8125 97.578125 529.863281 102.527344 529.863281 108.632812 C 529.863281 114.738281 534.8125 119.6875 540.917969 119.6875 Z M 540.917969 119.6875 " fill-opacity="1" fill-rule="nonzero"/><path fill="#ff651d" d="M 583.96875 123.351562 C 592.097656 123.351562 598.6875 116.761719 598.6875 108.632812 C 598.6875 100.503906 592.097656 93.917969 583.96875 93.917969 C 575.839844 93.917969 569.25 100.503906 569.25 108.632812 C 569.25 116.761719 575.839844 123.351562 583.96875 123.351562 Z M 583.96875 123.351562 " fill-opacity="1" fill-rule="nonzero"/><path fill="#ff651d" d="M 627.015625 123.351562 C 635.144531 123.351562 641.734375 116.761719 641.734375 108.632812 C 641.734375 100.503906 635.144531 93.917969 627.015625 93.917969 C 618.890625 93.917969 612.300781 100.503906 612.300781 108.632812 C 612.300781 116.761719 618.890625 123.351562 627.015625 123.351562 Z M 627.015625 123.351562 " fill-opacity="1" fill-rule="nonzero"/><path fill="#ff651d" d="M 670.066406 123.964844 C 678.535156 123.964844 685.402344 117.101562 685.402344 108.632812 C 685.402344 100.164062 678.535156 93.300781 670.066406 93.300781 C 661.597656 93.300781 654.734375 100.164062 654.734375 108.632812 C 654.734375 117.101562 661.597656 123.964844 670.066406 123.964844 Z M 670.066406 123.964844 " fill-opacity="1" fill-rule="nonzero"/><path fill="#ff651d" d="M 713.117188 120.140625 C 719.472656 120.140625 724.625 114.988281 724.625 108.632812 C 724.625 102.277344 719.472656 97.125 713.117188 97.125 C 706.761719 97.125 701.609375 102.277344 701.609375 108.632812 C 701.609375 114.988281 706.761719 120.140625 713.117188 120.140625 Z M 713.117188 120.140625 " fill-opacity="1" fill-rule="nonzero"/><path fill="#ff651d" d="M 540.917969 162.738281 C 547.023438 162.738281 551.972656 157.789062 551.972656 151.683594 C 551.972656 145.578125 547.023438 140.628906 540.917969 140.628906 C 534.8125 140.628906 529.863281 145.578125 529.863281 151.683594 C 529.863281 157.789062 534.8125 162.738281 540.917969 162.738281 Z M 540.917969 162.738281 " fill-opacity="1" fill-rule="nonzero"/><path fill="#ff651d" d="M 583.96875 166.398438 C 592.097656 166.398438 598.6875 159.8125 598.6875 151.683594 C 598.6875 143.554688 592.097656 136.964844 583.96875 136.964844 C 575.839844 136.964844 569.25 143.554688 569.25 151.683594 C 569.25 159.8125 575.839844 166.398438 583.96875 166.398438 Z M 583.96875 166.398438 " fill-opacity="1" fill-rule="nonzero"/><path fill="#ff651d" d="M 627.015625 166.398438 C 635.144531 166.398438 641.734375 159.8125 641.734375 151.683594 C 641.734375 143.554688 635.144531 136.964844 627.015625 136.964844 C 618.890625 136.964844 612.300781 143.554688 612.300781 151.683594 C 612.300781 159.8125 618.890625 166.398438 627.015625 166.398438 Z M 627.015625 166.398438 " fill-opacity="1" fill-rule="nonzero"/><path fill="#ff651d" d="M 670.066406 166.398438 C 678.195312 166.398438 684.785156 159.8125 684.785156 151.683594 C 684.785156 143.554688 678.195312 136.964844 670.066406 136.964844 C 661.9375 136.964844 655.351562 143.554688 655.351562 151.683594 C 655.351562 159.8125 661.9375 166.398438 670.066406 166.398438 Z M 670.066406 166.398438 " fill-opacity="1" fill-rule="nonzero"/><path fill="#ff651d" d="M 713.117188 163.191406 C 719.472656 163.191406 724.625 158.039062 724.625 151.683594 C 724.625 145.328125 719.472656 140.175781 713.117188 140.175781 C 706.761719 140.175781 701.609375 145.328125 701.609375 151.683594 C 701.609375 158.039062 706.761719 163.191406 713.117188 163.191406 Z M 713.117188 163.191406 " fill-opacity="1" fill-rule="nonzero"/><path fill="#ff651d" d="M 756.195312 160.304688 C 760.960938 160.304688 764.824219 156.445312 764.824219 151.683594 C 764.824219 146.921875 760.960938 143.058594 756.195312 143.058594 C 751.433594 143.058594 747.574219 146.921875 747.574219 151.683594 C 747.574219 156.445312 751.433594 160.304688 756.195312 160.304688 Z M 756.195312 160.304688 " fill-opacity="1" fill-rule="nonzero"/><path fill="#ff651d" d="M 540.917969 205.785156 C 547.023438 205.785156 551.972656 200.835938 551.972656 194.730469 C 551.972656 188.628906 547.023438 183.679688 540.917969 183.679688 C 534.8125 183.679688 529.863281 188.628906 529.863281 194.730469 C 529.863281 200.835938 534.8125 205.785156 540.917969 205.785156 Z M 540.917969 205.785156 " fill-opacity="1" fill-rule="nonzero"/><path fill="#ff651d" d="M 583.96875 209.449219 C 592.097656 209.449219 598.6875 202.859375 598.6875 194.730469 C 598.6875 186.605469 592.097656 180.015625 583.96875 180.015625 C 575.839844 180.015625 569.25 186.605469 569.25 194.730469 C 569.25 202.859375 575.839844 209.449219 583.96875 209.449219 Z M 583.96875 209.449219 " fill-opacity="1" fill-rule="nonzero"/><path fill="#ff651d" d="M 627.015625 214.375 C 637.867188 214.375 646.660156 205.582031 646.660156 194.730469 C 646.660156 183.882812 637.867188 175.085938 627.015625 175.085938 C 616.167969 175.085938 607.371094 183.882812 607.371094 194.730469 C 607.371094 205.582031 616.167969 214.375 627.015625 214.375 Z M 627.015625 214.375 " fill-opacity="1" fill-rule="nonzero"/><path fill="#ff651d" d="M 670.066406 209.449219 C 678.195312 209.449219 684.785156 202.859375 684.785156 194.730469 C 684.785156 186.605469 678.195312 180.015625 670.066406 180.015625 C 661.9375 180.015625 655.351562 186.605469 655.351562 194.730469 C 655.351562 202.859375 661.9375 209.449219 670.066406 209.449219 Z M 670.066406 209.449219 " fill-opacity="1" fill-rule="nonzero"/><path fill="#ff651d" d="M 713.117188 210.066406 C 721.585938 210.066406 728.449219 203.199219 728.449219 194.730469 C 728.449219 186.265625 721.585938 179.398438 713.117188 179.398438 C 704.648438 179.398438 697.785156 186.265625 697.785156 194.730469 C 697.785156 203.199219 704.648438 210.066406 713.117188 210.066406 Z M 713.117188 210.066406 " fill-opacity="1" fill-rule="nonzero"/><g clip-path="url(#6213133794)"><path fill="#ff651d" d="M 756.195312 206.238281 C 762.554688 206.238281 767.707031 201.089844 767.707031 194.730469 C 767.707031 188.378906 762.554688 183.222656 756.195312 183.222656 C 749.839844 183.222656 744.6875 188.378906 744.6875 194.730469 C 744.6875 201.089844 749.839844 206.238281 756.195312 206.238281 Z M 756.195312 206.238281 " fill-opacity="1" fill-rule="nonzero"/></g><path fill="#ff651d" d="M 540.917969 248.835938 C 547.023438 248.835938 551.972656 243.886719 551.972656 237.78125 C 551.972656 231.675781 547.023438 226.726562 540.917969 226.726562 C 534.8125 226.726562 529.863281 231.675781 529.863281 237.78125 C 529.863281 243.886719 534.8125 248.835938 540.917969 248.835938 Z M 540.917969 248.835938 " fill-opacity="1" fill-rule="nonzero"/><path fill="#ff651d" d="M 583.96875 252.5 C 592.097656 252.5 598.6875 245.910156 598.6875 237.78125 C 598.6875 229.652344 592.097656 223.066406 583.96875 223.066406 C 575.839844 223.066406 569.25 229.652344 569.25 237.78125 C 569.25 245.910156 575.839844 252.5 583.96875 252.5 Z M 583.96875 252.5 " fill-opacity="1" fill-rule="nonzero"/><path fill="#ff651d" d="M 627.015625 257.425781 C 637.867188 257.425781 646.660156 248.632812 646.660156 237.78125 C 646.660156 226.933594 637.867188 218.136719 627.015625 218.136719 C 616.167969 218.136719 607.371094 226.933594 607.371094 237.78125 C 607.371094 248.632812 616.167969 257.425781 627.015625 257.425781 Z M 627.015625 257.425781 " fill-opacity="1" fill-rule="nonzero"/><path fill="#ff651d" d="M 670.066406 252.5 C 678.195312 252.5 684.785156 245.910156 684.785156 237.78125 C 684.785156 229.652344 678.195312 223.066406 670.066406 223.066406 C 661.9375 223.066406 655.351562 229.652344 655.351562 237.78125 C 655.351562 245.910156 661.9375 252.5 670.066406 252.5 Z M 670.066406 252.5 " fill-opacity="1" fill-rule="nonzero"/><path fill="#ff651d" d="M 713.117188 253.113281 C 721.585938 253.113281 728.449219 246.25 728.449219 237.78125 C 728.449219 229.3125 721.585938 222.449219 713.117188 222.449219 C 704.648438 222.449219 697.785156 229.3125 697.785156 237.78125 C 697.785156 246.25 704.648438 253.113281 713.117188 253.113281 Z M 713.117188 253.113281 " fill-opacity="1" fill-rule="nonzero"/><g clip-path="url(#d648f6fc26)"><path fill="#ff651d" d="M 756.195312 249.289062 C 762.554688 249.289062 767.707031 244.136719 767.707031 237.78125 C 767.707031 231.425781 762.554688 226.273438 756.195312 226.273438 C 749.839844 226.273438 744.6875 231.425781 744.6875 237.78125 C 744.6875 244.136719 749.839844 249.289062 756.195312 249.289062 Z M 756.195312 249.289062 " fill-opacity="1" fill-rule="nonzero"/></g><path fill="#ff651d" d="M 540.917969 291.886719 C 547.023438 291.886719 551.972656 286.9375 551.972656 280.832031 C 551.972656 274.726562 547.023438 269.777344 540.917969 269.777344 C 534.8125 269.777344 529.863281 274.726562 529.863281 280.832031 C 529.863281 286.9375 534.8125 291.886719 540.917969 291.886719 Z M 540.917969 291.886719 " fill-opacity="1" fill-rule="nonzero"/><path fill="#ff651d" d="M 583.96875 295.546875 C 592.097656 295.546875 598.6875 288.957031 598.6875 280.832031 C 598.6875 272.703125 592.097656 266.113281 583.96875 266.113281 C 575.839844 266.113281 569.25 272.703125 569.25 280.832031 C 569.25 288.957031 575.839844 295.546875 583.96875 295.546875 Z M 583.96875 295.546875 " fill-opacity="1" fill-rule="nonzero"/><path fill="#ff651d" d="M 627.015625 300.476562 C 637.867188 300.476562 646.660156 291.679688 646.660156 280.832031 C 646.660156 269.980469 637.867188 261.1875 627.015625 261.1875 C 616.167969 261.1875 607.371094 269.980469 607.371094 280.832031 C 607.371094 291.679688 616.167969 300.476562 627.015625 300.476562 Z M 627.015625 300.476562 " fill-opacity="1" fill-rule="nonzero"/><path fill="#ff651d" d="M 670.066406 295.546875 C 678.195312 295.546875 684.785156 288.957031 684.785156 280.832031 C 684.785156 272.703125 678.195312 266.113281 670.066406 266.113281 C 661.9375 266.113281 655.351562 272.703125 655.351562 280.832031 C 655.351562 288.957031 661.9375 295.546875 670.066406 295.546875 Z M 670.066406 295.546875 " fill-opacity="1" fill-rule="nonzero"/><path fill="#ff651d" d="M 713.117188 296.164062 C 721.585938 296.164062 728.449219 289.300781 728.449219 280.832031 C 728.449219 272.363281 721.585938 265.5 713.117188 265.5 C 704.648438 265.5 697.785156 272.363281 697.785156 280.832031 C 697.785156 289.300781 704.648438 296.164062 713.117188 296.164062 Z M 713.117188 296.164062 " fill-opacity="1" fill-rule="nonzero"/><g clip-path="url(#bf3b04d986)"><path fill="#ff651d" d="M 756.195312 292.339844 C 762.554688 292.339844 767.707031 287.1875 767.707031 280.832031 C 767.707031 274.476562 762.554688 269.324219 756.195312 269.324219 C 749.839844 269.324219 744.6875 274.476562 744.6875 280.832031 C 744.6875 287.1875 749.839844 292.339844 756.195312 292.339844 Z M 756.195312 292.339844 " fill-opacity="1" fill-rule="nonzero"/></g><path fill="#ff651d" d="M 540.917969 334.96875 C 547.023438 334.96875 551.972656 330.019531 551.972656 323.914062 C 551.972656 317.808594 547.023438 312.859375 540.917969 312.859375 C 534.8125 312.859375 529.863281 317.808594 529.863281 323.914062 C 529.863281 330.019531 534.8125 334.96875 540.917969 334.96875 Z M 540.917969 334.96875 " fill-opacity="1" fill-rule="nonzero"/><path fill="#ff651d" d="M 583.96875 338.628906 C 592.097656 338.628906 598.6875 332.039062 598.6875 323.914062 C 598.6875 315.785156 592.097656 309.195312 583.96875 309.195312 C 575.839844 309.195312 569.25 315.785156 569.25 323.914062 C 569.25 332.039062 575.839844 338.628906 583.96875 338.628906 Z M 583.96875 338.628906 " fill-opacity="1" fill-rule="nonzero"/><path fill="#ff651d" d="M 627.015625 338.628906 C 635.144531 338.628906 641.734375 332.039062 641.734375 323.914062 C 641.734375 315.785156 635.144531 309.195312 627.015625 309.195312 C 618.890625 309.195312 612.300781 315.785156 612.300781 323.914062 C 612.300781 332.039062 618.890625 338.628906 627.015625 338.628906 Z M 627.015625 338.628906 " fill-opacity="1" fill-rule="nonzero"/><path fill="#ff651d" d="M 670.066406 338.628906 C 678.195312 338.628906 684.785156 332.039062 684.785156 323.914062 C 684.785156 315.785156 678.195312 309.195312 670.066406 309.195312 C 661.9375 309.195312 655.351562 315.785156 655.351562 323.914062 C 655.351562 332.039062 661.9375 338.628906 670.066406 338.628906 Z M 670.066406 338.628906 " fill-opacity="1" fill-rule="nonzero"/><path fill="#ff651d" d="M 713.117188 335.421875 C 719.472656 335.421875 724.625 330.269531 724.625 323.914062 C 724.625 317.558594 719.472656 312.402344 713.117188 312.402344 C 706.761719 312.402344 701.609375 317.558594 701.609375 323.914062 C 701.609375 330.269531 706.761719 335.421875 713.117188 335.421875 Z M 713.117188 335.421875 " fill-opacity="1" fill-rule="nonzero"/><path fill="#ff651d" d="M 756.195312 332.535156 C 760.960938 332.535156 764.824219 328.675781 764.824219 323.914062 C 764.824219 319.152344 760.960938 315.289062 756.195312 315.289062 C 751.433594 315.289062 747.574219 319.152344 747.574219 323.914062 C 747.574219 328.675781 751.433594 332.535156 756.195312 332.535156 Z M 756.195312 332.535156 " fill-opacity="1" fill-rule="nonzero"/><path fill="#ff651d" d="M 497.835938 378.015625 C 503.941406 378.015625 508.890625 373.066406 508.890625 366.960938 C 508.890625 360.859375 503.941406 355.910156 497.835938 355.910156 C 491.730469 355.910156 486.78125 360.859375 486.78125 366.960938 C 486.78125 373.066406 491.730469 378.015625 497.835938 378.015625 Z M 497.835938 378.015625 " fill-opacity="1" fill-rule="nonzero"/><path fill="#ff651d" d="M 540.917969 378.015625 C 547.023438 378.015625 551.972656 373.066406 551.972656 366.960938 C 551.972656 360.859375 547.023438 355.910156 540.917969 355.910156 C 534.8125 355.910156 529.863281 360.859375 529.863281 366.960938 C 529.863281 373.066406 534.8125 378.015625 540.917969 378.015625 Z M 540.917969 378.015625 " fill-opacity="1" fill-rule="nonzero"/><path fill="#ff651d" d="M 583.96875 381.679688 C 592.097656 381.679688 598.6875 375.089844 598.6875 366.960938 C 598.6875 358.835938 592.097656 352.246094 583.96875 352.246094 C 575.839844 352.246094 569.25 358.835938 569.25 366.960938 C 569.25 375.089844 575.839844 381.679688 583.96875 381.679688 Z M 583.96875 381.679688 " fill-opacity="1" fill-rule="nonzero"/><path fill="#ff651d" d="M 627.015625 381.679688 C 635.144531 381.679688 641.734375 375.089844 641.734375 366.960938 C 641.734375 358.835938 635.144531 352.246094 627.015625 352.246094 C 618.890625 352.246094 612.300781 358.835938 612.300781 366.960938 C 612.300781 375.089844 618.890625 381.679688 627.015625 381.679688 Z M 627.015625 381.679688 " fill-opacity="1" fill-rule="nonzero"/><path fill="#ff651d" d="M 670.066406 382.296875 C 678.535156 382.296875 685.402344 375.429688 685.402344 366.960938 C 685.402344 358.496094 678.535156 351.628906 670.066406 351.628906 C 661.597656 351.628906 654.734375 358.496094 654.734375 366.960938 C 654.734375 375.429688 661.597656 382.296875 670.066406 382.296875 Z M 670.066406 382.296875 " fill-opacity="1" fill-rule="nonzero"/><path fill="#ff651d" d="M 713.117188 378.46875 C 719.472656 378.46875 724.625 373.316406 724.625 366.960938 C 724.625 360.605469 719.472656 355.453125 713.117188 355.453125 C 706.761719 355.453125 701.609375 360.605469 701.609375 366.960938 C 701.609375 373.316406 706.761719 378.46875 713.117188 378.46875 Z M 713.117188 378.46875 " fill-opacity="1" fill-rule="nonzero"/><path fill="#ff651d" d="M 454.789062 421.519531 C 461.144531 421.519531 466.296875 416.367188 466.296875 410.011719 C 466.296875 403.65625 461.144531 398.503906 454.789062 398.503906 C 448.433594 398.503906 443.28125 403.65625 443.28125 410.011719 C 443.28125 416.367188 448.433594 421.519531 454.789062 421.519531 Z M 454.789062 421.519531 " fill-opacity="1" fill-rule="nonzero"/><path fill="#ff651d" d="M 497.839844 421.519531 C 504.195312 421.519531 509.347656 416.367188 509.347656 410.011719 C 509.347656 403.65625 504.195312 398.503906 497.839844 398.503906 C 491.480469 398.503906 486.328125 403.65625 486.328125 410.011719 C 486.328125 416.367188 491.480469 421.519531 497.839844 421.519531 Z M 497.839844 421.519531 " fill-opacity="1" fill-rule="nonzero"/><path fill="#ff651d" d="M 540.917969 425.34375 C 549.386719 425.34375 556.253906 418.480469 556.253906 410.011719 C 556.253906 401.542969 549.386719 394.679688 540.917969 394.679688 C 532.449219 394.679688 525.585938 401.542969 525.585938 410.011719 C 525.585938 418.480469 532.449219 425.34375 540.917969 425.34375 Z M 540.917969 425.34375 " fill-opacity="1" fill-rule="nonzero"/><path fill="#ff651d" d="M 583.96875 425.34375 C 592.4375 425.34375 599.300781 418.480469 599.300781 410.011719 C 599.300781 401.542969 592.4375 394.679688 583.96875 394.679688 C 575.5 394.679688 568.636719 401.542969 568.636719 410.011719 C 568.636719 418.480469 575.5 425.34375 583.96875 425.34375 Z M 583.96875 425.34375 " fill-opacity="1" fill-rule="nonzero"/><path fill="#ff651d" d="M 627.015625 425.34375 C 635.484375 425.34375 642.351562 418.480469 642.351562 410.011719 C 642.351562 401.542969 635.484375 394.679688 627.015625 394.679688 C 618.550781 394.679688 611.683594 401.542969 611.683594 410.011719 C 611.683594 418.480469 618.550781 425.34375 627.015625 425.34375 Z M 627.015625 425.34375 " fill-opacity="1" fill-rule="nonzero"/><path fill="#ff651d" d="M 670.066406 421.519531 C 676.421875 421.519531 681.574219 416.367188 681.574219 410.011719 C 681.574219 403.65625 676.421875 398.503906 670.066406 398.503906 C 663.710938 398.503906 658.558594 403.65625 658.558594 410.011719 C 658.558594 416.367188 663.710938 421.519531 670.066406 421.519531 Z M 670.066406 421.519531 " fill-opacity="1" fill-rule="nonzero"/><path fill="#ff651d" d="M 454.789062 464.570312 C 461.144531 464.570312 466.296875 459.417969 466.296875 453.0625 C 466.296875 446.707031 461.144531 441.554688 454.789062 441.554688 C 448.433594 441.554688 443.28125 446.707031 443.28125 453.0625 C 443.28125 459.417969 448.433594 464.570312 454.789062 464.570312 Z M 454.789062 464.570312 " fill-opacity="1" fill-rule="nonzero"/><g clip-path="url(#f309614a9d)"><path fill="#ff651d" d="M 497.835938 468.394531 C 506.304688 468.394531 513.171875 461.53125 513.171875 453.0625 C 513.171875 444.59375 506.304688 437.726562 497.835938 437.726562 C 489.371094 437.726562 482.503906 444.59375 482.503906 453.0625 C 482.503906 461.53125 489.371094 468.394531 497.835938 468.394531 Z M 497.835938 468.394531 " fill-opacity="1" fill-rule="nonzero"/></g><g clip-path="url(#4f8471ef11)"><path fill="#ff651d" d="M 540.917969 468.394531 C 549.386719 468.394531 556.253906 461.53125 556.253906 453.0625 C 556.253906 444.59375 549.386719 437.726562 540.917969 437.726562 C 532.449219 437.726562 525.585938 444.59375 525.585938 453.0625 C 525.585938 461.53125 532.449219 468.394531 540.917969 468.394531 Z M 540.917969 468.394531 " fill-opacity="1" fill-rule="nonzero"/></g><path fill="#ff651d" d="M 583.96875 464.570312 C 590.324219 464.570312 595.476562 459.417969 595.476562 453.0625 C 595.476562 446.707031 590.324219 441.554688 583.96875 441.554688 C 577.613281 441.554688 572.460938 446.707031 572.460938 453.0625 C 572.460938 459.417969 577.613281 464.570312 583.96875 464.570312 Z M 583.96875 464.570312 " fill-opacity="1" fill-rule="nonzero"/><path fill="#ff651d" d="M 627.015625 464.570312 C 633.371094 464.570312 638.523438 459.417969 638.523438 453.0625 C 638.523438 446.707031 633.371094 441.554688 627.015625 441.554688 C 620.660156 441.554688 615.507812 446.707031 615.507812 453.0625 C 615.507812 459.417969 620.660156 464.570312 627.015625 464.570312 Z M 627.015625 464.570312 " fill-opacity="1" fill-rule="nonzero"/></svg>