<svg xmlns="http://www.w3.org/2000/svg" xmlns:xlink="http://www.w3.org/1999/xlink" width="500" zoomAndPan="magnify" viewBox="0 0 375 374.999991" height="500" preserveAspectRatio="xMidYMid meet" version="1.0"><defs><clipPath id="4ebfe0eabc"><path d="M 144 0.902344 L 165 0.902344 L 165 22 L 144 22 Z M 144 0.902344 " clip-rule="nonzero"/></clipPath><clipPath id="07a22b4b8f"><path d="M 166 0.902344 L 187 0.902344 L 187 22 L 166 22 Z M 166 0.902344 " clip-rule="nonzero"/></clipPath><clipPath id="7cfdbd9a7e"><path d="M 320 45 L 340.855469 45 L 340.855469 66 L 320 66 Z M 320 45 " clip-rule="nonzero"/></clipPath><clipPath id="40b24dde84"><path d="M 320 67 L 340.855469 67 L 340.855469 88 L 320 88 Z M 320 67 " clip-rule="nonzero"/></clipPath><clipPath id="ad143e6413"><path d="M 33.609375 133 L 54 133 L 54 154 L 33.609375 154 Z M 33.609375 133 " clip-rule="nonzero"/></clipPath><clipPath id="adde3076c1"><path d="M 33.609375 155 L 54 155 L 54 176 L 33.609375 176 Z M 33.609375 155 " clip-rule="nonzero"/></clipPath><clipPath id="b102f9048b"><path d="M 320 177 L 340.855469 177 L 340.855469 198 L 320 198 Z M 320 177 " clip-rule="nonzero"/></clipPath><clipPath id="044c17918f"><path d="M 320 199 L 340.855469 199 L 340.855469 220 L 320 220 Z M 320 199 " clip-rule="nonzero"/></clipPath><clipPath id="a3dd74052a"><path d="M 33.609375 221 L 54 221 L 54 242 L 33.609375 242 Z M 33.609375 221 " clip-rule="nonzero"/></clipPath><clipPath id="974913b16c"><path d="M 166 354 L 187 354 L 187 374.332031 L 166 374.332031 Z M 166 354 " clip-rule="nonzero"/></clipPath><clipPath id="a4212472bb"><path d="M 188 354 L 209 354 L 209 374.332031 L 188 374.332031 Z M 188 354 " clip-rule="nonzero"/></clipPath></defs><g clip-path="url(#4ebfe0eabc)"><path fill="#ff651d" d="M 154.09375 21.027344 C 159.648438 21.027344 164.152344 16.523438 164.152344 10.964844 C 164.152344 5.410156 159.648438 0.902344 154.09375 0.902344 C 148.535156 0.902344 144.03125 5.410156 144.03125 10.964844 C 144.03125 16.523438 148.535156 21.027344 154.09375 21.027344 Z M 154.09375 21.027344 " fill-opacity="1" fill-rule="nonzero"/></g><g clip-path="url(#07a22b4b8f)"><path fill="#ff651d" d="M 176.179688 21.027344 C 181.734375 21.027344 186.242188 16.523438 186.242188 10.964844 C 186.242188 5.410156 181.734375 0.902344 176.179688 0.902344 C 170.621094 0.902344 166.117188 5.410156 166.117188 10.964844 C 166.117188 16.523438 170.621094 21.027344 176.179688 21.027344 Z M 176.179688 21.027344 " fill-opacity="1" fill-rule="nonzero"/></g><path fill="#ff651d" d="M 198.261719 18.523438 C 202.4375 18.523438 205.820312 15.140625 205.820312 10.964844 C 205.820312 6.792969 202.4375 3.40625 198.261719 3.40625 C 194.089844 3.40625 190.703125 6.792969 190.703125 10.964844 C 190.703125 15.140625 194.089844 18.523438 198.261719 18.523438 Z M 198.261719 18.523438 " fill-opacity="1" fill-rule="nonzero"/><path fill="#ff651d" d="M 220.34375 18.523438 C 224.519531 18.523438 227.902344 15.140625 227.902344 10.964844 C 227.902344 6.792969 224.519531 3.40625 220.34375 3.40625 C 216.171875 3.40625 212.789062 6.792969 212.789062 10.964844 C 212.789062 15.140625 216.171875 18.523438 220.34375 18.523438 Z M 220.34375 18.523438 " fill-opacity="1" fill-rule="nonzero"/><path fill="#ff651d" d="M 132.011719 43.109375 C 137.566406 43.109375 142.070312 38.605469 142.070312 33.050781 C 142.070312 27.492188 137.566406 22.988281 132.011719 22.988281 C 126.453125 22.988281 121.949219 27.492188 121.949219 33.050781 C 121.949219 38.605469 126.453125 43.109375 132.011719 43.109375 Z M 132.011719 43.109375 " fill-opacity="1" fill-rule="nonzero"/><path fill="#ff651d" d="M 154.09375 43.109375 C 159.648438 43.109375 164.152344 38.605469 164.152344 33.050781 C 164.152344 27.492188 159.648438 22.988281 154.09375 22.988281 C 148.535156 22.988281 144.03125 27.492188 144.03125 33.050781 C 144.03125 38.605469 148.535156 43.109375 154.09375 43.109375 Z M 154.09375 43.109375 " fill-opacity="1" fill-rule="nonzero"/><path fill="#ff651d" d="M 176.179688 43.109375 C 181.734375 43.109375 186.242188 38.605469 186.242188 33.050781 C 186.242188 27.492188 181.734375 22.988281 176.179688 22.988281 C 170.621094 22.988281 166.117188 27.492188 166.117188 33.050781 C 166.117188 38.605469 170.621094 43.109375 176.179688 43.109375 Z M 176.179688 43.109375 " fill-opacity="1" fill-rule="nonzero"/><path fill="#ff651d" d="M 198.261719 40.609375 C 202.4375 40.609375 205.820312 37.226562 205.820312 33.050781 C 205.820312 28.875 202.4375 25.492188 198.261719 25.492188 C 194.089844 25.492188 190.703125 28.875 190.703125 33.050781 C 190.703125 37.226562 194.089844 40.609375 198.261719 40.609375 Z M 198.261719 40.609375 " fill-opacity="1" fill-rule="nonzero"/><path fill="#ff651d" d="M 220.34375 40.609375 C 224.519531 40.609375 227.902344 37.226562 227.902344 33.050781 C 227.902344 28.875 224.519531 25.492188 220.34375 25.492188 C 216.171875 25.492188 212.789062 28.875 212.789062 33.050781 C 212.789062 37.226562 216.171875 40.609375 220.34375 40.609375 Z M 220.34375 40.609375 " fill-opacity="1" fill-rule="nonzero"/><path fill="#ff651d" d="M 242.433594 43.109375 C 247.992188 43.109375 252.496094 38.605469 252.496094 33.050781 C 252.496094 27.492188 247.992188 22.988281 242.433594 22.988281 C 236.878906 22.988281 232.375 27.492188 232.375 33.050781 C 232.375 38.605469 236.878906 43.109375 242.433594 43.109375 Z M 242.433594 43.109375 " fill-opacity="1" fill-rule="nonzero"/><path fill="#ff651d" d="M 43.667969 62.691406 C 47.84375 62.691406 51.226562 59.308594 51.226562 55.132812 C 51.226562 50.960938 47.84375 47.578125 43.667969 47.578125 C 39.496094 47.578125 36.109375 50.960938 36.109375 55.132812 C 36.109375 59.308594 39.496094 62.691406 43.667969 62.691406 Z M 43.667969 62.691406 " fill-opacity="1" fill-rule="nonzero"/><path fill="#ff651d" d="M 65.753906 62.691406 C 69.929688 62.691406 73.3125 59.308594 73.3125 55.132812 C 73.3125 50.960938 69.929688 47.578125 65.753906 47.578125 C 61.582031 47.578125 58.199219 50.960938 58.199219 55.132812 C 58.199219 59.308594 61.582031 62.691406 65.753906 62.691406 Z M 65.753906 62.691406 " fill-opacity="1" fill-rule="nonzero"/><path fill="#ff651d" d="M 87.839844 65.195312 C 93.398438 65.195312 97.902344 60.691406 97.902344 55.136719 C 97.902344 49.578125 93.398438 45.074219 87.839844 45.074219 C 82.285156 45.074219 77.78125 49.578125 77.78125 55.136719 C 77.78125 60.691406 82.285156 65.195312 87.839844 65.195312 Z M 87.839844 65.195312 " fill-opacity="1" fill-rule="nonzero"/><path fill="#ff651d" d="M 109.925781 65.195312 C 115.480469 65.195312 119.984375 60.691406 119.984375 55.136719 C 119.984375 49.578125 115.480469 45.074219 109.925781 45.074219 C 104.367188 45.074219 99.863281 49.578125 99.863281 55.136719 C 99.863281 60.691406 104.367188 65.195312 109.925781 65.195312 Z M 109.925781 65.195312 " fill-opacity="1" fill-rule="nonzero"/><path fill="#ff651d" d="M 132.007812 60.167969 C 134.785156 60.167969 137.039062 57.914062 137.039062 55.136719 C 137.039062 52.359375 134.785156 50.105469 132.007812 50.105469 C 129.230469 50.105469 126.976562 52.359375 126.976562 55.136719 C 126.976562 57.914062 129.230469 60.167969 132.007812 60.167969 Z M 132.007812 60.167969 " fill-opacity="1" fill-rule="nonzero"/><path fill="#ff651d" d="M 154.09375 60.167969 C 156.871094 60.167969 159.125 57.914062 159.125 55.136719 C 159.125 52.359375 156.871094 50.105469 154.09375 50.105469 C 151.316406 50.105469 149.0625 52.359375 149.0625 55.136719 C 149.0625 57.914062 151.316406 60.167969 154.09375 60.167969 Z M 154.09375 60.167969 " fill-opacity="1" fill-rule="nonzero"/><path fill="#ff651d" d="M 176.175781 60.167969 C 178.953125 60.167969 181.207031 57.914062 181.207031 55.136719 C 181.207031 52.359375 178.953125 50.105469 176.175781 50.105469 C 173.398438 50.105469 171.144531 52.359375 171.144531 55.136719 C 171.144531 57.914062 173.398438 60.167969 176.175781 60.167969 Z M 176.175781 60.167969 " fill-opacity="1" fill-rule="nonzero"/><path fill="#ff651d" d="M 198.261719 60.167969 C 201.039062 60.167969 203.292969 57.914062 203.292969 55.136719 C 203.292969 52.359375 201.039062 50.105469 198.261719 50.105469 C 195.484375 50.105469 193.230469 52.359375 193.230469 55.136719 C 193.230469 57.914062 195.484375 60.167969 198.261719 60.167969 Z M 198.261719 60.167969 " fill-opacity="1" fill-rule="nonzero"/><path fill="#ff651d" d="M 220.347656 65.195312 C 225.90625 65.195312 230.410156 60.691406 230.410156 55.136719 C 230.410156 49.578125 225.90625 45.074219 220.347656 45.074219 C 214.792969 45.074219 210.289062 49.578125 210.289062 55.136719 C 210.289062 60.691406 214.792969 65.195312 220.347656 65.195312 Z M 220.347656 65.195312 " fill-opacity="1" fill-rule="nonzero"/><path fill="#ff651d" d="M 242.433594 65.195312 C 247.992188 65.195312 252.496094 60.691406 252.496094 55.136719 C 252.496094 49.578125 247.992188 45.074219 242.433594 45.074219 C 236.878906 45.074219 232.375 49.578125 232.375 55.136719 C 232.375 60.691406 236.878906 65.195312 242.433594 65.195312 Z M 242.433594 65.195312 " fill-opacity="1" fill-rule="nonzero"/><path fill="#ff651d" d="M 264.519531 65.195312 C 270.074219 65.195312 274.578125 60.691406 274.578125 55.136719 C 274.578125 49.578125 270.074219 45.074219 264.519531 45.074219 C 258.960938 45.074219 254.457031 49.578125 254.457031 55.136719 C 254.457031 60.691406 258.960938 65.195312 264.519531 65.195312 Z M 264.519531 65.195312 " fill-opacity="1" fill-rule="nonzero"/><path fill="#ff651d" d="M 286.605469 65.195312 C 292.160156 65.195312 296.664062 60.691406 296.664062 55.136719 C 296.664062 49.578125 292.160156 45.074219 286.605469 45.074219 C 281.046875 45.074219 276.542969 49.578125 276.542969 55.136719 C 276.542969 60.691406 281.046875 65.195312 286.605469 65.195312 Z M 286.605469 65.195312 " fill-opacity="1" fill-rule="nonzero"/><path fill="#ff651d" d="M 308.6875 65.195312 C 314.242188 65.195312 318.75 60.691406 318.75 55.136719 C 318.75 49.578125 314.242188 45.074219 308.6875 45.074219 C 303.132812 45.074219 298.625 49.578125 298.625 55.136719 C 298.625 60.691406 303.132812 65.195312 308.6875 65.195312 Z M 308.6875 65.195312 " fill-opacity="1" fill-rule="nonzero"/><g clip-path="url(#7cfdbd9a7e)"><path fill="#ff651d" d="M 330.773438 65.195312 C 336.328125 65.195312 340.835938 60.691406 340.835938 55.136719 C 340.835938 49.578125 336.328125 45.074219 330.773438 45.074219 C 325.21875 45.074219 320.710938 49.578125 320.710938 55.136719 C 320.710938 60.691406 325.21875 65.195312 330.773438 65.195312 Z M 330.773438 65.195312 " fill-opacity="1" fill-rule="nonzero"/></g><path fill="#ff651d" d="M 43.667969 84.777344 C 47.84375 84.777344 51.226562 81.394531 51.226562 77.21875 C 51.226562 73.046875 47.84375 69.664062 43.667969 69.664062 C 39.496094 69.664062 36.109375 73.046875 36.109375 77.21875 C 36.109375 81.394531 39.496094 84.777344 43.667969 84.777344 Z M 43.667969 84.777344 " fill-opacity="1" fill-rule="nonzero"/><path fill="#ff651d" d="M 65.753906 84.777344 C 69.929688 84.777344 73.3125 81.394531 73.3125 77.21875 C 73.3125 73.046875 69.929688 69.664062 65.753906 69.664062 C 61.582031 69.664062 58.199219 73.046875 58.199219 77.21875 C 58.199219 81.394531 61.582031 84.777344 65.753906 84.777344 Z M 65.753906 84.777344 " fill-opacity="1" fill-rule="nonzero"/><path fill="#ff651d" d="M 87.839844 87.28125 C 93.398438 87.28125 97.902344 82.777344 97.902344 77.21875 C 97.902344 71.664062 93.398438 67.160156 87.839844 67.160156 C 82.285156 67.160156 77.78125 71.664062 77.78125 77.21875 C 77.78125 82.777344 82.285156 87.28125 87.839844 87.28125 Z M 87.839844 87.28125 " fill-opacity="1" fill-rule="nonzero"/><path fill="#ff651d" d="M 109.925781 87.28125 C 115.480469 87.28125 119.984375 82.777344 119.984375 77.21875 C 119.984375 71.664062 115.480469 67.160156 109.925781 67.160156 C 104.367188 67.160156 99.863281 71.664062 99.863281 77.21875 C 99.863281 82.777344 104.367188 87.28125 109.925781 87.28125 Z M 109.925781 87.28125 " fill-opacity="1" fill-rule="nonzero"/><path fill="#ff651d" d="M 132.007812 82.25 C 134.785156 82.25 137.039062 80 137.039062 77.21875 C 137.039062 74.441406 134.785156 72.191406 132.007812 72.191406 C 129.230469 72.191406 126.976562 74.441406 126.976562 77.21875 C 126.976562 80 129.230469 82.25 132.007812 82.25 Z M 132.007812 82.25 " fill-opacity="1" fill-rule="nonzero"/><path fill="#ff651d" d="M 154.09375 82.25 C 156.871094 82.25 159.125 80 159.125 77.21875 C 159.125 74.441406 156.871094 72.191406 154.09375 72.191406 C 151.316406 72.191406 149.0625 74.441406 149.0625 77.21875 C 149.0625 80 151.316406 82.25 154.09375 82.25 Z M 154.09375 82.25 " fill-opacity="1" fill-rule="nonzero"/><path fill="#ff651d" d="M 176.175781 82.25 C 178.953125 82.25 181.207031 80 181.207031 77.21875 C 181.207031 74.441406 178.953125 72.191406 176.175781 72.191406 C 173.398438 72.191406 171.144531 74.441406 171.144531 77.21875 C 171.144531 80 173.398438 82.25 176.175781 82.25 Z M 176.175781 82.25 " fill-opacity="1" fill-rule="nonzero"/><path fill="#ff651d" d="M 198.261719 82.25 C 201.039062 82.25 203.292969 80 203.292969 77.21875 C 203.292969 74.441406 201.039062 72.191406 198.261719 72.191406 C 195.484375 72.191406 193.230469 74.441406 193.230469 77.21875 C 193.230469 80 195.484375 82.25 198.261719 82.25 Z M 198.261719 82.25 " fill-opacity="1" fill-rule="nonzero"/><path fill="#ff651d" d="M 220.347656 87.28125 C 225.90625 87.28125 230.410156 82.777344 230.410156 77.21875 C 230.410156 71.664062 225.90625 67.160156 220.347656 67.160156 C 214.792969 67.160156 210.289062 71.664062 210.289062 77.21875 C 210.289062 82.777344 214.792969 87.28125 220.347656 87.28125 Z M 220.347656 87.28125 " fill-opacity="1" fill-rule="nonzero"/><path fill="#ff651d" d="M 242.433594 87.28125 C 247.992188 87.28125 252.496094 82.777344 252.496094 77.21875 C 252.496094 71.664062 247.992188 67.160156 242.433594 67.160156 C 236.878906 67.160156 232.375 71.664062 232.375 77.21875 C 232.375 82.777344 236.878906 87.28125 242.433594 87.28125 Z M 242.433594 87.28125 " fill-opacity="1" fill-rule="nonzero"/><path fill="#ff651d" d="M 264.519531 87.28125 C 270.074219 87.28125 274.578125 82.777344 274.578125 77.21875 C 274.578125 71.664062 270.074219 67.160156 264.519531 67.160156 C 258.960938 67.160156 254.457031 71.664062 254.457031 77.21875 C 254.457031 82.777344 258.960938 87.28125 264.519531 87.28125 Z M 264.519531 87.28125 " fill-opacity="1" fill-rule="nonzero"/><path fill="#ff651d" d="M 286.605469 87.28125 C 292.160156 87.28125 296.664062 82.777344 296.664062 77.21875 C 296.664062 71.664062 292.160156 67.160156 286.605469 67.160156 C 281.046875 67.160156 276.542969 71.664062 276.542969 77.21875 C 276.542969 82.777344 281.046875 87.28125 286.605469 87.28125 Z M 286.605469 87.28125 " fill-opacity="1" fill-rule="nonzero"/><path fill="#ff651d" d="M 308.6875 87.28125 C 314.242188 87.28125 318.75 82.777344 318.75 77.21875 C 318.75 71.664062 314.242188 67.160156 308.6875 67.160156 C 303.132812 67.160156 298.625 71.664062 298.625 77.21875 C 298.625 82.777344 303.132812 87.28125 308.6875 87.28125 Z M 308.6875 87.28125 " fill-opacity="1" fill-rule="nonzero"/><g clip-path="url(#40b24dde84)"><path fill="#ff651d" d="M 330.773438 87.28125 C 336.328125 87.28125 340.835938 82.777344 340.835938 77.21875 C 340.835938 71.664062 336.328125 67.160156 330.773438 67.160156 C 325.21875 67.160156 320.710938 71.664062 320.710938 77.21875 C 320.710938 82.777344 325.21875 87.28125 330.773438 87.28125 Z M 330.773438 87.28125 " fill-opacity="1" fill-rule="nonzero"/></g><path fill="#ff651d" d="M 43.667969 104.335938 C 46.445312 104.335938 48.699219 102.082031 48.699219 99.304688 C 48.699219 96.527344 46.445312 94.273438 43.667969 94.273438 C 40.890625 94.273438 38.636719 96.527344 38.636719 99.304688 C 38.636719 102.082031 40.890625 104.335938 43.667969 104.335938 Z M 43.667969 104.335938 " fill-opacity="1" fill-rule="nonzero"/><path fill="#ff651d" d="M 65.75 104.335938 C 68.53125 104.335938 70.78125 102.082031 70.78125 99.304688 C 70.78125 96.527344 68.53125 94.273438 65.75 94.273438 C 62.972656 94.273438 60.722656 96.527344 60.722656 99.304688 C 60.722656 102.082031 62.972656 104.335938 65.75 104.335938 Z M 65.75 104.335938 " fill-opacity="1" fill-rule="nonzero"/><path fill="#ff651d" d="M 87.839844 106.863281 C 92.015625 106.863281 95.398438 103.480469 95.398438 99.304688 C 95.398438 95.128906 92.015625 91.746094 87.839844 91.746094 C 83.667969 91.746094 80.285156 95.128906 80.285156 99.304688 C 80.285156 103.480469 83.667969 106.863281 87.839844 106.863281 Z M 87.839844 106.863281 " fill-opacity="1" fill-rule="nonzero"/><path fill="#ff651d" d="M 109.925781 106.863281 C 114.097656 106.863281 117.480469 103.480469 117.480469 99.304688 C 117.480469 95.128906 114.097656 91.746094 109.925781 91.746094 C 105.75 91.746094 102.367188 95.128906 102.367188 99.304688 C 102.367188 103.480469 105.75 106.863281 109.925781 106.863281 Z M 109.925781 106.863281 " fill-opacity="1" fill-rule="nonzero"/><path fill="#ff651d" d="M 132.007812 104.335938 C 134.785156 104.335938 137.039062 102.082031 137.039062 99.304688 C 137.039062 96.527344 134.785156 94.273438 132.007812 94.273438 C 129.230469 94.273438 126.976562 96.527344 126.976562 99.304688 C 126.976562 102.082031 129.230469 104.335938 132.007812 104.335938 Z M 132.007812 104.335938 " fill-opacity="1" fill-rule="nonzero"/><path fill="#ff651d" d="M 154.09375 104.335938 C 156.871094 104.335938 159.125 102.082031 159.125 99.304688 C 159.125 96.527344 156.871094 94.273438 154.09375 94.273438 C 151.316406 94.273438 149.0625 96.527344 149.0625 99.304688 C 149.0625 102.082031 151.316406 104.335938 154.09375 104.335938 Z M 154.09375 104.335938 " fill-opacity="1" fill-rule="nonzero"/><path fill="#ff651d" d="M 176.179688 109.367188 C 181.734375 109.367188 186.242188 104.859375 186.242188 99.304688 C 186.242188 93.746094 181.734375 89.242188 176.179688 89.242188 C 170.621094 89.242188 166.117188 93.746094 166.117188 99.304688 C 166.117188 104.859375 170.621094 109.367188 176.179688 109.367188 Z M 176.179688 109.367188 " fill-opacity="1" fill-rule="nonzero"/><path fill="#ff651d" d="M 198.261719 109.367188 C 203.816406 109.367188 208.324219 104.859375 208.324219 99.304688 C 208.324219 93.746094 203.816406 89.242188 198.261719 89.242188 C 192.707031 89.242188 188.199219 93.746094 188.199219 99.304688 C 188.199219 104.859375 192.707031 109.367188 198.261719 109.367188 Z M 198.261719 109.367188 " fill-opacity="1" fill-rule="nonzero"/><path fill="#ff651d" d="M 220.347656 109.367188 C 225.90625 109.367188 230.410156 104.859375 230.410156 99.304688 C 230.410156 93.746094 225.90625 89.242188 220.347656 89.242188 C 214.792969 89.242188 210.289062 93.746094 210.289062 99.304688 C 210.289062 104.859375 214.792969 109.367188 220.347656 109.367188 Z M 220.347656 109.367188 " fill-opacity="1" fill-rule="nonzero"/><path fill="#ff651d" d="M 242.433594 109.367188 C 247.992188 109.367188 252.496094 104.859375 252.496094 99.304688 C 252.496094 93.746094 247.992188 89.242188 242.433594 89.242188 C 236.878906 89.242188 232.375 93.746094 232.375 99.304688 C 232.375 104.859375 236.878906 109.367188 242.433594 109.367188 Z M 242.433594 109.367188 " fill-opacity="1" fill-rule="nonzero"/><path fill="#ff651d" d="M 264.519531 109.367188 C 270.074219 109.367188 274.578125 104.859375 274.578125 99.304688 C 274.578125 93.746094 270.074219 89.242188 264.519531 89.242188 C 258.960938 89.242188 254.457031 93.746094 254.457031 99.304688 C 254.457031 104.859375 258.960938 109.367188 264.519531 109.367188 Z M 264.519531 109.367188 " fill-opacity="1" fill-rule="nonzero"/><path fill="#ff651d" d="M 286.605469 109.367188 C 292.160156 109.367188 296.664062 104.859375 296.664062 99.304688 C 296.664062 93.746094 292.160156 89.242188 286.605469 89.242188 C 281.046875 89.242188 276.542969 93.746094 276.542969 99.304688 C 276.542969 104.859375 281.046875 109.367188 286.605469 109.367188 Z M 286.605469 109.367188 " fill-opacity="1" fill-rule="nonzero"/><path fill="#ff651d" d="M 308.6875 106.863281 C 312.859375 106.863281 316.246094 103.480469 316.246094 99.304688 C 316.246094 95.128906 312.859375 91.746094 308.6875 91.746094 C 304.511719 91.746094 301.128906 95.128906 301.128906 99.304688 C 301.128906 103.480469 304.511719 106.863281 308.6875 106.863281 Z M 308.6875 106.863281 " fill-opacity="1" fill-rule="nonzero"/><path fill="#ff651d" d="M 330.769531 106.863281 C 334.945312 106.863281 338.328125 103.480469 338.328125 99.304688 C 338.328125 95.128906 334.945312 91.746094 330.769531 91.746094 C 326.59375 91.746094 323.210938 95.128906 323.210938 99.304688 C 323.210938 103.480469 326.59375 106.863281 330.769531 106.863281 Z M 330.769531 106.863281 " fill-opacity="1" fill-rule="nonzero"/><path fill="#ff651d" d="M 43.667969 126.421875 C 46.445312 126.421875 48.699219 124.167969 48.699219 121.390625 C 48.699219 118.613281 46.445312 116.359375 43.667969 116.359375 C 40.890625 116.359375 38.636719 118.613281 38.636719 121.390625 C 38.636719 124.167969 40.890625 126.421875 43.667969 126.421875 Z M 43.667969 126.421875 " fill-opacity="1" fill-rule="nonzero"/><path fill="#ff651d" d="M 65.75 126.421875 C 68.53125 126.421875 70.78125 124.167969 70.78125 121.390625 C 70.78125 118.613281 68.53125 116.359375 65.75 116.359375 C 62.972656 116.359375 60.722656 118.613281 60.722656 121.390625 C 60.722656 124.167969 62.972656 126.421875 65.75 126.421875 Z M 65.75 126.421875 " fill-opacity="1" fill-rule="nonzero"/><path fill="#ff651d" d="M 87.839844 128.945312 C 92.015625 128.945312 95.398438 125.5625 95.398438 121.390625 C 95.398438 117.214844 92.015625 113.832031 87.839844 113.832031 C 83.667969 113.832031 80.285156 117.214844 80.285156 121.390625 C 80.285156 125.5625 83.667969 128.945312 87.839844 128.945312 Z M 87.839844 128.945312 " fill-opacity="1" fill-rule="nonzero"/><path fill="#ff651d" d="M 109.925781 128.945312 C 114.097656 128.945312 117.480469 125.5625 117.480469 121.390625 C 117.480469 117.214844 114.097656 113.832031 109.925781 113.832031 C 105.75 113.832031 102.367188 117.214844 102.367188 121.390625 C 102.367188 125.5625 105.75 128.945312 109.925781 128.945312 Z M 109.925781 128.945312 " fill-opacity="1" fill-rule="nonzero"/><path fill="#ff651d" d="M 132.007812 126.421875 C 134.785156 126.421875 137.039062 124.167969 137.039062 121.390625 C 137.039062 118.613281 134.785156 116.359375 132.007812 116.359375 C 129.230469 116.359375 126.976562 118.613281 126.976562 121.390625 C 126.976562 124.167969 129.230469 126.421875 132.007812 126.421875 Z M 132.007812 126.421875 " fill-opacity="1" fill-rule="nonzero"/><path fill="#ff651d" d="M 154.09375 126.421875 C 156.871094 126.421875 159.125 124.167969 159.125 121.390625 C 159.125 118.613281 156.871094 116.359375 154.09375 116.359375 C 151.316406 116.359375 149.0625 118.613281 149.0625 121.390625 C 149.0625 124.167969 151.316406 126.421875 154.09375 126.421875 Z M 154.09375 126.421875 " fill-opacity="1" fill-rule="nonzero"/><path fill="#ff651d" d="M 176.179688 131.449219 C 181.734375 131.449219 186.242188 126.945312 186.242188 121.390625 C 186.242188 115.832031 181.734375 111.328125 176.179688 111.328125 C 170.621094 111.328125 166.117188 115.832031 166.117188 121.390625 C 166.117188 126.945312 170.621094 131.449219 176.179688 131.449219 Z M 176.179688 131.449219 " fill-opacity="1" fill-rule="nonzero"/><path fill="#ff651d" d="M 198.261719 131.449219 C 203.816406 131.449219 208.324219 126.945312 208.324219 121.390625 C 208.324219 115.832031 203.816406 111.328125 198.261719 111.328125 C 192.707031 111.328125 188.199219 115.832031 188.199219 121.390625 C 188.199219 126.945312 192.707031 131.449219 198.261719 131.449219 Z M 198.261719 131.449219 " fill-opacity="1" fill-rule="nonzero"/><path fill="#ff651d" d="M 220.347656 131.449219 C 225.90625 131.449219 230.410156 126.945312 230.410156 121.390625 C 230.410156 115.832031 225.90625 111.328125 220.347656 111.328125 C 214.792969 111.328125 210.289062 115.832031 210.289062 121.390625 C 210.289062 126.945312 214.792969 131.449219 220.347656 131.449219 Z M 220.347656 131.449219 " fill-opacity="1" fill-rule="nonzero"/><path fill="#ff651d" d="M 242.433594 131.449219 C 247.992188 131.449219 252.496094 126.945312 252.496094 121.390625 C 252.496094 115.832031 247.992188 111.328125 242.433594 111.328125 C 236.878906 111.328125 232.375 115.832031 232.375 121.390625 C 232.375 126.945312 236.878906 131.449219 242.433594 131.449219 Z M 242.433594 131.449219 " fill-opacity="1" fill-rule="nonzero"/><path fill="#ff651d" d="M 264.519531 131.449219 C 270.074219 131.449219 274.578125 126.945312 274.578125 121.390625 C 274.578125 115.832031 270.074219 111.328125 264.519531 111.328125 C 258.960938 111.328125 254.457031 115.832031 254.457031 121.390625 C 254.457031 126.945312 258.960938 131.449219 264.519531 131.449219 Z M 264.519531 131.449219 " fill-opacity="1" fill-rule="nonzero"/><path fill="#ff651d" d="M 286.605469 131.449219 C 292.160156 131.449219 296.664062 126.945312 296.664062 121.390625 C 296.664062 115.832031 292.160156 111.328125 286.605469 111.328125 C 281.046875 111.328125 276.542969 115.832031 276.542969 121.390625 C 276.542969 126.945312 281.046875 131.449219 286.605469 131.449219 Z M 286.605469 131.449219 " fill-opacity="1" fill-rule="nonzero"/><path fill="#ff651d" d="M 308.6875 128.945312 C 312.859375 128.945312 316.246094 125.5625 316.246094 121.390625 C 316.246094 117.214844 312.859375 113.832031 308.6875 113.832031 C 304.511719 113.832031 301.128906 117.214844 301.128906 121.390625 C 301.128906 125.5625 304.511719 128.945312 308.6875 128.945312 Z M 308.6875 128.945312 " fill-opacity="1" fill-rule="nonzero"/><path fill="#ff651d" d="M 330.769531 128.945312 C 334.945312 128.945312 338.328125 125.5625 338.328125 121.390625 C 338.328125 117.214844 334.945312 113.832031 330.769531 113.832031 C 326.59375 113.832031 323.210938 117.214844 323.210938 121.390625 C 323.210938 125.5625 326.59375 128.945312 330.769531 128.945312 Z M 330.769531 128.945312 " fill-opacity="1" fill-rule="nonzero"/><g clip-path="url(#ad143e6413)"><path fill="#ff651d" d="M 43.667969 153.535156 C 49.226562 153.535156 53.730469 149.03125 53.730469 143.476562 C 53.730469 137.917969 49.226562 133.414062 43.667969 133.414062 C 38.113281 133.414062 33.609375 137.917969 33.609375 143.476562 C 33.609375 149.03125 38.113281 153.535156 43.667969 153.535156 Z M 43.667969 153.535156 " fill-opacity="1" fill-rule="nonzero"/></g><path fill="#ff651d" d="M 65.753906 153.535156 C 71.3125 153.535156 75.816406 149.03125 75.816406 143.476562 C 75.816406 137.917969 71.3125 133.414062 65.753906 133.414062 C 60.199219 133.414062 55.695312 137.917969 55.695312 143.476562 C 55.695312 149.03125 60.199219 153.535156 65.753906 153.535156 Z M 65.753906 153.535156 " fill-opacity="1" fill-rule="nonzero"/><path fill="#ff651d" d="M 87.839844 153.535156 C 93.398438 153.535156 97.902344 149.03125 97.902344 143.476562 C 97.902344 137.917969 93.398438 133.414062 87.839844 133.414062 C 82.285156 133.414062 77.78125 137.917969 77.78125 143.476562 C 77.78125 149.03125 82.285156 153.535156 87.839844 153.535156 Z M 87.839844 153.535156 " fill-opacity="1" fill-rule="nonzero"/><path fill="#ff651d" d="M 109.925781 153.535156 C 115.480469 153.535156 119.984375 149.03125 119.984375 143.476562 C 119.984375 137.917969 115.480469 133.414062 109.925781 133.414062 C 104.367188 133.414062 99.863281 137.917969 99.863281 143.476562 C 99.863281 149.03125 104.367188 153.535156 109.925781 153.535156 Z M 109.925781 153.535156 " fill-opacity="1" fill-rule="nonzero"/><path fill="#ff651d" d="M 132.011719 153.535156 C 137.566406 153.535156 142.070312 149.03125 142.070312 143.476562 C 142.070312 137.917969 137.566406 133.414062 132.011719 133.414062 C 126.453125 133.414062 121.949219 137.917969 121.949219 143.476562 C 121.949219 149.03125 126.453125 153.535156 132.011719 153.535156 Z M 132.011719 153.535156 " fill-opacity="1" fill-rule="nonzero"/><path fill="#ff651d" d="M 154.09375 153.535156 C 159.648438 153.535156 164.152344 149.03125 164.152344 143.476562 C 164.152344 137.917969 159.648438 133.414062 154.09375 133.414062 C 148.535156 133.414062 144.03125 137.917969 144.03125 143.476562 C 144.03125 149.03125 148.535156 153.535156 154.09375 153.535156 Z M 154.09375 153.535156 " fill-opacity="1" fill-rule="nonzero"/><path fill="#ff651d" d="M 176.179688 153.535156 C 181.734375 153.535156 186.242188 149.03125 186.242188 143.476562 C 186.242188 137.917969 181.734375 133.414062 176.179688 133.414062 C 170.621094 133.414062 166.117188 137.917969 166.117188 143.476562 C 166.117188 149.03125 170.621094 153.535156 176.179688 153.535156 Z M 176.179688 153.535156 " fill-opacity="1" fill-rule="nonzero"/><path fill="#ff651d" d="M 198.261719 153.535156 C 203.816406 153.535156 208.324219 149.03125 208.324219 143.476562 C 208.324219 137.917969 203.816406 133.414062 198.261719 133.414062 C 192.707031 133.414062 188.199219 137.917969 188.199219 143.476562 C 188.199219 149.03125 192.707031 153.535156 198.261719 153.535156 Z M 198.261719 153.535156 " fill-opacity="1" fill-rule="nonzero"/><path fill="#ff651d" d="M 220.34375 151.03125 C 224.519531 151.03125 227.902344 147.648438 227.902344 143.476562 C 227.902344 139.300781 224.519531 135.917969 220.34375 135.917969 C 216.171875 135.917969 212.789062 139.300781 212.789062 143.476562 C 212.789062 147.648438 216.171875 151.03125 220.34375 151.03125 Z M 220.34375 151.03125 " fill-opacity="1" fill-rule="nonzero"/><path fill="#ff651d" d="M 242.429688 151.03125 C 246.605469 151.03125 249.988281 147.648438 249.988281 143.476562 C 249.988281 139.300781 246.605469 135.917969 242.429688 135.917969 C 238.257812 135.917969 234.871094 139.300781 234.871094 143.476562 C 234.871094 147.648438 238.257812 151.03125 242.429688 151.03125 Z M 242.429688 151.03125 " fill-opacity="1" fill-rule="nonzero"/><path fill="#ff651d" d="M 264.519531 151.03125 C 268.691406 151.03125 272.074219 147.648438 272.074219 143.476562 C 272.074219 139.300781 268.691406 135.917969 264.519531 135.917969 C 260.34375 135.917969 256.960938 139.300781 256.960938 143.476562 C 256.960938 147.648438 260.34375 151.03125 264.519531 151.03125 Z M 264.519531 151.03125 " fill-opacity="1" fill-rule="nonzero"/><path fill="#ff651d" d="M 286.601562 151.03125 C 290.773438 151.03125 294.160156 147.648438 294.160156 143.476562 C 294.160156 139.300781 290.773438 135.917969 286.601562 135.917969 C 282.425781 135.917969 279.042969 139.300781 279.042969 143.476562 C 279.042969 147.648438 282.425781 151.03125 286.601562 151.03125 Z M 286.601562 151.03125 " fill-opacity="1" fill-rule="nonzero"/><path fill="#ff651d" d="M 308.6875 148.503906 C 311.464844 148.503906 313.71875 146.253906 313.71875 143.476562 C 313.71875 140.695312 311.464844 138.445312 308.6875 138.445312 C 305.910156 138.445312 303.65625 140.695312 303.65625 143.476562 C 303.65625 146.253906 305.910156 148.503906 308.6875 148.503906 Z M 308.6875 148.503906 " fill-opacity="1" fill-rule="nonzero"/><path fill="#ff651d" d="M 330.769531 148.503906 C 333.546875 148.503906 335.800781 146.253906 335.800781 143.476562 C 335.800781 140.695312 333.546875 138.445312 330.769531 138.445312 C 327.992188 138.445312 325.738281 140.695312 325.738281 143.476562 C 325.738281 146.253906 327.992188 148.503906 330.769531 148.503906 Z M 330.769531 148.503906 " fill-opacity="1" fill-rule="nonzero"/><g clip-path="url(#adde3076c1)"><path fill="#ff651d" d="M 43.667969 175.621094 C 49.226562 175.621094 53.730469 171.117188 53.730469 165.558594 C 53.730469 160.003906 49.226562 155.5 43.667969 155.5 C 38.113281 155.5 33.609375 160.003906 33.609375 165.558594 C 33.609375 171.117188 38.113281 175.621094 43.667969 175.621094 Z M 43.667969 175.621094 " fill-opacity="1" fill-rule="nonzero"/></g><path fill="#ff651d" d="M 65.753906 175.621094 C 71.3125 175.621094 75.816406 171.117188 75.816406 165.558594 C 75.816406 160.003906 71.3125 155.5 65.753906 155.5 C 60.199219 155.5 55.695312 160.003906 55.695312 165.558594 C 55.695312 171.117188 60.199219 175.621094 65.753906 175.621094 Z M 65.753906 175.621094 " fill-opacity="1" fill-rule="nonzero"/><path fill="#ff651d" d="M 87.839844 175.621094 C 93.398438 175.621094 97.902344 171.117188 97.902344 165.558594 C 97.902344 160.003906 93.398438 155.5 87.839844 155.5 C 82.285156 155.5 77.78125 160.003906 77.78125 165.558594 C 77.78125 171.117188 82.285156 175.621094 87.839844 175.621094 Z M 87.839844 175.621094 " fill-opacity="1" fill-rule="nonzero"/><path fill="#ff651d" d="M 109.925781 175.621094 C 115.480469 175.621094 119.984375 171.117188 119.984375 165.558594 C 119.984375 160.003906 115.480469 155.5 109.925781 155.5 C 104.367188 155.5 99.863281 160.003906 99.863281 165.558594 C 99.863281 171.117188 104.367188 175.621094 109.925781 175.621094 Z M 109.925781 175.621094 " fill-opacity="1" fill-rule="nonzero"/><path fill="#ff651d" d="M 132.011719 175.621094 C 137.566406 175.621094 142.070312 171.117188 142.070312 165.558594 C 142.070312 160.003906 137.566406 155.5 132.011719 155.5 C 126.453125 155.5 121.949219 160.003906 121.949219 165.558594 C 121.949219 171.117188 126.453125 175.621094 132.011719 175.621094 Z M 132.011719 175.621094 " fill-opacity="1" fill-rule="nonzero"/><path fill="#ff651d" d="M 154.09375 175.621094 C 159.648438 175.621094 164.152344 171.117188 164.152344 165.558594 C 164.152344 160.003906 159.648438 155.5 154.09375 155.5 C 148.535156 155.5 144.03125 160.003906 144.03125 165.558594 C 144.03125 171.117188 148.535156 175.621094 154.09375 175.621094 Z M 154.09375 175.621094 " fill-opacity="1" fill-rule="nonzero"/><path fill="#ff651d" d="M 176.179688 175.621094 C 181.734375 175.621094 186.242188 171.117188 186.242188 165.558594 C 186.242188 160.003906 181.734375 155.5 176.179688 155.5 C 170.621094 155.5 166.117188 160.003906 166.117188 165.558594 C 166.117188 171.117188 170.621094 175.621094 176.179688 175.621094 Z M 176.179688 175.621094 " fill-opacity="1" fill-rule="nonzero"/><path fill="#ff651d" d="M 198.261719 175.621094 C 203.816406 175.621094 208.324219 171.117188 208.324219 165.558594 C 208.324219 160.003906 203.816406 155.5 198.261719 155.5 C 192.707031 155.5 188.199219 160.003906 188.199219 165.558594 C 188.199219 171.117188 192.707031 175.621094 198.261719 175.621094 Z M 198.261719 175.621094 " fill-opacity="1" fill-rule="nonzero"/><path fill="#ff651d" d="M 220.34375 173.117188 C 224.519531 173.117188 227.902344 169.734375 227.902344 165.558594 C 227.902344 161.386719 224.519531 158 220.34375 158 C 216.171875 158 212.789062 161.386719 212.789062 165.558594 C 212.789062 169.734375 216.171875 173.117188 220.34375 173.117188 Z M 220.34375 173.117188 " fill-opacity="1" fill-rule="nonzero"/><path fill="#ff651d" d="M 242.429688 173.117188 C 246.605469 173.117188 249.988281 169.734375 249.988281 165.558594 C 249.988281 161.386719 246.605469 158 242.429688 158 C 238.257812 158 234.871094 161.386719 234.871094 165.558594 C 234.871094 169.734375 238.257812 173.117188 242.429688 173.117188 Z M 242.429688 173.117188 " fill-opacity="1" fill-rule="nonzero"/><path fill="#ff651d" d="M 264.519531 173.117188 C 268.691406 173.117188 272.074219 169.734375 272.074219 165.558594 C 272.074219 161.386719 268.691406 158 264.519531 158 C 260.34375 158 256.960938 161.386719 256.960938 165.558594 C 256.960938 169.734375 260.34375 173.117188 264.519531 173.117188 Z M 264.519531 173.117188 " fill-opacity="1" fill-rule="nonzero"/><path fill="#ff651d" d="M 286.601562 173.117188 C 290.773438 173.117188 294.160156 169.734375 294.160156 165.558594 C 294.160156 161.386719 290.773438 158 286.601562 158 C 282.425781 158 279.042969 161.386719 279.042969 165.558594 C 279.042969 169.734375 282.425781 173.117188 286.601562 173.117188 Z M 286.601562 173.117188 " fill-opacity="1" fill-rule="nonzero"/><path fill="#ff651d" d="M 308.6875 170.589844 C 311.464844 170.589844 313.71875 168.335938 313.71875 165.558594 C 313.71875 162.78125 311.464844 160.527344 308.6875 160.527344 C 305.910156 160.527344 303.65625 162.78125 303.65625 165.558594 C 303.65625 168.335938 305.910156 170.589844 308.6875 170.589844 Z M 308.6875 170.589844 " fill-opacity="1" fill-rule="nonzero"/><path fill="#ff651d" d="M 330.769531 170.589844 C 333.546875 170.589844 335.800781 168.335938 335.800781 165.558594 C 335.800781 162.78125 333.546875 160.527344 330.769531 160.527344 C 327.992188 160.527344 325.738281 162.78125 325.738281 165.558594 C 325.738281 168.335938 327.992188 170.589844 330.769531 170.589844 Z M 330.769531 170.589844 " fill-opacity="1" fill-rule="nonzero"/><path fill="#ff651d" d="M 43.667969 195.203125 C 47.84375 195.203125 51.226562 191.816406 51.226562 187.644531 C 51.226562 183.46875 47.84375 180.085938 43.667969 180.085938 C 39.496094 180.085938 36.109375 183.46875 36.109375 187.644531 C 36.109375 191.816406 39.496094 195.203125 43.667969 195.203125 Z M 43.667969 195.203125 " fill-opacity="1" fill-rule="nonzero"/><path fill="#ff651d" d="M 65.753906 195.203125 C 69.929688 195.203125 73.3125 191.816406 73.3125 187.644531 C 73.3125 183.46875 69.929688 180.085938 65.753906 180.085938 C 61.582031 180.085938 58.199219 183.46875 58.199219 187.644531 C 58.199219 191.816406 61.582031 195.203125 65.753906 195.203125 Z M 65.753906 195.203125 " fill-opacity="1" fill-rule="nonzero"/><path fill="#ff651d" d="M 87.839844 197.707031 C 93.398438 197.707031 97.902344 193.203125 97.902344 187.644531 C 97.902344 182.089844 93.398438 177.585938 87.839844 177.585938 C 82.285156 177.585938 77.78125 182.089844 77.78125 187.644531 C 77.78125 193.203125 82.285156 197.707031 87.839844 197.707031 Z M 87.839844 197.707031 " fill-opacity="1" fill-rule="nonzero"/><path fill="#ff651d" d="M 109.925781 197.707031 C 115.480469 197.707031 119.984375 193.203125 119.984375 187.644531 C 119.984375 182.089844 115.480469 177.585938 109.925781 177.585938 C 104.367188 177.585938 99.863281 182.089844 99.863281 187.644531 C 99.863281 193.203125 104.367188 197.707031 109.925781 197.707031 Z M 109.925781 197.707031 " fill-opacity="1" fill-rule="nonzero"/><path fill="#ff651d" d="M 132.011719 197.707031 C 137.566406 197.707031 142.070312 193.203125 142.070312 187.644531 C 142.070312 182.089844 137.566406 177.585938 132.011719 177.585938 C 126.453125 177.585938 121.949219 182.089844 121.949219 187.644531 C 121.949219 193.203125 126.453125 197.707031 132.011719 197.707031 Z M 132.011719 197.707031 " fill-opacity="1" fill-rule="nonzero"/><path fill="#ff651d" d="M 154.09375 197.707031 C 159.648438 197.707031 164.152344 193.203125 164.152344 187.644531 C 164.152344 182.089844 159.648438 177.585938 154.09375 177.585938 C 148.535156 177.585938 144.03125 182.089844 144.03125 187.644531 C 144.03125 193.203125 148.535156 197.707031 154.09375 197.707031 Z M 154.09375 197.707031 " fill-opacity="1" fill-rule="nonzero"/><path fill="#ff651d" d="M 176.179688 197.707031 C 181.734375 197.707031 186.242188 193.203125 186.242188 187.644531 C 186.242188 182.089844 181.734375 177.585938 176.179688 177.585938 C 170.621094 177.585938 166.117188 182.089844 166.117188 187.644531 C 166.117188 193.203125 170.621094 197.707031 176.179688 197.707031 Z M 176.179688 197.707031 " fill-opacity="1" fill-rule="nonzero"/><path fill="#ff651d" d="M 198.261719 197.707031 C 203.816406 197.707031 208.324219 193.203125 208.324219 187.644531 C 208.324219 182.089844 203.816406 177.585938 198.261719 177.585938 C 192.707031 177.585938 188.199219 182.089844 188.199219 187.644531 C 188.199219 193.203125 192.707031 197.707031 198.261719 197.707031 Z M 198.261719 197.707031 " fill-opacity="1" fill-rule="nonzero"/><path fill="#ff651d" d="M 220.347656 197.707031 C 225.90625 197.707031 230.410156 193.203125 230.410156 187.644531 C 230.410156 182.089844 225.90625 177.585938 220.347656 177.585938 C 214.792969 177.585938 210.289062 182.089844 210.289062 187.644531 C 210.289062 193.203125 214.792969 197.707031 220.347656 197.707031 Z M 220.347656 197.707031 " fill-opacity="1" fill-rule="nonzero"/><path fill="#ff651d" d="M 242.433594 197.707031 C 247.992188 197.707031 252.496094 193.203125 252.496094 187.644531 C 252.496094 182.089844 247.992188 177.585938 242.433594 177.585938 C 236.878906 177.585938 232.375 182.089844 232.375 187.644531 C 232.375 193.203125 236.878906 197.707031 242.433594 197.707031 Z M 242.433594 197.707031 " fill-opacity="1" fill-rule="nonzero"/><path fill="#ff651d" d="M 264.519531 197.707031 C 270.074219 197.707031 274.578125 193.203125 274.578125 187.644531 C 274.578125 182.089844 270.074219 177.585938 264.519531 177.585938 C 258.960938 177.585938 254.457031 182.089844 254.457031 187.644531 C 254.457031 193.203125 258.960938 197.707031 264.519531 197.707031 Z M 264.519531 197.707031 " fill-opacity="1" fill-rule="nonzero"/><path fill="#ff651d" d="M 286.605469 197.707031 C 292.160156 197.707031 296.664062 193.203125 296.664062 187.644531 C 296.664062 182.089844 292.160156 177.585938 286.605469 177.585938 C 281.046875 177.585938 276.542969 182.089844 276.542969 187.644531 C 276.542969 193.203125 281.046875 197.707031 286.605469 197.707031 Z M 286.605469 197.707031 " fill-opacity="1" fill-rule="nonzero"/><path fill="#ff651d" d="M 308.6875 197.707031 C 314.242188 197.707031 318.75 193.203125 318.75 187.644531 C 318.75 182.089844 314.242188 177.585938 308.6875 177.585938 C 303.132812 177.585938 298.625 182.089844 298.625 187.644531 C 298.625 193.203125 303.132812 197.707031 308.6875 197.707031 Z M 308.6875 197.707031 " fill-opacity="1" fill-rule="nonzero"/><g clip-path="url(#b102f9048b)"><path fill="#ff651d" d="M 330.773438 197.707031 C 336.328125 197.707031 340.835938 193.203125 340.835938 187.644531 C 340.835938 182.089844 336.328125 177.585938 330.773438 177.585938 C 325.21875 177.585938 320.710938 182.089844 320.710938 187.644531 C 320.710938 193.203125 325.21875 197.707031 330.773438 197.707031 Z M 330.773438 197.707031 " fill-opacity="1" fill-rule="nonzero"/></g><path fill="#ff651d" d="M 43.667969 217.289062 C 47.84375 217.289062 51.226562 213.902344 51.226562 209.730469 C 51.226562 205.554688 47.84375 202.171875 43.667969 202.171875 C 39.496094 202.171875 36.109375 205.554688 36.109375 209.730469 C 36.109375 213.902344 39.496094 217.289062 43.667969 217.289062 Z M 43.667969 217.289062 " fill-opacity="1" fill-rule="nonzero"/><path fill="#ff651d" d="M 65.753906 217.289062 C 69.929688 217.289062 73.3125 213.902344 73.3125 209.730469 C 73.3125 205.554688 69.929688 202.171875 65.753906 202.171875 C 61.582031 202.171875 58.199219 205.554688 58.199219 209.730469 C 58.199219 213.902344 61.582031 217.289062 65.753906 217.289062 Z M 65.753906 217.289062 " fill-opacity="1" fill-rule="nonzero"/><path fill="#ff651d" d="M 87.839844 219.789062 C 93.398438 219.789062 97.902344 215.285156 97.902344 209.730469 C 97.902344 204.171875 93.398438 199.667969 87.839844 199.667969 C 82.285156 199.667969 77.78125 204.171875 77.78125 209.730469 C 77.78125 215.285156 82.285156 219.789062 87.839844 219.789062 Z M 87.839844 219.789062 " fill-opacity="1" fill-rule="nonzero"/><path fill="#ff651d" d="M 109.925781 219.789062 C 115.480469 219.789062 119.984375 215.285156 119.984375 209.730469 C 119.984375 204.171875 115.480469 199.667969 109.925781 199.667969 C 104.367188 199.667969 99.863281 204.171875 99.863281 209.730469 C 99.863281 215.285156 104.367188 219.789062 109.925781 219.789062 Z M 109.925781 219.789062 " fill-opacity="1" fill-rule="nonzero"/><path fill="#ff651d" d="M 132.011719 219.789062 C 137.566406 219.789062 142.070312 215.285156 142.070312 209.730469 C 142.070312 204.171875 137.566406 199.667969 132.011719 199.667969 C 126.453125 199.667969 121.949219 204.171875 121.949219 209.730469 C 121.949219 215.285156 126.453125 219.789062 132.011719 219.789062 Z M 132.011719 219.789062 " fill-opacity="1" fill-rule="nonzero"/><path fill="#ff651d" d="M 154.09375 219.789062 C 159.648438 219.789062 164.152344 215.285156 164.152344 209.730469 C 164.152344 204.171875 159.648438 199.667969 154.09375 199.667969 C 148.535156 199.667969 144.03125 204.171875 144.03125 209.730469 C 144.03125 215.285156 148.535156 219.789062 154.09375 219.789062 Z M 154.09375 219.789062 " fill-opacity="1" fill-rule="nonzero"/><path fill="#ff651d" d="M 176.179688 219.789062 C 181.734375 219.789062 186.242188 215.285156 186.242188 209.730469 C 186.242188 204.171875 181.734375 199.667969 176.179688 199.667969 C 170.621094 199.667969 166.117188 204.171875 166.117188 209.730469 C 166.117188 215.285156 170.621094 219.789062 176.179688 219.789062 Z M 176.179688 219.789062 " fill-opacity="1" fill-rule="nonzero"/><path fill="#ff651d" d="M 198.261719 219.789062 C 203.816406 219.789062 208.324219 215.285156 208.324219 209.730469 C 208.324219 204.171875 203.816406 199.667969 198.261719 199.667969 C 192.707031 199.667969 188.199219 204.171875 188.199219 209.730469 C 188.199219 215.285156 192.707031 219.789062 198.261719 219.789062 Z M 198.261719 219.789062 " fill-opacity="1" fill-rule="nonzero"/><path fill="#ff651d" d="M 220.347656 219.789062 C 225.90625 219.789062 230.410156 215.285156 230.410156 209.730469 C 230.410156 204.171875 225.90625 199.667969 220.347656 199.667969 C 214.792969 199.667969 210.289062 204.171875 210.289062 209.730469 C 210.289062 215.285156 214.792969 219.789062 220.347656 219.789062 Z M 220.347656 219.789062 " fill-opacity="1" fill-rule="nonzero"/><path fill="#ff651d" d="M 242.433594 219.789062 C 247.992188 219.789062 252.496094 215.285156 252.496094 209.730469 C 252.496094 204.171875 247.992188 199.667969 242.433594 199.667969 C 236.878906 199.667969 232.375 204.171875 232.375 209.730469 C 232.375 215.285156 236.878906 219.789062 242.433594 219.789062 Z M 242.433594 219.789062 " fill-opacity="1" fill-rule="nonzero"/><path fill="#ff651d" d="M 264.519531 219.789062 C 270.074219 219.789062 274.578125 215.285156 274.578125 209.730469 C 274.578125 204.171875 270.074219 199.667969 264.519531 199.667969 C 258.960938 199.667969 254.457031 204.171875 254.457031 209.730469 C 254.457031 215.285156 258.960938 219.789062 264.519531 219.789062 Z M 264.519531 219.789062 " fill-opacity="1" fill-rule="nonzero"/><path fill="#ff651d" d="M 286.605469 219.789062 C 292.160156 219.789062 296.664062 215.285156 296.664062 209.730469 C 296.664062 204.171875 292.160156 199.667969 286.605469 199.667969 C 281.046875 199.667969 276.542969 204.171875 276.542969 209.730469 C 276.542969 215.285156 281.046875 219.789062 286.605469 219.789062 Z M 286.605469 219.789062 " fill-opacity="1" fill-rule="nonzero"/><path fill="#ff651d" d="M 308.6875 219.789062 C 314.242188 219.789062 318.75 215.285156 318.75 209.730469 C 318.75 204.171875 314.242188 199.667969 308.6875 199.667969 C 303.132812 199.667969 298.625 204.171875 298.625 209.730469 C 298.625 215.285156 303.132812 219.789062 308.6875 219.789062 Z M 308.6875 219.789062 " fill-opacity="1" fill-rule="nonzero"/><g clip-path="url(#044c17918f)"><path fill="#ff651d" d="M 330.773438 219.789062 C 336.328125 219.789062 340.835938 215.285156 340.835938 209.730469 C 340.835938 204.171875 336.328125 199.667969 330.773438 199.667969 C 325.21875 199.667969 320.710938 204.171875 320.710938 209.730469 C 320.710938 215.285156 325.21875 219.789062 330.773438 219.789062 Z M 330.773438 219.789062 " fill-opacity="1" fill-rule="nonzero"/></g><g clip-path="url(#a3dd74052a)"><path fill="#ff651d" d="M 43.667969 241.875 C 49.226562 241.875 53.730469 237.371094 53.730469 231.8125 C 53.730469 226.257812 49.226562 221.753906 43.667969 221.753906 C 38.113281 221.753906 33.609375 226.257812 33.609375 231.8125 C 33.609375 237.371094 38.113281 241.875 43.667969 241.875 Z M 43.667969 241.875 " fill-opacity="1" fill-rule="nonzero"/></g><path fill="#ff651d" d="M 65.753906 241.875 C 71.3125 241.875 75.816406 237.371094 75.816406 231.8125 C 75.816406 226.257812 71.3125 221.753906 65.753906 221.753906 C 60.199219 221.753906 55.695312 226.257812 55.695312 231.8125 C 55.695312 237.371094 60.199219 241.875 65.753906 241.875 Z M 65.753906 241.875 " fill-opacity="1" fill-rule="nonzero"/><path fill="#ff651d" d="M 87.839844 241.875 C 93.398438 241.875 97.902344 237.371094 97.902344 231.8125 C 97.902344 226.257812 93.398438 221.753906 87.839844 221.753906 C 82.285156 221.753906 77.78125 226.257812 77.78125 231.8125 C 77.78125 237.371094 82.285156 241.875 87.839844 241.875 Z M 87.839844 241.875 " fill-opacity="1" fill-rule="nonzero"/><path fill="#ff651d" d="M 109.925781 241.875 C 115.480469 241.875 119.984375 237.371094 119.984375 231.8125 C 119.984375 226.257812 115.480469 221.753906 109.925781 221.753906 C 104.367188 221.753906 99.863281 226.257812 99.863281 231.8125 C 99.863281 237.371094 104.367188 241.875 109.925781 241.875 Z M 109.925781 241.875 " fill-opacity="1" fill-rule="nonzero"/><path fill="#ff651d" d="M 132.011719 239.371094 C 136.183594 239.371094 139.570312 235.988281 139.570312 231.8125 C 139.570312 227.640625 136.183594 224.257812 132.011719 224.257812 C 127.835938 224.257812 124.453125 227.640625 124.453125 231.8125 C 124.453125 235.988281 127.835938 239.371094 132.011719 239.371094 Z M 132.011719 239.371094 " fill-opacity="1" fill-rule="nonzero"/><path fill="#ff651d" d="M 154.09375 239.371094 C 158.269531 239.371094 161.652344 235.988281 161.652344 231.8125 C 161.652344 227.640625 158.269531 224.257812 154.09375 224.257812 C 149.917969 224.257812 146.535156 227.640625 146.535156 231.8125 C 146.535156 235.988281 149.917969 239.371094 154.09375 239.371094 Z M 154.09375 239.371094 " fill-opacity="1" fill-rule="nonzero"/><path fill="#ff651d" d="M 176.179688 241.875 C 181.734375 241.875 186.242188 237.371094 186.242188 231.8125 C 186.242188 226.257812 181.734375 221.753906 176.179688 221.753906 C 170.621094 221.753906 166.117188 226.257812 166.117188 231.8125 C 166.117188 237.371094 170.621094 241.875 176.179688 241.875 Z M 176.179688 241.875 " fill-opacity="1" fill-rule="nonzero"/><path fill="#ff651d" d="M 198.261719 241.875 C 203.816406 241.875 208.324219 237.371094 208.324219 231.8125 C 208.324219 226.257812 203.816406 221.753906 198.261719 221.753906 C 192.707031 221.753906 188.199219 226.257812 188.199219 231.8125 C 188.199219 237.371094 192.707031 241.875 198.261719 241.875 Z M 198.261719 241.875 " fill-opacity="1" fill-rule="nonzero"/><path fill="#ff651d" d="M 220.34375 236.84375 C 223.125 236.84375 225.375 234.59375 225.375 231.8125 C 225.375 229.035156 223.125 226.78125 220.34375 226.78125 C 217.566406 226.78125 215.3125 229.035156 215.3125 231.8125 C 215.3125 234.59375 217.566406 236.84375 220.34375 236.84375 Z M 220.34375 236.84375 " fill-opacity="1" fill-rule="nonzero"/><path fill="#ff651d" d="M 242.433594 236.84375 C 245.210938 236.84375 247.460938 234.59375 247.460938 231.8125 C 247.460938 229.035156 245.210938 226.78125 242.433594 226.78125 C 239.652344 226.78125 237.402344 229.035156 237.402344 231.8125 C 237.402344 234.59375 239.652344 236.84375 242.433594 236.84375 Z M 242.433594 236.84375 " fill-opacity="1" fill-rule="nonzero"/><path fill="#ff651d" d="M 264.515625 236.84375 C 267.292969 236.84375 269.542969 234.59375 269.542969 231.8125 C 269.542969 229.035156 267.292969 226.78125 264.515625 226.78125 C 261.738281 226.78125 259.484375 229.035156 259.484375 231.8125 C 259.484375 234.59375 261.738281 236.84375 264.515625 236.84375 Z M 264.515625 236.84375 " fill-opacity="1" fill-rule="nonzero"/><path fill="#ff651d" d="M 286.601562 236.84375 C 289.378906 236.84375 291.632812 234.59375 291.632812 231.8125 C 291.632812 229.035156 289.378906 226.78125 286.601562 226.78125 C 283.824219 226.78125 281.570312 229.035156 281.570312 231.8125 C 281.570312 234.59375 283.824219 236.84375 286.601562 236.84375 Z M 286.601562 236.84375 " fill-opacity="1" fill-rule="nonzero"/><path fill="#ff651d" d="M 308.6875 239.371094 C 312.859375 239.371094 316.246094 235.988281 316.246094 231.8125 C 316.246094 227.640625 312.859375 224.257812 308.6875 224.257812 C 304.511719 224.257812 301.128906 227.640625 301.128906 231.8125 C 301.128906 235.988281 304.511719 239.371094 308.6875 239.371094 Z M 308.6875 239.371094 " fill-opacity="1" fill-rule="nonzero"/><path fill="#ff651d" d="M 330.769531 239.371094 C 334.945312 239.371094 338.328125 235.988281 338.328125 231.8125 C 338.328125 227.640625 334.945312 224.257812 330.769531 224.257812 C 326.59375 224.257812 323.210938 227.640625 323.210938 231.8125 C 323.210938 235.988281 326.59375 239.371094 330.769531 239.371094 Z M 330.769531 239.371094 " fill-opacity="1" fill-rule="nonzero"/><path fill="#ff651d" d="M 65.753906 263.957031 C 71.3125 263.957031 75.816406 259.453125 75.816406 253.898438 C 75.816406 248.339844 71.3125 243.835938 65.753906 243.835938 C 60.199219 243.835938 55.695312 248.339844 55.695312 253.898438 C 55.695312 259.453125 60.199219 263.957031 65.753906 263.957031 Z M 65.753906 263.957031 " fill-opacity="1" fill-rule="nonzero"/><path fill="#ff651d" d="M 87.839844 263.957031 C 93.398438 263.957031 97.902344 259.453125 97.902344 253.898438 C 97.902344 248.339844 93.398438 243.835938 87.839844 243.835938 C 82.285156 243.835938 77.78125 248.339844 77.78125 253.898438 C 77.78125 259.453125 82.285156 263.957031 87.839844 263.957031 Z M 87.839844 263.957031 " fill-opacity="1" fill-rule="nonzero"/><path fill="#ff651d" d="M 109.925781 263.957031 C 115.480469 263.957031 119.984375 259.453125 119.984375 253.898438 C 119.984375 248.339844 115.480469 243.835938 109.925781 243.835938 C 104.367188 243.835938 99.863281 248.339844 99.863281 253.898438 C 99.863281 259.453125 104.367188 263.957031 109.925781 263.957031 Z M 109.925781 263.957031 " fill-opacity="1" fill-rule="nonzero"/><path fill="#ff651d" d="M 132.011719 261.457031 C 136.183594 261.457031 139.570312 258.074219 139.570312 253.898438 C 139.570312 249.722656 136.183594 246.339844 132.011719 246.339844 C 127.835938 246.339844 124.453125 249.722656 124.453125 253.898438 C 124.453125 258.074219 127.835938 261.457031 132.011719 261.457031 Z M 132.011719 261.457031 " fill-opacity="1" fill-rule="nonzero"/><path fill="#ff651d" d="M 154.09375 261.457031 C 158.269531 261.457031 161.652344 258.074219 161.652344 253.898438 C 161.652344 249.722656 158.269531 246.339844 154.09375 246.339844 C 149.917969 246.339844 146.535156 249.722656 146.535156 253.898438 C 146.535156 258.074219 149.917969 261.457031 154.09375 261.457031 Z M 154.09375 261.457031 " fill-opacity="1" fill-rule="nonzero"/><path fill="#ff651d" d="M 176.179688 263.957031 C 181.734375 263.957031 186.242188 259.453125 186.242188 253.898438 C 186.242188 248.339844 181.734375 243.835938 176.179688 243.835938 C 170.621094 243.835938 166.117188 248.339844 166.117188 253.898438 C 166.117188 259.453125 170.621094 263.957031 176.179688 263.957031 Z M 176.179688 263.957031 " fill-opacity="1" fill-rule="nonzero"/><path fill="#ff651d" d="M 198.261719 263.957031 C 203.816406 263.957031 208.324219 259.453125 208.324219 253.898438 C 208.324219 248.339844 203.816406 243.835938 198.261719 243.835938 C 192.707031 243.835938 188.199219 248.339844 188.199219 253.898438 C 188.199219 259.453125 192.707031 263.957031 198.261719 263.957031 Z M 198.261719 263.957031 " fill-opacity="1" fill-rule="nonzero"/><path fill="#ff651d" d="M 220.34375 258.929688 C 223.125 258.929688 225.375 256.675781 225.375 253.898438 C 225.375 251.121094 223.125 248.867188 220.34375 248.867188 C 217.566406 248.867188 215.3125 251.121094 215.3125 253.898438 C 215.3125 256.675781 217.566406 258.929688 220.34375 258.929688 Z M 220.34375 258.929688 " fill-opacity="1" fill-rule="nonzero"/><path fill="#ff651d" d="M 242.433594 258.929688 C 245.210938 258.929688 247.460938 256.675781 247.460938 253.898438 C 247.460938 251.121094 245.210938 248.867188 242.433594 248.867188 C 239.652344 248.867188 237.402344 251.121094 237.402344 253.898438 C 237.402344 256.675781 239.652344 258.929688 242.433594 258.929688 Z M 242.433594 258.929688 " fill-opacity="1" fill-rule="nonzero"/><path fill="#ff651d" d="M 264.515625 258.929688 C 267.292969 258.929688 269.542969 256.675781 269.542969 253.898438 C 269.542969 251.121094 267.292969 248.867188 264.515625 248.867188 C 261.738281 248.867188 259.484375 251.121094 259.484375 253.898438 C 259.484375 256.675781 261.738281 258.929688 264.515625 258.929688 Z M 264.515625 258.929688 " fill-opacity="1" fill-rule="nonzero"/><path fill="#ff651d" d="M 286.601562 258.929688 C 289.378906 258.929688 291.632812 256.675781 291.632812 253.898438 C 291.632812 251.121094 289.378906 248.867188 286.601562 248.867188 C 283.824219 248.867188 281.570312 251.121094 281.570312 253.898438 C 281.570312 256.675781 283.824219 258.929688 286.601562 258.929688 Z M 286.601562 258.929688 " fill-opacity="1" fill-rule="nonzero"/><path fill="#ff651d" d="M 308.6875 261.457031 C 312.859375 261.457031 316.246094 258.074219 316.246094 253.898438 C 316.246094 249.722656 312.859375 246.339844 308.6875 246.339844 C 304.511719 246.339844 301.128906 249.722656 301.128906 253.898438 C 301.128906 258.074219 304.511719 261.457031 308.6875 261.457031 Z M 308.6875 261.457031 " fill-opacity="1" fill-rule="nonzero"/><path fill="#ff651d" d="M 330.769531 261.457031 C 334.945312 261.457031 338.328125 258.074219 338.328125 253.898438 C 338.328125 249.722656 334.945312 246.339844 330.769531 246.339844 C 326.59375 246.339844 323.210938 249.722656 323.210938 253.898438 C 323.210938 258.074219 326.59375 261.457031 330.769531 261.457031 Z M 330.769531 261.457031 " fill-opacity="1" fill-rule="nonzero"/><path fill="#ff651d" d="M 65.753906 286.046875 C 71.3125 286.046875 75.816406 281.542969 75.816406 275.984375 C 75.816406 270.429688 71.3125 265.925781 65.753906 265.925781 C 60.199219 265.925781 55.695312 270.429688 55.695312 275.984375 C 55.695312 281.542969 60.199219 286.046875 65.753906 286.046875 Z M 65.753906 286.046875 " fill-opacity="1" fill-rule="nonzero"/><path fill="#ff651d" d="M 87.839844 281.015625 C 90.617188 281.015625 92.867188 278.761719 92.867188 275.984375 C 92.867188 273.207031 90.617188 270.953125 87.839844 270.953125 C 85.058594 270.953125 82.808594 273.207031 82.808594 275.984375 C 82.808594 278.761719 85.058594 281.015625 87.839844 281.015625 Z M 87.839844 281.015625 " fill-opacity="1" fill-rule="nonzero"/><path fill="#ff651d" d="M 109.921875 281.015625 C 112.699219 281.015625 114.949219 278.761719 114.949219 275.984375 C 114.949219 273.207031 112.699219 270.953125 109.921875 270.953125 C 107.140625 270.953125 104.890625 273.207031 104.890625 275.984375 C 104.890625 278.761719 107.140625 281.015625 109.921875 281.015625 Z M 109.921875 281.015625 " fill-opacity="1" fill-rule="nonzero"/><path fill="#ff651d" d="M 132.011719 283.542969 C 136.183594 283.542969 139.570312 280.160156 139.570312 275.984375 C 139.570312 271.808594 136.183594 268.425781 132.011719 268.425781 C 127.835938 268.425781 124.453125 271.808594 124.453125 275.984375 C 124.453125 280.160156 127.835938 283.542969 132.011719 283.542969 Z M 132.011719 283.542969 " fill-opacity="1" fill-rule="nonzero"/><path fill="#ff651d" d="M 154.09375 283.542969 C 158.269531 283.542969 161.652344 280.160156 161.652344 275.984375 C 161.652344 271.808594 158.269531 268.425781 154.09375 268.425781 C 149.917969 268.425781 146.535156 271.808594 146.535156 275.984375 C 146.535156 280.160156 149.917969 283.542969 154.09375 283.542969 Z M 154.09375 283.542969 " fill-opacity="1" fill-rule="nonzero"/><path fill="#ff651d" d="M 176.179688 286.046875 C 181.734375 286.046875 186.242188 281.542969 186.242188 275.984375 C 186.242188 270.429688 181.734375 265.925781 176.179688 265.925781 C 170.621094 265.925781 166.117188 270.429688 166.117188 275.984375 C 166.117188 281.542969 170.621094 286.046875 176.179688 286.046875 Z M 176.179688 286.046875 " fill-opacity="1" fill-rule="nonzero"/><path fill="#ff651d" d="M 198.261719 286.046875 C 203.816406 286.046875 208.324219 281.542969 208.324219 275.984375 C 208.324219 270.429688 203.816406 265.925781 198.261719 265.925781 C 192.707031 265.925781 188.199219 270.429688 188.199219 275.984375 C 188.199219 281.542969 192.707031 286.046875 198.261719 286.046875 Z M 198.261719 286.046875 " fill-opacity="1" fill-rule="nonzero"/><path fill="#ff651d" d="M 220.347656 286.046875 C 225.90625 286.046875 230.410156 281.542969 230.410156 275.984375 C 230.410156 270.429688 225.90625 265.925781 220.347656 265.925781 C 214.792969 265.925781 210.289062 270.429688 210.289062 275.984375 C 210.289062 281.542969 214.792969 286.046875 220.347656 286.046875 Z M 220.347656 286.046875 " fill-opacity="1" fill-rule="nonzero"/><path fill="#ff651d" d="M 242.433594 286.046875 C 247.992188 286.046875 252.496094 281.542969 252.496094 275.984375 C 252.496094 270.429688 247.992188 265.925781 242.433594 265.925781 C 236.878906 265.925781 232.375 270.429688 232.375 275.984375 C 232.375 281.542969 236.878906 286.046875 242.433594 286.046875 Z M 242.433594 286.046875 " fill-opacity="1" fill-rule="nonzero"/><path fill="#ff651d" d="M 264.519531 286.046875 C 270.074219 286.046875 274.578125 281.542969 274.578125 275.984375 C 274.578125 270.429688 270.074219 265.925781 264.519531 265.925781 C 258.960938 265.925781 254.457031 270.429688 254.457031 275.984375 C 254.457031 281.542969 258.960938 286.046875 264.519531 286.046875 Z M 264.519531 286.046875 " fill-opacity="1" fill-rule="nonzero"/><path fill="#ff651d" d="M 286.605469 286.046875 C 292.160156 286.046875 296.664062 281.542969 296.664062 275.984375 C 296.664062 270.429688 292.160156 265.925781 286.605469 265.925781 C 281.046875 265.925781 276.542969 270.429688 276.542969 275.984375 C 276.542969 281.542969 281.046875 286.046875 286.605469 286.046875 Z M 286.605469 286.046875 " fill-opacity="1" fill-rule="nonzero"/><path fill="#ff651d" d="M 308.6875 286.046875 C 314.242188 286.046875 318.75 281.542969 318.75 275.984375 C 318.75 270.429688 314.242188 265.925781 308.6875 265.925781 C 303.132812 265.925781 298.625 270.429688 298.625 275.984375 C 298.625 281.542969 303.132812 286.046875 308.6875 286.046875 Z M 308.6875 286.046875 " fill-opacity="1" fill-rule="nonzero"/><path fill="#ff651d" d="M 87.839844 303.097656 C 90.617188 303.097656 92.867188 300.847656 92.867188 298.070312 C 92.867188 295.289062 90.617188 293.039062 87.839844 293.039062 C 85.058594 293.039062 82.808594 295.289062 82.808594 298.070312 C 82.808594 300.847656 85.058594 303.097656 87.839844 303.097656 Z M 87.839844 303.097656 " fill-opacity="1" fill-rule="nonzero"/><path fill="#ff651d" d="M 109.921875 303.097656 C 112.699219 303.097656 114.949219 300.847656 114.949219 298.070312 C 114.949219 295.289062 112.699219 293.039062 109.921875 293.039062 C 107.140625 293.039062 104.890625 295.289062 104.890625 298.070312 C 104.890625 300.847656 107.140625 303.097656 109.921875 303.097656 Z M 109.921875 303.097656 " fill-opacity="1" fill-rule="nonzero"/><path fill="#ff651d" d="M 132.011719 305.625 C 136.183594 305.625 139.570312 302.242188 139.570312 298.070312 C 139.570312 293.894531 136.183594 290.511719 132.011719 290.511719 C 127.835938 290.511719 124.453125 293.894531 124.453125 298.070312 C 124.453125 302.242188 127.835938 305.625 132.011719 305.625 Z M 132.011719 305.625 " fill-opacity="1" fill-rule="nonzero"/><path fill="#ff651d" d="M 154.09375 305.625 C 158.269531 305.625 161.652344 302.242188 161.652344 298.070312 C 161.652344 293.894531 158.269531 290.511719 154.09375 290.511719 C 149.917969 290.511719 146.535156 293.894531 146.535156 298.070312 C 146.535156 302.242188 149.917969 305.625 154.09375 305.625 Z M 154.09375 305.625 " fill-opacity="1" fill-rule="nonzero"/><path fill="#ff651d" d="M 176.179688 308.128906 C 181.734375 308.128906 186.242188 303.625 186.242188 298.070312 C 186.242188 292.511719 181.734375 288.007812 176.179688 288.007812 C 170.621094 288.007812 166.117188 292.511719 166.117188 298.070312 C 166.117188 303.625 170.621094 308.128906 176.179688 308.128906 Z M 176.179688 308.128906 " fill-opacity="1" fill-rule="nonzero"/><path fill="#ff651d" d="M 198.261719 308.128906 C 203.816406 308.128906 208.324219 303.625 208.324219 298.070312 C 208.324219 292.511719 203.816406 288.007812 198.261719 288.007812 C 192.707031 288.007812 188.199219 292.511719 188.199219 298.070312 C 188.199219 303.625 192.707031 308.128906 198.261719 308.128906 Z M 198.261719 308.128906 " fill-opacity="1" fill-rule="nonzero"/><path fill="#ff651d" d="M 220.347656 308.128906 C 225.90625 308.128906 230.410156 303.625 230.410156 298.070312 C 230.410156 292.511719 225.90625 288.007812 220.347656 288.007812 C 214.792969 288.007812 210.289062 292.511719 210.289062 298.070312 C 210.289062 303.625 214.792969 308.128906 220.347656 308.128906 Z M 220.347656 308.128906 " fill-opacity="1" fill-rule="nonzero"/><path fill="#ff651d" d="M 242.433594 308.128906 C 247.992188 308.128906 252.496094 303.625 252.496094 298.070312 C 252.496094 292.511719 247.992188 288.007812 242.433594 288.007812 C 236.878906 288.007812 232.375 292.511719 232.375 298.070312 C 232.375 303.625 236.878906 308.128906 242.433594 308.128906 Z M 242.433594 308.128906 " fill-opacity="1" fill-rule="nonzero"/><path fill="#ff651d" d="M 264.519531 308.128906 C 270.074219 308.128906 274.578125 303.625 274.578125 298.070312 C 274.578125 292.511719 270.074219 288.007812 264.519531 288.007812 C 258.960938 288.007812 254.457031 292.511719 254.457031 298.070312 C 254.457031 303.625 258.960938 308.128906 264.519531 308.128906 Z M 264.519531 308.128906 " fill-opacity="1" fill-rule="nonzero"/><path fill="#ff651d" d="M 286.605469 308.128906 C 292.160156 308.128906 296.664062 303.625 296.664062 298.070312 C 296.664062 292.511719 292.160156 288.007812 286.605469 288.007812 C 281.046875 288.007812 276.542969 292.511719 276.542969 298.070312 C 276.542969 303.625 281.046875 308.128906 286.605469 308.128906 Z M 286.605469 308.128906 " fill-opacity="1" fill-rule="nonzero"/><path fill="#ff651d" d="M 109.925781 330.214844 C 115.480469 330.214844 119.984375 325.710938 119.984375 320.152344 C 119.984375 314.597656 115.480469 310.09375 109.925781 310.09375 C 104.367188 310.09375 99.863281 314.597656 99.863281 320.152344 C 99.863281 325.710938 104.367188 330.214844 109.925781 330.214844 Z M 109.925781 330.214844 " fill-opacity="1" fill-rule="nonzero"/><path fill="#ff651d" d="M 132.011719 330.214844 C 137.566406 330.214844 142.070312 325.710938 142.070312 320.152344 C 142.070312 314.597656 137.566406 310.09375 132.011719 310.09375 C 126.453125 310.09375 121.949219 314.597656 121.949219 320.152344 C 121.949219 325.710938 126.453125 330.214844 132.011719 330.214844 Z M 132.011719 330.214844 " fill-opacity="1" fill-rule="nonzero"/><path fill="#ff651d" d="M 154.09375 330.214844 C 159.648438 330.214844 164.152344 325.710938 164.152344 320.152344 C 164.152344 314.597656 159.648438 310.09375 154.09375 310.09375 C 148.535156 310.09375 144.03125 314.597656 144.03125 320.152344 C 144.03125 325.710938 148.535156 330.214844 154.09375 330.214844 Z M 154.09375 330.214844 " fill-opacity="1" fill-rule="nonzero"/><path fill="#ff651d" d="M 176.179688 330.214844 C 181.734375 330.214844 186.242188 325.710938 186.242188 320.152344 C 186.242188 314.597656 181.734375 310.09375 176.179688 310.09375 C 170.621094 310.09375 166.117188 314.597656 166.117188 320.152344 C 166.117188 325.710938 170.621094 330.214844 176.179688 330.214844 Z M 176.179688 330.214844 " fill-opacity="1" fill-rule="nonzero"/><path fill="#ff651d" d="M 198.261719 327.710938 C 202.4375 327.710938 205.820312 324.328125 205.820312 320.152344 C 205.820312 315.980469 202.4375 312.59375 198.261719 312.59375 C 194.089844 312.59375 190.703125 315.980469 190.703125 320.152344 C 190.703125 324.328125 194.089844 327.710938 198.261719 327.710938 Z M 198.261719 327.710938 " fill-opacity="1" fill-rule="nonzero"/><path fill="#ff651d" d="M 220.34375 327.710938 C 224.519531 327.710938 227.902344 324.328125 227.902344 320.152344 C 227.902344 315.980469 224.519531 312.59375 220.34375 312.59375 C 216.171875 312.59375 212.789062 315.980469 212.789062 320.152344 C 212.789062 324.328125 216.171875 327.710938 220.34375 327.710938 Z M 220.34375 327.710938 " fill-opacity="1" fill-rule="nonzero"/><path fill="#ff651d" d="M 242.433594 330.214844 C 247.992188 330.214844 252.496094 325.710938 252.496094 320.152344 C 252.496094 314.597656 247.992188 310.09375 242.433594 310.09375 C 236.878906 310.09375 232.375 314.597656 232.375 320.152344 C 232.375 325.710938 236.878906 330.214844 242.433594 330.214844 Z M 242.433594 330.214844 " fill-opacity="1" fill-rule="nonzero"/><path fill="#ff651d" d="M 264.519531 330.214844 C 270.074219 330.214844 274.578125 325.710938 274.578125 320.152344 C 274.578125 314.597656 270.074219 310.09375 264.519531 310.09375 C 258.960938 310.09375 254.457031 314.597656 254.457031 320.152344 C 254.457031 325.710938 258.960938 330.214844 264.519531 330.214844 Z M 264.519531 330.214844 " fill-opacity="1" fill-rule="nonzero"/><path fill="#ff651d" d="M 154.09375 352.300781 C 159.648438 352.300781 164.152344 347.796875 164.152344 342.238281 C 164.152344 336.683594 159.648438 332.179688 154.09375 332.179688 C 148.535156 332.179688 144.03125 336.683594 144.03125 342.238281 C 144.03125 347.796875 148.535156 352.300781 154.09375 352.300781 Z M 154.09375 352.300781 " fill-opacity="1" fill-rule="nonzero"/><path fill="#ff651d" d="M 176.179688 352.300781 C 181.734375 352.300781 186.242188 347.796875 186.242188 342.238281 C 186.242188 336.683594 181.734375 332.179688 176.179688 332.179688 C 170.621094 332.179688 166.117188 336.683594 166.117188 342.238281 C 166.117188 347.796875 170.621094 352.300781 176.179688 352.300781 Z M 176.179688 352.300781 " fill-opacity="1" fill-rule="nonzero"/><path fill="#ff651d" d="M 198.261719 349.792969 C 202.4375 349.792969 205.820312 346.410156 205.820312 342.234375 C 205.820312 338.0625 202.4375 334.679688 198.261719 334.679688 C 194.089844 334.679688 190.703125 338.0625 190.703125 342.234375 C 190.703125 346.410156 194.089844 349.792969 198.261719 349.792969 Z M 198.261719 349.792969 " fill-opacity="1" fill-rule="nonzero"/><g clip-path="url(#974913b16c)"><path fill="#ff651d" d="M 176.179688 374.335938 C 181.734375 374.335938 186.242188 369.832031 186.242188 364.273438 C 186.242188 358.71875 181.734375 354.214844 176.179688 354.214844 C 170.621094 354.214844 166.117188 358.71875 166.117188 364.273438 C 166.117188 369.832031 170.621094 374.335938 176.179688 374.335938 Z M 176.179688 374.335938 " fill-opacity="1" fill-rule="nonzero"/></g><g clip-path="url(#a4212472bb)"><path fill="#ff651d" d="M 198.261719 374.335938 C 203.816406 374.335938 208.324219 369.832031 208.324219 364.273438 C 208.324219 358.71875 203.816406 354.214844 198.261719 354.214844 C 192.707031 354.214844 188.199219 358.71875 188.199219 364.273438 C 188.199219 369.832031 192.707031 374.335938 198.261719 374.335938 Z M 198.261719 374.335938 " fill-opacity="1" fill-rule="nonzero"/></g><path fill="#ff651d" d="M 220.34375 349.792969 C 224.519531 349.792969 227.902344 346.410156 227.902344 342.234375 C 227.902344 338.0625 224.519531 334.679688 220.34375 334.679688 C 216.171875 334.679688 212.789062 338.0625 212.789062 342.234375 C 212.789062 346.410156 216.171875 349.792969 220.34375 349.792969 Z M 220.34375 349.792969 " fill-opacity="1" fill-rule="nonzero"/></svg>