<svg xmlns="http://www.w3.org/2000/svg" xmlns:xlink="http://www.w3.org/1999/xlink" width="330" zoomAndPan="magnify" viewBox="0 0 247.5 227.249992" height="303" preserveAspectRatio="xMidYMid meet" version="1.0"><defs><clipPath id="7857158a29"><path d="M 130.734375 179.570312 L 140.199219 179.570312 L 140.199219 189.035156 L 130.734375 189.035156 Z M 130.734375 179.570312 " clip-rule="nonzero"/></clipPath><clipPath id="02836cc19e"><path d="M 135.464844 179.570312 C 132.851562 179.570312 130.734375 181.691406 130.734375 184.304688 C 130.734375 186.917969 132.851562 189.035156 135.464844 189.035156 C 138.078125 189.035156 140.199219 186.917969 140.199219 184.304688 C 140.199219 181.691406 138.078125 179.570312 135.464844 179.570312 Z M 135.464844 179.570312 " clip-rule="nonzero"/></clipPath><clipPath id="d61ae626b9"><path d="M 165.800781 176.476562 L 182.441406 176.476562 L 182.441406 193.117188 L 165.800781 193.117188 Z M 165.800781 176.476562 " clip-rule="nonzero"/></clipPath><clipPath id="6d831629f9"><path d="M 174.121094 176.476562 C 169.527344 176.476562 165.800781 180.203125 165.800781 184.796875 C 165.800781 189.394531 169.527344 193.117188 174.121094 193.117188 C 178.71875 193.117188 182.441406 189.394531 182.441406 184.796875 C 182.441406 180.203125 178.71875 176.476562 174.121094 176.476562 Z M 174.121094 176.476562 " clip-rule="nonzero"/></clipPath><clipPath id="5152c8caa3"><path d="M 154.28125 191.378906 L 167.46875 191.378906 L 167.46875 204.566406 L 154.28125 204.566406 Z M 154.28125 191.378906 " clip-rule="nonzero"/></clipPath><clipPath id="ea7e2f82ba"><path d="M 160.875 191.378906 C 157.234375 191.378906 154.28125 194.332031 154.28125 197.972656 C 154.28125 201.613281 157.234375 204.566406 160.875 204.566406 C 164.515625 204.566406 167.46875 201.613281 167.46875 197.972656 C 167.46875 194.332031 164.515625 191.378906 160.875 191.378906 Z M 160.875 191.378906 " clip-rule="nonzero"/></clipPath><clipPath id="c614e7245d"><path d="M 142.972656 202.007812 L 156.160156 202.007812 L 156.160156 215.191406 L 142.972656 215.191406 Z M 142.972656 202.007812 " clip-rule="nonzero"/></clipPath><clipPath id="09fbf7ac3c"><path d="M 149.566406 202.007812 C 145.925781 202.007812 142.972656 204.957031 142.972656 208.601562 C 142.972656 212.242188 145.925781 215.191406 149.566406 215.191406 C 153.207031 215.191406 156.160156 212.242188 156.160156 208.601562 C 156.160156 204.957031 153.207031 202.007812 149.566406 202.007812 Z M 149.566406 202.007812 " clip-rule="nonzero"/></clipPath><clipPath id="1effe74b30"><path d="M 165.800781 157.261719 L 182.441406 157.261719 L 182.441406 173.902344 L 165.800781 173.902344 Z M 165.800781 157.261719 " clip-rule="nonzero"/></clipPath><clipPath id="aab5b1a3d8"><path d="M 174.121094 157.261719 C 169.527344 157.261719 165.800781 160.988281 165.800781 165.582031 C 165.800781 170.179688 169.527344 173.902344 174.121094 173.902344 C 178.71875 173.902344 182.441406 170.179688 182.441406 165.582031 C 182.441406 160.988281 178.71875 157.261719 174.121094 157.261719 Z M 174.121094 157.261719 " clip-rule="nonzero"/></clipPath><clipPath id="1315a870cf"><path d="M 167.527344 140.738281 L 180.714844 140.738281 L 180.714844 153.921875 L 167.527344 153.921875 Z M 167.527344 140.738281 " clip-rule="nonzero"/></clipPath><clipPath id="3d7456bade"><path d="M 174.121094 140.738281 C 170.480469 140.738281 167.527344 143.6875 167.527344 147.332031 C 167.527344 150.972656 170.480469 153.921875 174.121094 153.921875 C 177.761719 153.921875 180.714844 150.972656 180.714844 147.332031 C 180.714844 143.6875 177.761719 140.738281 174.121094 140.738281 Z M 174.121094 140.738281 " clip-rule="nonzero"/></clipPath><clipPath id="dabd376c79"><path d="M 167.527344 124.214844 L 180.714844 124.214844 L 180.714844 137.398438 L 167.527344 137.398438 Z M 167.527344 124.214844 " clip-rule="nonzero"/></clipPath><clipPath id="fa4f231bfb"><path d="M 174.121094 124.214844 C 170.480469 124.214844 167.527344 127.164062 167.527344 130.808594 C 167.527344 134.449219 170.480469 137.398438 174.121094 137.398438 C 177.761719 137.398438 180.714844 134.449219 180.714844 130.808594 C 180.714844 127.164062 177.761719 124.214844 174.121094 124.214844 Z M 174.121094 124.214844 " clip-rule="nonzero"/></clipPath><clipPath id="913b248c2d"><path d="M 169.390625 111.410156 L 178.855469 111.410156 L 178.855469 120.875 L 169.390625 120.875 Z M 169.390625 111.410156 " clip-rule="nonzero"/></clipPath><clipPath id="5f642a07e7"><path d="M 174.121094 111.410156 C 171.507812 111.410156 169.390625 113.53125 169.390625 116.144531 C 169.390625 118.757812 171.507812 120.875 174.121094 120.875 C 176.734375 120.875 178.855469 118.757812 178.855469 116.144531 C 178.855469 113.53125 176.734375 111.410156 174.121094 111.410156 Z M 174.121094 111.410156 " clip-rule="nonzero"/></clipPath><clipPath id="f4ff70fe38"><path d="M 165.800781 19.980469 L 182.441406 19.980469 L 182.441406 36.621094 L 165.800781 36.621094 Z M 165.800781 19.980469 " clip-rule="nonzero"/></clipPath><clipPath id="fa8be565a7"><path d="M 174.121094 19.980469 C 169.527344 19.980469 165.800781 23.707031 165.800781 28.300781 C 165.800781 32.894531 169.527344 36.621094 174.121094 36.621094 C 178.71875 36.621094 182.441406 32.894531 182.441406 28.300781 C 182.441406 23.707031 178.71875 19.980469 174.121094 19.980469 Z M 174.121094 19.980469 " clip-rule="nonzero"/></clipPath><clipPath id="040d49534f"><path d="M 165.800781 0 L 182.441406 0 L 182.441406 16.640625 L 165.800781 16.640625 Z M 165.800781 0 " clip-rule="nonzero"/></clipPath><clipPath id="771fec0d37"><path d="M 174.121094 0 C 169.527344 0 165.800781 3.726562 165.800781 8.320312 C 165.800781 12.917969 169.527344 16.640625 174.121094 16.640625 C 178.71875 16.640625 182.441406 12.917969 182.441406 8.320312 C 182.441406 3.726562 178.71875 0 174.121094 0 Z M 174.121094 0 " clip-rule="nonzero"/></clipPath><clipPath id="2c50757637"><path d="M 167.527344 56.484375 L 180.714844 56.484375 L 180.714844 69.667969 L 167.527344 69.667969 Z M 167.527344 56.484375 " clip-rule="nonzero"/></clipPath><clipPath id="ab96e829eb"><path d="M 174.121094 56.484375 C 170.480469 56.484375 167.527344 59.433594 167.527344 63.074219 C 167.527344 66.71875 170.480469 69.667969 174.121094 69.667969 C 177.761719 69.667969 180.714844 66.71875 180.714844 63.074219 C 180.714844 59.433594 177.761719 56.484375 174.121094 56.484375 Z M 174.121094 56.484375 " clip-rule="nonzero"/></clipPath><clipPath id="5a40c16370"><path d="M 167.527344 39.960938 L 180.714844 39.960938 L 180.714844 53.144531 L 167.527344 53.144531 Z M 167.527344 39.960938 " clip-rule="nonzero"/></clipPath><clipPath id="a0b90f0caa"><path d="M 174.121094 39.960938 C 170.480469 39.960938 167.527344 42.910156 167.527344 46.550781 C 167.527344 50.195312 170.480469 53.144531 174.121094 53.144531 C 177.761719 53.144531 180.714844 50.195312 180.714844 46.550781 C 180.714844 42.910156 177.761719 39.960938 174.121094 39.960938 Z M 174.121094 39.960938 " clip-rule="nonzero"/></clipPath><clipPath id="b8921dce30"><path d="M 169.390625 98.609375 L 178.855469 98.609375 L 178.855469 108.074219 L 169.390625 108.074219 Z M 169.390625 98.609375 " clip-rule="nonzero"/></clipPath><clipPath id="4048e9ce30"><path d="M 174.121094 98.609375 C 171.507812 98.609375 169.390625 100.730469 169.390625 103.34375 C 169.390625 105.957031 171.507812 108.074219 174.121094 108.074219 C 176.734375 108.074219 178.855469 105.957031 178.855469 103.34375 C 178.855469 100.730469 176.734375 98.609375 174.121094 98.609375 Z M 174.121094 98.609375 " clip-rule="nonzero"/></clipPath><clipPath id="c6cae9c29b"><path d="M 169.390625 85.808594 L 178.855469 85.808594 L 178.855469 95.273438 L 169.390625 95.273438 Z M 169.390625 85.808594 " clip-rule="nonzero"/></clipPath><clipPath id="1313120ba4"><path d="M 174.121094 85.808594 C 171.507812 85.808594 169.390625 87.925781 169.390625 90.539062 C 169.390625 93.152344 171.507812 95.273438 174.121094 95.273438 C 176.734375 95.273438 178.855469 93.152344 178.855469 90.539062 C 178.855469 87.925781 176.734375 85.808594 174.121094 85.808594 Z M 174.121094 85.808594 " clip-rule="nonzero"/></clipPath><clipPath id="4c36bcc839"><path d="M 169.390625 73.007812 L 178.855469 73.007812 L 178.855469 82.472656 L 169.390625 82.472656 Z M 169.390625 73.007812 " clip-rule="nonzero"/></clipPath><clipPath id="b1c0e9b448"><path d="M 174.121094 73.007812 C 171.507812 73.007812 169.390625 75.125 169.390625 77.738281 C 169.390625 80.351562 171.507812 82.472656 174.121094 82.472656 C 176.734375 82.472656 178.855469 80.351562 178.855469 77.738281 C 178.855469 75.125 176.734375 73.007812 174.121094 73.007812 Z M 174.121094 73.007812 " clip-rule="nonzero"/></clipPath><clipPath id="297e17e0db"><path d="M 142.765625 179.570312 L 152.230469 179.570312 L 152.230469 189.035156 L 142.765625 189.035156 Z M 142.765625 179.570312 " clip-rule="nonzero"/></clipPath><clipPath id="7a7db885e9"><path d="M 147.496094 179.570312 C 144.882812 179.570312 142.765625 181.691406 142.765625 184.304688 C 142.765625 186.917969 144.882812 189.035156 147.496094 189.035156 C 150.109375 189.035156 152.230469 186.917969 152.230469 184.304688 C 152.230469 181.691406 150.109375 179.570312 147.496094 179.570312 Z M 147.496094 179.570312 " clip-rule="nonzero"/></clipPath><clipPath id="8506fa9234"><path d="M 154.28125 179.570312 L 163.746094 179.570312 L 163.746094 189.035156 L 154.28125 189.035156 Z M 154.28125 179.570312 " clip-rule="nonzero"/></clipPath><clipPath id="be7ea2eccb"><path d="M 159.015625 179.570312 C 156.402344 179.570312 154.28125 181.691406 154.28125 184.304688 C 154.28125 186.917969 156.402344 189.035156 159.015625 189.035156 C 161.628906 189.035156 163.746094 186.917969 163.746094 184.304688 C 163.746094 181.691406 161.628906 179.570312 159.015625 179.570312 Z M 159.015625 179.570312 " clip-rule="nonzero"/></clipPath><clipPath id="ff7e49bea3"><path d="M 130.734375 190.539062 L 140.199219 190.539062 L 140.199219 200.003906 L 130.734375 200.003906 Z M 130.734375 190.539062 " clip-rule="nonzero"/></clipPath><clipPath id="d06adad762"><path d="M 135.464844 190.539062 C 132.851562 190.539062 130.734375 192.660156 130.734375 195.273438 C 130.734375 197.886719 132.851562 200.003906 135.464844 200.003906 C 138.078125 200.003906 140.199219 197.886719 140.199219 195.273438 C 140.199219 192.660156 138.078125 190.539062 135.464844 190.539062 Z M 135.464844 190.539062 " clip-rule="nonzero"/></clipPath><clipPath id="ded9979904"><path d="M 129.386719 213.28125 L 142.570312 213.28125 L 142.570312 226.464844 L 129.386719 226.464844 Z M 129.386719 213.28125 " clip-rule="nonzero"/></clipPath><clipPath id="4fd0eca27c"><path d="M 135.976562 213.28125 C 132.335938 213.28125 129.386719 216.230469 129.386719 219.871094 C 129.386719 223.515625 132.335938 226.464844 135.976562 226.464844 C 139.621094 226.464844 142.570312 223.515625 142.570312 219.871094 C 142.570312 216.230469 139.621094 213.28125 135.976562 213.28125 Z M 135.976562 213.28125 " clip-rule="nonzero"/></clipPath><clipPath id="0d08d7ff9d"><path d="M 130.734375 201.507812 L 140.199219 201.507812 L 140.199219 210.972656 L 130.734375 210.972656 Z M 130.734375 201.507812 " clip-rule="nonzero"/></clipPath><clipPath id="8035356f42"><path d="M 135.464844 201.507812 C 132.851562 201.507812 130.734375 203.628906 130.734375 206.242188 C 130.734375 208.855469 132.851562 210.972656 135.464844 210.972656 C 138.078125 210.972656 140.199219 208.855469 140.199219 206.242188 C 140.199219 203.628906 138.078125 201.507812 135.464844 201.507812 Z M 135.464844 201.507812 " clip-rule="nonzero"/></clipPath><clipPath id="1bce0443bb"><path d="M 149.703125 1.726562 L 162.890625 1.726562 L 162.890625 14.914062 L 149.703125 14.914062 Z M 149.703125 1.726562 " clip-rule="nonzero"/></clipPath><clipPath id="c2d7b77dcd"><path d="M 156.296875 1.726562 C 152.65625 1.726562 149.703125 4.679688 149.703125 8.320312 C 149.703125 11.960938 152.65625 14.914062 156.296875 14.914062 C 159.9375 14.914062 162.890625 11.960938 162.890625 8.320312 C 162.890625 4.679688 159.9375 1.726562 156.296875 1.726562 Z M 156.296875 1.726562 " clip-rule="nonzero"/></clipPath><clipPath id="c64f6e531b"><path d="M 0.15625 0 L 16.800781 0 L 16.800781 16.640625 L 0.15625 16.640625 Z M 0.15625 0 " clip-rule="nonzero"/></clipPath><clipPath id="488d113457"><path d="M 8.480469 0 C 3.882812 0 0.15625 3.726562 0.15625 8.320312 C 0.15625 12.917969 3.882812 16.640625 8.480469 16.640625 C 13.074219 16.640625 16.800781 12.917969 16.800781 8.320312 C 16.800781 3.726562 13.074219 0 8.480469 0 Z M 8.480469 0 " clip-rule="nonzero"/></clipPath><clipPath id="717bca99bf"><path d="M 133.59375 1.726562 L 146.78125 1.726562 L 146.78125 14.914062 L 133.59375 14.914062 Z M 133.59375 1.726562 " clip-rule="nonzero"/></clipPath><clipPath id="a07e5a60db"><path d="M 146.78125 8.320312 C 146.78125 4.679688 143.828125 1.726562 140.1875 1.726562 C 136.546875 1.726562 133.59375 4.679688 133.59375 8.320312 C 133.59375 11.960938 136.546875 14.914062 140.1875 14.914062 C 143.828125 14.914062 146.78125 11.960938 146.78125 8.320312 Z M 146.78125 8.320312 " clip-rule="nonzero"/></clipPath><clipPath id="1cfe204c63"><path d="M 117.496094 1.726562 L 130.683594 1.726562 L 130.683594 14.914062 L 117.496094 14.914062 Z M 117.496094 1.726562 " clip-rule="nonzero"/></clipPath><clipPath id="7c34bfd28f"><path d="M 130.683594 8.320312 C 130.683594 4.679688 127.730469 1.726562 124.089844 1.726562 C 120.449219 1.726562 117.496094 4.679688 117.496094 8.320312 C 117.496094 11.960938 120.449219 14.914062 124.089844 14.914062 C 127.730469 14.914062 130.683594 11.960938 130.683594 8.320312 Z M 130.683594 8.320312 " clip-rule="nonzero"/></clipPath><clipPath id="2a6ecf3953"><path d="M 105.128906 3.589844 L 114.59375 3.589844 L 114.59375 13.054688 L 105.128906 13.054688 Z M 105.128906 3.589844 " clip-rule="nonzero"/></clipPath><clipPath id="8b0920bc93"><path d="M 114.59375 8.320312 C 114.59375 5.707031 112.472656 3.589844 109.859375 3.589844 C 107.246094 3.589844 105.128906 5.707031 105.128906 8.320312 C 105.128906 10.933594 107.246094 13.054688 109.859375 13.054688 C 112.472656 13.054688 114.59375 10.933594 114.59375 8.320312 Z M 114.59375 8.320312 " clip-rule="nonzero"/></clipPath><clipPath id="df02aaaf9f"><path d="M 51.894531 1.726562 L 65.082031 1.726562 L 65.082031 14.914062 L 51.894531 14.914062 Z M 51.894531 1.726562 " clip-rule="nonzero"/></clipPath><clipPath id="12c955092d"><path d="M 65.082031 8.320312 C 65.082031 4.679688 62.128906 1.726562 58.488281 1.726562 C 54.847656 1.726562 51.894531 4.679688 51.894531 8.320312 C 51.894531 11.960938 54.847656 14.914062 58.488281 14.914062 C 62.128906 14.914062 65.082031 11.960938 65.082031 8.320312 Z M 65.082031 8.320312 " clip-rule="nonzero"/></clipPath><clipPath id="bc117d1f69"><path d="M 35.796875 1.726562 L 48.984375 1.726562 L 48.984375 14.914062 L 35.796875 14.914062 Z M 35.796875 1.726562 " clip-rule="nonzero"/></clipPath><clipPath id="b5df54d1c8"><path d="M 48.984375 8.320312 C 48.984375 4.679688 46.03125 1.726562 42.390625 1.726562 C 38.75 1.726562 35.796875 4.679688 35.796875 8.320312 C 35.796875 11.960938 38.75 14.914062 42.390625 14.914062 C 46.03125 14.914062 48.984375 11.960938 48.984375 8.320312 Z M 48.984375 8.320312 " clip-rule="nonzero"/></clipPath><clipPath id="1006592310"><path d="M 92.753906 3.589844 L 102.21875 3.589844 L 102.21875 13.054688 L 92.753906 13.054688 Z M 92.753906 3.589844 " clip-rule="nonzero"/></clipPath><clipPath id="7f3e01b693"><path d="M 102.21875 8.320312 C 102.21875 5.707031 100.097656 3.589844 97.484375 3.589844 C 94.871094 3.589844 92.753906 5.707031 92.753906 8.320312 C 92.753906 10.933594 94.871094 13.054688 97.484375 13.054688 C 100.097656 13.054688 102.21875 10.933594 102.21875 8.320312 Z M 102.21875 8.320312 " clip-rule="nonzero"/></clipPath><clipPath id="76c89f7db4"><path d="M 80.378906 3.589844 L 89.839844 3.589844 L 89.839844 13.054688 L 80.378906 13.054688 Z M 80.378906 3.589844 " clip-rule="nonzero"/></clipPath><clipPath id="7e75a19231"><path d="M 89.839844 8.320312 C 89.839844 5.707031 87.722656 3.589844 85.109375 3.589844 C 82.496094 3.589844 80.378906 5.707031 80.378906 8.320312 C 80.378906 10.933594 82.496094 13.054688 85.109375 13.054688 C 87.722656 13.054688 89.839844 10.933594 89.839844 8.320312 Z M 89.839844 8.320312 " clip-rule="nonzero"/></clipPath><clipPath id="e60b04b3c8"><path d="M 68 3.589844 L 77.464844 3.589844 L 77.464844 13.054688 L 68 13.054688 Z M 68 3.589844 " clip-rule="nonzero"/></clipPath><clipPath id="a60f261ef2"><path d="M 77.464844 8.320312 C 77.464844 5.707031 75.347656 3.589844 72.734375 3.589844 C 70.121094 3.589844 68 5.707031 68 8.320312 C 68 10.933594 70.121094 13.054688 72.734375 13.054688 C 75.347656 13.054688 77.464844 10.933594 77.464844 8.320312 Z M 77.464844 8.320312 " clip-rule="nonzero"/></clipPath><clipPath id="178b233012"><path d="M 19.699219 1.726562 L 32.886719 1.726562 L 32.886719 14.914062 L 19.699219 14.914062 Z M 19.699219 1.726562 " clip-rule="nonzero"/></clipPath><clipPath id="f5a63c963b"><path d="M 32.886719 8.320312 C 32.886719 4.679688 29.933594 1.726562 26.292969 1.726562 C 22.652344 1.726562 19.699219 4.679688 19.699219 8.320312 C 19.699219 11.960938 22.652344 14.914062 26.292969 14.914062 C 29.933594 14.914062 32.886719 11.960938 32.886719 8.320312 Z M 32.886719 8.320312 " clip-rule="nonzero"/></clipPath><clipPath id="5484ac25b3"><path d="M 0.15625 209.652344 L 16.800781 209.652344 L 16.800781 226.292969 L 0.15625 226.292969 Z M 0.15625 209.652344 " clip-rule="nonzero"/></clipPath><clipPath id="e7a785c595"><path d="M 8.480469 209.652344 C 3.882812 209.652344 0.15625 213.375 0.15625 217.972656 C 0.15625 222.566406 3.882812 226.292969 8.480469 226.292969 C 13.074219 226.292969 16.800781 222.566406 16.800781 217.972656 C 16.800781 213.375 13.074219 209.652344 8.480469 209.652344 Z M 8.480469 209.652344 " clip-rule="nonzero"/></clipPath><clipPath id="6f8101b730"><path d="M 1.886719 193.117188 L 15.070312 193.117188 L 15.070312 206.304688 L 1.886719 206.304688 Z M 1.886719 193.117188 " clip-rule="nonzero"/></clipPath><clipPath id="5a656a1642"><path d="M 8.480469 193.117188 C 4.835938 193.117188 1.886719 196.070312 1.886719 199.710938 C 1.886719 203.351562 4.835938 206.304688 8.480469 206.304688 C 12.121094 206.304688 15.070312 203.351562 15.070312 199.710938 C 15.070312 196.070312 12.121094 193.117188 8.480469 193.117188 Z M 8.480469 193.117188 " clip-rule="nonzero"/></clipPath><clipPath id="95becfffd7"><path d="M 1.886719 176.027344 L 15.070312 176.027344 L 15.070312 189.214844 L 1.886719 189.214844 Z M 1.886719 176.027344 " clip-rule="nonzero"/></clipPath><clipPath id="53456b92bd"><path d="M 8.480469 176.027344 C 4.835938 176.027344 1.886719 178.980469 1.886719 182.621094 C 1.886719 186.261719 4.835938 189.214844 8.480469 189.214844 C 12.121094 189.214844 15.070312 186.261719 15.070312 182.621094 C 15.070312 178.980469 12.121094 176.027344 8.480469 176.027344 Z M 8.480469 176.027344 " clip-rule="nonzero"/></clipPath><clipPath id="c875b152c3"><path d="M 3.746094 135.925781 L 13.210938 135.925781 L 13.210938 145.386719 L 3.746094 145.386719 Z M 3.746094 135.925781 " clip-rule="nonzero"/></clipPath><clipPath id="c645f43719"><path d="M 8.480469 135.925781 C 5.867188 135.925781 3.746094 138.042969 3.746094 140.65625 C 3.746094 143.269531 5.867188 145.386719 8.480469 145.386719 C 11.09375 145.386719 13.210938 143.269531 13.210938 140.65625 C 13.210938 138.042969 11.09375 135.925781 8.480469 135.925781 Z M 8.480469 135.925781 " clip-rule="nonzero"/></clipPath><clipPath id="d39b67b481"><path d="M 0.15625 41.09375 L 16.800781 41.09375 L 16.800781 57.734375 L 0.15625 57.734375 Z M 0.15625 41.09375 " clip-rule="nonzero"/></clipPath><clipPath id="f1026b8bd8"><path d="M 8.480469 41.09375 C 3.882812 41.09375 0.15625 44.816406 0.15625 49.414062 C 0.15625 54.007812 3.882812 57.734375 8.480469 57.734375 C 13.074219 57.734375 16.800781 54.007812 16.800781 49.414062 C 16.800781 44.816406 13.074219 41.09375 8.480469 41.09375 Z M 8.480469 41.09375 " clip-rule="nonzero"/></clipPath><clipPath id="da58ef2dda"><path d="M 0.15625 20.546875 L 16.800781 20.546875 L 16.800781 37.1875 L 0.15625 37.1875 Z M 0.15625 20.546875 " clip-rule="nonzero"/></clipPath><clipPath id="141f9d29be"><path d="M 8.480469 20.546875 C 3.882812 20.546875 0.15625 24.273438 0.15625 28.867188 C 0.15625 33.460938 3.882812 37.1875 8.480469 37.1875 C 13.074219 37.1875 16.800781 33.460938 16.800781 28.867188 C 16.800781 24.273438 13.074219 20.546875 8.480469 20.546875 Z M 8.480469 20.546875 " clip-rule="nonzero"/></clipPath><clipPath id="65bbb1baa5"><path d="M 1.886719 78.730469 L 15.070312 78.730469 L 15.070312 91.914062 L 1.886719 91.914062 Z M 1.886719 78.730469 " clip-rule="nonzero"/></clipPath><clipPath id="4d0da2bd7e"><path d="M 8.480469 78.730469 C 4.835938 78.730469 1.886719 81.679688 1.886719 85.320312 C 1.886719 88.964844 4.835938 91.914062 8.480469 91.914062 C 12.121094 91.914062 15.070312 88.964844 15.070312 85.320312 C 15.070312 81.679688 12.121094 78.730469 8.480469 78.730469 Z M 8.480469 78.730469 " clip-rule="nonzero"/></clipPath><clipPath id="f8623566b4"><path d="M 1.886719 61.636719 L 15.070312 61.636719 L 15.070312 74.824219 L 1.886719 74.824219 Z M 1.886719 61.636719 " clip-rule="nonzero"/></clipPath><clipPath id="5112427742"><path d="M 8.480469 61.636719 C 4.835938 61.636719 1.886719 64.589844 1.886719 68.230469 C 1.886719 71.871094 4.835938 74.824219 8.480469 74.824219 C 12.121094 74.824219 15.070312 71.871094 15.070312 68.230469 C 15.070312 64.589844 12.121094 61.636719 8.480469 61.636719 Z M 8.480469 61.636719 " clip-rule="nonzero"/></clipPath><clipPath id="45e7efbde0"><path d="M 3.746094 122.554688 L 13.210938 122.554688 L 13.210938 132.019531 L 3.746094 132.019531 Z M 3.746094 122.554688 " clip-rule="nonzero"/></clipPath><clipPath id="364e6a7451"><path d="M 8.480469 122.554688 C 5.867188 122.554688 3.746094 124.675781 3.746094 127.289062 C 3.746094 129.902344 5.867188 132.019531 8.480469 132.019531 C 11.09375 132.019531 13.210938 129.902344 13.210938 127.289062 C 13.210938 124.675781 11.09375 122.554688 8.480469 122.554688 Z M 8.480469 122.554688 " clip-rule="nonzero"/></clipPath><clipPath id="65f68ddf48"><path d="M 3.746094 109.1875 L 13.210938 109.1875 L 13.210938 118.652344 L 3.746094 118.652344 Z M 3.746094 109.1875 " clip-rule="nonzero"/></clipPath><clipPath id="d2043a7c82"><path d="M 8.480469 109.1875 C 5.867188 109.1875 3.746094 111.304688 3.746094 113.917969 C 3.746094 116.53125 5.867188 118.652344 8.480469 118.652344 C 11.09375 118.652344 13.210938 116.53125 13.210938 113.917969 C 13.210938 111.304688 11.09375 109.1875 8.480469 109.1875 Z M 8.480469 109.1875 " clip-rule="nonzero"/></clipPath><clipPath id="93f99444b0"><path d="M 3.746094 95.820312 L 13.210938 95.820312 L 13.210938 105.28125 L 3.746094 105.28125 Z M 3.746094 95.820312 " clip-rule="nonzero"/></clipPath><clipPath id="bb492a04be"><path d="M 8.480469 95.820312 C 5.867188 95.820312 3.746094 97.9375 3.746094 100.550781 C 3.746094 103.164062 5.867188 105.28125 8.480469 105.28125 C 11.09375 105.28125 13.210938 103.164062 13.210938 100.550781 C 13.210938 97.9375 11.09375 95.820312 8.480469 95.820312 Z M 8.480469 95.820312 " clip-rule="nonzero"/></clipPath><clipPath id="0dd28c56e6"><path d="M 3.746094 162.660156 L 13.210938 162.660156 L 13.210938 172.125 L 3.746094 172.125 Z M 3.746094 162.660156 " clip-rule="nonzero"/></clipPath><clipPath id="a559c3a403"><path d="M 8.480469 162.660156 C 5.867188 162.660156 3.746094 164.777344 3.746094 167.394531 C 3.746094 170.007812 5.867188 172.125 8.480469 172.125 C 11.09375 172.125 13.210938 170.007812 13.210938 167.394531 C 13.210938 164.777344 11.09375 162.660156 8.480469 162.660156 Z M 8.480469 162.660156 " clip-rule="nonzero"/></clipPath><clipPath id="0af5c477be"><path d="M 3.746094 149.292969 L 13.210938 149.292969 L 13.210938 158.757812 L 3.746094 158.757812 Z M 3.746094 149.292969 " clip-rule="nonzero"/></clipPath><clipPath id="f4d257a2c6"><path d="M 8.480469 149.292969 C 5.867188 149.292969 3.746094 151.410156 3.746094 154.023438 C 3.746094 156.636719 5.867188 158.757812 8.480469 158.757812 C 11.09375 158.757812 13.210938 156.636719 13.210938 154.023438 C 13.210938 151.410156 11.09375 149.292969 8.480469 149.292969 Z M 8.480469 149.292969 " clip-rule="nonzero"/></clipPath><clipPath id="00ce3f8a07"><path d="M 59.925781 212.765625 L 73.113281 212.765625 L 73.113281 225.953125 L 59.925781 225.953125 Z M 59.925781 212.765625 " clip-rule="nonzero"/></clipPath><clipPath id="429c2c7491"><path d="M 59.925781 219.359375 C 59.925781 223 62.878906 225.953125 66.519531 225.953125 C 70.160156 225.953125 73.113281 223 73.113281 219.359375 C 73.113281 215.71875 70.160156 212.765625 66.519531 212.765625 C 62.878906 212.765625 59.925781 215.71875 59.925781 219.359375 Z M 59.925781 219.359375 " clip-rule="nonzero"/></clipPath><clipPath id="1e959b97a5"><path d="M 20.484375 214.632812 L 29.949219 214.632812 L 29.949219 224.097656 L 20.484375 224.097656 Z M 20.484375 214.632812 " clip-rule="nonzero"/></clipPath><clipPath id="7ebd56dcb4"><path d="M 20.484375 219.367188 C 20.484375 221.980469 22.601562 224.097656 25.214844 224.097656 C 27.828125 224.097656 29.949219 221.980469 29.949219 219.367188 C 29.949219 216.753906 27.828125 214.632812 25.214844 214.632812 C 22.601562 214.632812 20.484375 216.753906 20.484375 219.367188 Z M 20.484375 219.367188 " clip-rule="nonzero"/></clipPath><clipPath id="65133ec326"><path d="M 33.628906 214.632812 L 43.09375 214.632812 L 43.09375 224.097656 L 33.628906 224.097656 Z M 33.628906 214.632812 " clip-rule="nonzero"/></clipPath><clipPath id="8b0a0309f8"><path d="M 33.628906 219.367188 C 33.628906 221.980469 35.75 224.097656 38.363281 224.097656 C 40.976562 224.097656 43.09375 221.980469 43.09375 219.367188 C 43.09375 216.753906 40.976562 214.632812 38.363281 214.632812 C 35.75 214.632812 33.628906 216.753906 33.628906 219.367188 Z M 33.628906 219.367188 " clip-rule="nonzero"/></clipPath><clipPath id="f833098f5f"><path d="M 46.777344 214.632812 L 56.242188 214.632812 L 56.242188 224.097656 L 46.777344 224.097656 Z M 46.777344 214.632812 " clip-rule="nonzero"/></clipPath><clipPath id="8235b44019"><path d="M 46.777344 219.367188 C 46.777344 221.980469 48.898438 224.097656 51.511719 224.097656 C 54.125 224.097656 56.242188 221.980469 56.242188 219.367188 C 56.242188 216.753906 54.125 214.632812 51.511719 214.632812 C 48.898438 214.632812 46.777344 216.753906 46.777344 219.367188 Z M 46.777344 219.367188 " clip-rule="nonzero"/></clipPath><clipPath id="106092aec2"><path d="M 76.796875 214.632812 L 86.257812 214.632812 L 86.257812 224.097656 L 76.796875 224.097656 Z M 76.796875 214.632812 " clip-rule="nonzero"/></clipPath><clipPath id="15607cfde0"><path d="M 76.796875 219.367188 C 76.796875 221.980469 78.914062 224.097656 81.527344 224.097656 C 84.140625 224.097656 86.257812 221.980469 86.257812 219.367188 C 86.257812 216.753906 84.140625 214.632812 81.527344 214.632812 C 78.914062 214.632812 76.796875 216.753906 76.796875 219.367188 Z M 76.796875 219.367188 " clip-rule="nonzero"/></clipPath><clipPath id="e14da9756a"><path d="M 89.941406 214.632812 L 99.40625 214.632812 L 99.40625 224.097656 L 89.941406 224.097656 Z M 89.941406 214.632812 " clip-rule="nonzero"/></clipPath><clipPath id="aa2f1c1bb2"><path d="M 89.941406 219.367188 C 89.941406 221.980469 92.0625 224.097656 94.675781 224.097656 C 97.289062 224.097656 99.40625 221.980469 99.40625 219.367188 C 99.40625 216.753906 97.289062 214.632812 94.675781 214.632812 C 92.0625 214.632812 89.941406 216.753906 89.941406 219.367188 Z M 89.941406 219.367188 " clip-rule="nonzero"/></clipPath><clipPath id="b05bdf5040"><path d="M 103.089844 214.632812 L 112.554688 214.632812 L 112.554688 224.097656 L 103.089844 224.097656 Z M 103.089844 214.632812 " clip-rule="nonzero"/></clipPath><clipPath id="13cb036bfa"><path d="M 103.089844 219.367188 C 103.089844 221.980469 105.210938 224.097656 107.824219 224.097656 C 110.4375 224.097656 112.554688 221.980469 112.554688 219.367188 C 112.554688 216.753906 110.4375 214.632812 107.824219 214.632812 C 105.210938 214.632812 103.089844 216.753906 103.089844 219.367188 Z M 103.089844 219.367188 " clip-rule="nonzero"/></clipPath><clipPath id="5238057090"><path d="M 116.238281 214.632812 L 125.703125 214.632812 L 125.703125 224.097656 L 116.238281 224.097656 Z M 116.238281 214.632812 " clip-rule="nonzero"/></clipPath><clipPath id="65b102704c"><path d="M 116.238281 219.367188 C 116.238281 221.980469 118.355469 224.097656 120.96875 224.097656 C 123.582031 224.097656 125.703125 221.980469 125.703125 219.367188 C 125.703125 216.753906 123.582031 214.632812 120.96875 214.632812 C 118.355469 214.632812 116.238281 216.753906 116.238281 219.367188 Z M 116.238281 219.367188 " clip-rule="nonzero"/></clipPath><clipPath id="33bb7a0d60"><path d="M 25.894531 130.054688 L 35.359375 130.054688 L 35.359375 139.519531 L 25.894531 139.519531 Z M 25.894531 130.054688 " clip-rule="nonzero"/></clipPath><clipPath id="7c66e0ce46"><path d="M 30.625 130.054688 C 28.011719 130.054688 25.894531 132.171875 25.894531 134.785156 C 25.894531 137.398438 28.011719 139.519531 30.625 139.519531 C 33.242188 139.519531 35.359375 137.398438 35.359375 134.785156 C 35.359375 132.171875 33.242188 130.054688 30.625 130.054688 Z M 30.625 130.054688 " clip-rule="nonzero"/></clipPath><clipPath id="10ff4d8631"><path d="M 25.894531 117.09375 L 35.359375 117.09375 L 35.359375 126.558594 L 25.894531 126.558594 Z M 25.894531 117.09375 " clip-rule="nonzero"/></clipPath><clipPath id="2f3675ad00"><path d="M 30.625 117.09375 C 28.011719 117.09375 25.894531 119.210938 25.894531 121.824219 C 25.894531 124.4375 28.011719 126.558594 30.625 126.558594 C 33.242188 126.558594 35.359375 124.4375 35.359375 121.824219 C 35.359375 119.210938 33.242188 117.09375 30.625 117.09375 Z M 30.625 117.09375 " clip-rule="nonzero"/></clipPath><clipPath id="865960073d"><path d="M 25.894531 104.132812 L 35.359375 104.132812 L 35.359375 113.597656 L 25.894531 113.597656 Z M 25.894531 104.132812 " clip-rule="nonzero"/></clipPath><clipPath id="1615703c91"><path d="M 30.625 104.132812 C 28.011719 104.132812 25.894531 106.25 25.894531 108.863281 C 25.894531 111.476562 28.011719 113.597656 30.625 113.597656 C 33.242188 113.597656 35.359375 111.476562 35.359375 108.863281 C 35.359375 106.25 33.242188 104.132812 30.625 104.132812 Z M 30.625 104.132812 " clip-rule="nonzero"/></clipPath><clipPath id="776712611a"><path d="M 25.894531 91.171875 L 35.359375 91.171875 L 35.359375 100.636719 L 25.894531 100.636719 Z M 25.894531 91.171875 " clip-rule="nonzero"/></clipPath><clipPath id="ed7cee8097"><path d="M 30.625 91.171875 C 28.011719 91.171875 25.894531 93.289062 25.894531 95.902344 C 25.894531 98.515625 28.011719 100.636719 30.625 100.636719 C 33.242188 100.636719 35.359375 98.515625 35.359375 95.902344 C 35.359375 93.289062 33.242188 91.171875 30.625 91.171875 Z M 30.625 91.171875 " clip-rule="nonzero"/></clipPath><clipPath id="82703bd1d6"><path d="M 25.894531 155.976562 L 35.359375 155.976562 L 35.359375 165.441406 L 25.894531 165.441406 Z M 25.894531 155.976562 " clip-rule="nonzero"/></clipPath><clipPath id="5c17cdae3c"><path d="M 30.625 155.976562 C 28.011719 155.976562 25.894531 158.09375 25.894531 160.707031 C 25.894531 163.320312 28.011719 165.441406 30.625 165.441406 C 33.242188 165.441406 35.359375 163.320312 35.359375 160.707031 C 35.359375 158.09375 33.242188 155.976562 30.625 155.976562 Z M 30.625 155.976562 " clip-rule="nonzero"/></clipPath><clipPath id="ad651db86c"><path d="M 25.894531 143.015625 L 35.359375 143.015625 L 35.359375 152.480469 L 25.894531 152.480469 Z M 25.894531 143.015625 " clip-rule="nonzero"/></clipPath><clipPath id="4b137baa27"><path d="M 30.625 143.015625 C 28.011719 143.015625 25.894531 145.132812 25.894531 147.746094 C 25.894531 150.359375 28.011719 152.480469 30.625 152.480469 C 33.242188 152.480469 35.359375 150.359375 35.359375 147.746094 C 35.359375 145.132812 33.242188 143.015625 30.625 143.015625 Z M 30.625 143.015625 " clip-rule="nonzero"/></clipPath><clipPath id="0341fda49b"><path d="M 24.035156 74.488281 L 37.21875 74.488281 L 37.21875 87.675781 L 24.035156 87.675781 Z M 24.035156 74.488281 " clip-rule="nonzero"/></clipPath><clipPath id="0c121a37ca"><path d="M 30.625 74.488281 C 26.984375 74.488281 24.035156 77.441406 24.035156 81.082031 C 24.035156 84.722656 26.984375 87.675781 30.625 87.675781 C 34.269531 87.675781 37.21875 84.722656 37.21875 81.082031 C 37.21875 77.441406 34.269531 74.488281 30.625 74.488281 Z M 30.625 74.488281 " clip-rule="nonzero"/></clipPath><clipPath id="d0ce931192"><path d="M 24.035156 57.804688 L 37.21875 57.804688 L 37.21875 70.992188 L 24.035156 70.992188 Z M 24.035156 57.804688 " clip-rule="nonzero"/></clipPath><clipPath id="32be56218a"><path d="M 30.625 57.804688 C 26.984375 57.804688 24.035156 60.757812 24.035156 64.398438 C 24.035156 68.039062 26.984375 70.992188 30.625 70.992188 C 34.269531 70.992188 37.21875 68.039062 37.21875 64.398438 C 37.21875 60.757812 34.269531 57.804688 30.625 57.804688 Z M 30.625 57.804688 " clip-rule="nonzero"/></clipPath><clipPath id="f0d3650b7e"><path d="M 22.304688 20.984375 L 38.949219 20.984375 L 38.949219 37.625 L 22.304688 37.625 Z M 22.304688 20.984375 " clip-rule="nonzero"/></clipPath><clipPath id="dcb1adfd83"><path d="M 30.625 20.984375 C 26.03125 20.984375 22.304688 24.707031 22.304688 29.304688 C 22.304688 33.898438 26.03125 37.625 30.625 37.625 C 35.222656 37.625 38.949219 33.898438 38.949219 29.304688 C 38.949219 24.707031 35.222656 20.984375 30.625 20.984375 Z M 30.625 20.984375 " clip-rule="nonzero"/></clipPath><clipPath id="19dc05d1e6"><path d="M 24.035156 41.121094 L 37.21875 41.121094 L 37.21875 54.308594 L 24.035156 54.308594 Z M 24.035156 41.121094 " clip-rule="nonzero"/></clipPath><clipPath id="431294b634"><path d="M 30.625 41.121094 C 26.984375 41.121094 24.035156 44.074219 24.035156 47.714844 C 24.035156 51.355469 26.984375 54.308594 30.625 54.308594 C 34.269531 54.308594 37.21875 51.355469 37.21875 47.714844 C 37.21875 44.074219 34.269531 41.121094 30.625 41.121094 Z M 30.625 41.121094 " clip-rule="nonzero"/></clipPath><clipPath id="b10caf8496"><path d="M 145.960938 130.675781 L 155.425781 130.675781 L 155.425781 140.140625 L 145.960938 140.140625 Z M 145.960938 130.675781 " clip-rule="nonzero"/></clipPath><clipPath id="0f2fd2a567"><path d="M 150.695312 130.675781 C 148.082031 130.675781 145.960938 132.792969 145.960938 135.40625 C 145.960938 138.019531 148.082031 140.140625 150.695312 140.140625 C 153.308594 140.140625 155.425781 138.019531 155.425781 135.40625 C 155.425781 132.792969 153.308594 130.675781 150.695312 130.675781 Z M 150.695312 130.675781 " clip-rule="nonzero"/></clipPath><clipPath id="7cda447f04"><path d="M 145.960938 117.585938 L 155.425781 117.585938 L 155.425781 127.050781 L 145.960938 127.050781 Z M 145.960938 117.585938 " clip-rule="nonzero"/></clipPath><clipPath id="780b28485b"><path d="M 150.695312 117.585938 C 148.082031 117.585938 145.960938 119.707031 145.960938 122.320312 C 145.960938 124.933594 148.082031 127.050781 150.695312 127.050781 C 153.308594 127.050781 155.425781 124.933594 155.425781 122.320312 C 155.425781 119.707031 153.308594 117.585938 150.695312 117.585938 Z M 150.695312 117.585938 " clip-rule="nonzero"/></clipPath><clipPath id="38a021163a"><path d="M 145.960938 104.5 L 155.425781 104.5 L 155.425781 113.964844 L 145.960938 113.964844 Z M 145.960938 104.5 " clip-rule="nonzero"/></clipPath><clipPath id="de3e4511cd"><path d="M 150.695312 104.5 C 148.082031 104.5 145.960938 106.617188 145.960938 109.230469 C 145.960938 111.84375 148.082031 113.964844 150.695312 113.964844 C 153.308594 113.964844 155.425781 111.84375 155.425781 109.230469 C 155.425781 106.617188 153.308594 104.5 150.695312 104.5 Z M 150.695312 104.5 " clip-rule="nonzero"/></clipPath><clipPath id="9a0b723502"><path d="M 145.960938 91.410156 L 155.425781 91.410156 L 155.425781 100.875 L 145.960938 100.875 Z M 145.960938 91.410156 " clip-rule="nonzero"/></clipPath><clipPath id="84f93b2639"><path d="M 150.695312 91.410156 C 148.082031 91.410156 145.960938 93.53125 145.960938 96.144531 C 145.960938 98.757812 148.082031 100.875 150.695312 100.875 C 153.308594 100.875 155.425781 98.757812 155.425781 96.144531 C 155.425781 93.53125 153.308594 91.410156 150.695312 91.410156 Z M 150.695312 91.410156 " clip-rule="nonzero"/></clipPath><clipPath id="e86cf13fb9"><path d="M 145.960938 156.851562 L 155.425781 156.851562 L 155.425781 166.3125 L 145.960938 166.3125 Z M 145.960938 156.851562 " clip-rule="nonzero"/></clipPath><clipPath id="3bf19128fe"><path d="M 150.695312 156.851562 C 148.082031 156.851562 145.960938 158.96875 145.960938 161.582031 C 145.960938 164.195312 148.082031 166.3125 150.695312 166.3125 C 153.308594 166.3125 155.425781 164.195312 155.425781 161.582031 C 155.425781 158.96875 153.308594 156.851562 150.695312 156.851562 Z M 150.695312 156.851562 " clip-rule="nonzero"/></clipPath><clipPath id="990fb420cb"><path d="M 145.960938 143.761719 L 155.425781 143.761719 L 155.425781 153.226562 L 145.960938 153.226562 Z M 145.960938 143.761719 " clip-rule="nonzero"/></clipPath><clipPath id="40388ddeaf"><path d="M 150.695312 143.761719 C 148.082031 143.761719 145.960938 145.878906 145.960938 148.496094 C 145.960938 151.109375 148.082031 153.226562 150.695312 153.226562 C 153.308594 153.226562 155.425781 151.109375 155.425781 148.496094 C 155.425781 145.878906 153.308594 143.761719 150.695312 143.761719 Z M 150.695312 143.761719 " clip-rule="nonzero"/></clipPath><clipPath id="11a9aa8236"><path d="M 144.101562 61.515625 L 157.285156 61.515625 L 157.285156 74.699219 L 144.101562 74.699219 Z M 144.101562 61.515625 " clip-rule="nonzero"/></clipPath><clipPath id="cb0fbbfc2f"><path d="M 150.695312 61.515625 C 147.050781 61.515625 144.101562 64.464844 144.101562 68.105469 C 144.101562 71.75 147.050781 74.699219 150.695312 74.699219 C 154.335938 74.699219 157.285156 71.75 157.285156 68.105469 C 157.285156 64.464844 154.335938 61.515625 150.695312 61.515625 Z M 150.695312 61.515625 " clip-rule="nonzero"/></clipPath><clipPath id="b233582272"><path d="M 142.371094 20.984375 L 159.015625 20.984375 L 159.015625 37.625 L 142.371094 37.625 Z M 142.371094 20.984375 " clip-rule="nonzero"/></clipPath><clipPath id="eafad252c2"><path d="M 150.695312 20.984375 C 146.097656 20.984375 142.371094 24.707031 142.371094 29.304688 C 142.371094 33.898438 146.097656 37.625 150.695312 37.625 C 155.289062 37.625 159.015625 33.898438 159.015625 29.304688 C 159.015625 24.707031 155.289062 20.984375 150.695312 20.984375 Z M 150.695312 20.984375 " clip-rule="nonzero"/></clipPath><clipPath id="ca6f1f588a"><path d="M 99.097656 22.710938 L 112.285156 22.710938 L 112.285156 35.898438 L 99.097656 35.898438 Z M 99.097656 22.710938 " clip-rule="nonzero"/></clipPath><clipPath id="b2b4cf9370"><path d="M 112.285156 29.304688 C 112.285156 25.664062 109.332031 22.710938 105.691406 22.710938 C 102.050781 22.710938 99.097656 25.664062 99.097656 29.304688 C 99.097656 32.945312 102.050781 35.898438 105.691406 35.898438 C 109.332031 35.898438 112.285156 32.945312 112.285156 29.304688 Z M 112.285156 29.304688 " clip-rule="nonzero"/></clipPath><clipPath id="4c171645b6"><path d="M 116.007812 24.570312 L 125.472656 24.570312 L 125.472656 34.035156 L 116.007812 34.035156 Z M 116.007812 24.570312 " clip-rule="nonzero"/></clipPath><clipPath id="bef2bec4e4"><path d="M 125.472656 29.304688 C 125.472656 26.691406 123.355469 24.570312 120.738281 24.570312 C 118.125 24.570312 116.007812 26.691406 116.007812 29.304688 C 116.007812 31.917969 118.125 34.035156 120.738281 34.035156 C 123.355469 34.035156 125.472656 31.917969 125.472656 29.304688 Z M 125.472656 29.304688 " clip-rule="nonzero"/></clipPath><clipPath id="a6bce24dc8"><path d="M 42.652344 22.710938 L 55.839844 22.710938 L 55.839844 35.898438 L 42.652344 35.898438 Z M 42.652344 22.710938 " clip-rule="nonzero"/></clipPath><clipPath id="8770522181"><path d="M 55.839844 29.304688 C 55.839844 25.664062 52.886719 22.710938 49.246094 22.710938 C 45.605469 22.710938 42.652344 25.664062 42.652344 29.304688 C 42.652344 32.945312 45.605469 35.898438 49.246094 35.898438 C 52.886719 35.898438 55.839844 32.945312 55.839844 29.304688 Z M 55.839844 29.304688 " clip-rule="nonzero"/></clipPath><clipPath id="04ee9a93ba"><path d="M 85.925781 24.570312 L 95.390625 24.570312 L 95.390625 34.035156 L 85.925781 34.035156 Z M 85.925781 24.570312 " clip-rule="nonzero"/></clipPath><clipPath id="f210f68f9c"><path d="M 95.390625 29.304688 C 95.390625 26.691406 93.269531 24.570312 90.65625 24.570312 C 88.042969 24.570312 85.925781 26.691406 85.925781 29.304688 C 85.925781 31.917969 88.042969 34.035156 90.65625 34.035156 C 93.269531 34.035156 95.390625 31.917969 95.390625 29.304688 Z M 95.390625 29.304688 " clip-rule="nonzero"/></clipPath><clipPath id="b79b87bd01"><path d="M 72.746094 24.570312 L 82.207031 24.570312 L 82.207031 34.035156 L 72.746094 34.035156 Z M 72.746094 24.570312 " clip-rule="nonzero"/></clipPath><clipPath id="78f0aac66d"><path d="M 82.207031 29.304688 C 82.207031 26.691406 80.089844 24.570312 77.476562 24.570312 C 74.863281 24.570312 72.746094 26.691406 72.746094 29.304688 C 72.746094 31.917969 74.863281 34.035156 77.476562 34.035156 C 80.089844 34.035156 82.207031 31.917969 82.207031 29.304688 Z M 82.207031 29.304688 " clip-rule="nonzero"/></clipPath><clipPath id="b128cfa83a"><path d="M 59.5625 24.570312 L 69.027344 24.570312 L 69.027344 34.035156 L 59.5625 34.035156 Z M 59.5625 24.570312 " clip-rule="nonzero"/></clipPath><clipPath id="9615561478"><path d="M 69.027344 29.304688 C 69.027344 26.691406 66.910156 24.570312 64.296875 24.570312 C 61.683594 24.570312 59.5625 26.691406 59.5625 29.304688 C 59.5625 31.917969 61.683594 34.035156 64.296875 34.035156 C 66.910156 34.035156 69.027344 31.917969 69.027344 29.304688 Z M 69.027344 29.304688 " clip-rule="nonzero"/></clipPath><clipPath id="afb442747b"><path d="M 129.1875 24.570312 L 138.652344 24.570312 L 138.652344 34.035156 L 129.1875 34.035156 Z M 129.1875 24.570312 " clip-rule="nonzero"/></clipPath><clipPath id="d4544632d8"><path d="M 138.652344 29.304688 C 138.652344 26.691406 136.535156 24.570312 133.921875 24.570312 C 131.308594 24.570312 129.1875 26.691406 129.1875 29.304688 C 129.1875 31.917969 131.308594 34.035156 133.921875 34.035156 C 136.535156 34.035156 138.652344 31.917969 138.652344 29.304688 Z M 138.652344 29.304688 " clip-rule="nonzero"/></clipPath><clipPath id="712f635d56"><path d="M 87.023438 43.84375 L 96.488281 43.84375 L 96.488281 53.308594 L 87.023438 53.308594 Z M 87.023438 43.84375 " clip-rule="nonzero"/></clipPath><clipPath id="ab59dd7aae"><path d="M 87.023438 48.574219 C 87.023438 51.1875 89.144531 53.308594 91.757812 53.308594 C 94.371094 53.308594 96.488281 51.1875 96.488281 48.574219 C 96.488281 45.960938 94.371094 43.84375 91.757812 43.84375 C 89.144531 43.84375 87.023438 45.960938 87.023438 48.574219 Z M 87.023438 48.574219 " clip-rule="nonzero"/></clipPath><clipPath id="0fe739309f"><path d="M 73.136719 43.84375 L 82.601562 43.84375 L 82.601562 53.308594 L 73.136719 53.308594 Z M 73.136719 43.84375 " clip-rule="nonzero"/></clipPath><clipPath id="418f9b976b"><path d="M 73.136719 48.574219 C 73.136719 51.1875 75.257812 53.308594 77.871094 53.308594 C 80.484375 53.308594 82.601562 51.1875 82.601562 48.574219 C 82.601562 45.960938 80.484375 43.84375 77.871094 43.84375 C 75.257812 43.84375 73.136719 45.960938 73.136719 48.574219 Z M 73.136719 48.574219 " clip-rule="nonzero"/></clipPath><clipPath id="e91e8a85ed"><path d="M 59.25 43.84375 L 68.714844 43.84375 L 68.714844 53.308594 L 59.25 53.308594 Z M 59.25 43.84375 " clip-rule="nonzero"/></clipPath><clipPath id="71c465ab9b"><path d="M 59.25 48.574219 C 59.25 51.1875 61.371094 53.308594 63.984375 53.308594 C 66.597656 53.308594 68.714844 51.1875 68.714844 48.574219 C 68.714844 45.960938 66.597656 43.84375 63.984375 43.84375 C 61.371094 43.84375 59.25 45.960938 59.25 48.574219 Z M 59.25 48.574219 " clip-rule="nonzero"/></clipPath><clipPath id="a28336f284"><path d="M 41.640625 41.109375 L 54.828125 41.109375 L 54.828125 54.296875 L 41.640625 54.296875 Z M 41.640625 41.109375 " clip-rule="nonzero"/></clipPath><clipPath id="3804cc5088"><path d="M 41.640625 47.703125 C 41.640625 51.34375 44.59375 54.296875 48.234375 54.296875 C 51.875 54.296875 54.828125 51.34375 54.828125 47.703125 C 54.828125 44.0625 51.875 41.109375 48.234375 41.109375 C 44.59375 41.109375 41.640625 44.0625 41.640625 47.703125 Z M 41.640625 47.703125 " clip-rule="nonzero"/></clipPath><clipPath id="061a10b4c3"><path d="M 128.679688 43.847656 L 138.144531 43.847656 L 138.144531 53.3125 L 128.679688 53.3125 Z M 128.679688 43.847656 " clip-rule="nonzero"/></clipPath><clipPath id="35711ee306"><path d="M 138.144531 48.578125 C 138.144531 45.964844 136.027344 43.847656 133.414062 43.847656 C 130.800781 43.847656 128.679688 45.964844 128.679688 48.578125 C 128.679688 51.191406 130.800781 53.3125 133.414062 53.3125 C 136.027344 53.3125 138.144531 51.191406 138.144531 48.578125 Z M 138.144531 48.578125 " clip-rule="nonzero"/></clipPath><clipPath id="74710571cf"><path d="M 114.792969 43.847656 L 124.257812 43.847656 L 124.257812 53.3125 L 114.792969 53.3125 Z M 114.792969 43.847656 " clip-rule="nonzero"/></clipPath><clipPath id="bc291983db"><path d="M 124.257812 48.578125 C 124.257812 45.964844 122.140625 43.847656 119.527344 43.847656 C 116.914062 43.847656 114.792969 45.964844 114.792969 48.578125 C 114.792969 51.191406 116.914062 53.3125 119.527344 53.3125 C 122.140625 53.3125 124.257812 51.191406 124.257812 48.578125 Z M 124.257812 48.578125 " clip-rule="nonzero"/></clipPath><clipPath id="b32de73639"><path d="M 100.90625 43.847656 L 110.371094 43.847656 L 110.371094 53.3125 L 100.90625 53.3125 Z M 100.90625 43.847656 " clip-rule="nonzero"/></clipPath><clipPath id="37d5f4388f"><path d="M 110.371094 48.578125 C 110.371094 45.964844 108.253906 43.847656 105.640625 43.847656 C 103.027344 43.847656 100.90625 45.964844 100.90625 48.578125 C 100.90625 51.191406 103.027344 53.3125 105.640625 53.3125 C 108.253906 53.3125 110.371094 51.191406 110.371094 48.578125 Z M 110.371094 48.578125 " clip-rule="nonzero"/></clipPath><clipPath id="131a160430"><path d="M 142.570312 40.257812 L 159.214844 40.257812 L 159.214844 56.898438 L 142.570312 56.898438 Z M 142.570312 40.257812 " clip-rule="nonzero"/></clipPath><clipPath id="75beb7ce19"><path d="M 150.890625 40.257812 C 146.296875 40.257812 142.570312 43.984375 142.570312 48.578125 C 142.570312 53.175781 146.296875 56.898438 150.890625 56.898438 C 155.488281 56.898438 159.214844 53.175781 159.214844 48.578125 C 159.214844 43.984375 155.488281 40.257812 150.890625 40.257812 Z M 150.890625 40.257812 " clip-rule="nonzero"/></clipPath><clipPath id="876494bd2b"><path d="M 145.960938 78.324219 L 155.425781 78.324219 L 155.425781 87.789062 L 145.960938 87.789062 Z M 145.960938 78.324219 " clip-rule="nonzero"/></clipPath><clipPath id="344f85014c"><path d="M 150.695312 78.324219 C 148.082031 78.324219 145.960938 80.441406 145.960938 83.054688 C 145.960938 85.667969 148.082031 87.789062 150.695312 87.789062 C 153.308594 87.789062 155.425781 85.667969 155.425781 83.054688 C 155.425781 80.441406 153.308594 78.324219 150.695312 78.324219 Z M 150.695312 78.324219 " clip-rule="nonzero"/></clipPath><clipPath id="46df4d28cd"><path d="M 22.304688 174.816406 L 38.949219 174.816406 L 38.949219 191.460938 L 22.304688 191.460938 Z M 22.304688 174.816406 " clip-rule="nonzero"/></clipPath><clipPath id="36501690fc"><path d="M 30.625 174.816406 C 26.03125 174.816406 22.304688 178.542969 22.304688 183.140625 C 22.304688 187.734375 26.03125 191.460938 30.625 191.460938 C 35.222656 191.460938 38.949219 187.734375 38.949219 183.140625 C 38.949219 178.542969 35.222656 174.816406 30.625 174.816406 Z M 30.625 174.816406 " clip-rule="nonzero"/></clipPath><clipPath id="1928158e85"><path d="M 42.054688 176.535156 L 55.238281 176.535156 L 55.238281 189.722656 L 42.054688 189.722656 Z M 42.054688 176.535156 " clip-rule="nonzero"/></clipPath><clipPath id="ca4d7d42d9"><path d="M 42.054688 183.128906 C 42.054688 186.769531 45.003906 189.722656 48.648438 189.722656 C 52.289062 189.722656 55.238281 186.769531 55.238281 183.128906 C 55.238281 179.488281 52.289062 176.535156 48.648438 176.535156 C 45.003906 176.535156 42.054688 179.488281 42.054688 183.128906 Z M 42.054688 183.128906 " clip-rule="nonzero"/></clipPath><clipPath id="a2aecfaeb4"><path d="M 58.347656 178.402344 L 67.808594 178.402344 L 67.808594 187.867188 L 58.347656 187.867188 Z M 58.347656 178.402344 " clip-rule="nonzero"/></clipPath><clipPath id="b6d4cd27d8"><path d="M 58.347656 183.136719 C 58.347656 185.75 60.464844 187.867188 63.078125 187.867188 C 65.691406 187.867188 67.808594 185.75 67.808594 183.136719 C 67.808594 180.523438 65.691406 178.402344 63.078125 178.402344 C 60.464844 178.402344 58.347656 180.523438 58.347656 183.136719 Z M 58.347656 183.136719 " clip-rule="nonzero"/></clipPath><clipPath id="d4b7646284"><path d="M 70.917969 178.402344 L 80.378906 178.402344 L 80.378906 187.867188 L 70.917969 187.867188 Z M 70.917969 178.402344 " clip-rule="nonzero"/></clipPath><clipPath id="fb3b030a39"><path d="M 70.917969 183.136719 C 70.917969 185.75 73.035156 187.867188 75.648438 187.867188 C 78.261719 187.867188 80.378906 185.75 80.378906 183.136719 C 80.378906 180.523438 78.261719 178.402344 75.648438 178.402344 C 73.035156 178.402344 70.917969 180.523438 70.917969 183.136719 Z M 70.917969 183.136719 " clip-rule="nonzero"/></clipPath><clipPath id="be1d86270d"><path d="M 25.214844 193.460938 L 34.679688 193.460938 L 34.679688 202.925781 L 25.214844 202.925781 Z M 25.214844 193.460938 " clip-rule="nonzero"/></clipPath><clipPath id="5860316555"><path d="M 25.214844 198.191406 C 25.214844 200.804688 27.335938 202.925781 29.949219 202.925781 C 32.5625 202.925781 34.679688 200.804688 34.679688 198.191406 C 34.679688 195.578125 32.5625 193.460938 29.949219 193.460938 C 27.335938 193.460938 25.214844 195.578125 25.214844 198.191406 Z M 25.214844 198.191406 " clip-rule="nonzero"/></clipPath><clipPath id="dd618ad688"><path d="M 37.933594 193.460938 L 47.394531 193.460938 L 47.394531 202.925781 L 37.933594 202.925781 Z M 37.933594 193.460938 " clip-rule="nonzero"/></clipPath><clipPath id="6d0dc3bed4"><path d="M 37.933594 198.191406 C 37.933594 200.804688 40.050781 202.925781 42.664062 202.925781 C 45.277344 202.925781 47.394531 200.804688 47.394531 198.191406 C 47.394531 195.578125 45.277344 193.460938 42.664062 193.460938 C 40.050781 193.460938 37.933594 195.578125 37.933594 198.191406 Z M 37.933594 198.191406 " clip-rule="nonzero"/></clipPath><clipPath id="61cab0bb83"><path d="M 50.648438 193.460938 L 60.113281 193.460938 L 60.113281 202.925781 L 50.648438 202.925781 Z M 50.648438 193.460938 " clip-rule="nonzero"/></clipPath><clipPath id="69b1bfe2b0"><path d="M 50.648438 198.191406 C 50.648438 200.804688 52.769531 202.925781 55.382812 202.925781 C 57.996094 202.925781 60.113281 200.804688 60.113281 198.191406 C 60.113281 195.578125 57.996094 193.460938 55.382812 193.460938 C 52.769531 193.460938 50.648438 195.578125 50.648438 198.191406 Z M 50.648438 198.191406 " clip-rule="nonzero"/></clipPath><clipPath id="603b4a8972"><path d="M 63.367188 193.460938 L 72.828125 193.460938 L 72.828125 202.925781 L 63.367188 202.925781 Z M 63.367188 193.460938 " clip-rule="nonzero"/></clipPath><clipPath id="70e15c109b"><path d="M 63.367188 198.191406 C 63.367188 200.804688 65.484375 202.925781 68.097656 202.925781 C 70.710938 202.925781 72.828125 200.804688 72.828125 198.191406 C 72.828125 195.578125 70.710938 193.460938 68.097656 193.460938 C 65.484375 193.460938 63.367188 195.578125 63.367188 198.191406 Z M 63.367188 198.191406 " clip-rule="nonzero"/></clipPath></defs><g clip-path="url(#7857158a29)"><g clip-path="url(#02836cc19e)"><path fill="#ff651d" d="M 130.734375 179.570312 L 140.199219 179.570312 L 140.199219 189.035156 L 130.734375 189.035156 Z M 130.734375 179.570312 " fill-opacity="1" fill-rule="nonzero"/></g></g><g clip-path="url(#d61ae626b9)"><g clip-path="url(#6d831629f9)"><path fill="#ff651d" d="M 165.800781 176.476562 L 182.441406 176.476562 L 182.441406 193.117188 L 165.800781 193.117188 Z M 165.800781 176.476562 " fill-opacity="1" fill-rule="nonzero"/></g></g><g clip-path="url(#5152c8caa3)"><g clip-path="url(#ea7e2f82ba)"><path fill="#ff651d" d="M 154.28125 191.378906 L 167.46875 191.378906 L 167.46875 204.566406 L 154.28125 204.566406 Z M 154.28125 191.378906 " fill-opacity="1" fill-rule="nonzero"/></g></g><g clip-path="url(#c614e7245d)"><g clip-path="url(#09fbf7ac3c)"><path fill="#ff651d" d="M 142.972656 202.007812 L 156.160156 202.007812 L 156.160156 215.191406 L 142.972656 215.191406 Z M 142.972656 202.007812 " fill-opacity="1" fill-rule="nonzero"/></g></g><g clip-path="url(#1effe74b30)"><g clip-path="url(#aab5b1a3d8)"><path fill="#ff651d" d="M 165.800781 157.261719 L 182.441406 157.261719 L 182.441406 173.902344 L 165.800781 173.902344 Z M 165.800781 157.261719 " fill-opacity="1" fill-rule="nonzero"/></g></g><g clip-path="url(#1315a870cf)"><g clip-path="url(#3d7456bade)"><path fill="#ff651d" d="M 167.527344 140.738281 L 180.714844 140.738281 L 180.714844 153.921875 L 167.527344 153.921875 Z M 167.527344 140.738281 " fill-opacity="1" fill-rule="nonzero"/></g></g><g clip-path="url(#dabd376c79)"><g clip-path="url(#fa4f231bfb)"><path fill="#ff651d" d="M 167.527344 124.214844 L 180.714844 124.214844 L 180.714844 137.398438 L 167.527344 137.398438 Z M 167.527344 124.214844 " fill-opacity="1" fill-rule="nonzero"/></g></g><g clip-path="url(#913b248c2d)"><g clip-path="url(#5f642a07e7)"><path fill="#ff651d" d="M 169.390625 111.410156 L 178.855469 111.410156 L 178.855469 120.875 L 169.390625 120.875 Z M 169.390625 111.410156 " fill-opacity="1" fill-rule="nonzero"/></g></g><g clip-path="url(#f4ff70fe38)"><g clip-path="url(#fa8be565a7)"><path fill="#ff651d" d="M 165.800781 19.980469 L 182.441406 19.980469 L 182.441406 36.621094 L 165.800781 36.621094 Z M 165.800781 19.980469 " fill-opacity="1" fill-rule="nonzero"/></g></g><g clip-path="url(#040d49534f)"><g clip-path="url(#771fec0d37)"><path fill="#ff651d" d="M 165.800781 0 L 182.441406 0 L 182.441406 16.640625 L 165.800781 16.640625 Z M 165.800781 0 " fill-opacity="1" fill-rule="nonzero"/></g></g><g clip-path="url(#2c50757637)"><g clip-path="url(#ab96e829eb)"><path fill="#ff651d" d="M 167.527344 56.484375 L 180.714844 56.484375 L 180.714844 69.667969 L 167.527344 69.667969 Z M 167.527344 56.484375 " fill-opacity="1" fill-rule="nonzero"/></g></g><g clip-path="url(#5a40c16370)"><g clip-path="url(#a0b90f0caa)"><path fill="#ff651d" d="M 167.527344 39.960938 L 180.714844 39.960938 L 180.714844 53.144531 L 167.527344 53.144531 Z M 167.527344 39.960938 " fill-opacity="1" fill-rule="nonzero"/></g></g><g clip-path="url(#b8921dce30)"><g clip-path="url(#4048e9ce30)"><path fill="#ff651d" d="M 169.390625 98.609375 L 178.855469 98.609375 L 178.855469 108.074219 L 169.390625 108.074219 Z M 169.390625 98.609375 " fill-opacity="1" fill-rule="nonzero"/></g></g><g clip-path="url(#c6cae9c29b)"><g clip-path="url(#1313120ba4)"><path fill="#ff651d" d="M 169.390625 85.808594 L 178.855469 85.808594 L 178.855469 95.273438 L 169.390625 95.273438 Z M 169.390625 85.808594 " fill-opacity="1" fill-rule="nonzero"/></g></g><g clip-path="url(#4c36bcc839)"><g clip-path="url(#b1c0e9b448)"><path fill="#ff651d" d="M 169.390625 73.007812 L 178.855469 73.007812 L 178.855469 82.472656 L 169.390625 82.472656 Z M 169.390625 73.007812 " fill-opacity="1" fill-rule="nonzero"/></g></g><g clip-path="url(#297e17e0db)"><g clip-path="url(#7a7db885e9)"><path fill="#ff651d" d="M 142.765625 179.570312 L 152.230469 179.570312 L 152.230469 189.035156 L 142.765625 189.035156 Z M 142.765625 179.570312 " fill-opacity="1" fill-rule="nonzero"/></g></g><g clip-path="url(#8506fa9234)"><g clip-path="url(#be7ea2eccb)"><path fill="#ff651d" d="M 154.28125 179.570312 L 163.746094 179.570312 L 163.746094 189.035156 L 154.28125 189.035156 Z M 154.28125 179.570312 " fill-opacity="1" fill-rule="nonzero"/></g></g><g clip-path="url(#ff7e49bea3)"><g clip-path="url(#d06adad762)"><path fill="#ff651d" d="M 130.734375 190.539062 L 140.199219 190.539062 L 140.199219 200.003906 L 130.734375 200.003906 Z M 130.734375 190.539062 " fill-opacity="1" fill-rule="nonzero"/></g></g><g clip-path="url(#ded9979904)"><g clip-path="url(#4fd0eca27c)"><path fill="#ff651d" d="M 129.386719 213.28125 L 142.570312 213.28125 L 142.570312 226.464844 L 129.386719 226.464844 Z M 129.386719 213.28125 " fill-opacity="1" fill-rule="nonzero"/></g></g><g clip-path="url(#0d08d7ff9d)"><g clip-path="url(#8035356f42)"><path fill="#ff651d" d="M 130.734375 201.507812 L 140.199219 201.507812 L 140.199219 210.972656 L 130.734375 210.972656 Z M 130.734375 201.507812 " fill-opacity="1" fill-rule="nonzero"/></g></g><g clip-path="url(#1bce0443bb)"><g clip-path="url(#c2d7b77dcd)"><path fill="#ff651d" d="M 149.703125 1.726562 L 162.890625 1.726562 L 162.890625 14.914062 L 149.703125 14.914062 Z M 149.703125 1.726562 " fill-opacity="1" fill-rule="nonzero"/></g></g><g clip-path="url(#c64f6e531b)"><g clip-path="url(#488d113457)"><path fill="#ff651d" d="M 0.15625 0 L 16.800781 0 L 16.800781 16.640625 L 0.15625 16.640625 Z M 0.15625 0 " fill-opacity="1" fill-rule="nonzero"/></g></g><g clip-path="url(#717bca99bf)"><g clip-path="url(#a07e5a60db)"><path fill="#ff651d" d="M 146.78125 1.726562 L 146.78125 14.914062 L 133.59375 14.914062 L 133.59375 1.726562 Z M 146.78125 1.726562 " fill-opacity="1" fill-rule="nonzero"/></g></g><g clip-path="url(#1cfe204c63)"><g clip-path="url(#7c34bfd28f)"><path fill="#ff651d" d="M 130.683594 1.726562 L 130.683594 14.914062 L 117.496094 14.914062 L 117.496094 1.726562 Z M 130.683594 1.726562 " fill-opacity="1" fill-rule="nonzero"/></g></g><g clip-path="url(#2a6ecf3953)"><g clip-path="url(#8b0920bc93)"><path fill="#ff651d" d="M 114.59375 3.589844 L 114.59375 13.054688 L 105.128906 13.054688 L 105.128906 3.589844 Z M 114.59375 3.589844 " fill-opacity="1" fill-rule="nonzero"/></g></g><g clip-path="url(#df02aaaf9f)"><g clip-path="url(#12c955092d)"><path fill="#ff651d" d="M 65.082031 1.726562 L 65.082031 14.914062 L 51.894531 14.914062 L 51.894531 1.726562 Z M 65.082031 1.726562 " fill-opacity="1" fill-rule="nonzero"/></g></g><g clip-path="url(#bc117d1f69)"><g clip-path="url(#b5df54d1c8)"><path fill="#ff651d" d="M 48.984375 1.726562 L 48.984375 14.914062 L 35.796875 14.914062 L 35.796875 1.726562 Z M 48.984375 1.726562 " fill-opacity="1" fill-rule="nonzero"/></g></g><g clip-path="url(#1006592310)"><g clip-path="url(#7f3e01b693)"><path fill="#ff651d" d="M 102.21875 3.589844 L 102.21875 13.054688 L 92.753906 13.054688 L 92.753906 3.589844 Z M 102.21875 3.589844 " fill-opacity="1" fill-rule="nonzero"/></g></g><g clip-path="url(#76c89f7db4)"><g clip-path="url(#7e75a19231)"><path fill="#ff651d" d="M 89.839844 3.589844 L 89.839844 13.054688 L 80.378906 13.054688 L 80.378906 3.589844 Z M 89.839844 3.589844 " fill-opacity="1" fill-rule="nonzero"/></g></g><g clip-path="url(#e60b04b3c8)"><g clip-path="url(#a60f261ef2)"><path fill="#ff651d" d="M 77.464844 3.589844 L 77.464844 13.054688 L 68 13.054688 L 68 3.589844 Z M 77.464844 3.589844 " fill-opacity="1" fill-rule="nonzero"/></g></g><g clip-path="url(#178b233012)"><g clip-path="url(#f5a63c963b)"><path fill="#ff651d" d="M 32.886719 1.726562 L 32.886719 14.914062 L 19.699219 14.914062 L 19.699219 1.726562 Z M 32.886719 1.726562 " fill-opacity="1" fill-rule="nonzero"/></g></g><g clip-path="url(#5484ac25b3)"><g clip-path="url(#e7a785c595)"><path fill="#ff651d" d="M 0.15625 209.652344 L 16.800781 209.652344 L 16.800781 226.292969 L 0.15625 226.292969 Z M 0.15625 209.652344 " fill-opacity="1" fill-rule="nonzero"/></g></g><g clip-path="url(#6f8101b730)"><g clip-path="url(#5a656a1642)"><path fill="#ff651d" d="M 1.886719 193.117188 L 15.070312 193.117188 L 15.070312 206.304688 L 1.886719 206.304688 Z M 1.886719 193.117188 " fill-opacity="1" fill-rule="nonzero"/></g></g><g clip-path="url(#95becfffd7)"><g clip-path="url(#53456b92bd)"><path fill="#ff651d" d="M 1.886719 176.027344 L 15.070312 176.027344 L 15.070312 189.214844 L 1.886719 189.214844 Z M 1.886719 176.027344 " fill-opacity="1" fill-rule="nonzero"/></g></g><g clip-path="url(#c875b152c3)"><g clip-path="url(#c645f43719)"><path fill="#ff651d" d="M 3.746094 135.925781 L 13.210938 135.925781 L 13.210938 145.386719 L 3.746094 145.386719 Z M 3.746094 135.925781 " fill-opacity="1" fill-rule="nonzero"/></g></g><g clip-path="url(#d39b67b481)"><g clip-path="url(#f1026b8bd8)"><path fill="#ff651d" d="M 0.15625 41.09375 L 16.800781 41.09375 L 16.800781 57.734375 L 0.15625 57.734375 Z M 0.15625 41.09375 " fill-opacity="1" fill-rule="nonzero"/></g></g><g clip-path="url(#da58ef2dda)"><g clip-path="url(#141f9d29be)"><path fill="#ff651d" d="M 0.15625 20.546875 L 16.800781 20.546875 L 16.800781 37.1875 L 0.15625 37.1875 Z M 0.15625 20.546875 " fill-opacity="1" fill-rule="nonzero"/></g></g><g clip-path="url(#65bbb1baa5)"><g clip-path="url(#4d0da2bd7e)"><path fill="#ff651d" d="M 1.886719 78.730469 L 15.070312 78.730469 L 15.070312 91.914062 L 1.886719 91.914062 Z M 1.886719 78.730469 " fill-opacity="1" fill-rule="nonzero"/></g></g><g clip-path="url(#f8623566b4)"><g clip-path="url(#5112427742)"><path fill="#ff651d" d="M 1.886719 61.636719 L 15.070312 61.636719 L 15.070312 74.824219 L 1.886719 74.824219 Z M 1.886719 61.636719 " fill-opacity="1" fill-rule="nonzero"/></g></g><g clip-path="url(#45e7efbde0)"><g clip-path="url(#364e6a7451)"><path fill="#ff651d" d="M 3.746094 122.554688 L 13.210938 122.554688 L 13.210938 132.019531 L 3.746094 132.019531 Z M 3.746094 122.554688 " fill-opacity="1" fill-rule="nonzero"/></g></g><g clip-path="url(#65f68ddf48)"><g clip-path="url(#d2043a7c82)"><path fill="#ff651d" d="M 3.746094 109.1875 L 13.210938 109.1875 L 13.210938 118.652344 L 3.746094 118.652344 Z M 3.746094 109.1875 " fill-opacity="1" fill-rule="nonzero"/></g></g><g clip-path="url(#93f99444b0)"><g clip-path="url(#bb492a04be)"><path fill="#ff651d" d="M 3.746094 95.820312 L 13.210938 95.820312 L 13.210938 105.28125 L 3.746094 105.28125 Z M 3.746094 95.820312 " fill-opacity="1" fill-rule="nonzero"/></g></g><g clip-path="url(#0dd28c56e6)"><g clip-path="url(#a559c3a403)"><path fill="#ff651d" d="M 3.746094 162.660156 L 13.210938 162.660156 L 13.210938 172.125 L 3.746094 172.125 Z M 3.746094 162.660156 " fill-opacity="1" fill-rule="nonzero"/></g></g><g clip-path="url(#0af5c477be)"><g clip-path="url(#f4d257a2c6)"><path fill="#ff651d" d="M 3.746094 149.292969 L 13.210938 149.292969 L 13.210938 158.757812 L 3.746094 158.757812 Z M 3.746094 149.292969 " fill-opacity="1" fill-rule="nonzero"/></g></g><g clip-path="url(#00ce3f8a07)"><g clip-path="url(#429c2c7491)"><path fill="#ff651d" d="M 59.925781 225.953125 L 59.925781 212.765625 L 73.113281 212.765625 L 73.113281 225.953125 Z M 59.925781 225.953125 " fill-opacity="1" fill-rule="nonzero"/></g></g><g clip-path="url(#1e959b97a5)"><g clip-path="url(#7ebd56dcb4)"><path fill="#ff651d" d="M 20.484375 224.097656 L 20.484375 214.632812 L 29.949219 214.632812 L 29.949219 224.097656 Z M 20.484375 224.097656 " fill-opacity="1" fill-rule="nonzero"/></g></g><g clip-path="url(#65133ec326)"><g clip-path="url(#8b0a0309f8)"><path fill="#ff651d" d="M 33.628906 224.097656 L 33.628906 214.632812 L 43.09375 214.632812 L 43.09375 224.097656 Z M 33.628906 224.097656 " fill-opacity="1" fill-rule="nonzero"/></g></g><g clip-path="url(#f833098f5f)"><g clip-path="url(#8235b44019)"><path fill="#ff651d" d="M 46.777344 224.097656 L 46.777344 214.632812 L 56.242188 214.632812 L 56.242188 224.097656 Z M 46.777344 224.097656 " fill-opacity="1" fill-rule="nonzero"/></g></g><g clip-path="url(#106092aec2)"><g clip-path="url(#15607cfde0)"><path fill="#ff651d" d="M 76.796875 224.097656 L 76.796875 214.632812 L 86.257812 214.632812 L 86.257812 224.097656 Z M 76.796875 224.097656 " fill-opacity="1" fill-rule="nonzero"/></g></g><g clip-path="url(#e14da9756a)"><g clip-path="url(#aa2f1c1bb2)"><path fill="#ff651d" d="M 89.941406 224.097656 L 89.941406 214.632812 L 99.40625 214.632812 L 99.40625 224.097656 Z M 89.941406 224.097656 " fill-opacity="1" fill-rule="nonzero"/></g></g><g clip-path="url(#b05bdf5040)"><g clip-path="url(#13cb036bfa)"><path fill="#ff651d" d="M 103.089844 224.097656 L 103.089844 214.632812 L 112.554688 214.632812 L 112.554688 224.097656 Z M 103.089844 224.097656 " fill-opacity="1" fill-rule="nonzero"/></g></g><g clip-path="url(#5238057090)"><g clip-path="url(#65b102704c)"><path fill="#ff651d" d="M 116.238281 224.097656 L 116.238281 214.632812 L 125.703125 214.632812 L 125.703125 224.097656 Z M 116.238281 224.097656 " fill-opacity="1" fill-rule="nonzero"/></g></g><g clip-path="url(#33bb7a0d60)"><g clip-path="url(#7c66e0ce46)"><path fill="#ff651d" d="M 25.894531 130.054688 L 35.359375 130.054688 L 35.359375 139.519531 L 25.894531 139.519531 Z M 25.894531 130.054688 " fill-opacity="1" fill-rule="nonzero"/></g></g><g clip-path="url(#10ff4d8631)"><g clip-path="url(#2f3675ad00)"><path fill="#ff651d" d="M 25.894531 117.09375 L 35.359375 117.09375 L 35.359375 126.558594 L 25.894531 126.558594 Z M 25.894531 117.09375 " fill-opacity="1" fill-rule="nonzero"/></g></g><g clip-path="url(#865960073d)"><g clip-path="url(#1615703c91)"><path fill="#ff651d" d="M 25.894531 104.132812 L 35.359375 104.132812 L 35.359375 113.597656 L 25.894531 113.597656 Z M 25.894531 104.132812 " fill-opacity="1" fill-rule="nonzero"/></g></g><g clip-path="url(#776712611a)"><g clip-path="url(#ed7cee8097)"><path fill="#ff651d" d="M 25.894531 91.171875 L 35.359375 91.171875 L 35.359375 100.636719 L 25.894531 100.636719 Z M 25.894531 91.171875 " fill-opacity="1" fill-rule="nonzero"/></g></g><g clip-path="url(#82703bd1d6)"><g clip-path="url(#5c17cdae3c)"><path fill="#ff651d" d="M 25.894531 155.976562 L 35.359375 155.976562 L 35.359375 165.441406 L 25.894531 165.441406 Z M 25.894531 155.976562 " fill-opacity="1" fill-rule="nonzero"/></g></g><g clip-path="url(#ad651db86c)"><g clip-path="url(#4b137baa27)"><path fill="#ff651d" d="M 25.894531 143.015625 L 35.359375 143.015625 L 35.359375 152.480469 L 25.894531 152.480469 Z M 25.894531 143.015625 " fill-opacity="1" fill-rule="nonzero"/></g></g><g clip-path="url(#0341fda49b)"><g clip-path="url(#0c121a37ca)"><path fill="#ff651d" d="M 24.035156 74.488281 L 37.21875 74.488281 L 37.21875 87.675781 L 24.035156 87.675781 Z M 24.035156 74.488281 " fill-opacity="1" fill-rule="nonzero"/></g></g><g clip-path="url(#d0ce931192)"><g clip-path="url(#32be56218a)"><path fill="#ff651d" d="M 24.035156 57.804688 L 37.21875 57.804688 L 37.21875 70.992188 L 24.035156 70.992188 Z M 24.035156 57.804688 " fill-opacity="1" fill-rule="nonzero"/></g></g><g clip-path="url(#f0d3650b7e)"><g clip-path="url(#dcb1adfd83)"><path fill="#ff651d" d="M 22.304688 20.984375 L 38.949219 20.984375 L 38.949219 37.625 L 22.304688 37.625 Z M 22.304688 20.984375 " fill-opacity="1" fill-rule="nonzero"/></g></g><g clip-path="url(#19dc05d1e6)"><g clip-path="url(#431294b634)"><path fill="#ff651d" d="M 24.035156 41.121094 L 37.21875 41.121094 L 37.21875 54.308594 L 24.035156 54.308594 Z M 24.035156 41.121094 " fill-opacity="1" fill-rule="nonzero"/></g></g><g clip-path="url(#b10caf8496)"><g clip-path="url(#0f2fd2a567)"><path fill="#ff651d" d="M 145.960938 130.675781 L 155.425781 130.675781 L 155.425781 140.140625 L 145.960938 140.140625 Z M 145.960938 130.675781 " fill-opacity="1" fill-rule="nonzero"/></g></g><g clip-path="url(#7cda447f04)"><g clip-path="url(#780b28485b)"><path fill="#ff651d" d="M 145.960938 117.585938 L 155.425781 117.585938 L 155.425781 127.050781 L 145.960938 127.050781 Z M 145.960938 117.585938 " fill-opacity="1" fill-rule="nonzero"/></g></g><g clip-path="url(#38a021163a)"><g clip-path="url(#de3e4511cd)"><path fill="#ff651d" d="M 145.960938 104.5 L 155.425781 104.5 L 155.425781 113.964844 L 145.960938 113.964844 Z M 145.960938 104.5 " fill-opacity="1" fill-rule="nonzero"/></g></g><g clip-path="url(#9a0b723502)"><g clip-path="url(#84f93b2639)"><path fill="#ff651d" d="M 145.960938 91.410156 L 155.425781 91.410156 L 155.425781 100.875 L 145.960938 100.875 Z M 145.960938 91.410156 " fill-opacity="1" fill-rule="nonzero"/></g></g><g clip-path="url(#e86cf13fb9)"><g clip-path="url(#3bf19128fe)"><path fill="#ff651d" d="M 145.960938 156.851562 L 155.425781 156.851562 L 155.425781 166.3125 L 145.960938 166.3125 Z M 145.960938 156.851562 " fill-opacity="1" fill-rule="nonzero"/></g></g><g clip-path="url(#990fb420cb)"><g clip-path="url(#40388ddeaf)"><path fill="#ff651d" d="M 145.960938 143.761719 L 155.425781 143.761719 L 155.425781 153.226562 L 145.960938 153.226562 Z M 145.960938 143.761719 " fill-opacity="1" fill-rule="nonzero"/></g></g><g clip-path="url(#11a9aa8236)"><g clip-path="url(#cb0fbbfc2f)"><path fill="#ff651d" d="M 144.101562 61.515625 L 157.285156 61.515625 L 157.285156 74.699219 L 144.101562 74.699219 Z M 144.101562 61.515625 " fill-opacity="1" fill-rule="nonzero"/></g></g><g clip-path="url(#b233582272)"><g clip-path="url(#eafad252c2)"><path fill="#ff651d" d="M 142.371094 20.984375 L 159.015625 20.984375 L 159.015625 37.625 L 142.371094 37.625 Z M 142.371094 20.984375 " fill-opacity="1" fill-rule="nonzero"/></g></g><g clip-path="url(#ca6f1f588a)"><g clip-path="url(#b2b4cf9370)"><path fill="#ff651d" d="M 112.285156 22.710938 L 112.285156 35.898438 L 99.097656 35.898438 L 99.097656 22.710938 Z M 112.285156 22.710938 " fill-opacity="1" fill-rule="nonzero"/></g></g><g clip-path="url(#4c171645b6)"><g clip-path="url(#bef2bec4e4)"><path fill="#ff651d" d="M 125.472656 24.570312 L 125.472656 34.035156 L 116.007812 34.035156 L 116.007812 24.570312 Z M 125.472656 24.570312 " fill-opacity="1" fill-rule="nonzero"/></g></g><g clip-path="url(#a6bce24dc8)"><g clip-path="url(#8770522181)"><path fill="#ff651d" d="M 55.839844 22.710938 L 55.839844 35.898438 L 42.652344 35.898438 L 42.652344 22.710938 Z M 55.839844 22.710938 " fill-opacity="1" fill-rule="nonzero"/></g></g><g clip-path="url(#04ee9a93ba)"><g clip-path="url(#f210f68f9c)"><path fill="#ff651d" d="M 95.390625 24.570312 L 95.390625 34.035156 L 85.925781 34.035156 L 85.925781 24.570312 Z M 95.390625 24.570312 " fill-opacity="1" fill-rule="nonzero"/></g></g><g clip-path="url(#b79b87bd01)"><g clip-path="url(#78f0aac66d)"><path fill="#ff651d" d="M 82.207031 24.570312 L 82.207031 34.035156 L 72.746094 34.035156 L 72.746094 24.570312 Z M 82.207031 24.570312 " fill-opacity="1" fill-rule="nonzero"/></g></g><g clip-path="url(#b128cfa83a)"><g clip-path="url(#9615561478)"><path fill="#ff651d" d="M 69.027344 24.570312 L 69.027344 34.035156 L 59.5625 34.035156 L 59.5625 24.570312 Z M 69.027344 24.570312 " fill-opacity="1" fill-rule="nonzero"/></g></g><g clip-path="url(#afb442747b)"><g clip-path="url(#d4544632d8)"><path fill="#ff651d" d="M 138.652344 24.570312 L 138.652344 34.035156 L 129.1875 34.035156 L 129.1875 24.570312 Z M 138.652344 24.570312 " fill-opacity="1" fill-rule="nonzero"/></g></g><g clip-path="url(#712f635d56)"><g clip-path="url(#ab59dd7aae)"><path fill="#ff651d" d="M 87.023438 53.308594 L 87.023438 43.84375 L 96.488281 43.84375 L 96.488281 53.308594 Z M 87.023438 53.308594 " fill-opacity="1" fill-rule="nonzero"/></g></g><g clip-path="url(#0fe739309f)"><g clip-path="url(#418f9b976b)"><path fill="#ff651d" d="M 73.136719 53.308594 L 73.136719 43.84375 L 82.601562 43.84375 L 82.601562 53.308594 Z M 73.136719 53.308594 " fill-opacity="1" fill-rule="nonzero"/></g></g><g clip-path="url(#e91e8a85ed)"><g clip-path="url(#71c465ab9b)"><path fill="#ff651d" d="M 59.25 53.308594 L 59.25 43.84375 L 68.714844 43.84375 L 68.714844 53.308594 Z M 59.25 53.308594 " fill-opacity="1" fill-rule="nonzero"/></g></g><g clip-path="url(#a28336f284)"><g clip-path="url(#3804cc5088)"><path fill="#ff651d" d="M 41.640625 54.296875 L 41.640625 41.109375 L 54.828125 41.109375 L 54.828125 54.296875 Z M 41.640625 54.296875 " fill-opacity="1" fill-rule="nonzero"/></g></g><g clip-path="url(#061a10b4c3)"><g clip-path="url(#35711ee306)"><path fill="#ff651d" d="M 138.144531 43.847656 L 138.144531 53.3125 L 128.679688 53.3125 L 128.679688 43.847656 Z M 138.144531 43.847656 " fill-opacity="1" fill-rule="nonzero"/></g></g><g clip-path="url(#74710571cf)"><g clip-path="url(#bc291983db)"><path fill="#ff651d" d="M 124.257812 43.847656 L 124.257812 53.3125 L 114.792969 53.3125 L 114.792969 43.847656 Z M 124.257812 43.847656 " fill-opacity="1" fill-rule="nonzero"/></g></g><g clip-path="url(#b32de73639)"><g clip-path="url(#37d5f4388f)"><path fill="#ff651d" d="M 110.371094 43.847656 L 110.371094 53.3125 L 100.90625 53.3125 L 100.90625 43.847656 Z M 110.371094 43.847656 " fill-opacity="1" fill-rule="nonzero"/></g></g><g clip-path="url(#131a160430)"><g clip-path="url(#75beb7ce19)"><path fill="#ff651d" d="M 142.570312 40.257812 L 159.214844 40.257812 L 159.214844 56.898438 L 142.570312 56.898438 Z M 142.570312 40.257812 " fill-opacity="1" fill-rule="nonzero"/></g></g><g clip-path="url(#876494bd2b)"><g clip-path="url(#344f85014c)"><path fill="#ff651d" d="M 145.960938 78.324219 L 155.425781 78.324219 L 155.425781 87.789062 L 145.960938 87.789062 Z M 145.960938 78.324219 " fill-opacity="1" fill-rule="nonzero"/></g></g><g clip-path="url(#46df4d28cd)"><g clip-path="url(#36501690fc)"><path fill="#ff651d" d="M 22.304688 174.816406 L 38.949219 174.816406 L 38.949219 191.460938 L 22.304688 191.460938 Z M 22.304688 174.816406 " fill-opacity="1" fill-rule="nonzero"/></g></g><g clip-path="url(#1928158e85)"><g clip-path="url(#ca4d7d42d9)"><path fill="#ff651d" d="M 42.054688 189.722656 L 42.054688 176.535156 L 55.238281 176.535156 L 55.238281 189.722656 Z M 42.054688 189.722656 " fill-opacity="1" fill-rule="nonzero"/></g></g><g clip-path="url(#a2aecfaeb4)"><g clip-path="url(#b6d4cd27d8)"><path fill="#ff651d" d="M 58.347656 187.867188 L 58.347656 178.402344 L 67.808594 178.402344 L 67.808594 187.867188 Z M 58.347656 187.867188 " fill-opacity="1" fill-rule="nonzero"/></g></g><g clip-path="url(#d4b7646284)"><g clip-path="url(#fb3b030a39)"><path fill="#ff651d" d="M 70.917969 187.867188 L 70.917969 178.402344 L 80.378906 178.402344 L 80.378906 187.867188 Z M 70.917969 187.867188 " fill-opacity="1" fill-rule="nonzero"/></g></g><g clip-path="url(#be1d86270d)"><g clip-path="url(#5860316555)"><path fill="#ff651d" d="M 25.214844 202.925781 L 25.214844 193.460938 L 34.679688 193.460938 L 34.679688 202.925781 Z M 25.214844 202.925781 " fill-opacity="1" fill-rule="nonzero"/></g></g><g clip-path="url(#dd618ad688)"><g clip-path="url(#6d0dc3bed4)"><path fill="#ff651d" d="M 37.933594 202.925781 L 37.933594 193.460938 L 47.394531 193.460938 L 47.394531 202.925781 Z M 37.933594 202.925781 " fill-opacity="1" fill-rule="nonzero"/></g></g><g clip-path="url(#61cab0bb83)"><g clip-path="url(#69b1bfe2b0)"><path fill="#ff651d" d="M 50.648438 202.925781 L 50.648438 193.460938 L 60.113281 193.460938 L 60.113281 202.925781 Z M 50.648438 202.925781 " fill-opacity="1" fill-rule="nonzero"/></g></g><g clip-path="url(#603b4a8972)"><g clip-path="url(#70e15c109b)"><path fill="#ff651d" d="M 63.367188 202.925781 L 63.367188 193.460938 L 72.828125 193.460938 L 72.828125 202.925781 Z M 63.367188 202.925781 " fill-opacity="1" fill-rule="nonzero"/></g></g></svg>