<svg width="263" height="261" viewBox="0 0 263 261" fill="none" xmlns="http://www.w3.org/2000/svg">
<g clip-path="url(#clip0_5662_1715)">
<path d="M180.419 189.525C186.373 189.525 191.2 184.698 191.2 178.744C191.2 172.79 186.373 167.963 180.419 167.963C174.465 167.963 169.639 172.79 169.639 178.744C169.639 184.698 174.465 189.525 180.419 189.525Z" fill="#FF651D"/>
<path d="M180.419 165.86C186.373 165.86 191.2 161.033 191.2 155.079C191.2 149.125 186.373 144.298 180.419 144.298C174.465 144.298 169.639 149.125 169.639 155.079C169.639 161.033 174.465 165.86 180.419 165.86Z" fill="#FF651D"/>
<path d="M180.419 142.195C186.373 142.195 191.2 137.368 191.2 131.414C191.2 125.46 186.373 120.633 180.419 120.633C174.465 120.633 169.639 125.46 169.639 131.414C169.639 137.368 174.465 142.195 180.419 142.195Z" fill="#FF651D"/>
<path d="M180.419 118.53C186.373 118.53 191.2 113.703 191.2 107.749C191.2 101.795 186.373 96.9683 180.419 96.9683C174.465 96.9683 169.639 101.795 169.639 107.749C169.639 113.703 174.465 118.53 180.419 118.53Z" fill="#FF651D"/>
<path d="M204.084 184.135C207.061 184.135 209.474 181.721 209.474 178.744C209.474 175.767 207.061 173.354 204.084 173.354C201.107 173.354 198.693 175.767 198.693 178.744C198.693 181.721 201.107 184.135 204.084 184.135Z" fill="#FF651D"/>
<path d="M204.084 160.47C207.061 160.47 209.474 158.056 209.474 155.079C209.474 152.102 207.061 149.689 204.084 149.689C201.107 149.689 198.693 152.102 198.693 155.079C198.693 158.056 201.107 160.47 204.084 160.47Z" fill="#FF651D"/>
<path d="M204.084 136.805C207.061 136.805 209.474 134.391 209.474 131.414C209.474 128.437 207.061 126.024 204.084 126.024C201.107 126.024 198.693 128.437 198.693 131.414C198.693 134.391 201.107 136.805 204.084 136.805Z" fill="#FF651D"/>
<path d="M204.084 113.139C207.061 113.139 209.474 110.725 209.474 107.748C209.474 104.771 207.061 102.358 204.084 102.358C201.107 102.358 198.693 104.771 198.693 107.748C198.693 110.725 201.107 113.139 204.084 113.139Z" fill="#FF651D"/>
<path d="M227.749 186.842C232.222 186.842 235.848 183.217 235.848 178.744C235.848 174.271 232.222 170.645 227.749 170.645C223.276 170.645 219.65 174.271 219.65 178.744C219.65 183.217 223.276 186.842 227.749 186.842Z" fill="#FF651D"/>
<path d="M227.749 163.177C232.222 163.177 235.848 159.551 235.848 155.079C235.848 150.606 232.222 146.98 227.749 146.98C223.276 146.98 219.65 150.606 219.65 155.079C219.65 159.551 223.276 163.177 227.749 163.177Z" fill="#FF651D"/>
<path d="M227.749 139.512C232.222 139.512 235.848 135.886 235.848 131.414C235.848 126.941 232.222 123.315 227.749 123.315C223.276 123.315 219.65 126.941 219.65 131.414C219.65 135.886 223.276 139.512 227.749 139.512Z" fill="#FF651D"/>
<path d="M227.749 115.847C232.222 115.847 235.848 112.221 235.848 107.749C235.848 103.276 232.222 99.6499 227.749 99.6499C223.276 99.6499 219.65 103.276 219.65 107.749C219.65 112.221 223.276 115.847 227.749 115.847Z" fill="#FF651D"/>
<path d="M251.414 186.842C255.887 186.842 259.513 183.217 259.513 178.744C259.513 174.271 255.887 170.645 251.414 170.645C246.941 170.645 243.315 174.271 243.315 178.744C243.315 183.217 246.941 186.842 251.414 186.842Z" fill="#FF651D"/>
<path d="M251.414 165.86C257.368 165.86 262.194 161.033 262.194 155.079C262.194 149.125 257.368 144.298 251.414 144.298C245.46 144.298 240.633 149.125 240.633 155.079C240.633 161.033 245.46 165.86 251.414 165.86Z" fill="#FF651D"/>
<path d="M251.414 142.194C257.368 142.194 262.194 137.368 262.194 131.414C262.194 125.46 257.368 120.633 251.414 120.633C245.46 120.633 240.633 125.46 240.633 131.414C240.633 137.368 245.46 142.194 251.414 142.194Z" fill="#FF651D"/>
<path d="M251.414 118.529C257.368 118.529 262.194 113.703 262.194 107.749C262.194 101.794 257.368 96.9678 251.414 96.9678C245.46 96.9678 240.633 101.794 240.633 107.749C240.633 113.703 245.46 118.529 251.414 118.529Z" fill="#FF651D"/>
<path d="M83.9175 189.524C89.8715 189.524 94.6982 184.698 94.6982 178.744C94.6982 172.79 89.8715 167.963 83.9175 167.963C77.9634 167.963 73.1367 172.79 73.1367 178.744C73.1367 184.698 77.9634 189.524 83.9175 189.524Z" fill="#FF651D"/>
<path d="M83.9175 165.86C89.8715 165.86 94.6982 161.033 94.6982 155.079C94.6982 149.125 89.8715 144.298 83.9175 144.298C77.9634 144.298 73.1367 149.125 73.1367 155.079C73.1367 161.033 77.9634 165.86 83.9175 165.86Z" fill="#FF651D"/>
<path d="M83.9175 142.194C89.8715 142.194 94.6982 137.368 94.6982 131.414C94.6982 125.46 89.8715 120.633 83.9175 120.633C77.9634 120.633 73.1367 125.46 73.1367 131.414C73.1367 137.368 77.9634 142.194 83.9175 142.194Z" fill="#FF651D"/>
<path d="M83.9175 118.529C89.8715 118.529 94.6982 113.703 94.6982 107.749C94.6982 101.794 89.8715 96.9678 83.9175 96.9678C77.9634 96.9678 73.1367 101.794 73.1367 107.749C73.1367 113.703 77.9634 118.529 83.9175 118.529Z" fill="#FF651D"/>
<path d="M107.582 189.524C113.536 189.524 118.363 184.698 118.363 178.744C118.363 172.79 113.536 167.963 107.582 167.963C101.628 167.963 96.8013 172.79 96.8013 178.744C96.8013 184.698 101.628 189.524 107.582 189.524Z" fill="#FF651D"/>
<path d="M107.583 165.86C113.537 165.86 118.363 161.033 118.363 155.079C118.363 149.125 113.537 144.298 107.583 144.298C101.628 144.298 96.8018 149.125 96.8018 155.079C96.8018 161.033 101.628 165.86 107.583 165.86Z" fill="#FF651D"/>
<path d="M107.582 142.194C113.536 142.194 118.363 137.368 118.363 131.414C118.363 125.46 113.536 120.633 107.582 120.633C101.628 120.633 96.8013 125.46 96.8013 131.414C96.8013 137.368 101.628 142.194 107.582 142.194Z" fill="#FF651D"/>
<path d="M107.582 118.529C113.536 118.529 118.363 113.703 118.363 107.749C118.363 101.794 113.536 96.9678 107.582 96.9678C101.628 96.9678 96.8013 101.794 96.8013 107.749C96.8013 113.703 101.628 118.529 107.582 118.529Z" fill="#FF651D"/>
<path d="M131.249 189.525C137.203 189.525 142.029 184.698 142.029 178.744C142.029 172.79 137.203 167.963 131.249 167.963C125.294 167.963 120.468 172.79 120.468 178.744C120.468 184.698 125.294 189.525 131.249 189.525Z" fill="#FF651D"/>
<path d="M131.249 165.86C137.203 165.86 142.029 161.033 142.029 155.079C142.029 149.125 137.203 144.298 131.249 144.298C125.294 144.298 120.468 149.125 120.468 155.079C120.468 161.033 125.294 165.86 131.249 165.86Z" fill="#FF651D"/>
<path d="M131.249 142.195C137.203 142.195 142.029 137.368 142.029 131.414C142.029 125.46 137.203 120.633 131.249 120.633C125.294 120.633 120.468 125.46 120.468 131.414C120.468 137.368 125.294 142.195 131.249 142.195Z" fill="#FF651D"/>
<path d="M131.249 118.53C137.203 118.53 142.029 113.703 142.029 107.749C142.029 101.795 137.203 96.9683 131.249 96.9683C125.294 96.9683 120.468 101.795 120.468 107.749C120.468 113.703 125.294 118.53 131.249 118.53Z" fill="#FF651D"/>
<path d="M154.912 189.524C160.866 189.524 165.693 184.698 165.693 178.744C165.693 172.79 160.866 167.963 154.912 167.963C148.958 167.963 144.131 172.79 144.131 178.744C144.131 184.698 148.958 189.524 154.912 189.524Z" fill="#FF651D"/>
<path d="M154.913 165.86C160.867 165.86 165.693 161.033 165.693 155.079C165.693 149.125 160.867 144.298 154.913 144.298C148.959 144.298 144.132 149.125 144.132 155.079C144.132 161.033 148.959 165.86 154.913 165.86Z" fill="#FF651D"/>
<path d="M154.912 142.194C160.866 142.194 165.693 137.368 165.693 131.414C165.693 125.46 160.866 120.633 154.912 120.633C148.958 120.633 144.131 125.46 144.131 131.414C144.131 137.368 148.958 142.194 154.912 142.194Z" fill="#FF651D"/>
<path d="M154.912 118.529C160.866 118.529 165.693 113.703 165.693 107.749C165.693 101.794 160.866 96.9678 154.912 96.9678C148.958 96.9678 144.131 101.794 144.131 107.749C144.131 113.703 148.958 118.529 154.912 118.529Z" fill="#FF651D"/>
<path d="M180.419 93.103C186.373 93.103 191.2 88.2763 191.2 82.3222C191.2 76.3682 186.373 71.5415 180.419 71.5415C174.465 71.5415 169.639 76.3682 169.639 82.3222C169.639 88.2763 174.465 93.103 180.419 93.103Z" fill="#FF651D"/>
<path d="M180.419 64.0469C183.396 64.0469 185.809 61.6335 185.809 58.6565C185.809 55.6795 183.396 53.2661 180.419 53.2661C177.442 53.2661 175.028 55.6795 175.028 58.6565C175.028 61.6335 177.442 64.0469 180.419 64.0469Z" fill="#FF651D"/>
<path d="M180.419 43.0905C184.892 43.0905 188.518 39.4646 188.518 34.9918C188.518 30.519 184.892 26.8931 180.419 26.8931C175.946 26.8931 172.32 30.519 172.32 34.9918C172.32 39.4646 175.946 43.0905 180.419 43.0905Z" fill="#FF651D"/>
<path d="M180.419 22.1079C186.373 22.1079 191.2 17.2812 191.2 11.3271C191.2 5.37309 186.373 0.546387 180.419 0.546387C174.465 0.546387 169.639 5.37309 169.639 11.3271C169.639 17.2812 174.465 22.1079 180.419 22.1079Z" fill="#FF651D"/>
<path d="M204.084 87.7119C207.061 87.7119 209.474 85.2985 209.474 82.3215C209.474 79.3445 207.061 76.9312 204.084 76.9312C201.107 76.9312 198.693 79.3445 198.693 82.3215C198.693 85.2985 201.107 87.7119 204.084 87.7119Z" fill="#FF651D"/>
<path d="M204.084 64.0469C207.061 64.0469 209.474 61.6335 209.474 58.6565C209.474 55.6795 207.061 53.2661 204.084 53.2661C201.107 53.2661 198.693 55.6795 198.693 58.6565C198.693 61.6335 201.107 64.0469 204.084 64.0469Z" fill="#FF651D"/>
<path d="M204.083 45.7724C210.038 45.7724 214.864 40.9457 214.864 34.9917C214.864 29.0376 210.038 24.2109 204.083 24.2109C198.129 24.2109 193.303 29.0376 193.303 34.9917C193.303 40.9457 198.129 45.7724 204.083 45.7724Z" fill="#FF651D"/>
<path d="M204.083 22.1074C210.038 22.1074 214.864 17.2807 214.864 11.3266C214.864 5.3726 210.038 0.545898 204.083 0.545898C198.129 0.545898 193.303 5.3726 193.303 11.3266C193.303 17.2807 198.129 22.1074 204.083 22.1074Z" fill="#FF651D"/>
<path d="M227.749 90.4206C232.222 90.4206 235.848 86.7946 235.848 82.3218C235.848 77.8491 232.222 74.2231 227.749 74.2231C223.276 74.2231 219.65 77.8491 219.65 82.3218C219.65 86.7946 223.276 90.4206 227.749 90.4206Z" fill="#FF651D"/>
<path d="M227.749 69.4379C233.704 69.4379 238.53 64.6112 238.53 58.6572C238.53 52.7032 233.704 47.8765 227.749 47.8765C221.795 47.8765 216.969 52.7032 216.969 58.6572C216.969 64.6112 221.795 69.4379 227.749 69.4379Z" fill="#FF651D"/>
<path d="M227.749 45.7729C233.704 45.7729 238.53 40.9462 238.53 34.9922C238.53 29.0381 233.704 24.2114 227.749 24.2114C221.795 24.2114 216.969 29.0381 216.969 34.9922C216.969 40.9462 221.795 45.7729 227.749 45.7729Z" fill="#FF651D"/>
<path d="M227.749 22.1079C233.704 22.1079 238.53 17.2812 238.53 11.3271C238.53 5.37309 233.704 0.546387 227.749 0.546387C221.795 0.546387 216.969 5.37309 216.969 11.3271C216.969 17.2812 221.795 22.1079 227.749 22.1079Z" fill="#FF651D"/>
<path d="M251.414 93.1025C257.368 93.1025 262.194 88.2758 262.194 82.3218C262.194 76.3677 257.368 71.541 251.414 71.541C245.46 71.541 240.633 76.3677 240.633 82.3218C240.633 88.2758 245.46 93.1025 251.414 93.1025Z" fill="#FF651D"/>
<path d="M251.414 69.4375C257.368 69.4375 262.194 64.6108 262.194 58.6567C262.194 52.7027 257.368 47.876 251.414 47.876C245.46 47.876 240.633 52.7027 240.633 58.6567C240.633 64.6108 245.46 69.4375 251.414 69.4375Z" fill="#FF651D"/>
<path d="M251.414 45.7724C257.368 45.7724 262.194 40.9457 262.194 34.9917C262.194 29.0376 257.368 24.2109 251.414 24.2109C245.46 24.2109 240.633 29.0376 240.633 34.9917C240.633 40.9457 245.46 45.7724 251.414 45.7724Z" fill="#FF651D"/>
<path d="M251.414 22.1074C257.368 22.1074 262.194 17.2807 262.194 11.3266C262.194 5.3726 257.368 0.545898 251.414 0.545898C245.46 0.545898 240.633 5.3726 240.633 11.3266C240.633 17.2807 245.46 22.1074 251.414 22.1074Z" fill="#FF651D"/>
<path d="M154.912 93.1025C160.866 93.1025 165.693 88.2758 165.693 82.3218C165.693 76.3677 160.866 71.541 154.912 71.541C148.958 71.541 144.131 76.3677 144.131 82.3218C144.131 88.2758 148.958 93.1025 154.912 93.1025Z" fill="#FF651D"/>
<path d="M154.913 64.0469C157.89 64.0469 160.303 61.6335 160.303 58.6565C160.303 55.6795 157.89 53.2661 154.913 53.2661C151.936 53.2661 149.522 55.6795 149.522 58.6565C149.522 61.6335 151.936 64.0469 154.913 64.0469Z" fill="#FF651D"/>
<path d="M154.912 43.0905C159.385 43.0905 163.011 39.4646 163.011 34.9918C163.011 30.519 159.385 26.8931 154.912 26.8931C150.439 26.8931 146.813 30.519 146.813 34.9918C146.813 39.4646 150.439 43.0905 154.912 43.0905Z" fill="#FF651D"/>
<path d="M154.912 22.1074C160.866 22.1074 165.693 17.2807 165.693 11.3266C165.693 5.3726 160.866 0.545898 154.912 0.545898C148.958 0.545898 144.131 5.3726 144.131 11.3266C144.131 17.2807 148.958 22.1074 154.912 22.1074Z" fill="#FF651D"/>
<path d="M82.3403 92.9975C88.2943 92.9975 93.1211 88.1708 93.1211 82.2168C93.1211 76.2627 88.2943 71.436 82.3403 71.436C76.3863 71.436 71.5596 76.2627 71.5596 82.2168C71.5596 88.1708 76.3863 92.9975 82.3403 92.9975Z" fill="#FF651D"/>
<path d="M82.3406 63.9419C85.3176 63.9419 87.7309 61.5285 87.7309 58.5515C87.7309 55.5745 85.3176 53.1611 82.3406 53.1611C79.3635 53.1611 76.9502 55.5745 76.9502 58.5515C76.9502 61.5285 79.3635 63.9419 82.3406 63.9419Z" fill="#FF651D"/>
<path d="M82.3399 42.985C86.8127 42.985 90.4386 39.3591 90.4386 34.8863C90.4386 30.4135 86.8127 26.7876 82.3399 26.7876C77.8671 26.7876 74.2412 30.4135 74.2412 34.8863C74.2412 39.3591 77.8671 42.985 82.3399 42.985Z" fill="#FF651D"/>
<path d="M82.3399 19.32C86.8127 19.32 90.4386 15.6941 90.4386 11.2213C90.4386 6.74847 86.8127 3.12256 82.3399 3.12256C77.8671 3.12256 74.2412 6.74847 74.2412 11.2213C74.2412 15.6941 77.8671 19.32 82.3399 19.32Z" fill="#FF651D"/>
<path d="M106.004 92.9975C111.958 92.9975 116.785 88.1708 116.785 82.2168C116.785 76.2627 111.958 71.436 106.004 71.436C100.05 71.436 95.2236 76.2627 95.2236 82.2168C95.2236 88.1708 100.05 92.9975 106.004 92.9975Z" fill="#FF651D"/>
<path d="M106.006 63.9424C108.983 63.9424 111.396 61.529 111.396 58.552C111.396 55.575 108.983 53.1616 106.006 53.1616C103.029 53.1616 100.615 55.575 100.615 58.552C100.615 61.529 103.029 63.9424 106.006 63.9424Z" fill="#FF651D"/>
<path d="M106.005 42.985C110.478 42.985 114.104 39.3591 114.104 34.8863C114.104 30.4135 110.478 26.7876 106.005 26.7876C101.532 26.7876 97.9062 30.4135 97.9062 34.8863C97.9062 39.3591 101.532 42.985 106.005 42.985Z" fill="#FF651D"/>
<path d="M106.004 22.0019C111.958 22.0019 116.785 17.1752 116.785 11.2212C116.785 5.26713 111.958 0.44043 106.004 0.44043C100.05 0.44043 95.2236 5.26713 95.2236 11.2212C95.2236 17.1752 100.05 22.0019 106.004 22.0019Z" fill="#FF651D"/>
<path d="M129.67 92.9975C135.624 92.9975 140.451 88.1708 140.451 82.2168C140.451 76.2627 135.624 71.436 129.67 71.436C123.716 71.436 118.89 76.2627 118.89 82.2168C118.89 88.1708 123.716 92.9975 129.67 92.9975Z" fill="#FF651D"/>
<path d="M129.671 63.9419C132.648 63.9419 135.061 61.5285 135.061 58.5515C135.061 55.5745 132.648 53.1611 129.671 53.1611C126.694 53.1611 124.28 55.5745 124.28 58.5515C124.28 61.5285 126.694 63.9419 129.671 63.9419Z" fill="#FF651D"/>
<path d="M129.67 42.985C134.143 42.985 137.769 39.3591 137.769 34.8863C137.769 30.4135 134.143 26.7876 129.67 26.7876C125.197 26.7876 121.571 30.4135 121.571 34.8863C121.571 39.3591 125.197 42.985 129.67 42.985Z" fill="#FF651D"/>
<path d="M129.67 22.0024C135.624 22.0024 140.451 17.1757 140.451 11.2217C140.451 5.26762 135.624 0.440918 129.67 0.440918C123.716 0.440918 118.89 5.26762 118.89 11.2217C118.89 17.1757 123.716 22.0024 129.67 22.0024Z" fill="#FF651D"/>
<path d="M109.161 260.783C115.115 260.783 119.941 255.956 119.941 250.002C119.941 244.048 115.115 239.221 109.161 239.221C103.207 239.221 98.3799 244.048 98.3799 250.002C98.3799 255.956 103.207 260.783 109.161 260.783Z" fill="#FF651D"/>
<path d="M109.161 237.118C115.115 237.118 119.941 232.291 119.941 226.337C119.941 220.383 115.115 215.556 109.161 215.556C103.207 215.556 98.3799 220.383 98.3799 226.337C98.3799 232.291 103.207 237.118 109.161 237.118Z" fill="#FF651D"/>
<path d="M109.161 213.453C115.115 213.453 119.941 208.626 119.941 202.672C119.941 196.718 115.115 191.891 109.161 191.891C103.207 191.891 98.3799 196.718 98.3799 202.672C98.3799 208.626 103.207 213.453 109.161 213.453Z" fill="#FF651D"/>
<path d="M132.826 260.782C138.78 260.782 143.606 255.956 143.606 250.001C143.606 244.047 138.78 239.221 132.826 239.221C126.872 239.221 122.045 244.047 122.045 250.001C122.045 255.956 126.872 260.782 132.826 260.782Z" fill="#FF651D"/>
<path d="M132.826 237.117C138.78 237.117 143.606 232.29 143.606 226.336C143.606 220.382 138.78 215.556 132.826 215.556C126.872 215.556 122.045 220.382 122.045 226.336C122.045 232.29 126.872 237.117 132.826 237.117Z" fill="#FF651D"/>
<path d="M132.826 213.452C138.78 213.452 143.606 208.625 143.606 202.671C143.606 196.717 138.78 191.891 132.826 191.891C126.872 191.891 122.045 196.717 122.045 202.671C122.045 208.625 126.872 213.452 132.826 213.452Z" fill="#FF651D"/>
<path d="M156.49 260.782C162.444 260.782 167.271 255.956 167.271 250.001C167.271 244.047 162.444 239.221 156.49 239.221C150.536 239.221 145.709 244.047 145.709 250.001C145.709 255.956 150.536 260.782 156.49 260.782Z" fill="#FF651D"/>
<path d="M156.49 237.117C162.444 237.117 167.271 232.29 167.271 226.336C167.271 220.382 162.444 215.556 156.49 215.556C150.536 215.556 145.709 220.382 145.709 226.336C145.709 232.29 150.536 237.117 156.49 237.117Z" fill="#FF651D"/>
<path d="M156.49 213.452C162.444 213.452 167.271 208.625 167.271 202.671C167.271 196.717 162.444 191.891 156.49 191.891C150.536 191.891 145.709 196.717 145.709 202.671C145.709 208.625 150.536 213.452 156.49 213.452Z" fill="#FF651D"/>
<path d="M180.156 260.782C186.11 260.782 190.936 255.956 190.936 250.001C190.936 244.047 186.11 239.221 180.156 239.221C174.202 239.221 169.375 244.047 169.375 250.001C169.375 255.956 174.202 260.782 180.156 260.782Z" fill="#FF651D"/>
<path d="M180.156 237.117C186.11 237.117 190.936 232.29 190.936 226.336C190.936 220.382 186.11 215.556 180.156 215.556C174.202 215.556 169.375 220.382 169.375 226.336C169.375 232.29 174.202 237.117 180.156 237.117Z" fill="#FF651D"/>
<path d="M180.156 213.452C186.11 213.452 190.936 208.625 190.936 202.671C190.936 196.717 186.11 191.891 180.156 191.891C174.202 191.891 169.375 196.717 169.375 202.671C169.375 208.625 174.202 213.452 180.156 213.452Z" fill="#FF651D"/>
<path d="M12.6336 256.076C15.9882 256.076 18.7076 253.356 18.7076 250.002C18.7076 246.647 15.9882 243.928 12.6336 243.928C9.279 243.928 6.55957 246.647 6.55957 250.002C6.55957 253.356 9.279 256.076 12.6336 256.076Z" fill="#FF651D"/>
<path d="M12.6336 232.411C15.9882 232.411 18.7076 229.691 18.7076 226.337C18.7076 222.982 15.9882 220.263 12.6336 220.263C9.279 220.263 6.55957 222.982 6.55957 226.337C6.55957 229.691 9.279 232.411 12.6336 232.411Z" fill="#FF651D"/>
<path d="M12.6339 210.77C17.1067 210.77 20.7326 207.144 20.7326 202.671C20.7326 198.199 17.1067 194.573 12.6339 194.573C8.16107 194.573 4.53516 198.199 4.53516 202.671C4.53516 207.144 8.16107 210.77 12.6339 210.77Z" fill="#FF651D"/>
<path d="M12.6339 187.105C17.1067 187.105 20.7326 183.479 20.7326 179.006C20.7326 174.534 17.1067 170.908 12.6339 170.908C8.16107 170.908 4.53516 174.534 4.53516 179.006C4.53516 183.479 8.16107 187.105 12.6339 187.105Z" fill="#FF651D"/>
<path d="M36.2986 256.076C39.6532 256.076 42.3727 253.357 42.3727 250.002C42.3727 246.648 39.6532 243.928 36.2986 243.928C32.944 243.928 30.2246 246.648 30.2246 250.002C30.2246 253.357 32.944 256.076 36.2986 256.076Z" fill="#FF651D"/>
<path d="M36.2989 234.435C40.7717 234.435 44.3976 230.809 44.3976 226.337C44.3976 221.864 40.7717 218.238 36.2989 218.238C31.8261 218.238 28.2002 221.864 28.2002 226.337C28.2002 230.809 31.8261 234.435 36.2989 234.435Z" fill="#FF651D"/>
<path d="M36.2989 210.77C40.7717 210.77 44.3976 207.144 44.3976 202.671C44.3976 198.199 40.7717 194.573 36.2989 194.573C31.8261 194.573 28.2002 198.199 28.2002 202.671C28.2002 207.144 31.8261 210.77 36.2989 210.77Z" fill="#FF651D"/>
<path d="M36.2978 189.788C42.2519 189.788 47.0786 184.961 47.0786 179.007C47.0786 173.053 42.2519 168.226 36.2978 168.226C30.3438 168.226 25.5171 173.053 25.5171 179.007C25.5171 184.961 30.3438 189.788 36.2978 189.788Z" fill="#FF651D"/>
<path d="M59.9639 258.1C64.4367 258.1 68.0626 254.474 68.0626 250.002C68.0626 245.529 64.4367 241.903 59.9639 241.903C55.4911 241.903 51.8652 245.529 51.8652 250.002C51.8652 254.474 55.4911 258.1 59.9639 258.1Z" fill="#FF651D"/>
<path d="M59.9639 234.435C64.4367 234.435 68.0626 230.809 68.0626 226.337C68.0626 221.864 64.4367 218.238 59.9639 218.238C55.4911 218.238 51.8652 221.864 51.8652 226.337C51.8652 230.809 55.4911 234.435 59.9639 234.435Z" fill="#FF651D"/>
<path d="M59.9643 213.453C65.9184 213.453 70.7451 208.626 70.7451 202.672C70.7451 196.718 65.9184 191.891 59.9643 191.891C54.0103 191.891 49.1836 196.718 49.1836 202.672C49.1836 208.626 54.0103 213.453 59.9643 213.453Z" fill="#FF651D"/>
<path d="M59.9643 189.788C65.9184 189.788 70.7451 184.961 70.7451 179.007C70.7451 173.053 65.9184 168.226 59.9643 168.226C54.0103 168.226 49.1836 173.053 49.1836 179.007C49.1836 184.961 54.0103 189.788 59.9643 189.788Z" fill="#FF651D"/>
<path d="M83.629 258.1C88.1018 258.1 91.7277 254.474 91.7277 250.002C91.7277 245.529 88.1018 241.903 83.629 241.903C79.1562 241.903 75.5303 245.529 75.5303 250.002C75.5303 254.474 79.1562 258.1 83.629 258.1Z" fill="#FF651D"/>
<path d="M83.6279 237.117C89.582 237.117 94.4087 232.29 94.4087 226.336C94.4087 220.382 89.582 215.556 83.6279 215.556C77.6739 215.556 72.8472 220.382 72.8472 226.336C72.8472 232.29 77.6739 237.117 83.6279 237.117Z" fill="#FF651D"/>
<path d="M83.6279 213.452C89.582 213.452 94.4087 208.625 94.4087 202.671C94.4087 196.717 89.582 191.891 83.6279 191.891C77.6739 191.891 72.8472 196.717 72.8472 202.671C72.8472 208.625 77.6739 213.452 83.6279 213.452Z" fill="#FF651D"/>
<path d="M11.0561 164.282C17.0102 164.282 21.8369 159.455 21.8369 153.501C21.8369 147.547 17.0102 142.72 11.0561 142.72C5.10209 142.72 0.275391 147.547 0.275391 153.501C0.275391 159.455 5.10209 164.282 11.0561 164.282Z" fill="#FF651D"/>
<path d="M11.0561 140.617C17.0102 140.617 21.8369 135.79 21.8369 129.836C21.8369 123.882 17.0102 119.055 11.0561 119.055C5.10209 119.055 0.275391 123.882 0.275391 129.836C0.275391 135.79 5.10209 140.617 11.0561 140.617Z" fill="#FF651D"/>
<path d="M11.0561 116.952C17.0102 116.952 21.8369 112.125 21.8369 106.171C21.8369 100.217 17.0102 95.3901 11.0561 95.3901C5.10209 95.3901 0.275391 100.217 0.275391 106.171C0.275391 112.125 5.10209 116.952 11.0561 116.952Z" fill="#FF651D"/>
<path d="M11.0561 93.2866C17.0102 93.2866 21.8369 88.4599 21.8369 82.5058C21.8369 76.5518 17.0102 71.7251 11.0561 71.7251C5.10209 71.7251 0.275391 76.5518 0.275391 82.5058C0.275391 88.4599 5.10209 93.2866 11.0561 93.2866Z" fill="#FF651D"/>
<path d="M34.7212 164.282C40.6752 164.282 45.5019 159.455 45.5019 153.501C45.5019 147.547 40.6752 142.72 34.7212 142.72C28.7671 142.72 23.9404 147.547 23.9404 153.501C23.9404 159.455 28.7671 164.282 34.7212 164.282Z" fill="#FF651D"/>
<path d="M34.7212 140.617C40.6752 140.617 45.5019 135.79 45.5019 129.836C45.5019 123.882 40.6752 119.055 34.7212 119.055C28.7671 119.055 23.9404 123.882 23.9404 129.836C23.9404 135.79 28.7671 140.617 34.7212 140.617Z" fill="#FF651D"/>
<path d="M34.7212 116.952C40.6752 116.952 45.5019 112.125 45.5019 106.171C45.5019 100.217 40.6752 95.3901 34.7212 95.3901C28.7671 95.3901 23.9404 100.217 23.9404 106.171C23.9404 112.125 28.7671 116.952 34.7212 116.952Z" fill="#FF651D"/>
<path d="M34.7212 93.2866C40.6752 93.2866 45.5019 88.4599 45.5019 82.5058C45.5019 76.5518 40.6752 71.7251 34.7212 71.7251C28.7671 71.7251 23.9404 76.5518 23.9404 82.5058C23.9404 88.4599 28.7671 93.2866 34.7212 93.2866Z" fill="#FF651D"/>
<path d="M58.3862 164.282C64.3403 164.282 69.167 159.455 69.167 153.501C69.167 147.547 64.3403 142.72 58.3862 142.72C52.4322 142.72 47.6055 147.547 47.6055 153.501C47.6055 159.455 52.4322 164.282 58.3862 164.282Z" fill="#FF651D"/>
<path d="M58.3862 140.617C64.3403 140.617 69.167 135.79 69.167 129.836C69.167 123.882 64.3403 119.055 58.3862 119.055C52.4322 119.055 47.6055 123.882 47.6055 129.836C47.6055 135.79 52.4322 140.617 58.3862 140.617Z" fill="#FF651D"/>
<path d="M58.3862 116.952C64.3403 116.952 69.167 112.125 69.167 106.171C69.167 100.217 64.3403 95.3901 58.3862 95.3901C52.4322 95.3901 47.6055 100.217 47.6055 106.171C47.6055 112.125 52.4322 116.952 58.3862 116.952Z" fill="#FF651D"/>
<path d="M58.3862 93.2866C64.3403 93.2866 69.167 88.4599 69.167 82.5058C69.167 76.5518 64.3403 71.7251 58.3862 71.7251C52.4322 71.7251 47.6055 76.5518 47.6055 82.5058C47.6055 88.4599 52.4322 93.2866 58.3862 93.2866Z" fill="#FF651D"/>
</g>
<defs>
<clipPath id="clip0_5662_1715">
<rect width="261.946" height="260.368" fill="white" transform="translate(0.274902 0.440918)"/>
</clipPath>
</defs>
</svg>
