<svg width="330" height="303" viewBox="0 0 330 303" fill="none" xmlns="http://www.w3.org/2000/svg">
<g clip-path="url(#clip0_5662_1640)">
<path d="M7.3221 13.7951C11.0483 13.7951 14.069 10.7744 14.069 7.04817C14.069 3.32196 11.0483 0.30127 7.3221 0.30127C3.59589 0.30127 0.575195 3.32196 0.575195 7.04817C0.575195 10.7744 3.59589 13.7951 7.3221 13.7951Z" fill="#FF651D"/>
<path d="M33.6082 13.7951C37.3344 13.7951 40.3551 10.7744 40.3551 7.04817C40.3551 3.32196 37.3344 0.30127 33.6082 0.30127C29.882 0.30127 26.8613 3.32196 26.8613 7.04817C26.8613 10.7744 29.882 13.7951 33.6082 13.7951Z" fill="#FF651D"/>
<path d="M59.8953 13.7951C63.6215 13.7951 66.6422 10.7744 66.6422 7.04817C66.6422 3.32196 63.6215 0.30127 59.8953 0.30127C56.1691 0.30127 53.1484 3.32196 53.1484 7.04817C53.1484 10.7744 56.1691 13.7951 59.8953 13.7951Z" fill="#FF651D"/>
<path d="M86.1815 13.7951C89.9077 13.7951 92.9284 10.7744 92.9284 7.04817C92.9284 3.32196 89.9077 0.30127 86.1815 0.30127C82.4553 0.30127 79.4346 3.32196 79.4346 7.04817C79.4346 10.7744 82.4553 13.7951 86.1815 13.7951Z" fill="#FF651D"/>
<path d="M243.668 13.7951C247.394 13.7951 250.415 10.7744 250.415 7.04817C250.415 3.32196 247.394 0.30127 243.668 0.30127C239.942 0.30127 236.921 3.32196 236.921 7.04817C236.921 10.7744 239.942 13.7951 243.668 13.7951Z" fill="#FF651D"/>
<path d="M269.954 13.7951C273.68 13.7951 276.701 10.7744 276.701 7.04817C276.701 3.32196 273.68 0.30127 269.954 0.30127C266.228 0.30127 263.207 3.32196 263.207 7.04817C263.207 10.7744 266.228 13.7951 269.954 13.7951Z" fill="#FF651D"/>
<path d="M296.241 13.7951C299.967 13.7951 302.988 10.7744 302.988 7.04817C302.988 3.32196 299.967 0.30127 296.241 0.30127C292.515 0.30127 289.494 3.32196 289.494 7.04817C289.494 10.7744 292.515 13.7951 296.241 13.7951Z" fill="#FF651D"/>
<path d="M322.527 13.7951C326.253 13.7951 329.274 10.7744 329.274 7.04817C329.274 3.32196 326.253 0.30127 322.527 0.30127C318.801 0.30127 315.78 3.32196 315.78 7.04817C315.78 10.7744 318.801 13.7951 322.527 13.7951Z" fill="#FF651D"/>
<path d="M7.3221 40.0817C11.0483 40.0817 14.069 37.061 14.069 33.3348C14.069 29.6086 11.0483 26.5879 7.3221 26.5879C3.59589 26.5879 0.575195 29.6086 0.575195 33.3348C0.575195 37.061 3.59589 40.0817 7.3221 40.0817Z" fill="#FF651D"/>
<path d="M33.6082 42.3306C38.5765 42.3306 42.604 38.303 42.604 33.3347C42.604 28.3665 38.5765 24.3389 33.6082 24.3389C28.6399 24.3389 24.6123 28.3665 24.6123 33.3347C24.6123 38.303 28.6399 42.3306 33.6082 42.3306Z" fill="#FF651D"/>
<path d="M59.8953 42.3306C64.8636 42.3306 68.8912 38.303 68.8912 33.3347C68.8912 28.3665 64.8636 24.3389 59.8953 24.3389C54.927 24.3389 50.8994 28.3665 50.8994 33.3347C50.8994 38.303 54.927 42.3306 59.8953 42.3306Z" fill="#FF651D"/>
<path d="M86.1814 42.3306C91.1497 42.3306 95.1773 38.303 95.1773 33.3347C95.1773 28.3665 91.1497 24.3389 86.1814 24.3389C81.2131 24.3389 77.1855 28.3665 77.1855 33.3347C77.1855 38.303 81.2131 42.3306 86.1814 42.3306Z" fill="#FF651D"/>
<path d="M243.668 42.3306C248.636 42.3306 252.664 38.303 252.664 33.3347C252.664 28.3665 248.636 24.3389 243.668 24.3389C238.699 24.3389 234.672 28.3665 234.672 33.3347C234.672 38.303 238.699 42.3306 243.668 42.3306Z" fill="#FF651D"/>
<path d="M269.954 42.3306C274.922 42.3306 278.95 38.303 278.95 33.3347C278.95 28.3665 274.922 24.3389 269.954 24.3389C264.986 24.3389 260.958 28.3665 260.958 33.3347C260.958 38.303 264.986 42.3306 269.954 42.3306Z" fill="#FF651D"/>
<path d="M296.241 42.3306C301.209 42.3306 305.237 38.303 305.237 33.3347C305.237 28.3665 301.209 24.3389 296.241 24.3389C291.273 24.3389 287.245 28.3665 287.245 33.3347C287.245 38.303 291.273 42.3306 296.241 42.3306Z" fill="#FF651D"/>
<path d="M322.527 40.0817C326.253 40.0817 329.274 37.061 329.274 33.3348C329.274 29.6086 326.253 26.5879 322.527 26.5879C318.801 26.5879 315.78 29.6086 315.78 33.3348C315.78 37.061 318.801 40.0817 322.527 40.0817Z" fill="#FF651D"/>
<path d="M7.3221 66.3683C11.0483 66.3683 14.069 63.3476 14.069 59.6214C14.069 55.8952 11.0483 52.8745 7.3221 52.8745C3.59589 52.8745 0.575195 55.8952 0.575195 59.6214C0.575195 63.3476 3.59589 66.3683 7.3221 66.3683Z" fill="#FF651D"/>
<path d="M33.6082 68.6172C38.5765 68.6172 42.604 64.5896 42.604 59.6214C42.604 54.6531 38.5765 50.6255 33.6082 50.6255C28.6399 50.6255 24.6123 54.6531 24.6123 59.6214C24.6123 64.5896 28.6399 68.6172 33.6082 68.6172Z" fill="#FF651D"/>
<path d="M59.8949 71.596C66.5086 71.596 71.87 66.2346 71.87 59.621C71.87 53.0074 66.5086 47.646 59.8949 47.646C53.2813 47.646 47.9199 53.0074 47.9199 59.621C47.9199 66.2346 53.2813 71.596 59.8949 71.596Z" fill="#FF651D"/>
<path d="M86.1821 71.596C92.7957 71.596 98.1571 66.2346 98.1571 59.621C98.1571 53.0074 92.7957 47.646 86.1821 47.646C79.5684 47.646 74.207 53.0074 74.207 59.621C74.207 66.2346 79.5684 71.596 86.1821 71.596Z" fill="#FF651D"/>
<path d="M243.667 71.596C250.281 71.596 255.642 66.2346 255.642 59.621C255.642 53.0074 250.281 47.646 243.667 47.646C237.054 47.646 231.692 53.0074 231.692 59.621C231.692 66.2346 237.054 71.596 243.667 71.596Z" fill="#FF651D"/>
<path d="M269.955 71.596C276.568 71.596 281.93 66.2346 281.93 59.621C281.93 53.0074 276.568 47.646 269.955 47.646C263.341 47.646 257.979 53.0074 257.979 59.621C257.979 66.2346 263.341 71.596 269.955 71.596Z" fill="#FF651D"/>
<path d="M296.241 68.6172C301.209 68.6172 305.237 64.5896 305.237 59.6214C305.237 54.6531 301.209 50.6255 296.241 50.6255C291.273 50.6255 287.245 54.6531 287.245 59.6214C287.245 64.5896 291.273 68.6172 296.241 68.6172Z" fill="#FF651D"/>
<path d="M322.527 66.3683C326.253 66.3683 329.274 63.3476 329.274 59.6214C329.274 55.8952 326.253 52.8745 322.527 52.8745C318.801 52.8745 315.78 55.8952 315.78 59.6214C315.78 63.3476 318.801 66.3683 322.527 66.3683Z" fill="#FF651D"/>
<path d="M7.3221 92.6549C11.0483 92.6549 14.069 89.6342 14.069 85.908C14.069 82.1818 11.0483 79.1611 7.3221 79.1611C3.59589 79.1611 0.575195 82.1818 0.575195 85.908C0.575195 89.6342 3.59589 92.6549 7.3221 92.6549Z" fill="#FF651D"/>
<path d="M33.6082 94.9038C38.5765 94.9038 42.604 90.8763 42.604 85.908C42.604 80.9397 38.5765 76.9121 33.6082 76.9121C28.6399 76.9121 24.6123 80.9397 24.6123 85.908C24.6123 90.8763 28.6399 94.9038 33.6082 94.9038Z" fill="#FF651D"/>
<path d="M59.8949 97.8831C66.5086 97.8831 71.87 92.5217 71.87 85.9081C71.87 79.2945 66.5086 73.9331 59.8949 73.9331C53.2813 73.9331 47.9199 79.2945 47.9199 85.9081C47.9199 92.5217 53.2813 97.8831 59.8949 97.8831Z" fill="#FF651D"/>
<path d="M86.1816 97.8831C92.7952 97.8831 98.1566 92.5217 98.1566 85.9081C98.1566 79.2945 92.7952 73.9331 86.1816 73.9331C79.5679 73.9331 74.2065 79.2945 74.2065 85.9081C74.2065 92.5217 79.5679 97.8831 86.1816 97.8831Z" fill="#FF651D"/>
<path d="M243.667 97.8831C250.281 97.8831 255.642 92.5217 255.642 85.9081C255.642 79.2945 250.281 73.9331 243.667 73.9331C237.054 73.9331 231.692 79.2945 231.692 85.9081C231.692 92.5217 237.054 97.8831 243.667 97.8831Z" fill="#FF651D"/>
<path d="M269.954 97.8831C276.568 97.8831 281.929 92.5217 281.929 85.9081C281.929 79.2945 276.568 73.9331 269.954 73.9331C263.34 73.9331 257.979 79.2945 257.979 85.9081C257.979 92.5217 263.34 97.8831 269.954 97.8831Z" fill="#FF651D"/>
<path d="M296.241 94.9038C301.209 94.9038 305.237 90.8763 305.237 85.908C305.237 80.9397 301.209 76.9121 296.241 76.9121C291.273 76.9121 287.245 80.9397 287.245 85.908C287.245 90.8763 291.273 94.9038 296.241 94.9038Z" fill="#FF651D"/>
<path d="M322.527 92.6549C326.253 92.6549 329.274 89.6342 329.274 85.908C329.274 82.1818 326.253 79.1611 322.527 79.1611C318.801 79.1611 315.78 82.1818 315.78 85.908C315.78 89.6342 318.801 92.6549 322.527 92.6549Z" fill="#FF651D"/>
<path d="M112.469 118.942C116.195 118.942 119.215 115.921 119.215 112.195C119.215 108.468 116.195 105.448 112.469 105.448C108.742 105.448 105.722 108.468 105.722 112.195C105.722 115.921 108.742 118.942 112.469 118.942Z" fill="#FF651D"/>
<path d="M220.973 118.942C224.7 118.942 227.72 115.921 227.72 112.195C227.72 108.468 224.7 105.448 220.973 105.448C217.247 105.448 214.227 108.468 214.227 112.195C214.227 115.921 217.247 118.942 220.973 118.942Z" fill="#FF651D"/>
<path d="M138.755 147.477C143.723 147.477 147.751 143.45 147.751 138.481C147.751 133.513 143.723 129.485 138.755 129.485C133.786 129.485 129.759 133.513 129.759 138.481C129.759 143.45 133.786 147.477 138.755 147.477Z" fill="#FF651D"/>
<path d="M166.473 150.456C173.087 150.456 178.448 145.095 178.448 138.481C178.448 131.868 173.087 126.506 166.473 126.506C159.859 126.506 154.498 131.868 154.498 138.481C154.498 145.095 159.859 150.456 166.473 150.456Z" fill="#FF651D"/>
<path d="M194.687 147.477C199.655 147.477 203.683 143.45 203.683 138.481C203.683 133.513 199.655 129.485 194.687 129.485C189.718 129.485 185.691 133.513 185.691 138.481C185.691 143.45 189.718 147.477 194.687 147.477Z" fill="#FF651D"/>
<path d="M138.755 173.764C143.723 173.764 147.751 169.736 147.751 164.768C147.751 159.8 143.723 155.772 138.755 155.772C133.786 155.772 129.759 159.8 129.759 164.768C129.759 169.736 133.786 173.764 138.755 173.764Z" fill="#FF651D"/>
<path d="M166.473 176.743C173.087 176.743 178.448 171.381 178.448 164.768C178.448 158.154 173.087 152.792 166.473 152.792C159.859 152.792 154.498 158.154 154.498 164.768C154.498 171.381 159.859 176.743 166.473 176.743Z" fill="#FF651D"/>
<path d="M194.687 173.764C199.655 173.764 203.683 169.736 203.683 164.768C203.683 159.8 199.655 155.772 194.687 155.772C189.718 155.772 185.691 159.8 185.691 164.768C185.691 169.736 189.718 173.764 194.687 173.764Z" fill="#FF651D"/>
<path d="M112.469 197.801C116.195 197.801 119.215 194.781 119.215 191.055C119.215 187.328 116.195 184.308 112.469 184.308C108.742 184.308 105.722 187.328 105.722 191.055C105.722 194.781 108.742 197.801 112.469 197.801Z" fill="#FF651D"/>
<path d="M220.973 197.801C224.7 197.801 227.72 194.781 227.72 191.055C227.72 187.328 224.7 184.308 220.973 184.308C217.247 184.308 214.227 187.328 214.227 191.055C214.227 194.781 217.247 197.801 220.973 197.801Z" fill="#FF651D"/>
<path d="M7.3221 224.088C11.0483 224.088 14.069 221.067 14.069 217.341C14.069 213.615 11.0483 210.594 7.3221 210.594C3.59589 210.594 0.575195 213.615 0.575195 217.341C0.575195 221.067 3.59589 224.088 7.3221 224.088Z" fill="#FF651D"/>
<path d="M33.6082 226.337C38.5765 226.337 42.604 222.309 42.604 217.341C42.604 212.373 38.5765 208.345 33.6082 208.345C28.6399 208.345 24.6123 212.373 24.6123 217.341C24.6123 222.309 28.6399 226.337 33.6082 226.337Z" fill="#FF651D"/>
<path d="M59.8949 229.316C66.5086 229.316 71.87 223.954 71.87 217.341C71.87 210.727 66.5086 205.366 59.8949 205.366C53.2813 205.366 47.9199 210.727 47.9199 217.341C47.9199 223.954 53.2813 229.316 59.8949 229.316Z" fill="#FF651D"/>
<path d="M86.1821 229.316C92.7957 229.316 98.1571 223.954 98.1571 217.341C98.1571 210.727 92.7957 205.366 86.1821 205.366C79.5684 205.366 74.207 210.727 74.207 217.341C74.207 223.954 79.5684 229.316 86.1821 229.316Z" fill="#FF651D"/>
<path d="M243.667 229.316C250.281 229.316 255.642 223.954 255.642 217.341C255.642 210.727 250.281 205.366 243.667 205.366C237.054 205.366 231.692 210.727 231.692 217.341C231.692 223.954 237.054 229.316 243.667 229.316Z" fill="#FF651D"/>
<path d="M269.955 229.316C276.568 229.316 281.93 223.954 281.93 217.341C281.93 210.727 276.568 205.366 269.955 205.366C263.341 205.366 257.979 210.727 257.979 217.341C257.979 223.954 263.341 229.316 269.955 229.316Z" fill="#FF651D"/>
<path d="M296.241 226.337C301.209 226.337 305.237 222.309 305.237 217.341C305.237 212.373 301.209 208.345 296.241 208.345C291.273 208.345 287.245 212.373 287.245 217.341C287.245 222.309 291.273 226.337 296.241 226.337Z" fill="#FF651D"/>
<path d="M322.527 224.088C326.253 224.088 329.274 221.067 329.274 217.341C329.274 213.615 326.253 210.594 322.527 210.594C318.801 210.594 315.78 213.615 315.78 217.341C315.78 221.067 318.801 224.088 322.527 224.088Z" fill="#FF651D"/>
<path d="M7.3221 250.375C11.0483 250.375 14.069 247.354 14.069 243.628C14.069 239.902 11.0483 236.881 7.3221 236.881C3.59589 236.881 0.575195 239.902 0.575195 243.628C0.575195 247.354 3.59589 250.375 7.3221 250.375Z" fill="#FF651D"/>
<path d="M33.6082 252.624C38.5765 252.624 42.604 248.596 42.604 243.628C42.604 238.659 38.5765 234.632 33.6082 234.632C28.6399 234.632 24.6123 238.659 24.6123 243.628C24.6123 248.596 28.6399 252.624 33.6082 252.624Z" fill="#FF651D"/>
<path d="M59.8949 255.603C66.5086 255.603 71.87 250.241 71.87 243.628C71.87 237.014 66.5086 231.653 59.8949 231.653C53.2813 231.653 47.9199 237.014 47.9199 243.628C47.9199 250.241 53.2813 255.603 59.8949 255.603Z" fill="#FF651D"/>
<path d="M86.1816 255.603C92.7952 255.603 98.1566 250.241 98.1566 243.628C98.1566 237.014 92.7952 231.653 86.1816 231.653C79.5679 231.653 74.2065 237.014 74.2065 243.628C74.2065 250.241 79.5679 255.603 86.1816 255.603Z" fill="#FF651D"/>
<path d="M243.667 255.603C250.281 255.603 255.642 250.241 255.642 243.628C255.642 237.014 250.281 231.653 243.667 231.653C237.054 231.653 231.692 237.014 231.692 243.628C231.692 250.241 237.054 255.603 243.667 255.603Z" fill="#FF651D"/>
<path d="M269.954 255.603C276.568 255.603 281.929 250.241 281.929 243.628C281.929 237.014 276.568 231.653 269.954 231.653C263.34 231.653 257.979 237.014 257.979 243.628C257.979 250.241 263.34 255.603 269.954 255.603Z" fill="#FF651D"/>
<path d="M296.241 252.624C301.209 252.624 305.237 248.596 305.237 243.628C305.237 238.659 301.209 234.632 296.241 234.632C291.273 234.632 287.245 238.659 287.245 243.628C287.245 248.596 291.273 252.624 296.241 252.624Z" fill="#FF651D"/>
<path d="M322.527 250.375C326.253 250.375 329.274 247.354 329.274 243.628C329.274 239.902 326.253 236.881 322.527 236.881C318.801 236.881 315.78 239.902 315.78 243.628C315.78 247.354 318.801 250.375 322.527 250.375Z" fill="#FF651D"/>
<path d="M7.3221 276.661C11.0483 276.661 14.069 273.641 14.069 269.914C14.069 266.188 11.0483 263.167 7.3221 263.167C3.59589 263.167 0.575195 266.188 0.575195 269.914C0.575195 273.641 3.59589 276.661 7.3221 276.661Z" fill="#FF651D"/>
<path d="M33.6082 278.91C38.5765 278.91 42.604 274.883 42.604 269.914C42.604 264.946 38.5765 260.918 33.6082 260.918C28.6399 260.918 24.6123 264.946 24.6123 269.914C24.6123 274.883 28.6399 278.91 33.6082 278.91Z" fill="#FF651D"/>
<path d="M59.8953 278.91C64.8636 278.91 68.8912 274.883 68.8912 269.914C68.8912 264.946 64.8636 260.918 59.8953 260.918C54.927 260.918 50.8994 264.946 50.8994 269.914C50.8994 274.883 54.927 278.91 59.8953 278.91Z" fill="#FF651D"/>
<path d="M86.1814 278.91C91.1497 278.91 95.1773 274.883 95.1773 269.914C95.1773 264.946 91.1497 260.918 86.1814 260.918C81.2131 260.918 77.1855 264.946 77.1855 269.914C77.1855 274.883 81.2131 278.91 86.1814 278.91Z" fill="#FF651D"/>
<path d="M243.668 278.91C248.636 278.91 252.664 274.883 252.664 269.914C252.664 264.946 248.636 260.918 243.668 260.918C238.699 260.918 234.672 264.946 234.672 269.914C234.672 274.883 238.699 278.91 243.668 278.91Z" fill="#FF651D"/>
<path d="M269.954 278.91C274.922 278.91 278.95 274.883 278.95 269.914C278.95 264.946 274.922 260.918 269.954 260.918C264.986 260.918 260.958 264.946 260.958 269.914C260.958 274.883 264.986 278.91 269.954 278.91Z" fill="#FF651D"/>
<path d="M296.241 278.91C301.209 278.91 305.237 274.883 305.237 269.914C305.237 264.946 301.209 260.918 296.241 260.918C291.273 260.918 287.245 264.946 287.245 269.914C287.245 274.883 291.273 278.91 296.241 278.91Z" fill="#FF651D"/>
<path d="M322.527 276.661C326.253 276.661 329.274 273.641 329.274 269.914C329.274 266.188 326.253 263.167 322.527 263.167C318.801 263.167 315.78 266.188 315.78 269.914C315.78 273.641 318.801 276.661 322.527 276.661Z" fill="#FF651D"/>
<path d="M7.3221 302.948C11.0483 302.948 14.069 299.927 14.069 296.201C14.069 292.475 11.0483 289.454 7.3221 289.454C3.59589 289.454 0.575195 292.475 0.575195 296.201C0.575195 299.927 3.59589 302.948 7.3221 302.948Z" fill="#FF651D"/>
<path d="M33.6082 302.948C37.3344 302.948 40.3551 299.927 40.3551 296.201C40.3551 292.475 37.3344 289.454 33.6082 289.454C29.882 289.454 26.8613 292.475 26.8613 296.201C26.8613 299.927 29.882 302.948 33.6082 302.948Z" fill="#FF651D"/>
<path d="M59.8953 302.948C63.6215 302.948 66.6422 299.927 66.6422 296.201C66.6422 292.475 63.6215 289.454 59.8953 289.454C56.1691 289.454 53.1484 292.475 53.1484 296.201C53.1484 299.927 56.1691 302.948 59.8953 302.948Z" fill="#FF651D"/>
<path d="M86.1815 302.948C89.9077 302.948 92.9284 299.927 92.9284 296.201C92.9284 292.475 89.9077 289.454 86.1815 289.454C82.4553 289.454 79.4346 292.475 79.4346 296.201C79.4346 299.927 82.4553 302.948 86.1815 302.948Z" fill="#FF651D"/>
<path d="M243.668 302.948C247.394 302.948 250.415 299.927 250.415 296.201C250.415 292.475 247.394 289.454 243.668 289.454C239.942 289.454 236.921 292.475 236.921 296.201C236.921 299.927 239.942 302.948 243.668 302.948Z" fill="#FF651D"/>
<path d="M269.954 302.948C273.68 302.948 276.701 299.927 276.701 296.201C276.701 292.475 273.68 289.454 269.954 289.454C266.228 289.454 263.207 292.475 263.207 296.201C263.207 299.927 266.228 302.948 269.954 302.948Z" fill="#FF651D"/>
<path d="M296.241 302.948C299.967 302.948 302.988 299.927 302.988 296.201C302.988 292.475 299.967 289.454 296.241 289.454C292.515 289.454 289.494 292.475 289.494 296.201C289.494 299.927 292.515 302.948 296.241 302.948Z" fill="#FF651D"/>
<path d="M322.527 302.948C326.253 302.948 329.274 299.927 329.274 296.201C329.274 292.475 326.253 289.454 322.527 289.454C318.801 289.454 315.78 292.475 315.78 296.201C315.78 299.927 318.801 302.948 322.527 302.948Z" fill="#FF651D"/>
</g>
<defs>
<clipPath id="clip0_5662_1640">
<rect width="328.7" height="302.647" fill="white" transform="translate(0.575195 0.30127)"/>
</clipPath>
</defs>
</svg>
