<svg width="25" height="43" viewBox="0 0 25 43" fill="none" xmlns="http://www.w3.org/2000/svg">
<path d="M0 3.60005C0 1.6118 1.6118 0 3.60005 0C5.5883 0 7.20009 1.6118 7.20009 3.60005C7.20009 5.5883 5.5883 7.20009 3.60005 7.20009C1.6118 7.20009 0 5.5883 0 3.60005Z" fill="#ff651d"/>
<path d="M0 38.7215C0 36.7332 1.6118 35.1214 3.60005 35.1214C5.5883 35.1214 7.20009 36.7332 7.20009 38.7215C7.20009 40.7097 5.5883 42.3215 3.60005 42.3215C1.6118 42.3215 0 40.7097 0 38.7215Z" fill="#ff651d"/>
<path d="M8.7795 12.3802C8.7795 10.3919 10.3913 8.78015 12.3795 8.78015C14.3678 8.78015 15.9796 10.3919 15.9796 12.3802C15.9796 14.3684 14.3678 15.9802 12.3795 15.9802C10.3913 15.9802 8.7795 14.3684 8.7795 12.3802Z" fill="#ff651d"/>
<path d="M8.7795 29.9414C8.7795 27.9531 10.3913 26.3413 12.3795 26.3413C14.3678 26.3413 15.9796 27.9531 15.9796 29.9414C15.9796 31.9296 14.3678 33.5414 12.3795 33.5414C10.3913 33.5414 8.7795 31.9296 8.7795 29.9414Z" fill="#ff651d"/>
<path d="M17.5603 21.1618C17.5603 19.1736 19.1721 17.5618 21.1603 17.5618C23.1486 17.5618 24.7604 19.1736 24.7604 21.1618C24.7604 23.1501 23.1486 24.7619 21.1603 24.7619C19.1721 24.7619 17.5603 23.1501 17.5603 21.1618Z" fill="#ff651d"/>
</svg>