<svg xmlns="http://www.w3.org/2000/svg" width="1080" viewBox="0 0 810 810" height="1080" version="1.0"><defs><clipPath id="a"><path d="M320.95 0h60.32v60.32h-60.32Zm0 0"/></clipPath><clipPath id="b"><path d="M351.11 0a30.16 30.16 0 1 0 0 60.33 30.16 30.16 0 0 0 0-60.33Zm0 0"/></clipPath><clipPath id="c"><path d="M417.14 0h60.32v60.32h-60.32Zm0 0"/></clipPath><clipPath id="d"><path d="M447.3 0a30.16 30.16 0 1 0 0 60.32 30.16 30.16 0 0 0 0-60.32Zm0 0"/></clipPath><clipPath id="e"><path d="M213.18 97.21h60.32v60.33h-60.32Zm0 0"/></clipPath><clipPath id="f"><path d="M243.34 97.21a30.16 30.16 0 1 0 0 60.32 30.16 30.16 0 0 0 0-60.32Zm0 0"/></clipPath><clipPath id="g"><path d="M320.95 97.21h60.32v60.33h-60.32Zm0 0"/></clipPath><clipPath id="h"><path d="M351.11 97.21a30.16 30.16 0 1 0 0 60.32 30.16 30.16 0 0 0 0-60.32Zm0 0"/></clipPath><clipPath id="i"><path d="M428.73 97.21h60.32v60.33h-60.32Zm0 0"/></clipPath><clipPath id="j"><path d="M458.89 97.21a30.16 30.16 0 1 0 0 60.32 30.16 30.16 0 0 0 0-60.32Zm0 0"/></clipPath><clipPath id="k"><path d="M536.5 97.21h60.32v60.33H536.5Zm0 0"/></clipPath><clipPath id="l"><path d="M566.66 97.21a30.16 30.16 0 1 0 0 60.32 30.16 30.16 0 0 0 0-60.32Zm0 0"/></clipPath><clipPath id="m"><path d="M213.18 194.94h60.32v60.32h-60.32Zm0 0"/></clipPath><clipPath id="n"><path d="M243.34 194.94a30.16 30.16 0 1 0 0 60.32 30.16 30.16 0 0 0 0-60.32Zm0 0"/></clipPath><clipPath id="o"><path d="M320.95 194.94h60.32v60.32h-60.32Zm0 0"/></clipPath><clipPath id="p"><path d="M351.11 194.94a30.16 30.16 0 1 0 0 60.32 30.16 30.16 0 0 0 0-60.32Zm0 0"/></clipPath><clipPath id="q"><path d="M428.73 194.94h60.32v60.32h-60.32Zm0 0"/></clipPath><clipPath id="r"><path d="M458.89 194.94a30.16 30.16 0 1 0 0 60.32 30.16 30.16 0 0 0 0-60.32Zm0 0"/></clipPath><clipPath id="s"><path d="M536.5 194.94h60.32v60.32H536.5Zm0 0"/></clipPath><clipPath id="t"><path d="M566.66 194.94a30.16 30.16 0 1 0 0 60.32 30.16 30.16 0 0 0 0-60.32Zm0 0"/></clipPath><clipPath id="u"><path d="M320.95 292.67h60.32v60.32h-60.32Zm0 0"/></clipPath><clipPath id="v"><path d="M351.11 292.67a30.16 30.16 0 1 0 0 60.32 30.16 30.16 0 0 0 0-60.32Zm0 0"/></clipPath><clipPath id="w"><path d="M417.14 292.67h60.32v60.32h-60.32Zm0 0"/></clipPath><clipPath id="x"><path d="M447.3 292.67a30.16 30.16 0 1 0 0 60.32 30.16 30.16 0 0 0 0-60.32Zm0 0"/></clipPath><clipPath id="y"><path d="M213.18 369.3h60.32v60.33h-60.32Zm0 0"/></clipPath><clipPath id="z"><path d="M243.34 369.3a30.16 30.16 0 1 0 0 60.33 30.16 30.16 0 0 0 0-60.33Zm0 0"/></clipPath><clipPath id="A"><path d="M320.95 369.3h60.32v60.33h-60.32Zm0 0"/></clipPath><clipPath id="B"><path d="M351.11 369.3a30.16 30.16 0 1 0 0 60.33 30.16 30.16 0 0 0 0-60.33Zm0 0"/></clipPath><clipPath id="C"><path d="M428.73 369.3h60.32v60.33h-60.32Zm0 0"/></clipPath><clipPath id="D"><path d="M458.89 369.3a30.16 30.16 0 1 0 0 60.33 30.16 30.16 0 0 0 0-60.33Zm0 0"/></clipPath><clipPath id="E"><path d="M536.5 369.3h60.32v60.33H536.5Zm0 0"/></clipPath><clipPath id="F"><path d="M566.66 369.3a30.16 30.16 0 1 0 0 60.33 30.16 30.16 0 0 0 0-60.33Zm0 0"/></clipPath><clipPath id="G"><path d="M105.4 445.38h60.32v60.32H105.4Zm0 0"/></clipPath><clipPath id="H"><path d="M135.56 445.38a30.16 30.16 0 1 0 0 60.32 30.16 30.16 0 0 0 0-60.32Zm0 0"/></clipPath><clipPath id="I"><path d="M213.18 445.38h60.32v60.32h-60.32Zm0 0"/></clipPath><clipPath id="J"><path d="M243.34 445.38a30.16 30.16 0 1 0 0 60.32 30.16 30.16 0 0 0 0-60.32Zm0 0"/></clipPath><clipPath id="K"><path d="M320.95 445.38h60.32v60.32h-60.32Zm0 0"/></clipPath><clipPath id="L"><path d="M351.11 445.38a30.16 30.16 0 1 0 0 60.32 30.16 30.16 0 0 0 0-60.32Zm0 0"/></clipPath><clipPath id="M"><path d="M428.73 445.38h60.32v60.32h-60.32Zm0 0"/></clipPath><clipPath id="N"><path d="M458.89 445.38a30.16 30.16 0 1 0 0 60.32 30.16 30.16 0 0 0 0-60.32Zm0 0"/></clipPath><clipPath id="O"><path d="M536.5 445.38h60.32v60.32H536.5Zm0 0"/></clipPath><clipPath id="P"><path d="M566.66 445.38a30.16 30.16 0 1 0 0 60.32 30.16 30.16 0 0 0 0-60.32Zm0 0"/></clipPath><clipPath id="Q"><path d="M644.28 445.38h60.32v60.32h-60.32Zm0 0"/></clipPath><clipPath id="R"><path d="M674.44 445.38a30.16 30.16 0 1 0 0 60.32 30.16 30.16 0 0 0 0-60.32Zm0 0"/></clipPath><clipPath id="S"><path d="M105.4 521.45h60.32v60.33H105.4Zm0 0"/></clipPath><clipPath id="T"><path d="M135.56 521.45a30.16 30.16 0 1 0 0 60.33 30.16 30.16 0 0 0 0-60.33Zm0 0"/></clipPath><clipPath id="U"><path d="M213.18 521.45h60.32v60.33h-60.32Zm0 0"/></clipPath><clipPath id="V"><path d="M243.34 521.45a30.16 30.16 0 1 0 0 60.33 30.16 30.16 0 0 0 0-60.33Zm0 0"/></clipPath><clipPath id="W"><path d="M320.95 521.45h60.32v60.33h-60.32Zm0 0"/></clipPath><clipPath id="X"><path d="M351.11 521.45a30.16 30.16 0 1 0 0 60.33 30.16 30.16 0 0 0 0-60.33Zm0 0"/></clipPath><clipPath id="Y"><path d="M428.73 521.45h60.32v60.33h-60.32Zm0 0"/></clipPath><clipPath id="Z"><path d="M458.89 521.45a30.16 30.16 0 1 0 0 60.33 30.16 30.16 0 0 0 0-60.33Zm0 0"/></clipPath><clipPath id="aa"><path d="M536.5 521.45h60.32v60.33H536.5Zm0 0"/></clipPath><clipPath id="ab"><path d="M566.66 521.45a30.16 30.16 0 1 0 0 60.33 30.16 30.16 0 0 0 0-60.33Zm0 0"/></clipPath><clipPath id="ac"><path d="M644.28 521.45h60.32v60.33h-60.32Zm0 0"/></clipPath><clipPath id="ad"><path d="M674.44 521.45a30.16 30.16 0 1 0 0 60.33 30.16 30.16 0 0 0 0-60.33Zm0 0"/></clipPath><clipPath id="ae"><path d="M105.4 597.53h60.32v60.32H105.4Zm0 0"/></clipPath><clipPath id="af"><path d="M135.56 597.53a30.16 30.16 0 1 0 0 60.32 30.16 30.16 0 0 0 0-60.32Zm0 0"/></clipPath><clipPath id="ag"><path d="M213.18 597.53h60.32v60.32h-60.32Zm0 0"/></clipPath><clipPath id="ah"><path d="M243.34 597.53a30.16 30.16 0 1 0 0 60.32 30.16 30.16 0 0 0 0-60.32Zm0 0"/></clipPath><clipPath id="ai"><path d="M320.95 597.53h60.32v60.32h-60.32Zm0 0"/></clipPath><clipPath id="aj"><path d="M351.11 597.53a30.16 30.16 0 1 0 0 60.32 30.16 30.16 0 0 0 0-60.32Zm0 0"/></clipPath><clipPath id="ak"><path d="M428.73 597.53h60.32v60.32h-60.32Zm0 0"/></clipPath><clipPath id="al"><path d="M458.89 597.53a30.16 30.16 0 1 0 0 60.32 30.16 30.16 0 0 0 0-60.32Zm0 0"/></clipPath><clipPath id="am"><path d="M536.5 597.53h60.32v60.32H536.5Zm0 0"/></clipPath><clipPath id="an"><path d="M566.66 597.53a30.16 30.16 0 1 0 0 60.32 30.16 30.16 0 0 0 0-60.32Zm0 0"/></clipPath><clipPath id="ao"><path d="M644.28 597.53h60.32v60.32h-60.32Zm0 0"/></clipPath><clipPath id="ap"><path d="M674.44 597.53a30.16 30.16 0 1 0 0 60.32 30.16 30.16 0 0 0 0-60.32Zm0 0"/></clipPath><clipPath id="aq"><path d="M105.4 673.6h60.32v60.33H105.4Zm0 0"/></clipPath><clipPath id="ar"><path d="M135.56 673.6a30.16 30.16 0 1 0 0 60.33 30.16 30.16 0 0 0 0-60.33Zm0 0"/></clipPath><clipPath id="as"><path d="M213.18 673.6h60.32v60.33h-60.32Zm0 0"/></clipPath><clipPath id="at"><path d="M243.34 673.6a30.16 30.16 0 1 0 0 60.33 30.16 30.16 0 0 0 0-60.33Zm0 0"/></clipPath><clipPath id="au"><path d="M320.95 673.6h60.32v60.33h-60.32Zm0 0"/></clipPath><clipPath id="av"><path d="M351.11 673.6a30.16 30.16 0 1 0 0 60.33 30.16 30.16 0 0 0 0-60.33Zm0 0"/></clipPath><clipPath id="aw"><path d="M428.73 673.6h60.32v60.33h-60.32Zm0 0"/></clipPath><clipPath id="ax"><path d="M458.89 673.6a30.16 30.16 0 1 0 0 60.33 30.16 30.16 0 0 0 0-60.33Zm0 0"/></clipPath><clipPath id="ay"><path d="M536.5 673.6h60.32v60.33H536.5Zm0 0"/></clipPath><clipPath id="az"><path d="M566.66 673.6a30.16 30.16 0 1 0 0 60.33 30.16 30.16 0 0 0 0-60.33Zm0 0"/></clipPath><clipPath id="aA"><path d="M644.28 673.6h60.32v60.33h-60.32Zm0 0"/></clipPath><clipPath id="aB"><path d="M674.44 673.6a30.16 30.16 0 1 0 0 60.33 30.16 30.16 0 0 0 0-60.33Zm0 0"/></clipPath><clipPath id="aC"><path d="M213.18 749.68h60.32V810h-60.32Zm0 0"/></clipPath><clipPath id="aD"><path d="M243.34 749.68a30.16 30.16 0 1 0 0 60.32 30.16 30.16 0 0 0 0-60.32Zm0 0"/></clipPath><clipPath id="aE"><path d="M320.95 749.68h60.32V810h-60.32Zm0 0"/></clipPath><clipPath id="aF"><path d="M351.11 749.68a30.16 30.16 0 1 0 0 60.32 30.16 30.16 0 0 0 0-60.32Zm0 0"/></clipPath><clipPath id="aG"><path d="M428.73 749.68h60.32V810h-60.32Zm0 0"/></clipPath><clipPath id="aH"><path d="M458.89 749.68a30.16 30.16 0 1 0 0 60.32 30.16 30.16 0 0 0 0-60.32Zm0 0"/></clipPath><clipPath id="aI"><path d="M536.5 749.68h60.32V810H536.5Zm0 0"/></clipPath><clipPath id="aJ"><path d="M566.66 749.68a30.16 30.16 0 1 0 0 60.32 30.16 30.16 0 0 0 0-60.32Zm0 0"/></clipPath></defs><g clip-path="url(#a)"><g clip-path="url(#b)"><path fill="#ff651d" d="M320.95 0h60.32v60.32h-60.32Zm0 0"/></g></g><g clip-path="url(#c)"><g clip-path="url(#d)"><path fill="#ff651d" d="M417.14 0h60.32v60.32h-60.32Zm0 0"/></g></g><g clip-path="url(#e)"><g clip-path="url(#f)"><path fill="#ff651d" d="M213.18 97.21h60.32v60.33h-60.32Zm0 0"/></g></g><g clip-path="url(#g)"><g clip-path="url(#h)"><path fill="#ff651d" d="M320.95 97.21h60.32v60.33h-60.32Zm0 0"/></g></g><g clip-path="url(#i)"><g clip-path="url(#j)"><path fill="#ff651d" d="M428.73 97.21h60.32v60.33h-60.32Zm0 0"/></g></g><g clip-path="url(#k)"><g clip-path="url(#l)"><path fill="#ff651d" d="M536.5 97.21h60.32v60.33H536.5Zm0 0"/></g></g><g clip-path="url(#m)"><g clip-path="url(#n)"><path fill="#ff651d" d="M213.18 194.94h60.32v60.32h-60.32Zm0 0"/></g></g><g clip-path="url(#o)"><g clip-path="url(#p)"><path fill="#ff651d" d="M320.95 194.94h60.32v60.32h-60.32Zm0 0"/></g></g><g clip-path="url(#q)"><g clip-path="url(#r)"><path fill="#ff651d" d="M428.73 194.94h60.32v60.32h-60.32Zm0 0"/></g></g><g clip-path="url(#s)"><g clip-path="url(#t)"><path fill="#ff651d" d="M536.5 194.94h60.32v60.32H536.5Zm0 0"/></g></g><g clip-path="url(#u)"><g clip-path="url(#v)"><path fill="#ff651d" d="M320.95 292.67h60.32v60.32h-60.32Zm0 0"/></g></g><g clip-path="url(#w)"><g clip-path="url(#x)"><path fill="#ff651d" d="M417.14 292.67h60.32v60.32h-60.32Zm0 0"/></g></g><g clip-path="url(#y)"><g clip-path="url(#z)"><path fill="#ff651d" d="M213.18 369.3h60.32v60.33h-60.32Zm0 0"/></g></g><g clip-path="url(#A)"><g clip-path="url(#B)"><path fill="#ff651d" d="M320.95 369.3h60.32v60.33h-60.32Zm0 0"/></g></g><g clip-path="url(#C)"><g clip-path="url(#D)"><path fill="#ff651d" d="M428.73 369.3h60.32v60.33h-60.32Zm0 0"/></g></g><g clip-path="url(#E)"><g clip-path="url(#F)"><path fill="#ff651d" d="M536.5 369.3h60.32v60.33H536.5Zm0 0"/></g></g><g clip-path="url(#G)"><g clip-path="url(#H)"><path fill="#ff651d" d="M105.4 445.38h60.32v60.32H105.4Zm0 0"/></g></g><g clip-path="url(#I)"><g clip-path="url(#J)"><path fill="#ff651d" d="M213.18 445.38h60.32v60.32h-60.32Zm0 0"/></g></g><g clip-path="url(#K)"><g clip-path="url(#L)"><path fill="#ff651d" d="M320.95 445.38h60.32v60.32h-60.32Zm0 0"/></g></g><g clip-path="url(#M)"><g clip-path="url(#N)"><path fill="#ff651d" d="M428.73 445.38h60.32v60.32h-60.32Zm0 0"/></g></g><g clip-path="url(#O)"><g clip-path="url(#P)"><path fill="#ff651d" d="M536.5 445.38h60.32v60.32H536.5Zm0 0"/></g></g><g clip-path="url(#Q)"><g clip-path="url(#R)"><path fill="#ff651d" d="M644.28 445.38h60.32v60.32h-60.32Zm0 0"/></g></g><g clip-path="url(#S)"><g clip-path="url(#T)"><path fill="#ff651d" d="M105.4 521.45h60.32v60.33H105.4Zm0 0"/></g></g><g clip-path="url(#U)"><g clip-path="url(#V)"><path fill="#ff651d" d="M213.18 521.45h60.32v60.33h-60.32Zm0 0"/></g></g><g clip-path="url(#W)"><g clip-path="url(#X)"><path fill="#ff651d" d="M320.95 521.45h60.32v60.33h-60.32Zm0 0"/></g></g><g clip-path="url(#Y)"><g clip-path="url(#Z)"><path fill="#ff651d" d="M428.73 521.45h60.32v60.33h-60.32Zm0 0"/></g></g><g clip-path="url(#aa)"><g clip-path="url(#ab)"><path fill="#ff651d" d="M536.5 521.45h60.32v60.33H536.5Zm0 0"/></g></g><g clip-path="url(#ac)"><g clip-path="url(#ad)"><path fill="#ff651d" d="M644.28 521.45h60.32v60.33h-60.32Zm0 0"/></g></g><g clip-path="url(#ae)"><g clip-path="url(#af)"><path fill="#ff651d" d="M105.4 597.53h60.32v60.32H105.4Zm0 0"/></g></g><g clip-path="url(#ag)"><g clip-path="url(#ah)"><path fill="#ff651d" d="M213.18 597.53h60.32v60.32h-60.32Zm0 0"/></g></g><g clip-path="url(#ai)"><g clip-path="url(#aj)"><path fill="#ff651d" d="M320.95 597.53h60.32v60.32h-60.32Zm0 0"/></g></g><g clip-path="url(#ak)"><g clip-path="url(#al)"><path fill="#ff651d" d="M428.73 597.53h60.32v60.32h-60.32Zm0 0"/></g></g><g clip-path="url(#am)"><g clip-path="url(#an)"><path fill="#ff651d" d="M536.5 597.53h60.32v60.32H536.5Zm0 0"/></g></g><g clip-path="url(#ao)"><g clip-path="url(#ap)"><path fill="#ff651d" d="M644.28 597.53h60.32v60.32h-60.32Zm0 0"/></g></g><g clip-path="url(#aq)"><g clip-path="url(#ar)"><path fill="#ff651d" d="M105.4 673.6h60.32v60.33H105.4Zm0 0"/></g></g><g clip-path="url(#as)"><g clip-path="url(#at)"><path fill="#ff651d" d="M213.18 673.6h60.32v60.33h-60.32Zm0 0"/></g></g><g clip-path="url(#au)"><g clip-path="url(#av)"><path fill="#ff651d" d="M320.95 673.6h60.32v60.33h-60.32Zm0 0"/></g></g><g clip-path="url(#aw)"><g clip-path="url(#ax)"><path fill="#ff651d" d="M428.73 673.6h60.32v60.33h-60.32Zm0 0"/></g></g><g clip-path="url(#ay)"><g clip-path="url(#az)"><path fill="#ff651d" d="M536.5 673.6h60.32v60.33H536.5Zm0 0"/></g></g><g clip-path="url(#aA)"><g clip-path="url(#aB)"><path fill="#ff651d" d="M644.28 673.6h60.32v60.33h-60.32Zm0 0"/></g></g><g clip-path="url(#aC)"><g clip-path="url(#aD)"><path fill="#ff651d" d="M213.18 749.68h60.32V810h-60.32Zm0 0"/></g></g><g clip-path="url(#aE)"><g clip-path="url(#aF)"><path fill="#ff651d" d="M320.95 749.68h60.32V810h-60.32Zm0 0"/></g></g><g clip-path="url(#aG)"><g clip-path="url(#aH)"><path fill="#ff651d" d="M428.73 749.68h60.32V810h-60.32Zm0 0"/></g></g><g clip-path="url(#aI)"><g clip-path="url(#aJ)"><path fill="#ff651d" d="M536.5 749.68h60.32V810H536.5Zm0 0"/></g></g></svg>