<svg xmlns="http://www.w3.org/2000/svg" xmlns:xlink="http://www.w3.org/1999/xlink" width="2048" zoomAndPan="magnify" viewBox="0 0 1536 175.5" height="234" preserveAspectRatio="xMidYMid meet" version="1.0"><defs><g/><clipPath id="0f4fd0878d"><path d="M 42 0 L 224 0 L 224 174.753906 L 42 174.753906 Z M 42 0 " clip-rule="nonzero"/></clipPath><clipPath id="aabdd4fa7b"><path d="M 321 0 L 348 0 L 348 175 L 321 175 Z M 321 0 " clip-rule="nonzero"/></clipPath><clipPath id="a1ec6c6318"><path d="M 1267 0 L 1491 0 L 1491 175 L 1267 175 Z M 1267 0 " clip-rule="nonzero"/></clipPath></defs><g clip-path="url(#0f4fd0878d)"><path fill="#ffffff" d="M 43.058594 175.25 L 43.058594 124.960938 C 43.058594 103.707031 56.761719 84.652344 76.859375 77.527344 C 82.339844 75.582031 87.949219 74.675781 93.691406 74.675781 L 172.90625 74.675781 C 186.480469 74.675781 197.703125 63.65625 197.832031 50.179688 C 197.832031 50.046875 197.832031 50.046875 197.832031 49.917969 C 197.832031 49.789062 197.832031 49.789062 197.832031 49.660156 C 197.703125 36.179688 186.609375 25.164062 172.90625 25.164062 L 42.925781 25.164062 L 42.925781 -0.5 L 172.90625 -0.5 C 178.648438 -0.5 184.390625 0.539062 189.742188 2.351562 C 209.839844 9.480469 223.542969 28.535156 223.542969 49.789062 C 223.542969 58.601562 221.191406 67.15625 216.886719 74.542969 C 211.667969 83.746094 203.445312 91.265625 193.394531 95.800781 L 192.875 96.058594 C 192.613281 96.1875 192.222656 96.320312 191.960938 96.449219 L 223.542969 175.25 L 195.746094 175.25 L 165.597656 100.207031 L 93.300781 100.207031 C 79.730469 100.207031 68.507812 111.222656 68.375 124.703125 C 68.375 124.832031 68.375 124.832031 68.375 124.960938 L 68.375 175.25 Z M 43.058594 175.25 " fill-opacity="1" fill-rule="nonzero"/></g><g clip-path="url(#aabdd4fa7b)"><path fill="#ffffff" d="M 321.660156 -0.25 L 347.5 -0.25 L 347.5 175.5 L 321.660156 175.5 Z M 321.660156 -0.25 " fill-opacity="1" fill-rule="nonzero"/></g><g clip-path="url(#a1ec6c6318)"><path fill="#ffffff" d="M 1267.007812 175.5 L 1322.34375 37.726562 C 1331.738281 14.398438 1353.269531 -0.25 1378.589844 -0.25 C 1403.90625 -0.25 1425.570312 14.265625 1434.835938 37.726562 L 1490.167969 175.5 L 1462.371094 175.5 L 1410.953125 47.1875 C 1405.472656 33.578125 1393.335938 25.414062 1378.589844 25.414062 C 1363.84375 25.414062 1351.703125 33.578125 1346.222656 47.1875 L 1294.804688 175.5 Z M 1267.007812 175.5 " fill-opacity="1" fill-rule="nonzero"/></g><g fill="#ffffff" fill-opacity="1"><g transform="translate(451.695032, 174.004255)"><g><path d="M 294.328125 -127.609375 C 294.328125 -134.128906 292.179688 -139.53125 287.890625 -143.8125 C 283.609375 -148.101562 278.207031 -150.25 271.6875 -150.25 L 73.0625 -150.25 C 66.71875 -150.25 61.359375 -148.101562 56.984375 -143.8125 C 52.609375 -139.53125 50.421875 -134.128906 50.421875 -127.609375 L 50.421875 0 L 20.578125 0 L 20.578125 -127.609375 C 20.578125 -137.734375 22.847656 -146.738281 27.390625 -154.625 C 31.941406 -162.519531 38.160156 -168.738281 46.046875 -173.28125 C 53.941406 -177.820312 62.945312 -180.09375 73.0625 -180.09375 L 271.6875 -180.09375 C 281.8125 -180.09375 290.816406 -177.820312 298.703125 -173.28125 C 306.585938 -168.738281 312.800781 -162.519531 317.34375 -154.625 C 321.894531 -146.738281 324.171875 -137.734375 324.171875 -127.609375 L 324.171875 0 L 294.328125 0 Z M 294.328125 -127.609375 "/></g></g></g><g fill="#ffffff" fill-opacity="1"><g transform="translate(855.616159, 174.004255)"><g><path d="M 294.328125 -127.609375 C 294.328125 -134.128906 292.179688 -139.53125 287.890625 -143.8125 C 283.609375 -148.101562 278.207031 -150.25 271.6875 -150.25 L 73.0625 -150.25 C 66.71875 -150.25 61.359375 -148.101562 56.984375 -143.8125 C 52.609375 -139.53125 50.421875 -134.128906 50.421875 -127.609375 L 50.421875 0 L 20.578125 0 L 20.578125 -127.609375 C 20.578125 -137.734375 22.847656 -146.738281 27.390625 -154.625 C 31.941406 -162.519531 38.160156 -168.738281 46.046875 -173.28125 C 53.941406 -177.820312 62.945312 -180.09375 73.0625 -180.09375 L 271.6875 -180.09375 C 281.8125 -180.09375 290.816406 -177.820312 298.703125 -173.28125 C 306.585938 -168.738281 312.800781 -162.519531 317.34375 -154.625 C 321.894531 -146.738281 324.171875 -137.734375 324.171875 -127.609375 L 324.171875 0 L 294.328125 0 Z M 294.328125 -127.609375 "/></g></g></g></svg>