<?xml version="1.0" encoding="UTF-8"?>
<svg xmlns="http://www.w3.org/2000/svg" version="1.1" xmlns:xlink="http://www.w3.org/1999/xlink" viewBox="0 0 500 500">
  <defs>
    <style>
      .cls-1 {
        fill: url(#linear-gradient-2);
      }

      .cls-2 {
        fill: #f9b79f;
        opacity: .5;
      }

      .cls-3 {
        fill: none;
        stroke: #231f20;
        stroke-miterlimit: 10;
      }

      .cls-4 {
        fill: url(#linear-gradient);
      }
    </style>
    <linearGradient id="linear-gradient" x1="-.19" y1="272.89" x2="280.77" y2="272.89" gradientUnits="userSpaceOnUse">
      <stop offset="0" stop-color="#fff"/>
      <stop offset="0" stop-color="#c8c8c8"/>
      <stop offset=".14" stop-color="#c9c4c3"/>
      <stop offset=".3" stop-color="#ccbbb6"/>
      <stop offset=".46" stop-color="#d1ab9f"/>
      <stop offset=".63" stop-color="#d99580"/>
      <stop offset=".81" stop-color="#e27958"/>
      <stop offset=".98" stop-color="#ee5728"/>
      <stop offset="1" stop-color="#f05423"/>
    </linearGradient>
    <linearGradient id="linear-gradient-2" x1="-.46" y1="272.64" x2="280.51" y2="272.64" gradientTransform="translate(499.92 499.54) rotate(179.95)" gradientUnits="userSpaceOnUse">
      <stop offset="0" stop-color="#fff"/>
      <stop offset="0" stop-color="#c8c8c8"/>
      <stop offset=".13" stop-color="#c9c4c2"/>
      <stop offset=".29" stop-color="#ccb9b3"/>
      <stop offset=".47" stop-color="#d3a79a"/>
      <stop offset=".65" stop-color="#db8f77"/>
      <stop offset=".85" stop-color="#e66f4a"/>
      <stop offset="1" stop-color="#f05423"/>
    </linearGradient>
  </defs>
  <!-- Generator: Adobe Illustrator 28.7.1, SVG Export Plug-In . SVG Version: 1.2.0 Build 142)  -->
  <g>
    <g id="Layer_1">
      <g>
        <path class="cls-3" d="M90.82,354.57"/>
        <path class="cls-4" d="M280.77,345.05l-.05-.05c-22.32-25.38-54.85-40.54-91.36-40.54-12.26,0-24.14,1.83-35.33,5.22-23.93,7.21-44.79,21.62-60.01,40.71-.43-.59-.91-1.24-.91-1.24,0,0-59.47-82.7-83.46-115.99C3.57,224.76-.19,219.49-.19,219.49c27.64-15.33,59.47-24.09,93.3-24.09,91.9,0,168.58,63.51,187.67,149.65Z"/>
        <path class="cls-2" d="M259.22,482c2.92-11.67,5.84-27.86,5.84-40.47,0-64.15-55.38-112.45-111.04-131.86,11.18-3.39,23.07-5.22,35.33-5.22,36.51,0,69.04,15.16,91.36,40.54,3.17,13.55,4.84,27.59,4.84,42,0,34.83-9.75,67.55-26.9,95.95"/>
        <path class="cls-3" d="M280.5,344.09"/>
        <path class="cls-3" d="M313.65,316.79"/>
        <path class="cls-3" d="M409.06,145.29"/>
        <path class="cls-1" d="M219.13,154.96l.05.05c22.34,25.36,54.88,40.5,91.39,40.47,12.26-.01,24.14-1.85,35.32-5.25,23.92-7.23,44.77-21.65,59.98-40.76.43.59.92,1.24.92,1.24,0,0,59.54,82.65,83.55,115.92,6.08,8.38,9.85,13.65,9.85,13.65-27.63,15.35-59.45,24.14-93.28,24.17-91.9.08-168.63-63.36-187.79-149.49Z"/>
        <path class="cls-2" d="M240.56,18.01c-2.91,11.67-5.82,27.86-5.81,40.47.05,64.15,55.48,112.4,111.15,131.76-11.18,3.4-23.06,5.24-35.32,5.25-36.51.03-69.06-15.11-91.39-40.47-3.18-13.55-4.86-27.58-4.87-41.99-.03-34.83,9.7-67.56,26.82-95.97"/>
      </g>
    </g>
  </g>
</svg>